<?xml version="1.0" encoding="UTF-8" standalone="no"?>
<!-- Created with Inkscape (http://www.inkscape.org/) -->

<svg
   xmlns:dc="http://purl.org/dc/elements/1.1/"
   xmlns:cc="http://creativecommons.org/ns#"
   xmlns:rdf="http://www.w3.org/1999/02/22-rdf-syntax-ns#"
   xmlns:svg="http://www.w3.org/2000/svg"
   xmlns="http://www.w3.org/2000/svg"
   xmlns:sodipodi="http://sodipodi.sourceforge.net/DTD/sodipodi-0.dtd"
   xmlns:inkscape="http://www.inkscape.org/namespaces/inkscape"
   id="svg2"
   version="1.1"
   inkscape:version="0.91 r13725"
   xml:space="preserve"
   width="170.75"
   height="157.5"
   viewBox="0 0 170.75 157.5"
   sodipodi:docname="chap3fig5.svg"><metadata
     id="metadata8"><rdf:RDF><cc:Work
         rdf:about=""><dc:format>image/svg+xml</dc:format><dc:type
           rdf:resource="http://purl.org/dc/dcmitype/StillImage" /><dc:title></dc:title></cc:Work></rdf:RDF></metadata><defs
     id="defs6" /><sodipodi:namedview
     pagecolor="#ffffff"
     bordercolor="#666666"
     borderopacity="1"
     objecttolerance="10"
     gridtolerance="10"
     guidetolerance="10"
     inkscape:pageopacity="0"
     inkscape:pageshadow="2"
     inkscape:window-width="1024"
     inkscape:window-height="744"
     id="namedview4"
     showgrid="false"
     inkscape:zoom="5.2353632"
     inkscape:cx="125.10147"
     inkscape:cy="15.938981"
     inkscape:window-x="0"
     inkscape:window-y="24"
     inkscape:window-maximized="1"
     inkscape:current-layer="g10" /><g
     id="g10"
     inkscape:groupmode="layer"
     inkscape:label="ink_ext_XXXXXX"
     transform="matrix(1.25,0,0,-1.25,0,157.5)"><g
       id="g12"
       transform="matrix(0.1,0,0,0.1,2.5932203,14.694915)"><path
         d="m 372.699,918.59 0,-165.699"
         style="fill:none;stroke:#000000;stroke-width:11;stroke-linecap:butt;stroke-linejoin:miter;stroke-miterlimit:4;stroke-dasharray:none;stroke-opacity:1"
         id="path14"
         inkscape:connector-curvature="0" /><path
         d="m 74.6094,996.949 0,-9.648 21.9922,0 c 4.5274,0 9.0584,0.429 13.3204,-1.641 5.777,-2.89 11.289,-9.762 8.398,-16.48 -0.429,-0.821 -0.82,-1.641 -1.371,-2.34 -5.39,-6.059 -16.359,-0.82 -18.1599,5.89 l -0.1172,0 c -1.9531,-5.89 -8.0117,-8.902 -13.9024,-8.511 -2.6211,0.152 -6.8789,1.371 -7.3086,4.41 -0.2695,2.191 1.8008,4.101 3.5899,4.812 3.289,1.25 7.039,-0.82 7.039,-4.531 0.5391,0 1.4805,-0.16 1.9102,0.11 0.2695,0.16 0.3906,0.82 0.5508,1.101 0.3906,1.399 0.6601,2.5 0.1094,3.859 -0.6602,2.192 -2.7305,3.711 -4.9219,4.418 -4.957,1.372 -9.918,-2.226 -10.8594,-7.027 -1.6797,-7.543 3.5625,-18.832 12.5,-17.742 0.9805,0 1.9219,0.281 2.8906,0.711 1.9219,0.82 3.5586,2.18 4.961,3.711 1.4883,1.91 3.1679,4.527 3.4414,6.988 l 0.1172,0 c 0.1601,-1.519 0.9804,-3.168 1.8009,-4.379 3.281,-5.93 10.859,-9.762 16.91,-5.23 3.012,2.34 4.648,6.172 5.23,9.761 0.942,6.18 -0.699,12.231 -4.839,16.918 -1.762,2.032 -4.653,4.532 -7.27,5.082 l 0,0.11 2.348,0 0,9.648 -38.3596,0 z"
         style="fill:#000000;fill-opacity:1;fill-rule:nonzero;stroke:none"
         id="path16"
         inkscape:connector-curvature="0" /><path
         d="m 112.77,1010.55 c 0.82,-0.12 1.64,-0.28 2.46,-0.67 4.418,-2.22 4.032,-8.12 0.86,-11.13 -2.891,-2.77 -8,-1.801 -11.559,-1.801 l 0,-9.648 c 5.508,0 10.699,-0.27 15,4.027 5.899,5.902 5.078,18.282 -3.441,21.442 -3.711,1.37 -9.102,0.39 -11.168,-3.16 -2.031,-3.44 0,-8.28 4.137,-8.67 3.32,-0.43 6.062,2.61 5.632,6.05 -0.121,1.37 -1.101,2.46 -1.921,3.56 z"
         style="fill:#000000;fill-opacity:1;fill-rule:nonzero;stroke:none"
         id="path18"
         inkscape:connector-curvature="0" /><path
         d="m 119.449,970.82 c 0,-1.25 -0.109,-2.621 0.16,-3.871 0.391,-1.64 1.371,-3.121 2.071,-4.648 3.281,-5.231 9.058,-10.031 15.66,-8.512 1.371,0.27 2.461,0.82 3.558,1.481 0.864,0.55 1.68,1.371 2.34,2.23 4.813,5.621 0.551,12.77 1.532,19.371 0.429,3.438 3.429,6.609 6.32,8.25 6.449,3.981 15.281,2.18 20.469,-2.891 2.351,-2.46 4.261,-5.789 3.992,-9.218 -0.121,-1.211 -0.281,-2.461 -0.821,-3.563 -1.921,-4.258 -7,-5.621 -11.41,-5.23 -1.8,0.152 -3.55,0.429 -5.23,1.519 -1.918,1.211 -3.168,3.711 -2.891,6.063 0.422,2.609 3.321,4.25 5.781,3.711 -0.55,-0.821 -1.64,-2.071 -1.761,-3.051 -0.699,-2.34 2.301,-4.531 4.371,-4.801 4.808,-0.281 7.582,5.07 5.359,9.059 -0.551,1.133 -1.488,2.07 -2.578,2.769 -4.57,2.621 -10.75,-0.968 -12.93,-5.078 -0.98,-2.07 -1.101,-4.14 -0.98,-6.211 0.269,-5.347 1.918,-11.679 7.309,-14.019 1.21,-0.391 2.609,-0.66 3.98,-0.66 1.762,0 3.551,0.269 5.199,0.82 4.571,1.91 7.301,6.871 8.551,11.398 2.891,11.133 -0.82,23.91 -11.68,29.301 -2.07,1.09 -4.691,1.762 -7.031,1.91 -2.461,0 -4.961,-0.148 -7.309,-0.969 -5.621,-1.921 -10.308,-7 -10.699,-12.929 -0.16,-2.742 0.547,-5.629 0.821,-8.52 0.16,-1.371 0.277,-2.89 0,-4.261 -0.274,-0.969 -0.821,-1.911 -1.25,-2.61 -3.551,-4.422 -9.493,-4.14 -14.024,-1.922 -1.637,0.821 -3.168,1.922 -4.527,3.012 -0.821,0.699 -1.531,1.52 -2.352,2.07 z"
         style="fill:#000000;fill-opacity:1;fill-rule:nonzero;stroke:none"
         id="path20"
         inkscape:connector-curvature="0" /><path
         d="m 187.191,996.949 0,-9.648 21.289,0 c 0.969,0 2.071,0.16 2.891,0 2.07,-0.539 4.25,-1.91 5.93,-3.16 5.078,-3.551 8.91,-10.981 4.929,-16.871 -0.82,-1.411 -2.191,-2.622 -3.832,-3.051 -3.988,-0.981 -8.519,1.91 -10.738,5.082 -1.488,2.769 -2.191,5.66 -4.262,8.121 -2.187,2.617 -6.168,5.078 -9.769,3.707 -2.457,-1.09 -4.098,-3.551 -5.231,-6.051 -2.027,-5.348 -1.488,-12.109 0.582,-17.308 0.942,-2.77 2.739,-5.93 5.469,-6.872 1.102,-0.429 2.781,-0.429 3.871,0 2.071,0.821 2.731,3.161 2.071,5.192 -0.7,2.23 -2.77,2.89 -4.692,3.601 -1.789,0.821 -3.429,1.789 -4.527,3.43 -1.91,2.617 -0.973,5.508 1.918,7 1.91,0.969 4.41,0.969 6.601,0.43 2.34,-0.551 4.688,-1.922 6.047,-3.992 0.711,-1.09 1.102,-2.457 1.641,-3.707 0.82,-1.911 1.922,-3.711 3.172,-5.352 2.179,-2.77 5.347,-4.84 8.937,-3.59 3.711,1.25 5.903,5.231 6.992,8.668 2.5,7.692 1.25,15.942 -5.07,21.293 -1.371,1.25 -3.289,2.891 -5.082,3.32 l 0,0.11 0.274,0 0,9.648 -29.411,0 z"
         style="fill:#000000;fill-opacity:1;fill-rule:nonzero;stroke:none"
         id="path22"
         inkscape:connector-curvature="0" /><path
         d="m 217.539,1010.55 c 0.82,-0.12 1.68,-0.28 2.5,-0.67 4.371,-2.22 3.981,-8.12 0.82,-11.13 -2.89,-2.77 -7.968,-1.801 -11.558,-1.801 l 0,-9.648 c 5.5,0 10.738,-0.27 15,4.027 5.898,5.902 5.078,18.282 -3.442,21.442 -3.711,1.37 -9.058,0.39 -11.129,-3.16 -2.07,-3.44 0,-8.28 4.098,-8.67 3.32,-0.43 6.051,2.61 5.66,6.05 -0.148,1.37 -1.129,2.46 -1.949,3.56 z"
         style="fill:#000000;fill-opacity:1;fill-rule:nonzero;stroke:none"
         id="path24"
         inkscape:connector-curvature="0" /><path
         d="m 251.328,996.801 c -13.316,-1.762 -19.098,-17.461 -15.387,-29.141 2.61,-8.25 10.039,-15.121 19.098,-14.031 14.02,1.641 19.371,20.082 14.18,31.641 -3.168,6.878 -9.918,12.621 -17.891,11.531 z m 0.274,-9.5 c 7.308,0.859 16.488,-3.551 16.488,-11.789 0,-1.102 -0.121,-2.231 -0.391,-3.172 -0.551,-1.25 -1.25,-2.34 -2.187,-3.32 -0.981,-1.09 -2.352,-2.18 -3.711,-2.891 -1.961,-1.09 -4.031,-1.641 -6.211,-1.91 -4.418,-0.547 -9.07,0.551 -12.66,3.16 -4.649,3.711 -6.051,10.199 -1.91,14.851 1.25,1.25 2.46,2.34 3.98,3.161 2.07,1.089 4.41,1.64 6.602,1.91 z"
         style="fill:#000000;fill-opacity:1;fill-rule:nonzero;stroke:none"
         id="path26"
         inkscape:connector-curvature="0" /><path
         d="m 273.789,996.949 0,-9.648 c 1.52,0 3.441,0.277 4.961,-0.11 1.25,-0.16 2.461,-0.98 3.441,-1.531 2.188,-1.359 4.137,-3 5.618,-5.07 3.441,-4.539 3.171,-10.86 -1.481,-14.461 -0.816,-0.66 -1.797,-1.207 -2.887,-1.641 -4.961,-1.519 -11.41,1.25 -14.461,5.352 0,-1.481 -0.269,-3.281 0,-4.801 0.161,-0.937 0.711,-1.918 1.098,-2.738 1.094,-2.071 2.621,-3.86 4.531,-5.5 1.25,-0.981 2.77,-1.922 4.411,-2.461 1.64,-0.711 3.32,-0.82 5.082,-0.82 9.648,0.269 14.449,11.949 12.378,20.191 -0.66,2.891 -2.179,5.629 -4.25,7.848 -1.921,2.191 -4.808,4.812 -7.699,5.632 l 0,0.11 2.188,0 0,9.648 -12.93,0 z"
         style="fill:#000000;fill-opacity:1;fill-rule:nonzero;stroke:none"
         id="path28"
         inkscape:connector-curvature="0" /><path
         d="m 289.301,1009.61 0,-0.16 c 1.09,-1.09 2.34,-2.46 2.89,-3.98 1.25,-3.44 -0.941,-6.72 -4.101,-8.13 -1.25,-0.539 -2.781,-0.391 -4.141,-0.391 l -5.359,0 0,-9.648 c 3.289,0 7,-0.539 10.16,0.429 5.781,1.918 8.949,8.52 8.129,14.3 -0.43,2.74 -1.801,5.51 -3.719,7.58 -0.43,0.39 -1.359,1.64 -1.91,1.64 -0.699,0 -1.52,-1.25 -1.949,-1.64 z"
         style="fill:#000000;fill-opacity:1;fill-rule:nonzero;stroke:none"
         id="path30"
         inkscape:connector-curvature="0" /><path
         d="m 300.391,996.949 0,-9.648 c 1.519,0 3.437,0.277 4.961,-0.11 1.207,-0.16 2.457,-0.98 3.437,-1.531 2.191,-1.359 4.102,-3 5.621,-5.07 3.442,-4.539 3.168,-10.86 -1.519,-14.461 -0.821,-0.66 -1.762,-1.207 -2.891,-1.641 -4.922,-1.519 -11.41,1.25 -14.41,5.352 0,-1.481 -0.281,-3.281 0,-4.801 0.109,-0.937 0.66,-1.918 1.09,-2.738 1.09,-2.071 2.621,-3.86 4.531,-5.5 1.25,-0.981 2.769,-1.922 4.41,-2.461 1.649,-0.711 3.289,-0.82 5.078,-0.82 9.61,0.269 14.461,11.949 12.391,20.191 -0.711,2.891 -2.192,5.629 -4.262,7.848 -1.949,2.191 -4.808,4.812 -7.699,5.632 l 0,0.11 2.191,0 0,9.648 -12.929,0 z"
         style="fill:#000000;fill-opacity:1;fill-rule:nonzero;stroke:none"
         id="path32"
         inkscape:connector-curvature="0" /><path
         d="m 302.578,996.949 0,-9.648 22.383,0 c 3.867,0 7.848,0.277 11.68,-0.11 4.961,-0.429 10.468,-1.371 13.75,-5.511 3.437,-4.532 2.5,-12.11 -2.032,-15.391 -3.871,-2.891 -9.769,-2.891 -13.629,-0.551 -3.281,2.071 -4.261,5.633 -2.191,8.953 0.981,1.481 2.621,3.161 4.691,2.731 -0.589,-0.551 -0.859,-1.25 -0.98,-2.07 -0.551,-2.891 2.191,-4.801 4.691,-4.653 3.161,0.281 4.918,3.129 4.258,6.172 -0.277,0.82 -0.711,1.649 -1.527,2.348 -0.703,0.82 -1.793,1.371 -2.891,1.801 -5.621,1.64 -10.312,-2.899 -11.832,-8.008 -0.551,-1.762 -0.551,-3.711 -0.277,-5.633 0.547,-5.617 3.437,-12.219 9.488,-13.59 6.488,-1.519 11.57,2.852 14.461,8.242 4.527,8.36 3.707,20.899 -2.621,28.16 -3.711,4.149 -8.672,6.219 -14.02,6.758 -2.621,0.281 -5.511,0 -8.128,0 l -25.274,0 z"
         style="fill:#000000;fill-opacity:1;fill-rule:nonzero;stroke:none"
         id="path34"
         inkscape:connector-curvature="0" /><path
         d="m 377.73,966.949 c -0.66,-1.359 -1.75,-3.008 -1.91,-4.648 0,-1.09 0.27,-2.34 0.7,-3.43 0.281,-1.101 0.941,-2.07 1.64,-2.891 0.82,-0.82 1.641,-1.531 2.738,-1.921 6.332,-2.618 12.813,3.832 11.133,10.16 -0.551,1.801 -1.48,3.32 -2.621,4.691 4.969,1.36 11.57,3.16 13.211,8.781 0.859,2.899 -0.391,5.629 -2.582,7.579 -0.859,0.82 -2.23,1.371 -2.891,2.031 -0.976,1.14 -1.527,2.89 -2.226,4.14 -0.82,1.25 -1.481,2.618 -2.344,3.989 -0.117,0.429 -0.387,1.25 -0.816,1.371 -0.672,0.269 -1.641,0.148 -2.192,0.148 l -5.082,0 0,-9.648 5.512,0 c 1.48,0 3.012,0 4.531,-0.66 0.668,-0.551 1.367,-1.09 2.071,-1.801 0.386,-0.539 0.82,-1.25 1.097,-1.91 1.641,-4.809 -2.898,-8.129 -6.758,-9.918 -0.82,-0.282 -2.461,-1.211 -3.441,-1.102 -0.551,0.16 -1.52,1.25 -2.07,1.641 -1.09,0.98 -2.578,1.679 -4.102,2.07 -3.168,0.551 -6.488,-0.391 -9.488,0.277 -4.539,1.372 -7.309,6.332 -6.488,10.743 0.308,1.371 1.128,2.339 1.679,3.55 0.547,-1.64 0.391,-3.429 1.207,-4.921 1.961,-3.43 6.762,-5.391 9.774,-1.95 2.609,3.321 2.066,8.282 -0.282,11.45 -1.91,2.57 -5.351,3.98 -8.351,2.57 -3.328,-1.641 -5.238,-5.469 -6.219,-8.789 -0.93,-3.711 -1.359,-7.852 -0.109,-11.403 2.027,-6.328 8.359,-10.199 14.679,-10.199 z m -8.628,23.242 c 1.488,2.079 4.257,2.348 6.449,1.411 0.539,-0.161 2.179,-0.864 2.179,-1.411 0,-0.66 -1.48,-1.48 -1.91,-1.64 -2.621,-1.52 -4.961,-0.539 -6.718,1.64 z m 17.308,-21.832 c 0.539,0 0.969,-0.55 1.25,-0.98 1.211,-1.09 1.91,-2.188 1.641,-3.859 -0.551,-2.192 -3.012,-3.442 -5.082,-3.29 -2.071,0.161 -5.508,2.348 -4.258,4.809 0.551,1.641 3.277,2.34 4.809,2.891 0.539,0.269 1.089,0.55 1.64,0.429 z"
         style="fill:#000000;fill-opacity:1;fill-rule:nonzero;stroke:none"
         id="path36"
         inkscape:connector-curvature="0" /><path
         d="m 396.02,1009.61 0,-0.16 c 1.089,-1.09 2.339,-2.46 2.89,-3.98 1.25,-3.44 -0.98,-6.72 -4.14,-8.13 -1.219,-0.539 -2.739,-0.391 -4.11,-0.391 l -5.351,0 0,-9.648 c 3.281,0 6.992,-0.539 10.16,0.429 5.781,1.918 8.941,8.52 8.121,14.3 -0.43,2.74 -1.789,5.51 -3.711,7.58 -0.43,0.39 -1.399,1.64 -1.949,1.64 -0.66,0 -1.481,-1.25 -1.91,-1.64 z"
         style="fill:#000000;fill-opacity:1;fill-rule:nonzero;stroke:none"
         id="path38"
         inkscape:connector-curvature="0" /><path
         d="m 399.961,969.84 c -0.27,-0.539 -0.16,-1.211 -0.16,-1.75 0,-2.07 0.551,-3.602 1.527,-5.512 2.891,-5.508 9.332,-11.406 16.094,-8.238 3.707,1.75 6.328,5.738 7.578,9.762 2.73,8.089 1.641,18.558 -4.301,25.16 -2.578,2.886 -6.008,4.797 -10.039,4.797 -2.18,0 -4.371,-0.7 -5.461,-2.731 -1.527,-2.617 0.391,-5.508 3,-6.207 1.922,-0.551 3.871,-0.551 5.781,-0.98 5.508,-1.481 11.68,-5.743 9.5,-12.34 -0.429,-1.25 -1.101,-2.352 -1.921,-3.321 -5.661,-6.449 -16.789,-5.359 -21.598,1.36 z"
         style="fill:#000000;fill-opacity:1;fill-rule:nonzero;stroke:none"
         id="path40"
         inkscape:connector-curvature="0" /><path
         d="m 495.039,995.039 c 2.231,-1.129 3.981,-3.168 5.231,-5.117 4.691,-6.871 5.351,-18.012 -1.25,-23.902 -2.848,-2.5 -7.418,-2.192 -10.579,-0.282 -2.312,1.641 -4.261,4.383 -4.921,7.153 l -0.161,0 c -1.089,-3.321 -3.281,-6.481 -6.597,-7.852 -3.832,-1.801 -10.313,-0.82 -11.532,3.871 -0.699,2.61 1.649,5.07 3.442,6.711 3.437,3.598 9.18,7.578 8.629,13.09 -0.27,3.828 -2.731,7.418 -6.321,8.789 -5.359,1.91 -11.25,-1.52 -11.96,-7.148 -0.391,-2.774 1.101,-5.622 2.781,-7.692 0.539,-0.43 1.359,-1.961 2.027,-1.961 0.703,0 1.524,1.41 1.953,1.801 l 0,0.16 c -0.551,0.539 -1.25,0.93 -1.679,1.789 -0.821,1.371 0.429,3.281 1.519,4.102 2.469,1.64 6.609,0.429 6.879,-2.731 0.27,-3.441 -3.012,-6.05 -5.352,-7.968 -2.886,-2.622 -7.027,-5.231 -7.847,-9.493 -0.121,-1.25 -0.121,-2.769 0.148,-4.14 0.281,-1.641 0.942,-3.438 1.922,-4.957 1.09,-1.492 2.34,-2.742 3.859,-3.711 3.129,-2.192 7.54,-2.621 10.86,-0.942 3.711,1.911 6.879,6.442 7.269,10.582 0.981,-2.339 1.641,-4.679 3.161,-6.75 3.05,-4.261 8.519,-6.453 13.21,-3.562 1.641,0.941 2.731,2.351 3.981,3.832 3.711,5.23 4.41,12.109 3.867,18.437 -0.976,9.332 -4.527,18.442 -12.269,24.182 -3.43,2.61 -9.758,5.51 -13.039,1.4 -0.43,-0.54 -0.821,-1.09 -1.098,-1.68 -0.274,-0.93 -0.434,-1.749 -0.551,-2.73 -0.422,-5.23 3.168,-10.859 8.359,-11.679 3.598,-0.821 5.508,2.621 5.942,5.781 0.117,0.668 0.387,1.918 0.117,2.617 z m -10.59,-1.949 c 0.281,1.68 0.711,3.43 2.071,4.41 1.531,0.98 3.601,0.391 5.082,-0.27 0.546,-0.281 1.25,-0.71 1.519,-1.101 0.16,-0.539 -0.973,-1.68 -1.242,-2.07 -0.277,-0.27 -0.668,-0.7 -1.098,-0.969 -2.07,-1.649 -4.101,-0.399 -6.332,0 z"
         style="fill:#000000;fill-opacity:1;fill-rule:nonzero;stroke:none"
         id="path42"
         inkscape:connector-curvature="0" /><path
         d="m 522.379,974.691 c -2.07,-0.98 -4.02,-2.621 -5.231,-4.57 -3.597,-4.93 -3.597,-13.051 2.731,-16.062 3.711,-1.68 7.699,0.121 10.59,2.742 0.703,0.539 2.23,1.519 2.5,2.34 0,0.55 -1.52,2.07 -1.949,2.07 -0.399,-0.16 -0.668,-0.699 -1.098,-0.82 -0.543,-0.43 -1.371,-0.86 -2.07,-0.981 -2.891,-0.699 -5.473,2.192 -6.172,4.692 -0.981,3.828 1.25,6.718 4.261,8.789 0.821,0.55 2.61,1.089 3.161,1.91 -3.012,0.711 -6.172,2.621 -7.852,5.238 -0.941,1.52 -1.211,3.441 0,4.961 1.52,1.762 3.98,2.301 6.211,2.301 5.508,0 10.309,-3.551 12.23,-8.629 l 0.149,0 c 2.308,6.988 10.59,9.609 17.308,8.238 3.981,-0.82 7.582,-3.16 8.942,-7.031 0.551,-1.359 0.82,-2.891 0.82,-4.367 0,-6.211 -5.23,-11.571 -11.398,-11.684 -2.5,0 -5.082,0.543 -7.313,1.91 -1.09,0.942 -2.179,2.071 -2.179,3.563 0,3.59 4.14,4.679 6.992,3.98 1.129,-0.269 2.769,-0.941 3.039,-2.301 0.277,-0.859 -0.539,-1.679 -0.821,-2.351 0.551,-0.27 1.372,-0.82 1.918,-0.82 0.274,0.121 0.551,0.39 0.704,0.671 0.546,0.821 1.207,1.79 1.207,2.77 0,3.281 -2.457,6.871 -6.047,7.148 -4.532,0.122 -8.364,-3.437 -9.184,-7.847 -0.976,-6.063 1.481,-14.301 7.813,-16.492 6.879,-2.5 13.089,2.742 15.82,8.793 1.801,3.988 2.34,8.238 2.187,12.5 -0.269,6.328 -1.918,12.66 -6.019,17.738 -1.789,2.219 -4.41,4.14 -7.457,4.68 -6.172,1.101 -12.07,-3 -14.692,-8.399 -0.82,-1.48 -1.519,-3.281 -1.64,-4.922 -0.43,1.211 -0.578,2.313 -0.969,3.442 -0.98,2.578 -2.461,4.918 -4.422,6.718 -5.5,5.082 -14.019,4.141 -18.121,-2.187 -0.707,-1.094 -1.25,-2.5 -1.527,-3.871 -0.27,-1.52 -0.27,-3.16 0,-4.68 0.98,-4.262 4.148,-7 7.578,-9.18 z"
         style="fill:#000000;fill-opacity:1;fill-rule:nonzero;stroke:none"
         id="path44"
         inkscape:connector-curvature="0" /><path
         d="m 545.352,933.281 0,-0.121 c -3.711,-1.68 -5.782,-5.66 -5.352,-9.488 0.391,-3.871 4.531,-6.211 7.969,-4.961 1.91,0.699 3.441,2.187 4.801,3.711 -0.391,0.43 -0.821,1.098 -1.36,1.25 -0.39,0 -0.98,-0.551 -1.371,-0.82 -0.98,-0.43 -1.918,-0.43 -2.891,0 -0.546,0.269 -1.097,0.668 -1.527,1.367 -2.73,3.711 0.981,7.543 4.418,8.941 l 0,0.121 c -2.461,0.699 -6.598,2.739 -6.059,6.059 0.161,0.969 1.25,1.789 2.071,2.18 2.187,0.98 4.808,0.429 6.719,-0.54 1.531,-0.671 2.89,-1.8 3.71,-3.171 0.43,-0.539 0.711,-1.09 0.981,-1.789 0.43,0.699 0.699,1.402 1.25,2.07 1.367,1.68 3.277,2.89 5.348,3.59 5.902,1.519 13.05,-1.91 12.39,-8.668 -0.429,-4.532 -4.418,-7.313 -8.679,-7.313 -2.071,0 -5.231,0.981 -5.782,3.321 -0.816,3.558 5.903,4.808 6.883,1.8 0.27,-0.699 -0.281,-1.25 -0.551,-1.949 l 1.52,-0.551 c 0.39,0.551 0.941,1.25 1.211,2.071 0.429,2.621 -2.031,5.23 -4.641,5.347 -2.621,0.16 -4.961,-1.91 -5.789,-4.367 -0.543,-1.25 -0.543,-2.621 -0.269,-3.871 0.386,-4.262 2.738,-9.059 7.699,-9.059 0.699,0 1.25,0 2.07,0.11 4.258,0.98 6.988,5.508 7.969,9.5 1.359,6.211 0,14.019 -4.539,18.859 -3.59,3.559 -9.211,3.168 -12.653,-0.269 -1.796,-1.95 -2.738,-4.141 -3.437,-6.481 -0.699,2.18 -1.25,4.25 -2.731,6.051 -1.14,1.09 -2.351,2.187 -3.871,2.73 -3.871,1.411 -8.238,-0.113 -10.16,-3.98 -1.679,-3.441 -0.578,-7.813 2.461,-10.313 0.551,-0.386 1.371,-1.097 2.192,-1.367 z"
         style="fill:#000000;fill-opacity:1;fill-rule:nonzero;stroke:none"
         id="path46"
         inkscape:connector-curvature="0" /><path
         d="m 578.281,996.949 0,-9.648 21.989,0 c 4.57,0 9.109,0.429 13.359,-1.641 5.781,-2.89 11.25,-9.762 8.402,-16.48 -0.429,-0.821 -0.859,-1.641 -1.41,-2.34 -5.351,-6.059 -16.359,-0.82 -18.121,5.89 l -0.16,0 c -1.91,-5.89 -7.961,-8.902 -13.86,-8.511 -2.621,0.152 -6.878,1.371 -7.308,4.41 -0.274,2.191 1.797,4.101 3.598,4.812 3.281,1.25 6.992,-0.82 6.992,-4.531 0.539,0 1.519,-0.16 1.91,0.11 0.277,0.16 0.43,0.82 0.547,1.101 0.429,1.399 0.703,2.5 0.16,3.859 -0.707,2.192 -2.738,3.711 -4.969,4.418 -4.922,1.372 -9.879,-2.226 -10.859,-7.027 -1.641,-7.543 3.597,-18.832 12.539,-17.742 0.941,0 1.922,0.281 2.859,0.711 1.949,0.82 3.59,2.18 4.961,3.711 1.52,1.91 3.16,4.527 3.43,6.988 l 0.16,0 c 0.121,-1.519 0.941,-3.168 1.762,-4.379 3.316,-5.93 10.898,-9.762 16.91,-5.23 3.047,2.34 4.687,6.172 5.238,9.761 0.969,6.18 -0.672,12.231 -4.808,16.918 -1.801,2.032 -4.692,4.532 -7.301,5.082 l 0,0.11 2.34,0 0,9.648 -38.36,0 z"
         style="fill:#000000;fill-opacity:1;fill-rule:nonzero;stroke:none"
         id="path48"
         inkscape:connector-curvature="0" /><path
         d="m 619.77,1009.61 0,-0.16 c 1.089,-1.09 2.339,-2.46 2.89,-3.98 1.25,-3.44 -0.98,-6.72 -4.14,-8.13 -1.219,-0.539 -2.739,-0.391 -4.11,-0.391 l -5.351,0 0,-9.648 c 3.281,0 6.992,-0.539 10.16,0.429 5.781,1.918 8.941,8.52 8.121,14.3 -0.43,2.74 -1.789,5.51 -3.711,7.58 -0.43,0.39 -1.359,1.64 -1.949,1.64 -0.66,0 -1.481,-1.25 -1.91,-1.64 z"
         style="fill:#000000;fill-opacity:1;fill-rule:nonzero;stroke:none"
         id="path50"
         inkscape:connector-curvature="0" /><path
         d="m 623.711,969.84 c -0.27,-0.539 -0.16,-1.211 -0.16,-1.75 0,-2.07 0.59,-3.602 1.527,-5.512 2.891,-5.508 9.371,-11.406 16.094,-8.238 3.707,1.75 6.328,5.738 7.578,9.762 2.73,8.089 1.641,18.558 -4.262,25.16 -2.609,2.886 -6.047,4.797 -10.039,4.797 -2.219,0 -4.41,-0.7 -5.5,-2.731 -1.527,-2.617 0.391,-5.508 3,-6.207 1.922,-0.551 3.871,-0.551 5.781,-0.98 5.508,-1.481 11.68,-5.743 9.5,-12.34 -0.429,-1.25 -1.101,-2.352 -1.921,-3.321 -5.661,-6.449 -16.789,-5.359 -21.598,1.36 z"
         style="fill:#000000;fill-opacity:1;fill-rule:nonzero;stroke:none"
         id="path52"
         inkscape:connector-curvature="0" /><path
         d="m 647.539,936.871 c 0.391,-1.949 1.09,-3.59 2.301,-5.109 0.98,-1.211 2.23,-2.192 3.601,-2.891 3.438,-1.371 7.579,-0.391 9.879,2.609 3.051,3.872 1.41,9.219 -3.16,10.86 -1.211,0.43 -2.582,0.551 -3.832,0.43 -1.918,-0.149 -3.988,-0.27 -5.898,-0.969 1.09,1.949 2.461,5.5 1.91,7.687 -0.699,1.953 -3.43,3.442 -5.07,1.953 -1.961,-1.793 0.539,-3.589 1.089,-5.23 0.391,-0.82 0.121,-2.191 0,-3.012 -0.16,-0.699 -0.429,-1.519 -0.82,-2.219 -0.859,-1.101 -2.5,-1.64 -3.59,-2.89 -2.347,-2.469 -3.558,-5.789 -3.168,-9.219 0.27,-2.461 1.098,-4.812 2.457,-7 5.391,-7.301 17.5,-8.512 23.524,-1.519 1.25,1.25 2.066,2.617 2.769,4.136 0.117,0.672 0.938,2.352 0.547,3.012 -0.156,0.27 -0.699,0.43 -0.976,0.551 -0.274,0.148 -0.551,0.429 -0.821,0.429 -0.269,-0.16 -0.551,-0.55 -0.66,-0.71 -0.59,-0.391 -1.141,-0.93 -1.801,-1.36 -1.371,-1.101 -3.05,-1.922 -4.8,-2.469 -4.848,-1.089 -11.18,-0.82 -14.461,3.289 -1.09,1.25 -2.34,3.59 -1.789,5.348 0.429,1.684 1.64,3.043 2.769,4.293 z m 6.441,3.008 c 1.801,0.16 4.141,-0.109 5.36,-1.52 2.219,-2.461 -0.82,-4.808 -3.168,-5.199 -2.461,-0.269 -4.652,1.102 -5.352,3.559 -0.269,0.429 -0.699,1.64 -0.269,2.191 0.539,0.86 2.461,0.86 3.429,0.969 z"
         style="fill:#000000;fill-opacity:1;fill-rule:nonzero;stroke:none"
         id="path54"
         inkscape:connector-curvature="0" /><path
         d="m 121.25,705.699 0,-9.609 15.121,0 0,-0.149 c -3.562,0 -6.883,-3.832 -5.082,-7.421 1.25,-2.079 3.832,-3.168 6.172,-3.168 2.5,0 5.238,1.089 6.488,3.437 1.641,3.441 -1.679,7.031 -5.121,7.152 l 0,0.149 11.172,0 0,9.609 -28.75,0 z m 0,-43.429 2.891,0 c 0,1.089 0.121,2.07 0.66,3 2.621,6.601 11.019,7.851 16.918,5.671 2.23,-0.82 4.14,-2.23 5.511,-3.992 1.09,-1.519 1.52,-3.32 3.43,-4.14 3.051,-1.368 5.942,0 7.578,2.742 2.352,3.711 2.742,8.121 2.621,12.379 -0.269,4.14 -1.41,8.242 -3.437,11.84 -0.543,0.968 -1.25,2.46 -2.07,3.16 -0.551,0.269 -1.524,-0.27 -1.641,-0.7 -0.16,-0.55 0.391,-1.21 0.391,-1.761 0.546,-1.41 0.976,-2.778 1.367,-4.141 1.133,-3.867 0.269,-8.398 -1.09,-12.109 -0.668,-1.528 -1.649,-3.438 -3.289,-4.098 -1.09,-0.43 -2.5,0 -3.32,0.93 -0.661,0.82 -0.93,2.23 -1.481,3.168 -1.25,2.5 -3.168,4.691 -5.508,6.051 -1.25,0.55 -2.34,0.98 -3.711,1.25 -3.871,0.671 -7.691,-1.25 -10.308,-4.141 -3.871,-4.098 -5.512,-9.609 -5.512,-15.109 z"
         style="fill:#000000;fill-opacity:1;fill-rule:nonzero;stroke:none"
         id="path56"
         inkscape:connector-curvature="0" /><path
         d="m 140.621,705.699 0,-9.609 22.43,0 c 3.828,0 7.808,0.281 11.679,-0.149 4.961,-0.39 10.43,-1.371 13.75,-5.472 3.43,-4.571 2.461,-12.11 -2.07,-15.43 -3.871,-2.891 -9.769,-2.891 -13.601,-0.551 -3.321,2.071 -4.289,5.672 -2.219,8.953 0.969,1.52 2.609,3.161 4.68,2.731 -0.54,-0.551 -0.821,-1.211 -0.969,-2.031 -0.551,-2.891 2.219,-4.84 4.679,-4.692 3.168,0.281 4.969,3.172 4.258,6.172 -0.269,0.82 -0.699,1.68 -1.519,2.348 -0.668,0.82 -1.758,1.371 -2.891,1.801 -5.629,1.64 -10.308,-2.899 -11.797,-7.969 -0.551,-1.801 -0.551,-3.711 -0.269,-5.672 0.539,-5.617 3.437,-12.219 9.488,-13.59 6.449,-1.519 11.52,2.891 14.41,8.242 4.539,8.399 3.719,20.899 -2.609,28.199 -3.711,4.11 -8.672,6.18 -14.031,6.719 -2.61,0.281 -5.5,0 -8.079,0 l -25.32,0 z"
         style="fill:#000000;fill-opacity:1;fill-rule:nonzero;stroke:none"
         id="path58"
         inkscape:connector-curvature="0" /><path
         d="m 200.391,705.699 0,-9.609 22.031,0 c 4.527,0 9.058,0.39 13.316,-1.641 5.782,-2.89 11.293,-9.758 8.403,-16.519 -0.43,-0.821 -0.821,-1.641 -1.371,-2.34 -5.391,-6.059 -16.36,-0.82 -18.161,5.93 l -0.16,0 c -1.91,-5.93 -7.969,-8.942 -13.859,-8.551 -2.621,0.152 -6.879,1.402 -7.309,4.41 -0.269,2.191 1.797,4.141 3.598,4.812 3.281,1.25 6.992,-0.82 6.992,-4.531 0.539,0 1.52,-0.121 1.949,0.149 0.27,0.121 0.391,0.82 0.551,1.101 0.391,1.36 0.66,2.461 0.109,3.82 -0.66,2.231 -2.73,3.711 -4.96,4.418 -4.918,1.372 -9.879,-2.187 -10.86,-6.988 -1.64,-7.582 3.602,-18.871 12.539,-17.781 0.942,0 1.922,0.281 2.891,0.711 1.922,0.82 3.558,2.18 4.93,3.711 1.519,1.91 3.16,4.527 3.429,7.027 l 0.16,0 c 0.121,-1.527 0.981,-3.168 1.801,-4.418 3.281,-5.89 10.86,-9.762 16.91,-5.23 3.008,2.34 4.649,6.211 5.2,9.761 0.968,6.219 -0.668,12.231 -4.809,16.918 -1.801,2.071 -4.691,4.532 -7.262,5.082 l 0,0.149 2.301,0 0,9.609 -38.359,0 z"
         style="fill:#000000;fill-opacity:1;fill-rule:nonzero;stroke:none"
         id="path60"
         inkscape:connector-curvature="0" /><path
         d="m 241.879,718.359 0,-0.121 c 1.133,-1.129 2.34,-2.5 2.891,-4.019 1.25,-3.438 -0.942,-6.719 -4.11,-8.09 -1.25,-0.539 -2.769,-0.43 -4.14,-0.43 l -5.348,0 0,-9.609 c 3.277,0 6.988,-0.539 10.156,0.39 5.781,1.961 8.942,8.559 8.121,14.301 -0.429,2.77 -1.789,5.508 -3.711,7.578 -0.429,0.43 -1.359,1.641 -1.91,1.641 -0.707,0 -1.527,-1.211 -1.949,-1.641 z"
         style="fill:#000000;fill-opacity:1;fill-rule:nonzero;stroke:none"
         id="path62"
         inkscape:connector-curvature="0" /><path
         d="m 245.82,678.629 c -0.269,-0.539 -0.121,-1.25 -0.121,-1.789 0,-2.07 0.551,-3.559 1.492,-5.512 2.887,-5.508 9.368,-11.406 16.09,-8.238 3.707,1.789 6.328,5.781 7.578,9.762 2.731,8.128 1.641,18.558 -4.257,25.16 -2.622,2.886 -6.051,4.797 -10.043,4.797 -2.219,0 -4.411,-0.661 -5.508,-2.731 -1.52,-2.617 0.398,-5.508 3.008,-6.168 1.961,-0.59 3.871,-0.59 5.781,-0.98 5.512,-1.52 11.68,-5.782 9.5,-12.379 -0.391,-1.25 -1.102,-2.352 -1.918,-3.281 -5.66,-6.489 -16.801,-5.399 -21.602,1.359 z"
         style="fill:#000000;fill-opacity:1;fill-rule:nonzero;stroke:none"
         id="path64"
         inkscape:connector-curvature="0" /><path
         d="m 297.539,705.59 c -13.32,-1.801 -19.098,-17.469 -15.391,-29.18 2.622,-8.25 10.043,-15.121 19.102,-14.031 14.02,1.68 19.41,20.082 14.18,31.641 -3.16,6.878 -9.879,12.66 -17.891,11.57 z m 0.27,-9.5 c 7.312,0.82 16.531,-3.59 16.531,-11.828 0,-1.102 -0.16,-2.192 -0.43,-3.172 -0.551,-1.25 -1.211,-2.34 -2.191,-3.281 -0.981,-1.09 -2.34,-2.219 -3.707,-2.887 -1.922,-1.094 -3.992,-1.641 -6.211,-1.953 -4.379,-0.547 -9.071,0.582 -12.621,3.16 -4.692,3.711 -6.059,10.199 -1.95,14.891 1.25,1.21 2.5,2.3 3.981,3.16 2.07,1.09 4.41,1.64 6.598,1.91 z"
         style="fill:#000000;fill-opacity:1;fill-rule:nonzero;stroke:none"
         id="path66"
         inkscape:connector-curvature="0" /><path
         d="m 322.93,705.699 0,-9.609 16.64,0 c 2.731,0 5.629,0.281 8.36,0 2.23,-0.27 3.98,-2.77 3.98,-4.801 -2.73,0.66 -5.07,1.09 -7.808,0.941 -1.954,-0.281 -3.711,-0.55 -5.391,-1.371 -3.551,-1.64 -7.152,-5.781 -4.102,-9.609 0.551,-0.699 1.25,-1.25 2.071,-1.68 4.261,-2.851 10.59,-2.3 14.691,0.7 1.949,1.371 3.707,3.71 3.859,6.058 3.989,-2.348 2.622,-7.969 -0.699,-10.199 -5.351,-3.828 -13.051,-3.828 -19.261,-2.578 -3,0.668 -6.872,2.187 -8.079,5.199 -0.55,1.25 -0.429,2.5 -0.429,3.711 -0.551,0 -1.371,0.269 -1.922,0 -0.82,-0.391 -1.36,-2.191 -1.52,-3.012 -0.941,-3.16 -0.121,-6.597 1.641,-9.328 4.301,-5.781 12.66,-8.281 19.527,-7.851 7.153,0.539 14.461,4.14 17.192,11.128 1.519,3.981 1.09,8.793 -1.371,12.5 -1.09,1.403 -2.731,3.043 -4.528,3.442 -0.16,1.68 -0.703,3.59 -1.519,5.109 -0.282,0.551 -0.672,1.211 -1.211,1.492 -0.43,0.149 -0.981,0.149 -1.41,0.149 l 0,9.609 -28.711,0 z m 28.441,-16.758 c -0.281,-0.82 -0.941,-1.64 -1.371,-2.339 -2.07,-2.34 -4.691,-3.442 -7.699,-2.891 -1.36,0.16 -2.891,0.551 -3.711,1.801 -0.699,1.09 0.121,2.34 0.98,3.16 1.758,1.367 4.258,1.797 6.45,1.637 1.91,-0.27 3.589,-0.969 5.351,-1.368 z"
         style="fill:#000000;fill-opacity:1;fill-rule:nonzero;stroke:none"
         id="path68"
         inkscape:connector-curvature="0" /><path
         d="m 355.621,718.359 0,-0.121 c 1.098,-1.129 2.348,-2.5 2.899,-4.019 1.25,-3.438 -0.981,-6.719 -4.141,-8.09 -1.219,-0.539 -2.738,-0.43 -4.109,-0.43 l -5.391,0 0,-9.609 c 3.32,0 7.031,-0.539 10.199,0.39 5.781,1.961 8.942,8.559 8.121,14.301 -0.429,2.77 -1.789,5.508 -3.711,7.578 -0.429,0.43 -1.398,1.641 -1.949,1.641 -0.66,0 -1.488,-1.211 -1.918,-1.641 z"
         style="fill:#000000;fill-opacity:1;fill-rule:nonzero;stroke:none"
         id="path70"
         inkscape:connector-curvature="0" /><path
         d="m 429.449,703.789 c 2.231,-1.098 4.031,-3.168 5.242,-5.078 4.688,-6.871 5.387,-18.012 -1.211,-23.941 -2.89,-2.469 -7.46,-2.192 -10.589,-0.282 -2.34,1.641 -4.301,4.422 -4.961,7.153 l -0.16,0 c -1.09,-3.282 -3.282,-6.45 -6.598,-7.813 -3.832,-1.797 -10.313,-0.859 -11.524,3.832 -0.699,2.61 1.641,5.07 3.442,6.75 3.43,3.559 9.18,7.539 8.629,13.051 -0.27,3.867 -2.739,7.418 -6.328,8.789 -5.352,1.949 -11.25,-1.48 -11.95,-7.148 -0.39,-2.731 1.09,-5.622 2.77,-7.692 0.551,-0.39 1.367,-1.922 2.027,-1.922 0.711,0 1.532,1.371 1.961,1.801 l 0,0.121 c -0.551,0.539 -1.25,0.969 -1.679,1.789 -0.821,1.371 0.429,3.281 1.519,4.141 2.5,1.64 6.602,0.39 6.871,-2.77 0.281,-3.441 -3,-6.05 -5.351,-7.968 -2.887,-2.622 -7.028,-5.231 -7.848,-9.493 -0.121,-1.25 -0.121,-2.738 0.16,-4.14 0.27,-1.641 0.93,-3.438 1.91,-4.918 1.098,-1.531 2.34,-2.781 3.867,-3.711 3.161,-2.231 7.543,-2.621 10.864,-0.981 3.707,1.911 6.867,6.481 7.258,10.582 0.98,-2.339 1.679,-4.679 3.171,-6.711 3.039,-4.261 8.508,-6.492 13.2,-3.601 1.64,0.98 2.769,2.351 3.98,3.871 3.719,5.191 4.418,12.07 3.867,18.398 -0.968,9.372 -4.527,18.442 -12.218,24.223 -3.442,2.609 -9.77,5.5 -13.09,1.359 -0.391,-0.539 -0.821,-1.089 -1.09,-1.64 -0.281,-0.969 -0.43,-1.789 -0.551,-2.77 -0.43,-5.199 3.16,-10.859 8.402,-11.679 3.547,-0.821 5.469,2.621 5.899,5.781 0.109,0.699 0.43,1.918 0.109,2.617 z m -10.578,-1.918 c 0.27,1.649 0.699,3.438 2.07,4.379 1.52,0.98 3.59,0.43 5.079,-0.27 0.582,-0.281 1.25,-0.671 1.519,-1.101 0.16,-0.539 -0.937,-1.641 -1.211,-2.07 -0.308,-0.27 -0.707,-0.661 -1.129,-0.938 -2.039,-1.68 -4.109,-0.43 -6.328,0 z m -1.371,-31.48 c -1.371,-3.442 -3.16,-6.762 -4.379,-10.2 -0.543,-1.363 -1.402,-3 -1.402,-4.531 0.551,-5.07 8.402,-6.051 10.859,-2.07 1.133,1.531 0.863,3.172 0.152,4.961 -0.82,2.621 -2.07,5.238 -3.281,7.969 -0.578,1.25 -1.129,2.89 -1.949,3.871 z"
         style="fill:#000000;fill-opacity:1;fill-rule:nonzero;stroke:none"
         id="path72"
         inkscape:connector-curvature="0" /><path
         d="m 474.102,662.27 0,0.109 c -2.071,0.59 -4.102,1.68 -6.051,2.621 -8.789,4.691 -17.192,13.199 -15.942,23.789 0.27,1.68 0.7,3.441 1.52,4.961 0.82,1.641 1.922,2.891 3.172,4.262 0,-5.352 3.277,-13.481 9.879,-11.293 0.98,0.429 1.64,0.859 2.34,1.402 5.628,5.078 3.71,15.938 -3.711,18.129 -1.36,0.43 -2.887,0.43 -4.258,0.27 -1.36,-0.11 -2.61,-0.54 -3.86,-1.211 -9.339,-5.508 -9.07,-18.707 -6.992,-27.93 0.539,-2.07 1.211,-4.098 2.031,-6.051 0.969,-2.348 2.219,-4.527 3.75,-6.719 0.54,-0.699 0.93,-1.8 1.75,-2.23 0.282,-0.27 0.821,-0.109 1.25,-0.109 l 15.122,0 z m -14.411,36.71 c 2.579,1.372 5.348,1.211 7.688,-0.429 0.551,-0.27 1.922,-1.09 1.922,-1.641 0,-0.43 -0.711,-0.969 -0.981,-1.25 -0.941,-1.09 -2.89,-1.91 -4.371,-1.359 -1.801,0.539 -3.437,3.039 -4.258,4.679 z"
         style="fill:#000000;fill-opacity:1;fill-rule:nonzero;stroke:none"
         id="path74"
         inkscape:connector-curvature="0" /><path
         d="m 481.211,705.699 0,-9.609 21.988,0 c 4.531,0 9.071,0.39 13.321,-1.641 5.781,-2.89 11.289,-9.758 8.402,-16.519 -0.434,-0.821 -0.82,-1.641 -1.371,-2.34 -5.352,-6.059 -16.36,-0.82 -18.16,5.93 l -0.121,0 c -1.95,-5.93 -8,-8.942 -13.899,-8.551 -2.621,0.152 -6.883,1.402 -7.269,4.41 -0.274,2.191 1.757,4.141 3.558,4.812 3.32,1.25 7.031,-0.82 7.031,-4.531 0.539,0 1.481,-0.121 1.911,0.149 0.277,0.121 0.386,0.82 0.546,1.101 0.43,1.36 0.704,2.461 0.122,3.82 -0.668,2.231 -2.739,3.711 -4.93,4.418 -4.961,1.372 -9.918,-2.187 -10.86,-6.988 -1.679,-7.582 3.559,-18.871 12.5,-17.781 0.981,0 1.918,0.281 2.899,0.711 1.91,0.82 3.551,2.18 4.961,3.711 1.48,1.91 3.16,4.527 3.43,7.027 l 0.121,0 c 0.16,-1.527 0.98,-3.168 1.8,-4.418 3.278,-5.89 10.86,-9.762 16.911,-5.23 3.007,2.34 4.687,6.211 5.238,9.761 0.93,6.219 -0.711,12.231 -4.852,16.918 -1.758,2.071 -4.648,4.532 -7.258,5.082 l 0,0.149 2.34,0 0,9.609 -38.359,0 z"
         style="fill:#000000;fill-opacity:1;fill-rule:nonzero;stroke:none"
         id="path76"
         inkscape:connector-curvature="0" /><path
         d="m 522.699,718.359 0,-0.121 c 1.09,-1.129 2.301,-2.5 2.891,-4.019 1.211,-3.438 -0.981,-6.719 -4.141,-8.09 -1.25,-0.539 -2.738,-0.43 -4.148,-0.43 l -5.352,0 0,-9.609 c 3.321,0 7.031,-0.539 10.199,0.39 5.743,1.961 8.903,8.559 8.082,14.301 -0.39,2.77 -1.789,5.508 -3.71,7.578 -0.391,0.43 -1.36,1.641 -1.911,1.641 -0.699,0 -1.519,-1.211 -1.91,-1.641 z"
         style="fill:#000000;fill-opacity:1;fill-rule:nonzero;stroke:none"
         id="path78"
         inkscape:connector-curvature="0" /><path
         d="m 526.602,678.629 c -0.274,-0.539 -0.122,-1.25 -0.122,-1.789 0,-2.07 0.551,-3.559 1.532,-5.512 2.886,-5.508 9.328,-11.406 16.047,-8.238 3.75,1.789 6.332,5.781 7.582,9.762 2.738,8.128 1.64,18.558 -4.262,25.16 -2.609,2.886 -6.051,4.797 -10.039,4.797 -2.18,0 -4.41,-0.661 -5.5,-2.731 -1.531,-2.617 0.43,-5.508 3.039,-6.168 1.922,-0.59 3.832,-0.59 5.742,-0.98 5.508,-1.52 11.719,-5.782 9.5,-12.379 -0.391,-1.25 -1.101,-2.352 -1.922,-3.281 -5.621,-6.489 -16.75,-5.399 -21.597,1.359 z"
         style="fill:#000000;fill-opacity:1;fill-rule:nonzero;stroke:none"
         id="path80"
         inkscape:connector-curvature="0" /><path
         d="m 569.531,683.441 c -2.031,-0.98 -3.98,-2.621 -5.191,-4.531 -3.602,-4.969 -3.602,-13.09 2.73,-16.101 3.711,-1.637 7.7,0.16 10.59,2.742 0.699,0.539 2.18,1.519 2.461,2.34 0,0.55 -1.492,2.07 -1.922,2.07 -0.39,-0.121 -0.66,-0.699 -1.09,-0.82 -0.55,-0.43 -1.371,-0.821 -2.07,-0.981 -2.891,-0.66 -5.508,2.231 -6.168,4.692 -0.98,3.867 1.207,6.718 4.25,8.789 0.828,0.55 2.617,1.089 3.168,1.949 -3.051,0.672 -6.211,2.582 -7.848,5.199 -0.941,1.52 -1.211,3.441 0,4.961 1.52,1.801 3.981,2.34 6.207,2.34 5.473,0 10.313,-3.59 12.231,-8.668 l 0.109,0 c 2.352,7.027 10.59,9.609 17.352,8.238 3.98,-0.82 7.57,-3.16 8.941,-6.988 0.547,-1.371 0.821,-2.891 0.821,-4.41 0,-6.172 -5.231,-11.571 -11.403,-11.684 -2.5,0 -5.121,0.543 -7.308,1.91 -1.09,0.981 -2.192,2.071 -2.192,3.602 0,3.551 4.102,4.64 7,3.98 1.09,-0.269 2.77,-0.98 3.039,-2.34 0.282,-0.82 -0.539,-1.64 -0.816,-2.351 0.547,-0.27 1.367,-0.82 1.918,-0.82 0.269,0.16 0.539,0.429 0.699,0.711 0.551,0.82 1.211,1.75 1.211,2.73 0,3.281 -2.461,6.871 -6.051,7.148 -4.539,0.153 -8.359,-3.437 -9.219,-7.847 -0.941,-6.02 1.52,-14.301 7.848,-16.492 6.871,-2.457 13.082,2.742 15.82,8.793 1.801,3.988 2.34,8.238 2.192,12.539 -0.281,6.328 -1.918,12.621 -6.059,17.73 -1.761,2.188 -4.371,4.109 -7.422,4.649 -6.168,1.14 -12.07,-3 -14.687,-8.36 -0.82,-1.519 -1.524,-3.32 -1.684,-4.961 -0.386,1.25 -0.539,2.352 -0.937,3.442 -0.973,2.621 -2.5,4.961 -4.41,6.718 -5.512,5.121 -14.02,4.141 -18.161,-2.187 -0.671,-1.094 -1.21,-2.461 -1.492,-3.832 -0.269,-1.52 -0.269,-3.16 0,-4.68 0.942,-4.262 4.102,-7.039 7.543,-9.219 z"
         style="fill:#000000;fill-opacity:1;fill-rule:nonzero;stroke:none"
         id="path82"
         inkscape:connector-curvature="0" /><path
         d="m 592.539,642.031 0,-0.121 c -3.711,-1.64 -5.777,-5.621 -5.348,-9.488 0.387,-3.832 4.528,-6.172 7.969,-4.961 1.91,0.699 3.43,2.23 4.801,3.711 -0.391,0.43 -0.82,1.129 -1.371,1.25 -0.43,0 -0.969,-0.551 -1.36,-0.82 -0.98,-0.43 -1.96,-0.43 -2.89,0 -0.551,0.269 -1.102,0.699 -1.531,1.367 -2.731,3.711 0.98,7.582 4.421,8.941 l 0,0.121 c -2.5,0.699 -6.609,2.77 -6.058,6.059 0.117,0.969 1.207,1.789 2.066,2.219 2.192,0.941 4.813,0.39 6.723,-0.539 1.519,-0.711 2.891,-1.801 3.711,-3.168 0.43,-0.551 0.707,-1.133 0.976,-1.801 0.391,0.668 0.661,1.371 1.211,2.07 1.411,1.649 3.321,2.899 5.391,3.559 5.898,1.519 13.051,-1.91 12.379,-8.668 -0.43,-4.532 -4.41,-7.274 -8.668,-7.274 -2.07,0 -5.231,0.981 -5.781,3.282 -0.821,3.601 5.898,4.851 6.871,1.8 0.277,-0.66 -0.27,-1.25 -0.539,-1.91 l 1.519,-0.551 c 0.391,0.551 0.938,1.211 1.207,2.071 0.434,2.582 -2.066,5.191 -4.648,5.351 -2.61,0.117 -4.961,-1.91 -5.781,-4.41 -0.539,-1.211 -0.539,-2.621 -0.27,-3.832 0.391,-4.258 2.731,-9.098 7.691,-9.098 0.668,0 1.219,0 2.071,0.149 4.258,0.941 7,5.512 7.969,9.5 1.371,6.172 0,14.019 -4.532,18.82 -3.59,3.559 -9.218,3.168 -12.648,-0.269 -1.801,-1.911 -2.781,-4.141 -3.442,-6.481 -0.699,2.219 -1.25,4.289 -2.769,6.051 -1.098,1.129 -2.309,2.23 -3.828,2.769 -3.871,1.372 -8.25,-0.152 -10.199,-3.98 -1.641,-3.441 -0.551,-7.852 2.5,-10.309 0.546,-0.429 1.367,-1.101 2.187,-1.41 z"
         style="fill:#000000;fill-opacity:1;fill-rule:nonzero;stroke:none"
         id="path84"
         inkscape:connector-curvature="0" /><path
         d="m 113.16,398.48 0,-9.609 22,0 c 4.531,0 9.102,0.391 13.36,-1.68 5.742,-2.89 11.25,-9.769 8.359,-16.492 -0.399,-0.82 -0.828,-1.64 -1.367,-2.34 -5.352,-6.058 -16.371,-0.82 -18.133,5.942 l -0.149,0 c -1.921,-5.942 -7.968,-8.949 -13.91,-8.563 -2.582,0.16 -6.871,1.371 -7.269,4.422 -0.27,2.18 1.801,4.141 3.558,4.801 3.321,1.25 7.032,-0.82 7.032,-4.531 0.55,0 1.519,-0.16 1.91,0.121 0.277,0.148 0.429,0.859 0.551,1.129 0.429,1.371 0.699,2.461 0.16,3.832 -0.711,2.218 -2.782,3.707 -4.961,4.41 -4.961,1.367 -9.891,-2.192 -10.86,-7.031 -1.64,-7.539 3.59,-18.832 12.5,-17.731 0.969,0 1.95,0.27 2.887,0.699 1.953,0.821 3.594,2.192 4.961,3.711 1.52,1.91 3.16,4.532 3.441,6.989 l 0.149,0 c 0.121,-1.481 0.941,-3.161 1.762,-4.368 3.32,-5.941 10.859,-9.769 16.91,-5.242 3.051,2.352 4.687,6.172 5.238,9.77 0.981,6.172 -0.699,12.222 -4.809,16.91 -1.789,2.07 -4.679,4.531 -7.3,5.082 l 0,0.16 2.34,0 0,9.609 -38.36,0 z"
         style="fill:#000000;fill-opacity:1;fill-rule:nonzero;stroke:none"
         id="path86"
         inkscape:connector-curvature="0" /><path
         d="m 151.371,412.109 c 0.82,-0.16 1.641,-0.308 2.457,-0.699 4.41,-2.191 3.981,-8.129 0.82,-11.14 -2.886,-2.77 -7.968,-1.79 -11.558,-1.79 l 0,-9.609 c 5.5,0 10.738,-0.281 15,3.981 5.89,5.898 5.07,18.277 -3.442,21.449 -3.707,1.359 -9.058,0.39 -11.128,-3.172 -2.071,-3.438 0,-8.238 4.14,-8.668 3.281,-0.391 6.012,2.617 5.621,6.059 -0.16,1.359 -1.09,2.46 -1.91,3.589 z"
         style="fill:#000000;fill-opacity:1;fill-rule:nonzero;stroke:none"
         id="path88"
         inkscape:connector-curvature="0" /><path
         d="m 158.051,372.34 c 0,-1.211 -0.16,-2.61 0.109,-3.82 0.43,-1.68 1.371,-3.168 2.07,-4.692 3.321,-5.238 9.071,-10.039 15.668,-8.519 1.403,0.281 2.5,0.82 3.59,1.492 0.821,0.578 1.641,1.398 2.352,2.219 4.801,5.628 0.539,12.781 1.48,19.378 0.43,3.442 3.442,6.602 6.328,8.243 6.481,3.98 15.274,2.23 20.512,-2.891 2.34,-2.461 4.25,-5.738 3.981,-9.18 -0.161,-1.25 -0.27,-2.5 -0.821,-3.59 -1.91,-4.261 -7.031,-5.628 -11.41,-5.242 -1.789,0.16 -3.59,0.434 -5.23,1.532 -1.91,1.25 -3.16,3.71 -2.891,6.05 0.43,2.621 3.281,4.258 5.781,3.711 -0.55,-0.82 -1.64,-2.07 -1.8,-3.051 -0.7,-2.3 2.351,-4.531 4.421,-4.8 4.797,-0.27 7.539,5.121 5.348,9.101 -0.551,1.09 -1.519,2.028 -2.617,2.739 -4.531,2.609 -10.703,-0.981 -12.934,-5.079 -0.937,-2.07 -1.09,-4.14 -0.937,-6.211 0.277,-5.359 1.918,-11.679 7.269,-14.031 1.25,-0.39 2.621,-0.66 3.981,-0.66 1.801,0 3.597,0.27 5.238,0.82 4.531,1.911 7.301,6.871 8.512,11.411 2.898,11.128 -0.821,23.902 -11.672,29.289 -2.078,1.101 -4.688,1.8 -7.039,1.921 -2.461,0 -4.918,-0.121 -7.262,-0.98 -5.629,-1.91 -10.308,-6.988 -10.738,-12.891 -0.121,-2.769 0.539,-5.668 0.82,-8.558 0.149,-1.36 0.309,-2.891 0,-4.25 -0.281,-0.942 -0.82,-1.922 -1.211,-2.621 -3.597,-4.379 -9.5,-4.102 -14.027,-1.91 -1.641,0.82 -3.16,1.91 -4.531,3 -0.86,0.71 -1.52,1.531 -2.34,2.07 z"
         style="fill:#000000;fill-opacity:1;fill-rule:nonzero;stroke:none"
         id="path90"
         inkscape:connector-curvature="0" /><path
         d="m 225.738,398.48 0,-9.609 21.332,0 c 0.942,0 2.071,0.109 2.891,0 2.07,-0.551 4.258,-1.961 5.898,-3.172 5.082,-3.59 8.942,-11.008 4.961,-16.91 -0.82,-1.367 -2.191,-2.617 -3.871,-3.051 -3.98,-0.937 -8.508,1.953 -10.699,5.121 -1.52,2.731 -2.23,5.621 -4.262,8.082 -2.218,2.618 -6.207,5.079 -9.758,3.719 -2.5,-1.101 -4.14,-3.558 -5.242,-6.058 -2.066,-5.352 -1.519,-12.071 0.551,-17.301 0.981,-2.781 2.731,-5.942 5.512,-6.879 1.09,-0.434 2.73,-0.434 3.828,0 2.07,0.816 2.769,3.168 2.07,5.238 -0.668,2.18 -2.738,2.891 -4.687,3.551 -1.762,0.82 -3.442,1.801 -4.532,3.437 -1.921,2.622 -0.941,5.512 1.95,7.032 1.91,0.941 4.371,0.941 6.601,0.39 2.309,-0.55 4.649,-1.91 6.02,-3.98 0.699,-1.102 1.129,-2.469 1.679,-3.719 0.821,-1.91 1.911,-3.711 3.161,-5.351 2.187,-2.77 5.347,-4.801 8.91,-3.59 3.711,1.25 5.929,5.23 7.027,8.672 2.461,7.699 1.25,15.937 -5.078,21.328 -1.371,1.211 -3.32,2.89 -5.121,3.281 l 0,0.16 0.32,0 0,9.609 -29.461,0 z"
         style="fill:#000000;fill-opacity:1;fill-rule:nonzero;stroke:none"
         id="path92"
         inkscape:connector-curvature="0" /><path
         d="m 256.129,412.109 c 0.82,-0.16 1.641,-0.308 2.461,-0.699 4.422,-2.191 3.988,-8.129 0.82,-11.14 -2.89,-2.77 -7.961,-1.79 -11.519,-1.79 l 0,-9.609 c 5.468,0 10.699,-0.281 14.961,3.981 5.937,5.898 5.117,18.277 -3.442,21.449 -3.711,1.359 -9.058,0.39 -11.129,-3.172 -2.07,-3.438 0,-8.238 4.141,-8.668 3.277,-0.391 6.058,2.617 5.629,6.059 -0.121,1.359 -1.102,2.46 -1.922,3.589 z"
         style="fill:#000000;fill-opacity:1;fill-rule:nonzero;stroke:none"
         id="path94"
         inkscape:connector-curvature="0" /><path
         d="m 289.879,398.359 c -13.32,-1.8 -19.098,-17.5 -15.391,-29.179 2.621,-8.239 10.043,-15.121 19.141,-14.02 14.031,1.641 19.383,20.07 14.141,31.641 -3.161,6.871 -9.879,12.648 -17.891,11.558 z m 0.32,-9.488 c 7.262,0.82 16.481,-3.601 16.481,-11.84 0,-1.09 -0.16,-2.191 -0.43,-3.16 -0.551,-1.25 -1.211,-2.351 -2.191,-3.32 -0.969,-1.102 -2.34,-2.192 -3.707,-2.86 -1.911,-1.132 -3.981,-1.671 -6.172,-1.953 -4.41,-0.547 -9.102,0.551 -12.66,3.172 -4.68,3.711 -6.051,10.192 -1.95,14.84 1.25,1.25 2.5,2.34 4.02,3.16 2.031,1.141 4.379,1.68 6.609,1.961 z"
         style="fill:#000000;fill-opacity:1;fill-rule:nonzero;stroke:none"
         id="path96"
         inkscape:connector-curvature="0" /><path
         d="m 312.379,398.48 0,-9.609 c 1.531,0 3.441,0.27 4.961,-0.16 1.211,-0.121 2.461,-0.981 3.441,-1.52 2.188,-1.371 4.098,-3.011 5.629,-5.082 3.43,-4.531 3.16,-10.859 -1.531,-14.418 -0.82,-0.703 -1.789,-1.25 -2.891,-1.671 -4.918,-1.489 -11.398,1.25 -14.41,5.39 0,-1.531 -0.277,-3.32 0,-4.851 0.121,-0.938 0.66,-1.911 1.094,-2.731 1.098,-2.066 2.617,-3.867 4.527,-5.508 1.25,-0.941 2.742,-1.91 4.422,-2.461 1.641,-0.699 3.277,-0.82 5.078,-0.82 9.602,0.27 14.41,11.949 12.379,20.191 -0.699,2.891 -2.226,5.629 -4.258,7.86 -1.949,2.18 -4.84,4.801 -7.73,5.621 l 0,0.16 2.219,0 0,9.609 -12.93,0 z"
         style="fill:#000000;fill-opacity:1;fill-rule:nonzero;stroke:none"
         id="path98"
         inkscape:connector-curvature="0" /><path
         d="m 327.891,411.129 0,-0.149 c 1.089,-1.101 2.339,-2.46 2.89,-3.992 1.207,-3.437 -0.98,-6.718 -4.14,-8.078 -1.25,-0.551 -2.731,-0.43 -4.141,-0.43 l -5.352,0 0,-9.609 c 3.321,0 7.032,-0.551 10.192,0.391 5.75,1.91 8.91,8.508 8.09,14.289 -0.391,2.777 -1.758,5.508 -3.711,7.578 -0.391,0.391 -1.367,1.641 -1.918,1.641 -0.699,0 -1.52,-1.25 -1.91,-1.641 z"
         style="fill:#000000;fill-opacity:1;fill-rule:nonzero;stroke:none"
         id="path100"
         inkscape:connector-curvature="0" /><path
         d="m 338.98,398.48 0,-9.609 c 1.489,0 3.442,0.27 4.93,-0.16 1.25,-0.121 2.5,-0.981 3.43,-1.52 2.23,-1.371 4.14,-3.011 5.672,-5.082 3.437,-4.531 3.16,-10.859 -1.532,-14.418 -0.82,-0.703 -1.789,-1.25 -2.89,-1.671 -4.961,-1.489 -11.399,1.25 -14.449,5.39 0,-1.531 -0.27,-3.32 0,-4.851 0.16,-0.938 0.699,-1.911 1.129,-2.731 1.101,-2.066 2.582,-3.867 4.531,-5.508 1.219,-0.941 2.738,-1.91 4.379,-2.461 1.679,-0.699 3.32,-0.82 5.121,-0.82 9.609,0.27 14.41,11.949 12.34,20.191 -0.661,2.891 -2.192,5.629 -4.262,7.86 -1.91,2.18 -4.801,4.801 -7.688,5.621 l 0,0.16 2.188,0 0,9.609 -12.899,0 z"
         style="fill:#000000;fill-opacity:1;fill-rule:nonzero;stroke:none"
         id="path102"
         inkscape:connector-curvature="0" /><path
         d="m 341.129,398.48 0,-9.609 22.422,0 c 3.828,0 7.82,0.27 11.679,-0.16 4.969,-0.391 10.43,-1.371 13.75,-5.512 3.442,-4.527 2.469,-12.07 -2.07,-15.39 -3.82,-2.887 -9.762,-2.887 -13.59,-0.539 -3.32,2.07 -4.261,5.621 -2.23,8.941 0.98,1.519 2.621,3.16 4.691,2.73 -0.551,-0.543 -0.82,-1.211 -0.98,-2.07 -0.539,-2.891 2.23,-4.801 4.687,-4.641 3.172,0.27 4.961,3.161 4.262,6.168 -0.27,0.821 -0.66,1.641 -1.52,2.34 -0.671,0.821 -1.761,1.371 -2.851,1.801 -5.668,1.641 -10.32,-2.891 -11.84,-7.969 -0.551,-1.8 -0.551,-3.711 -0.269,-5.66 0.539,-5.629 3.429,-12.23 9.492,-13.601 6.437,-1.52 11.519,2.89 14.41,8.242 4.527,8.398 3.707,20.898 -2.621,28.211 -3.711,4.097 -8.629,6.168 -14.02,6.718 -2.621,0.27 -5.472,0 -8.082,0 l -25.32,0 z"
         style="fill:#000000;fill-opacity:1;fill-rule:nonzero;stroke:none"
         id="path104"
         inkscape:connector-curvature="0" /><path
         d="m 416.328,368.52 c -0.707,-1.411 -1.797,-3.051 -1.949,-4.692 0,-1.098 0.312,-2.348 0.699,-3.437 0.274,-1.09 0.973,-2.071 1.641,-2.891 0.82,-0.82 1.679,-1.52 2.769,-1.91 6.332,-2.621 12.782,3.82 11.133,10.148 -0.543,1.801 -1.519,3.321 -2.609,4.692 4.957,1.371 11.558,3.16 13.199,8.789 0.82,2.89 -0.43,5.66 -2.621,7.582 -0.82,0.82 -2.18,1.359 -2.891,2.07 -0.969,1.09 -1.519,2.891 -2.179,4.098 -0.821,1.25 -1.532,2.621 -2.348,3.98 -0.152,0.43 -0.434,1.25 -0.82,1.41 -0.704,0.27 -1.641,0.121 -2.231,0.121 l -5.07,0 0,-9.609 5.5,0 c 1.527,0 3.008,0 4.539,-0.711 0.699,-0.539 1.359,-1.09 2.07,-1.789 0.43,-0.551 0.82,-1.211 1.09,-1.922 1.641,-4.801 -2.891,-8.121 -6.719,-9.879 -0.82,-0.269 -2.5,-1.25 -3.441,-1.129 -0.539,0.149 -1.52,1.25 -2.07,1.68 -1.09,0.93 -2.61,1.641 -4.141,2.027 -3.16,0.582 -6.438,-0.386 -9.488,0.274 -4.532,1.406 -7.27,6.328 -6.442,10.738 0.27,1.371 1.09,2.352 1.641,3.602 0.539,-1.684 0.43,-3.442 1.25,-4.961 1.91,-3.442 6.711,-5.36 9.762,-1.922 2.617,3.281 2.07,8.242 -0.274,11.41 -1.949,2.621 -5.387,3.981 -8.398,2.621 -3.282,-1.68 -5.231,-5.512 -6.168,-8.832 -0.981,-3.707 -1.41,-7.808 -0.16,-11.406 2.07,-6.332 8.398,-10.152 14.726,-10.152 z m -8.668,23.242 c 1.52,2.027 4.25,2.297 6.442,1.359 0.589,-0.152 2.226,-0.82 2.226,-1.359 0,-0.711 -1.527,-1.532 -1.949,-1.684 -2.578,-1.488 -4.93,-0.547 -6.719,1.684 z M 425,369.879 c 0.551,0 0.941,-0.539 1.211,-0.969 1.25,-1.101 1.91,-2.191 1.641,-3.832 -0.551,-2.226 -3.012,-3.437 -5.082,-3.316 -2.071,0.148 -5.5,2.34 -4.25,4.797 0.539,1.679 3.32,2.351 4.8,2.89 0.551,0.281 1.09,0.551 1.68,0.43 z"
         style="fill:#000000;fill-opacity:1;fill-rule:nonzero;stroke:none"
         id="path106"
         inkscape:connector-curvature="0" /><path
         d="m 434.609,411.129 0,-0.149 c 1.09,-1.101 2.301,-2.46 2.852,-3.992 1.25,-3.437 -0.941,-6.718 -4.102,-8.078 -1.25,-0.551 -2.769,-0.43 -4.14,-0.43 l -5.348,0 0,-9.609 c 3.277,0 7.027,-0.551 10.149,0.391 5.781,1.91 8.949,8.508 8.128,14.289 -0.386,2.777 -1.796,5.508 -3.707,7.578 -0.39,0.391 -1.371,1.641 -1.921,1.641 -0.7,0 -1.52,-1.25 -1.911,-1.641 z"
         style="fill:#000000;fill-opacity:1;fill-rule:nonzero;stroke:none"
         id="path108"
         inkscape:connector-curvature="0" /><path
         d="m 438.52,371.41 c -0.282,-0.551 -0.122,-1.25 -0.122,-1.801 0,-2.07 0.551,-3.589 1.524,-5.507 2.848,-5.512 9.34,-11.411 16.058,-8.243 3.711,1.801 6.321,5.782 7.571,9.762 2.738,8.09 1.648,18.559 -4.25,25.16 -2.621,2.891 -6.063,4.809 -10.039,4.809 -2.192,0 -4.422,-0.668 -5.512,-2.738 -1.52,-2.622 0.43,-5.512 3.051,-6.211 1.91,-0.551 3.82,-0.551 5.738,-0.942 5.512,-1.519 11.723,-5.777 9.492,-12.379 -0.39,-1.25 -1.09,-2.34 -1.91,-3.32 -5.633,-6.449 -16.762,-5.352 -21.601,1.41 z"
         style="fill:#000000;fill-opacity:1;fill-rule:nonzero;stroke:none"
         id="path110"
         inkscape:connector-curvature="0" /><path
         d="m 539.41,392.691 c -0.539,-3 -3.039,-5.5 -5.39,-7.14 -0.661,-0.551 -1.641,-1.371 -2.461,-1.531 -0.7,-0.11 -1.36,0 -1.911,0 l -3.867,0 0,-8.79 8.668,0 c 1.25,0 2.742,0.282 3.992,0 1.52,-0.39 3.438,-2.339 3.707,-3.98 0.821,-3.559 -4.136,-5.352 -6.878,-5.512 -4.411,-0.269 -7.692,1.532 -10.579,4.813 -1.101,1.129 -1.8,2.609 -2.742,3.75 -2.219,-3.442 -4.84,-7.582 -9.097,-8.563 -3.551,-0.66 -9.614,1.371 -9.332,5.782 0.269,2.07 2.179,4.261 3.71,5.628 3,3.043 7.149,6.051 8.508,10.313 0.282,0.98 0.282,2.07 0.16,3.16 -0.82,6.488 -8.238,11.289 -14.019,7.738 -3.598,-2.23 -5.117,-6.211 -3.867,-10.199 0.539,-1.789 1.636,-3.16 2.886,-4.68 0.274,-0.281 0.981,-1.21 1.524,-1.21 0.668,0 1.527,1.21 1.918,1.75 -0.551,0.589 -1.25,1.14 -1.641,1.8 -0.82,1.52 0.391,3.321 1.52,4.258 2.461,1.524 6.601,0.274 6.871,-2.887 0.281,-3.011 -2.5,-5.082 -4.41,-6.882 -3.981,-3.161 -9.219,-6.598 -8.95,-12.34 0.43,-6.758 5.508,-12.93 12.5,-12.93 1.25,0 2.5,0.121 3.598,0.551 3.16,1.359 5.231,4.371 6.723,7.422 0.578,1.09 1.129,2.34 1.398,3.547 l 0.121,0 c 0.27,-1.911 1.641,-4.098 2.891,-5.618 2.07,-2.89 5.078,-5.511 8.789,-5.902 1.25,-0.16 2.34,0.121 3.441,0.391 8.547,2.07 11.719,13.48 6.047,19.8 l 2.891,0 0,8.79 -9.609,0 c 1.371,0.98 2.742,2.07 3.832,3.32 2.769,3.172 4.136,7.269 3.867,11.57 -0.547,5.461 -6.598,10.578 -12.11,7.531 -3.828,-2.179 -5.347,-7.261 -3.711,-11.25 0.821,-2.222 2.731,-4.293 5.231,-4.41 1.101,0 2.191,0.27 3.172,0.547 0.929,0.274 1.789,0.703 2.609,1.363 z m 0,4.809 c -2.219,-1.48 -4.531,-2.73 -7.031,-0.66 -0.66,0.539 -1.25,1.09 -1.641,1.64 1.371,2.61 4.532,4.141 6.992,1.911 0.86,-0.661 1.25,-1.762 1.68,-2.891 z"
         style="fill:#000000;fill-opacity:1;fill-rule:nonzero;stroke:none"
         id="path112"
         inkscape:connector-curvature="0" /><path
         d="m 560.859,376.211 c -2.07,-0.981 -3.98,-2.621 -5.238,-4.531 -3.59,-4.961 -3.59,-13.09 2.738,-16.09 3.711,-1.649 7.731,0.109 10.59,2.73 0.699,0.551 2.223,1.52 2.5,2.34 0,0.551 -1.527,2.07 -1.918,2.07 -0.429,-0.152 -0.703,-0.699 -1.133,-0.82 -0.546,-0.43 -1.367,-0.82 -2.027,-0.969 -2.891,-0.711 -5.512,2.18 -6.211,4.68 -0.941,3.828 1.25,6.719 4.25,8.789 0.82,0.551 2.621,1.102 3.168,1.918 -3.008,0.703 -6.168,2.613 -7.808,5.231 -0.981,1.531 -1.25,3.441 0,4.961 1.48,1.8 3.98,2.351 6.171,2.351 5.508,0 10.309,-3.601 12.219,-8.68 l 0.16,0 c 2.34,7 10.59,9.61 17.301,8.25 3.988,-0.82 7.578,-3.171 8.949,-7 0.551,-1.402 0.821,-2.89 0.821,-4.41 0,-6.172 -5.231,-11.562 -11.411,-11.679 -2.46,0 -5.07,0.546 -7.261,1.918 -1.129,0.968 -2.231,2.07 -2.231,3.589 0,3.551 4.141,4.653 7.032,3.981 1.101,-0.27 2.742,-0.969 3.011,-2.34 0.27,-0.82 -0.551,-1.641 -0.82,-2.34 0.551,-0.281 1.367,-0.82 1.91,-0.82 0.277,0.109 0.551,0.39 0.707,0.66 0.551,0.859 1.25,1.801 1.25,2.77 0,3.281 -2.5,6.878 -6.058,7.152 -4.532,0.117 -8.399,-3.442 -9.219,-7.852 -0.973,-6.05 1.527,-14.3 7.859,-16.48 6.871,-2.5 13.039,2.73 15.781,8.781 1.789,3.988 2.34,8.25 2.219,12.5 -0.269,6.328 -1.949,12.66 -6.051,17.738 -1.8,2.231 -4.41,4.141 -7.418,4.692 -6.211,1.09 -12.113,-3.012 -14.73,-8.403 -0.82,-1.488 -1.52,-3.277 -1.641,-4.918 -0.429,1.211 -0.55,2.34 -0.98,3.43 -0.93,2.621 -2.461,4.93 -4.371,6.719 -5.508,5.082 -14.059,4.141 -18.168,-2.188 -0.699,-1.089 -1.25,-2.461 -1.52,-3.863 -0.269,-1.488 -0.269,-3.168 0,-4.648 0.981,-4.258 4.141,-7.032 7.578,-9.219 z"
         style="fill:#000000;fill-opacity:1;fill-rule:nonzero;stroke:none"
         id="path114"
         inkscape:connector-curvature="0" /><path
         d="m 616.02,339.34 c -1.918,1.949 -3.719,4.019 -6.329,4.961 -4.531,1.91 -11.679,0.82 -14.3,-3.832 -2.891,-5.391 2.73,-11.449 8.238,-11.719 1.961,0 3.711,0.27 5.672,0.859 2.461,0.821 4.527,2.301 6.719,3.981 0,-4.41 1.64,-9.219 5.23,-11.828 1.371,-0.981 3.16,-1.801 4.801,-1.801 0.551,0 1.097,0 1.648,0.269 0.973,0.551 1.36,2.192 1.36,3.321 0,1.097 0.32,2.738 -0.387,3.719 -0.274,0.269 -0.82,0.269 -1.25,0.269 -0.82,0.121 -1.641,0.391 -2.461,0.82 -2.621,1.371 -4.801,3.981 -5.902,6.719 -0.309,0.703 0.671,1.524 0.941,2.07 0.98,1.524 1.52,3.161 1.91,4.961 1.531,6.332 1.141,13.75 -1.211,19.801 -0.699,1.488 -1.519,3.168 -2.89,4.11 -1.09,0.699 -2.77,0.699 -3.707,-0.282 -1.25,-1.207 -0.981,-3.547 -0.274,-5.078 1.481,-3.859 4.801,-6.172 6.051,-10.148 0.941,-3.051 0.121,-5.512 -1.68,-8.012 -0.66,-1.09 -1.64,-1.91 -2.179,-3.16 z m -1.918,-0.942 c -1.641,-0.707 -3.161,-1.367 -4.961,-1.636 -1.09,-0.282 -2.34,-0.282 -3.551,-0.282 -1.41,0 -3.168,0.391 -4.301,1.211 -0.937,0.547 -0.937,1.649 -0.269,2.618 2.5,3.171 8.121,2.191 10.859,0 0.699,-0.387 1.793,-1.09 2.223,-1.911 z"
         style="fill:#000000;fill-opacity:1;fill-rule:nonzero;stroke:none"
         id="path116"
         inkscape:connector-curvature="0" /><path
         d="m 0.0390625,91.25 0,-9.6484 21.9922375,0 c 4.5273,0 9.0585,0.4297 13.3203,-1.6407 5.7773,-2.8906 11.289,-9.7695 8.3984,-16.4804 -0.3906,-0.8203 -0.8203,-1.6407 -1.3711,-2.3516 -5.3476,-6.0508 -16.3594,-0.8203 -18.1601,5.9024 l -0.1172,0 c -1.9532,-5.9024 -7.9727,-8.9102 -13.9024,-8.5118 -2.62107,0.1524 -6.87889,1.3594 -7.26951,4.4102 -0.26953,2.1914 1.76172,4.1016 3.55078,4.8008 3.32031,1.25 7.03903,-0.8203 7.03903,-4.5313 0.5391,0 1.4805,-0.1484 1.9102,0.1211 0.2695,0.1602 0.4297,0.8203 0.5508,1.0899 0.4297,1.4101 0.6992,2.5 0.1484,3.8711 -0.6992,2.1875 -2.7695,3.707 -4.957,4.4101 C 6.21094,74.0586 1.25,70.4688 0.308594,65.6602 -1.32813,58.1211 3.87109,46.8398 12.8086,47.9297 c 0.9805,0 1.9219,0.2695 2.8906,0.6992 1.9219,0.8203 3.6016,2.1914 4.961,3.7109 1.4882,1.9219 3.1679,4.5313 3.4414,7 l 0.1172,0 c 0.1601,-1.5312 0.9804,-3.1679 1.8007,-4.3789 3.2813,-5.9414 10.8594,-9.7695 16.9102,-5.2304 3.0117,2.3398 4.6914,6.1679 5.2305,9.7578 0.9414,6.1719 -0.6993,12.2305 -4.8008,16.9219 -1.8008,2.0312 -4.6875,4.5312 -7.3086,5.0703 l 0,0.1211 2.3476,0 0,9.6484 -38.3593375,0 z"
         style="fill:#000000;fill-opacity:1;fill-rule:nonzero;stroke:none"
         id="path118"
         inkscape:connector-curvature="0" /><path
         d="m 41.5195,103.91 0,-0.16 c 1.1016,-1.09 2.3516,-2.461 2.8907,-3.9805 1.2109,-3.4414 -0.9688,-6.7187 -4.1407,-8.1289 -1.25,-0.5508 -2.7304,-0.3906 -4.1406,-0.3906 l -5.3476,0 0,-9.6484 c 3.3203,0 7.0273,-0.5508 10.1992,0.4297 5.7383,1.9101 8.8984,8.5195 8.0781,14.2968 -0.3867,2.7305 -1.7578,5.5119 -3.707,7.5819 -0.3907,0.391 -1.3711,1.641 -1.9102,1.641 -0.7109,0 -1.5312,-1.25 -1.9219,-1.641 z"
         style="fill:#000000;fill-opacity:1;fill-rule:nonzero;stroke:none"
         id="path120"
         inkscape:connector-curvature="0" /><path
         d="m 45.4688,64.1406 c -0.3086,-0.5508 -0.1602,-1.2109 -0.1602,-1.7617 0,-2.0703 0.5508,-3.5898 1.5312,-5.5078 2.8907,-5.5 9.3321,-11.4023 16.0899,-8.2422 3.7109,1.7617 6.2891,5.7422 7.5391,9.7695 2.7695,8.0821 1.6406,18.5508 -4.2579,25.1524 -2.6211,2.8906 -6.0507,4.8086 -10.039,4.8086 -2.1914,0 -4.4102,-0.6992 -5.5117,-2.7383 -1.4805,-2.6094 0.4296,-5.5 3.0507,-6.2109 1.9102,-0.5391 3.8282,-0.5391 5.7774,-0.9688 5.4726,-1.4922 11.6836,-5.75 9.4609,-12.3516 -0.3984,-1.25 -1.0976,-2.3398 -1.9179,-3.3203 -5.6211,-6.4414 -16.7618,-5.3476 -21.5625,1.3711 z"
         style="fill:#000000;fill-opacity:1;fill-rule:nonzero;stroke:none"
         id="path122"
         inkscape:connector-curvature="0" /><path
         d="m 80.6602,91.25 0,-9.6484 17.3515,0 c 0.6602,0 1.5196,0 2.0663,-0.1211 0.82,-0.1524 1.762,-0.9688 2.461,-1.5196 2.731,-2.1914 4.141,-5.3515 4.141,-8.9414 -0.86,1.6719 -2.891,3.0391 -4.41,3.8594 -9.0708,5.5117 -20.8989,-1.3594 -21.6098,-11.6797 -0.3907,-5.5078 2.6211,-11.0078 7.4296,-13.6289 6.3204,-3.2812 16.3592,-2.0703 19.6802,4.961 0.941,-1.8008 2.351,-3.1602 3.992,-4.4102 1.519,-0.9414 3.277,-1.6406 5.078,-1.9219 3.32,-0.6992 6.75,-0.539 9.762,0.9805 6.597,3.1601 9.609,10.8594 7.578,17.582 -2.77,8.5469 -12.66,12.3789 -20.352,8.3985 -1.797,-0.8204 -4.258,-2.4688 -5.117,-4.2618 0,3.1602 -1.09,6.0508 -3.16,8.5118 -0.551,0.7109 -1.211,1.6406 -2.192,2.0703 l 0,0.1211 20.352,0 0,9.6484 -43.0508,0 z M 93.8711,73.7891 c 5.5078,0.6601 12.6489,-3.4375 10.5779,-9.7696 -0.269,-0.8203 -0.66,-1.5195 -1.359,-2.3398 -0.711,-0.6992 -1.531,-1.3711 -2.469,-1.9102 -1.0897,-0.7109 -2.4999,-1.0976 -3.8593,-1.25 -2.8906,-0.3984 -5.7812,0.2696 -8.2422,2.0703 -3.1679,2.3399 -4.1406,6.711 -1.3711,9.879 0.8204,0.9726 1.8008,1.6796 2.7305,2.2226 1.25,0.668 2.6211,0.9375 3.9922,1.0977 z m 25.1489,0 c 3.171,0.3906 6.332,-0.5508 8.679,-2.6172 2.5,-2.461 3.039,-6.4805 0.821,-9.2227 -0.821,-0.8203 -1.758,-1.6406 -2.739,-2.1797 -1.09,-0.7109 -2.461,-1.0976 -3.871,-1.25 -3,-0.3984 -6.32,0.2696 -8.629,2.3399 -0.98,0.8203 -1.679,1.6406 -2.23,2.7304 -1.481,3.6016 0.711,7.3086 3.988,9.1016 1.25,0.668 2.621,0.9375 3.981,1.0977 z"
         style="fill:#000000;fill-opacity:1;fill-rule:nonzero;stroke:none"
         id="path124"
         inkscape:connector-curvature="0" /><path
         d="m 114.531,91.25 0,-9.6484 22.418,0 c 3.832,0 7.821,0.2695 11.68,-0.1211 4.961,-0.4297 10.43,-1.3594 13.75,-5.5 3.441,-4.5391 2.461,-12.1094 -2.07,-15.3907 -3.829,-2.8984 -9.758,-2.8984 -13.59,-0.5507 -3.321,2.0703 -4.258,5.6211 -2.231,8.9414 0.981,1.4883 2.621,3.1679 4.692,2.7383 -0.551,-0.5469 -0.821,-1.25 -0.981,-2.0704 -0.539,-2.8867 2.231,-4.8086 4.692,-4.6484 3.16,0.2695 4.961,3.1211 4.257,6.1719 -0.269,0.8164 -0.668,1.6367 -1.527,2.3476 -0.66,0.8203 -1.75,1.3594 -2.851,1.7891 -5.661,1.6406 -10.309,-2.8867 -11.829,-8.0078 -0.55,-1.75 -0.55,-3.711 -0.281,-5.6211 0.551,-5.6289 3.442,-12.2305 9.5,-13.5899 6.442,-1.5312 11.52,2.8516 14.41,8.2383 4.532,8.3633 3.711,20.9024 -2.621,28.1602 -3.711,4.1406 -8.629,6.2109 -14.019,6.7617 -2.621,0.2695 -5.469,0 -8.09,0 l -25.309,0 z"
         style="fill:#000000;fill-opacity:1;fill-rule:nonzero;stroke:none"
         id="path126"
         inkscape:connector-curvature="0" /><path
         d="m 174.34,91.25 0,-9.6484 15.109,0 0,-0.1211 c -3.59,0 -6.871,-3.8594 -5.109,-7.4219 1.25,-2.0703 3.859,-3.1602 6.211,-3.1602 2.461,0 5.23,1.0899 6.437,3.4414 1.684,3.4297 -1.636,6.9883 -5.078,7.1407 l 0,0.1211 11.141,0 0,9.6484 -28.711,0 z m 0,-43.4414 2.851,0 c 0,1.1016 0.149,2.0312 0.7,3.0117 2.621,6.6016 11.019,7.8516 16.91,5.6211 2.187,-0.8203 4.148,-2.1797 5.508,-3.9805 1.101,-1.5195 1.531,-3.2812 3.441,-4.1015 3.012,-1.4102 5.898,0 7.539,2.7304 2.34,3.711 2.77,8.129 2.621,12.3907 -0.281,4.0976 -1.371,8.2383 -3.441,11.8281 -0.547,0.9414 -1.207,2.4609 -2.071,3.1328 -0.546,0.3086 -1.488,-0.2812 -1.636,-0.6719 -0.121,-0.539 0.429,-1.25 0.429,-1.789 0.539,-1.3711 0.93,-2.7422 1.36,-4.1094 1.097,-3.8594 0.277,-8.3906 -1.09,-12.1016 -0.699,-1.5312 -1.641,-3.4414 -3.32,-4.1484 -1.09,-0.3906 -2.461,0 -3.282,0.9805 -0.699,0.8203 -0.98,2.1875 -1.519,3.1679 -1.25,2.461 -3.168,4.6407 -5.512,6.0508 -1.207,0.5508 -2.308,0.9414 -3.707,1.211 -3.832,0.6992 -7.699,-1.211 -10.32,-4.1016 -3.821,-4.1406 -5.461,-9.6484 -5.461,-15.1211 z"
         style="fill:#000000;fill-opacity:1;fill-rule:nonzero;stroke:none"
         id="path128"
         inkscape:connector-curvature="0" /><path
         d="m 193.672,91.25 0,-9.6484 22.418,0 c 3.871,0 7.859,0.2695 11.68,-0.1211 4.96,-0.4297 10.468,-1.3594 13.75,-5.5 3.441,-4.5391 2.5,-12.1094 -2.032,-15.3907 -3.867,-2.8984 -9.758,-2.8984 -13.629,-0.5507 -3.281,2.0703 -4.257,5.6211 -2.187,8.9414 0.937,1.4883 2.617,3.1679 4.648,2.7383 -0.55,-0.5469 -0.82,-1.25 -0.941,-2.0704 -0.539,-2.8867 2.191,-4.8086 4.691,-4.6484 3.129,0.2695 4.918,3.1211 4.258,6.1719 -0.277,0.8164 -0.707,1.6367 -1.527,2.3476 -0.699,0.8203 -1.789,1.3594 -2.891,1.7891 -5.621,1.6406 -10.308,-2.8867 -11.832,-8.0078 -0.547,-1.75 -0.547,-3.711 -0.277,-5.6211 0.551,-5.6289 3.437,-12.2305 9.5,-13.5899 6.48,-1.5312 11.558,2.8516 14.449,8.2383 4.531,8.3633 3.711,20.9024 -2.621,28.1602 -3.707,4.1406 -8.668,6.2109 -14.02,6.7617 -2.621,0.2695 -5.507,0 -8.129,0 l -25.308,0 z"
         style="fill:#000000;fill-opacity:1;fill-rule:nonzero;stroke:none"
         id="path130"
         inkscape:connector-curvature="0" /><path
         d="m 253.48,91.25 0,-9.6484 21.989,0 c 4.531,0 9.062,0.4297 13.359,-1.6407 5.742,-2.8906 11.25,-9.7695 8.363,-16.4804 -0.39,-0.8203 -0.82,-1.6407 -1.371,-2.3516 -5.351,-6.0508 -16.371,-0.8203 -18.16,5.9024 l -0.121,0 c -1.918,-5.9024 -7.969,-8.9102 -13.91,-8.5118 -2.578,0.1524 -6.867,1.3594 -7.258,4.4102 -0.281,2.1914 1.789,4.1016 3.551,4.8008 3.316,1.25 7.027,-0.8203 7.027,-4.5313 0.551,0 1.531,-0.1484 1.922,0.1211 0.27,0.1602 0.43,0.8203 0.539,1.0899 0.43,1.4101 0.711,2.5 0.16,3.8711 -0.699,2.1875 -2.769,3.707 -4.961,4.4101 -4.961,1.3672 -9.879,-2.2226 -10.859,-7.0312 -1.641,-7.5391 3.59,-18.8204 12.5,-17.7305 0.98,0 1.949,0.2695 2.891,0.6992 1.949,0.8203 3.589,2.1914 4.961,3.7109 1.519,1.9219 3.168,4.5313 3.437,7 l 0.121,0 c 0.149,-1.5312 0.969,-3.1679 1.789,-4.3789 3.321,-5.9414 10.86,-9.7695 16.922,-5.2304 3.039,2.3398 4.68,6.1679 5.231,9.7578 0.976,6.1719 -0.704,12.2305 -4.801,16.9219 -1.801,2.0312 -4.692,4.5312 -7.313,5.0703 l 0,0.1211 2.352,0 0,9.6484 -38.36,0 z"
         style="fill:#000000;fill-opacity:1;fill-rule:nonzero;stroke:none"
         id="path132"
         inkscape:connector-curvature="0" /><path
         d="m 294.961,103.91 0,-0.16 c 1.09,-1.09 2.34,-2.461 2.891,-3.9805 1.25,-3.4414 -0.973,-6.7187 -4.141,-8.1289 C 292.5,91.0898 290.98,91.25 289.609,91.25 l -5.39,0 0,-9.6484 c 3.32,0 7.031,-0.5508 10.191,0.4297 5.789,1.9101 8.949,8.5195 8.129,14.2968 -0.43,2.7305 -1.801,5.5119 -3.711,7.5819 -0.43,0.391 -1.406,1.641 -1.949,1.641 -0.668,0 -1.488,-1.25 -1.918,-1.641 z"
         style="fill:#000000;fill-opacity:1;fill-rule:nonzero;stroke:none"
         id="path134"
         inkscape:connector-curvature="0" /><path
         d="m 298.91,64.1406 c -0.281,-0.5508 -0.16,-1.2109 -0.16,-1.7617 0,-2.0703 0.551,-3.5898 1.52,-5.5078 2.89,-5.5 9.339,-11.4023 16.101,-8.2422 3.707,1.7617 6.328,5.7422 7.539,9.7695 2.77,8.0821 1.68,18.5508 -4.262,25.1524 -2.617,2.8906 -6.058,4.8086 -10.039,4.8086 -2.187,0 -4.379,-0.6992 -5.468,-2.7383 -1.52,-2.6094 0.39,-5.5 3.007,-6.2109 1.911,-0.5391 3.872,-0.5391 5.782,-0.9688 5.511,-1.4922 11.679,-5.75 9.492,-12.3516 -0.434,-1.25 -1.094,-2.3398 -1.953,-3.3203 -5.629,-6.4414 -16.758,-5.3476 -21.559,1.3711 z"
         style="fill:#000000;fill-opacity:1;fill-rule:nonzero;stroke:none"
         id="path136"
         inkscape:connector-curvature="0" /><path
         d="m 350.621,91.0898 c -13.32,-1.75 -19.101,-17.4609 -15.391,-29.1406 2.622,-8.2383 10.04,-15.1094 19.11,-14.0195 14.019,1.6406 19.371,20.082 14.18,31.6406 -3.168,6.8711 -9.93,12.6211 -17.899,11.5195 z m 0.277,-9.4882 c 7.301,0.8593 16.481,-3.5508 16.481,-11.8008 0,-1.0899 -0.109,-2.2227 -0.391,-3.1602 -0.539,-1.25 -1.25,-2.3398 -2.187,-3.3203 -0.973,-1.0898 -2.34,-2.1914 -3.75,-2.8906 -1.91,-1.0899 -3.981,-1.6406 -6.172,-1.9102 -4.41,-0.5507 -9.059,0.5391 -12.649,3.1602 -4.652,3.7109 -6.058,10.1914 -1.921,14.8398 1.25,1.25 2.461,2.3516 3.992,3.1719 2.07,1.0899 4.41,1.6367 6.597,1.9102 z"
         style="fill:#000000;fill-opacity:1;fill-rule:nonzero;stroke:none"
         id="path138"
         inkscape:connector-curvature="0" /><path
         d="m 375.98,91.25 0,-9.6484 16.641,0 c 2.77,0 5.66,0.2695 8.399,0 2.179,-0.2735 3.98,-2.7305 3.98,-4.8008 -2.73,0.6992 -5.078,1.0898 -7.852,0.9687 -1.918,-0.2695 -3.707,-0.539 -5.347,-1.3593 -3.563,-1.6797 -7.153,-5.7891 -4.141,-9.6485 0.578,-0.6719 1.25,-1.2109 2.07,-1.6406 4.25,-2.8906 10.579,-2.3516 14.719,0.6992 1.922,1.3711 3.711,3.711 3.832,6.0508 4.02,-2.3398 2.617,-8 -0.66,-10.1914 -5.351,-3.8711 -13.09,-3.8711 -19.262,-2.6211 -3.007,0.7109 -6.879,2.1914 -8.129,5.2422 -0.539,1.25 -0.39,2.4609 -0.39,3.7109 -0.539,0 -1.36,0.2696 -1.91,0 -0.86,-0.4336 -1.41,-2.1914 -1.52,-3.0117 -0.98,-3.1602 -0.16,-6.6016 1.641,-9.3789 4.25,-5.7813 12.648,-8.2422 19.527,-7.8125 7.152,0.5508 14.453,4.1016 17.192,11.1328 1.519,3.9883 1.089,8.7891 -1.372,12.5 -1.097,1.3672 -2.777,3.0078 -4.527,3.4375 -0.16,1.6406 -0.711,3.5625 -1.531,5.082 -0.27,0.5508 -0.699,1.25 -1.25,1.5196 -0.391,0.1211 -0.93,0.1211 -1.36,0.1211 l 0,9.6484 -28.75,0 z m 28.469,-16.8008 c -0.269,-0.8203 -0.969,-1.6406 -1.359,-2.3008 -2.07,-2.3476 -4.692,-3.4375 -7.699,-2.8867 -1.411,0.1094 -2.891,0.5391 -3.711,1.7578 -0.7,1.1289 0.121,2.3399 0.941,3.1602 1.789,1.4101 4.258,1.8008 6.481,1.6797 1.918,-0.2696 3.558,-0.9805 5.347,-1.4102 z"
         style="fill:#000000;fill-opacity:1;fill-rule:nonzero;stroke:none"
         id="path140"
         inkscape:connector-curvature="0" /><path
         d="m 408.711,103.91 0,-0.16 c 1.09,-1.09 2.309,-2.461 2.891,-3.9805 1.207,-3.4414 -0.981,-6.7187 -4.141,-8.1289 -1.25,-0.5508 -2.731,-0.3906 -4.141,-0.3906 l -5.351,0 0,-9.6484 c 3.32,0 7.031,-0.5508 10.191,0.4297 5.75,1.9101 8.91,8.5195 8.09,14.2968 -0.391,2.7305 -1.801,5.5119 -3.711,7.5819 -0.391,0.391 -1.367,1.641 -1.918,1.641 -0.699,0 -1.519,-1.25 -1.91,-1.641 z"
         style="fill:#000000;fill-opacity:1;fill-rule:nonzero;stroke:none"
         id="path142"
         inkscape:connector-curvature="0" /><path
         d="m 453.238,76.8008 0,0.1484 c -0.539,0.5508 -1.207,0.9414 -1.636,1.8008 -0.821,1.3711 0.429,3.2813 1.519,4.1016 2.469,1.6367 6.609,0.4297 6.879,-2.7305 0.27,-3.6016 -3.16,-6.2109 -5.512,-8.25 -2.886,-2.5 -6.597,-4.9609 -7.578,-8.9414 -0.39,-1.5195 -0.269,-3.3203 0,-4.8086 0.43,-1.793 0.981,-3.4297 1.961,-4.9609 0.82,-1.3594 1.75,-2.5 3.16,-3.3204 6.168,-4.371 13.75,-0.8203 17.188,5.2383 0.66,1.3633 1.48,2.8907 1.64,4.4102 l 0.121,0 c 0.149,-1.5195 0.969,-3.1602 1.68,-4.4102 2.461,-4.4179 7.961,-8.789 13.32,-6.7187 0.821,0.2695 1.641,0.8203 2.34,1.4804 2.621,2.2305 4.258,6.0586 5.352,9.2188 2.066,7.0312 2.066,15 0,21.9922 -0.942,3.168 -2.461,6.4883 -4.801,8.8281 -1.531,1.6406 -3.711,2.6211 -5.902,2.3125 -2.231,-0.1211 -2.77,-3.4414 -2.231,-5.082 1.25,-3.168 4.692,-4.0977 6.883,-6.0586 4.141,-3.5508 5.5,-9.8789 3.981,-14.961 -0.942,-3.039 -3.282,-6.0507 -6.442,-7.1484 -5.629,-1.9531 -12.66,2.6172 -14.18,8.25 -0.55,-0.8203 -0.941,-2.0703 -1.492,-3.0508 -1.949,-2.582 -4.84,-4.8008 -8.117,-5.4687 -3.281,-0.5508 -7.699,0.3867 -8.672,4.0976 -0.121,0.711 -0.277,1.3711 -0.121,2.0703 0.391,1.5313 1.641,2.8907 2.621,4.1407 2.031,2.4609 4.801,4.539 6.871,7 1.211,1.5195 2.731,3.4297 2.731,5.3476 0.16,2.0703 -0.27,4.1407 -1.25,5.9414 -2.34,4.25 -7.692,6.4414 -12.223,4.25 -1.098,-0.539 -2.066,-1.3593 -2.738,-2.1797 -2.5,-2.7812 -2.5,-6.7617 -0.969,-9.9296 0.699,-1.25 1.52,-2.3399 2.457,-3.4297 0.274,-0.1211 0.82,-0.9805 1.25,-0.9805 0.703,0 1.524,1.4102 1.91,1.8008 z"
         style="fill:#000000;fill-opacity:1;fill-rule:nonzero;stroke:none"
         id="path144"
         inkscape:connector-curvature="0" /><path
         d="m 502.07,91.25 0,-9.6484 21.989,0 c 4.531,0 9.062,0.4297 13.363,-1.6407 5.738,-2.8906 11.25,-9.7695 8.359,-16.4804 -0.39,-0.8203 -0.82,-1.6407 -1.371,-2.3516 -5.351,-6.0508 -16.359,-0.8203 -18.16,5.9024 l -0.121,0 c -1.91,-5.9024 -7.969,-8.9102 -13.899,-8.5118 -2.621,0.1524 -6.878,1.3594 -7.269,4.4102 -0.27,2.1914 1.801,4.1016 3.559,4.8008 3.32,1.25 7.031,-0.8203 7.031,-4.5313 0.539,0 1.519,-0.1484 1.91,0.1211 0.269,0.1602 0.43,0.8203 0.551,1.0899 0.429,1.4101 0.699,2.5 0.148,3.8711 -0.699,2.1875 -2.769,3.707 -4.961,4.4101 -4.961,1.3672 -9.879,-2.2226 -10.859,-7.0312 -1.641,-7.5391 3.558,-18.8204 12.5,-17.7305 0.98,0 1.961,0.2695 2.89,0.6992 1.918,0.8203 3.598,2.1914 4.969,3.7109 1.52,1.9219 3.16,4.5313 3.43,7 l 0.121,0 c 0.16,-1.5312 0.98,-3.1679 1.801,-4.3789 3.32,-5.9414 10.859,-9.7695 16.91,-5.2304 3.051,2.3398 4.687,6.1679 5.238,9.7578 0.973,6.1719 -0.711,12.2305 -4.808,16.9219 -1.801,2.0312 -4.692,4.5312 -7.301,5.0703 l 0,0.1211 2.34,0 0,9.6484 -38.36,0 z"
         style="fill:#000000;fill-opacity:1;fill-rule:nonzero;stroke:none"
         id="path146"
         inkscape:connector-curvature="0" /><path
         d="m 543.551,103.91 0,-0.16 c 1.097,-1.09 2.347,-2.461 2.898,-3.9805 1.25,-3.4414 -0.98,-6.7187 -4.148,-8.1289 C 541.09,91.0898 539.57,91.25 538.199,91.25 l -5.39,0 0,-9.6484 c 3.32,0 7.031,-0.5508 10.203,0.4297 5.777,1.9101 8.937,8.5195 8.117,14.2968 -0.43,2.7305 -1.789,5.5119 -3.75,7.5819 -0.391,0.391 -1.359,1.641 -1.91,1.641 -0.668,0 -1.52,-1.25 -1.918,-1.641 z"
         style="fill:#000000;fill-opacity:1;fill-rule:nonzero;stroke:none"
         id="path148"
         inkscape:connector-curvature="0" /><path
         d="m 547.5,64.1406 c -0.27,-0.5508 -0.16,-1.2109 -0.16,-1.7617 0,-2.0703 0.551,-3.5898 1.531,-5.5078 2.891,-5.5 9.328,-11.4023 16.09,-8.2422 3.711,1.7617 6.328,5.7422 7.539,9.7695 2.77,8.0821 1.68,18.5508 -4.262,25.1524 -2.617,2.8906 -6.047,4.8086 -10.039,4.8086 -2.179,0 -4.371,-0.6992 -5.5,-2.7383 -1.488,-2.6094 0.422,-5.5 3.039,-6.2109 1.922,-0.5391 3.832,-0.5391 5.782,-0.9688 5.511,-1.4922 11.679,-5.75 9.5,-12.3516 -0.43,-1.25 -1.141,-2.3398 -1.961,-3.3203 -5.618,-6.4414 -16.758,-5.3476 -21.559,1.3711 z"
         style="fill:#000000;fill-opacity:1;fill-rule:nonzero;stroke:none"
         id="path150"
         inkscape:connector-curvature="0" /><path
         d="m 571.289,31.1719 c 0.43,-1.9531 1.09,-3.5938 2.34,-5.1211 0.98,-1.211 2.191,-2.1797 3.601,-2.8906 3.43,-1.3594 7.54,-0.3907 9.879,2.6211 3.051,3.8671 1.371,9.2187 -3.16,10.8593 -1.25,0.4297 -2.621,0.5508 -3.828,0.4297 -1.961,-0.1601 -3.992,-0.2695 -5.941,-0.9805 1.09,1.961 2.5,5.5118 1.949,7.6993 -0.699,1.9492 -3.43,3.4414 -5.109,1.9492 -1.918,-1.7969 0.539,-3.5899 1.089,-5.2266 0.43,-0.8203 0.161,-2.1914 0,-3.0117 -0.121,-0.6992 -0.39,-1.5195 -0.82,-2.2305 -0.82,-1.0898 -2.461,-1.6406 -3.559,-2.8906 -2.339,-2.457 -3.589,-5.7773 -3.16,-9.2187 0.27,-2.461 1.09,-4.8008 2.461,-6.9883 5.348,-7.30081 17.457,-8.51174 23.52,-1.5235 1.25,1.25 2.07,2.6211 2.769,4.1407 0.121,0.6601 0.942,2.3398 0.551,3.0117 -0.16,0.2695 -0.711,0.4297 -0.98,0.539 -0.27,0.1602 -0.551,0.4297 -0.821,0.4297 -0.269,-0.1484 -0.55,-0.539 -0.699,-0.6992 -0.551,-0.3906 -1.101,-0.9414 -1.801,-1.3711 -1.371,-1.0898 -3.011,-1.9101 -4.8,-2.4609 -4.809,-1.0899 -11.141,-0.8164 -14.418,3.2812 -1.09,1.25 -2.34,3.6016 -1.801,5.3516 0.398,1.6797 1.648,3.0508 2.738,4.3008 z m 6.481,3.0078 c 1.8,0.1601 4.109,-0.1211 5.351,-1.5195 2.188,-2.4688 -0.82,-4.8086 -3.16,-5.1993 -2.461,-0.2695 -4.691,1.0899 -5.352,3.5586 -0.269,0.4219 -0.699,1.6407 -0.269,2.1797 0.539,0.8594 2.461,0.8594 3.43,0.9805 z"
         style="fill:#000000;fill-opacity:1;fill-rule:nonzero;stroke:none"
         id="path152"
         inkscape:connector-curvature="0" /><path
         d="m 600.078,68.0117 c -5.387,-1.3711 -9.098,-6.4531 -8.668,-12.1133 0.391,-4.8086 5.891,-9.4882 10.699,-7.9687 2.77,0.8203 4.571,5.2305 2.621,7.4219 -0.671,0.6992 -1.64,0.9765 -2.621,1.25 -2.031,0.5468 -5.629,1.5195 -5.738,4.3789 0,1.6797 1.481,3.5898 3.16,4.1406 1.367,0.2695 3.008,0 4.379,0 l 8.668,0 0,8.668 -10.039,0 c -1.801,0 -3.711,-0.1602 -5.348,0.3906 -3.441,1.4101 -3.871,5.3906 -0.281,6.8711 1.211,0.7109 2.738,0.5508 4.11,0.5508 l 31.91,0 0,9.6484 -20.508,0 c -4.371,0 -8.902,0.2695 -13.043,-1.6406 -5.789,-2.6211 -10.59,-10.4688 -6.609,-16.5196 1.8,-2.7382 4.421,-3.8281 7.308,-5.0781 z"
         style="fill:#000000;fill-opacity:1;fill-rule:nonzero;stroke:none"
         id="path154"
         inkscape:connector-curvature="0" /><path
         d="m 654.691,91.0898 c -13.363,-1.75 -19.14,-17.4609 -15.429,-29.1406 2.617,-8.2383 10.039,-15.1094 19.136,-14.0195 14.024,1.6406 19.372,20.082 14.141,31.6406 -3.16,6.8711 -9.879,12.6211 -17.848,11.5195 z m 0.27,-9.4882 c 7.269,0.8593 16.488,-3.5508 16.488,-11.8008 0,-1.0899 -0.121,-2.2227 -0.398,-3.1602 -0.582,-1.25 -1.25,-2.3398 -2.223,-3.3203 -0.937,-1.0898 -2.348,-2.1914 -3.707,-2.8906 -1.922,-1.0899 -3.992,-1.6406 -6.172,-1.9102 -4.418,-0.5507 -9.109,0.5391 -12.66,3.1602 -4.687,3.7109 -6.059,10.1914 -1.91,14.8398 1.211,1.25 2.461,2.3516 3.98,3.1719 2.071,1.0899 4.371,1.6367 6.602,1.9102 z"
         style="fill:#000000;fill-opacity:1;fill-rule:nonzero;stroke:none"
         id="path156"
         inkscape:connector-curvature="0" /><path
         d="m 677.148,91.25 0,-9.6484 c 1.524,0 3.442,0.2695 4.961,-0.1211 1.211,-0.1524 2.461,-0.9688 3.442,-1.5196 2.179,-1.3711 4.097,-3.0117 5.621,-5.082 3.437,-4.5273 3.168,-10.8594 -1.524,-14.4492 -0.82,-0.6602 -1.757,-1.2109 -2.886,-1.6406 -4.922,-1.5196 -11.41,1.25 -14.422,5.3515 0,-1.4804 -0.27,-3.2812 0,-4.8008 0.121,-0.9414 0.672,-1.9179 1.101,-2.7382 1.09,-2.0703 2.61,-3.8711 4.528,-5.5118 1.25,-0.9687 2.769,-1.9101 4.41,-2.4609 1.641,-0.6992 3.281,-0.8203 5.082,-0.8203 9.609,0.2812 14.449,11.9609 12.379,20.2031 -0.699,2.8867 -2.18,5.6172 -4.25,7.8477 -1.961,2.1914 -4.809,4.8008 -7.699,5.6211 l 0,0.1211 2.187,0 0,9.6484 -12.93,0 z"
         style="fill:#000000;fill-opacity:1;fill-rule:nonzero;stroke:none"
         id="path158"
         inkscape:connector-curvature="0" /><path
         d="m 692.66,103.91 0,-0.16 c 1.09,-1.09 2.34,-2.461 2.891,-3.9805 1.25,-3.4414 -0.981,-6.7187 -4.141,-8.1289 -1.211,-0.5508 -2.738,-0.3906 -4.109,-0.3906 l -5.391,0 0,-9.6484 c 3.32,0 7.039,-0.5508 10.199,0.4297 5.782,1.9101 8.942,8.5195 8.121,14.2968 -0.429,2.7305 -1.789,5.5119 -3.75,7.5819 -0.39,0.391 -1.359,1.641 -1.91,1.641 -0.66,0 -1.519,-1.25 -1.91,-1.641 z"
         style="fill:#000000;fill-opacity:1;fill-rule:nonzero;stroke:none"
         id="path160"
         inkscape:connector-curvature="0" /><path
         d="m 696.602,64.1406 c -0.274,-0.5508 -0.153,-1.2109 -0.153,-1.7617 0,-2.0703 0.539,-3.5898 1.52,-5.5078 2.89,-5.5 9.332,-11.4023 16.09,-8.2422 3.711,1.7617 6.332,5.7422 7.543,9.7695 2.777,8.0821 1.679,18.5508 -4.262,25.1524 -2.61,2.8906 -6.051,4.8086 -10.039,4.8086 -2.18,0 -4.371,-0.6992 -5.5,-2.7383 -1.492,-2.6094 0.429,-5.5 3.039,-6.2109 1.922,-0.5391 3.832,-0.5391 5.781,-0.9688 5.508,-1.4922 11.68,-5.75 9.5,-12.3516 -0.43,-1.25 -1.141,-2.3398 -1.961,-3.3203 -5.621,-6.4414 -16.75,-5.3476 -21.558,1.3711 z"
         style="fill:#000000;fill-opacity:1;fill-rule:nonzero;stroke:none"
         id="path162"
         inkscape:connector-curvature="0" /><path
         d="m 737.73,44.4883 2.071,0 c 0.668,3.4414 0,7.9726 -2.77,10.4726 -3.16,3.0079 -8.941,3.2774 -10.582,-1.5195 -1.648,-4.4219 1.36,-8.25 3.981,-11.5703 1.25,-1.5195 2.769,-2.8906 3.711,-4.5313 2.339,-3.7109 3.437,-8.789 1.41,-12.9296 -0.59,-1.3594 -1.531,-2.6094 -2.781,-3.4297 -2.731,-2.0703 -6.168,-1.6407 -9.059,-0.2813 -1.801,1.1016 -3.16,2.461 -2.891,4.6914 0.391,2.0703 2.461,3.1602 3.981,4.3789 1.801,1.6719 2.898,3.711 2.621,6.211 -0.274,2.1797 -1.094,4.3711 -3.043,5.6211 -2.899,2.0703 -7.43,0.5468 -9.07,-2.461 -1.09,-2.0703 -0.539,-5.082 0.98,-6.8711 0.391,-0.2812 0.941,-1.25 1.481,-1.25 0.281,-0.1211 1.41,0.5391 1.531,0.9688 0,0.2812 -0.281,0.6719 -0.281,0.9414 -0.11,0.6992 -0.11,1.4101 0.16,1.9492 0.941,1.9219 4.101,1.6406 4.8,-0.4297 1.25,-3.4297 -2.769,-4.9609 -4.96,-6.4375 -2.071,-1.5312 -3,-3.6015 -3.282,-6.2109 -0.269,-4.8125 3.172,-7.8203 7.422,-9.0703 5.899,-1.6407 12.93,-0.1524 16.488,4.9609 4.411,6.1797 2.071,15.3984 -2.617,20.75 -1.91,2.1797 -4.371,3.8594 -5.902,6.3281 -0.699,0.9688 -1.25,2.461 -0.699,3.5899 1.09,2.0312 4.531,1.6406 5.941,0.2695 1.09,-1.1289 1.359,-2.6094 1.359,-4.1406 z"
         style="fill:#000000;fill-opacity:1;fill-rule:nonzero;stroke:none"
         id="path164"
         inkscape:connector-curvature="0" /><path
         d="m 372.699,614.609 0,-165.742"
         style="fill:none;stroke:#000000;stroke-width:11;stroke-linecap:butt;stroke-linejoin:miter;stroke-miterlimit:4;stroke-dasharray:none;stroke-opacity:1"
         id="path166"
         inkscape:connector-curvature="0" /><path
         d="m 372.699,301.449 0,-165.711"
         style="fill:none;stroke:#000000;stroke-width:11;stroke-linecap:butt;stroke-linejoin:miter;stroke-miterlimit:4;stroke-dasharray:none;stroke-opacity:1"
         id="path168"
         inkscape:connector-curvature="0" /></g><text
       xml:space="preserve"
       style="font-style:normal;font-weight:normal;font-size:8px;line-height:125%;font-family:sans-serif;letter-spacing:0px;word-spacing:0px;fill:#000000;fill-opacity:1;stroke:none;stroke-width:1px;stroke-linecap:butt;stroke-linejoin:miter;stroke-opacity:1"
       x="78.964401"
       y="-19.016947"
       id="text3515"
       sodipodi:linespacing="125%"
       transform="scale(1,-1)"><tspan
         sodipodi:role="line"
         id="tspan3517"
         x="78.964401"
         y="-19.016947"
         style="-inkscape-font-specification:'sans-serif Bold';font-family:sans-serif;font-weight:bold;font-style:normal;font-stretch:normal;font-variant:normal">(:  )</tspan></text>
</g></svg>