<?xml version="1.0" encoding="UTF-8" standalone="no"?>
<!-- Created with Inkscape (http://www.inkscape.org/) -->

<svg
   xmlns:ns0="http://www.iki.fi/pav/software/textext/"
   xmlns:dc="http://purl.org/dc/elements/1.1/"
   xmlns:cc="http://creativecommons.org/ns#"
   xmlns:rdf="http://www.w3.org/1999/02/22-rdf-syntax-ns#"
   xmlns:svg="http://www.w3.org/2000/svg"
   xmlns="http://www.w3.org/2000/svg"
   xmlns:sodipodi="http://sodipodi.sourceforge.net/DTD/sodipodi-0.dtd"
   xmlns:inkscape="http://www.inkscape.org/namespaces/inkscape"
   width="425.19684"
   height="283.46457"
   id="svg2"
   version="1.1"
   inkscape:version="0.91 r13725"
   sodipodi:docname="chap3-fig4-1.svg">
  <sodipodi:namedview
     id="base"
     pagecolor="#ffffff"
     bordercolor="#666666"
     borderopacity="1.0"
     inkscape:pageopacity="0.0"
     inkscape:pageshadow="2"
     inkscape:zoom="1.5885153"
     inkscape:cx="266.22915"
     inkscape:cy="117.11059"
     inkscape:document-units="px"
     inkscape:current-layer="textext-f6b15aa2-17"
     showgrid="false"
     units="cm"
     inkscape:window-width="1024"
     inkscape:window-height="744"
     inkscape:window-x="0"
     inkscape:window-y="24"
     inkscape:window-maximized="1" />
  <defs
     id="defs4">
    <inkscape:perspective
       id="perspective10"
       inkscape:persp3d-origin="372.04724 : 350.78739 : 1"
       inkscape:vp_z="744.09448 : 526.18109 : 1"
       inkscape:vp_y="0 : 1000 : 0"
       inkscape:vp_x="0 : 526.18109 : 1"
       sodipodi:type="inkscape:persp3d" />
  </defs>
  <metadata
     id="metadata7">
    <rdf:RDF>
      <cc:Work
         rdf:about="">
        <dc:format>image/svg+xml</dc:format>
        <dc:type
           rdf:resource="http://purl.org/dc/dcmitype/StillImage" />
        <dc:title></dc:title>
      </cc:Work>
    </rdf:RDF>
  </metadata>
  <g
     transform="translate(0,-768.89596)"
     id="layer1"
     inkscape:groupmode="layer"
     inkscape:label="Layer 1">
    <g
       transform="translate(66.25,740.53571)"
       ns0:text="{\\kan bANa}\n\n{\\kan duNuDx}\n\n{\\kan (pati) maramagULa}"
       ns0:preamble="/home/sriranga/Desktop/eps-figs/nudi-package.tex"
       id="g4817">
      <defs
         id="defs4819">
        <g
           id="g4821">
          <symbol
             style="overflow:visible"
             overflow="visible"
             id="textext-f6b15aa2-0">
            <path
               style="stroke:none"
               d=""
               id="path4824" />
          </symbol>
          <symbol
             style="overflow:visible"
             overflow="visible"
             id="textext-f6b15aa2-1">
            <path
               style="stroke:none"
               d="M 0.8125,-3.078125 C 0.71875,-3.140625 0.625,-3.21875 0.546875,-3.3125 c -0.21875,-0.296875 -0.0625,-0.796875 0.28125,-0.9375 0.203125,-0.09375 0.46875,0.015625 0.625,0.15625 0.0625,0.078125 0.125,0.15625 0.15625,0.25 0.171875,0.4375 -0.21875,0.78125 -0.515625,1.046875 -0.53125,0.484375 -1.1875,0.96875 -1.078125,1.765625 0.015625,0.15625 0.078125,0.328125 0.15625,0.46875 0.09375,0.109375 0.171875,0.21875 0.28125,0.296875 C 1.140625,0.28125 2.0625,-0.09375 2.5,-0.75 2.609375,-0.90625 2.71875,-1.09375 2.734375,-1.296875 l 0.015625,0 C 2.765625,-1.15625 2.84375,-1 2.90625,-0.875 3.015625,-0.625 3.203125,-0.359375 3.453125,-0.203125 3.859375,0.078125 4.421875,0.0625 4.8125,-0.234375 5.828125,-1.03125 5.625,-2.65625 4.859375,-3.515625 4.6875,-3.71875 4.484375,-3.890625 4.25,-4.03125 4.171875,-4.078125 4.09375,-4.140625 4,-4.15625 l 0,-0.015625 0.25,0 0,-0.765625 -1.703125,0 0,0.765625 c 0.46875,0 0.921875,-0.03125 1.34375,0.171875 0.34375,0.140625 0.625,0.375 0.84375,0.65625 0.5,0.625 0.609375,1.59375 0.0625,2.21875 C 4.6875,-1 4.5625,-0.90625 4.421875,-0.84375 3.625,-0.484375 2.734375,-1.375 2.71875,-2.15625 2.65625,-2.046875 2.640625,-1.890625 2.59375,-1.765625 2.40625,-1.375 2.09375,-1.03125 1.6875,-0.859375 1.5,-0.78125 1.25,-0.734375 1.046875,-0.78125 0.703125,-0.859375 0.390625,-1.171875 0.4375,-1.546875 c 0.046875,-0.3125 0.28125,-0.546875 0.5,-0.75 0.5,-0.5 1.203125,-0.953125 1.09375,-1.734375 C 1.96875,-4.390625 1.75,-4.71875 1.421875,-4.859375 0.78125,-5.140625 0.015625,-4.6875 0,-3.984375 c -0.015625,0.3125 0.109375,0.65625 0.34375,0.875 0.078125,0.0625 0.15625,0.125 0.25,0.171875 0.03125,0 0.078125,0.03125 0.109375,0.03125 C 0.75,-2.9375 0.796875,-3.03125 0.8125,-3.078125 z m 0,0"
               id="path4827" />
          </symbol>
          <symbol
             style="overflow:visible"
             overflow="visible"
             id="textext-f6b15aa2-2">
            <path
               style="stroke:none"
               d="m -2.65625,-4.9375 0,0.765625 2.546875,0 c 0.65625,0 1.296875,-0.03125 1.890625,0.296875 0.328125,0.171875 0.59375,0.4375 0.75,0.765625 0.296875,0.703125 0.046875,1.734375 -0.625,2.15625 C 1.296875,-0.5625 0.25,-0.796875 0.03125,-1.5625 -0.015625,-1.75 0,-2 0.0625,-2.1875 c 0.03125,-0.15625 0.109375,-0.28125 0.21875,-0.390625 -0.046875,0.109375 -0.0625,0.25 -0.015625,0.359375 0.125,0.25 0.515625,0.40625 0.75,0.21875 0.09375,-0.0625 0.15625,-0.1875 0.1875,-0.3125 0.015625,-0.09375 0.015625,-0.203125 0,-0.296875 C 1.171875,-2.71875 1.109375,-2.796875 1.03125,-2.875 0.9375,-2.953125 0.8125,-3 0.703125,-3.015625 0.09375,-3.078125 -0.1875,-2.375 -0.203125,-1.875 -0.234375,-1.109375 0.015625,-0.234375 0.875,-0.046875 1,0 1.15625,0.015625 1.296875,0 1.90625,-0.046875 2.3125,-0.5 2.578125,-1.015625 3.125,-2.125 2.890625,-3.53125 2.015625,-4.390625 1.453125,-4.9375 0.734375,-4.9375 0.015625,-4.9375 l -2.671875,0 z m 0,0"
               id="path4830" />
          </symbol>
          <symbol
             style="overflow:visible"
             overflow="visible"
             id="textext-f6b15aa2-3">
            <path
               style="stroke:none"
               d="m 0.984375,-2.3125 0,0.015625 C 0.53125,-2.171875 0.1875,-1.828125 0.0625,-1.390625 -0.125,-0.75 0.203125,-0.0625 0.90625,0 1.25,0.03125 1.609375,-0.109375 1.859375,-0.34375 1.90625,-0.40625 2.078125,-0.5625 2.078125,-0.65625 2.0625,-0.703125 2.015625,-0.734375 1.984375,-0.765625 l -0.015625,0 C 1.78125,-0.5625 1.5625,-0.421875 1.28125,-0.4375 0.75,-0.453125 0.375,-1.03125 0.53125,-1.515625 0.703125,-1.984375 1.203125,-2.1875 1.640625,-2.296875 l 0,-0.015625 C 1.453125,-2.328125 1.25,-2.40625 1.09375,-2.5 0.921875,-2.59375 0.765625,-2.71875 0.640625,-2.875 0.328125,-3.328125 0.5625,-3.90625 1.0625,-4.109375 c 0.296875,-0.125 0.65625,-0.0625 0.9375,0.078125 0.171875,0.09375 0.328125,0.25 0.453125,0.40625 0.140625,0.1875 0.265625,0.421875 0.28125,0.65625 l 0.015625,0 C 2.765625,-3.203125 2.90625,-3.453125 3.0625,-3.625 3.71875,-4.390625 4.9375,-4.3125 5.546875,-3.546875 6,-2.984375 6.0625,-2.09375 5.734375,-1.453125 5.40625,-0.828125 4.5,-0.546875 3.890625,-0.921875 3.53125,-1.140625 3.296875,-1.5625 3.375,-1.984375 c 0.078125,-0.4375 0.546875,-0.859375 1,-0.640625 0.375,0.171875 0.375,0.78125 -0.09375,0.828125 l 0,0.21875 c 0.40625,-0.015625 0.671875,-0.40625 0.65625,-0.78125 0,-0.28125 -0.140625,-0.53125 -0.390625,-0.671875 C 4,-3.34375 3.40625,-2.875 3.234375,-2.359375 2.96875,-1.65625 3.171875,-0.71875 3.765625,-0.234375 4.171875,0.0625 4.75,0.0625 5.15625,-0.203125 5.421875,-0.375 5.625,-0.625 5.78125,-0.890625 6.3125,-1.84375 6.296875,-3.265625 5.671875,-4.171875 5.4375,-4.5 5.140625,-4.796875 4.75,-4.890625 4.046875,-5.078125 3.28125,-4.703125 2.9375,-4.09375 2.84375,-3.953125 2.765625,-3.78125 2.75,-3.625 2.609375,-3.953125 2.515625,-4.25 2.25,-4.53125 2.0625,-4.703125 1.859375,-4.84375 1.609375,-4.90625 0.875,-5.078125 0.046875,-4.578125 0,-3.796875 -0.03125,-3.375 0.125,-2.90625 0.4375,-2.59375 c 0.140625,0.140625 0.34375,0.265625 0.546875,0.28125 z m 0,0"
               id="path4833" />
          </symbol>
          <symbol
             style="overflow:visible"
             overflow="visible"
             id="textext-f6b15aa2-4">
            <path
               style="stroke:none"
               d="m 0,-4.9375 0,0.765625 1.828125,0 0,0.015625 C 1.59375,-4.125 1.34375,-3.984375 1.140625,-3.875 0.6875,-3.59375 0.296875,-3.15625 0.125,-2.65625 c -0.296875,0.796875 -0.078125,1.84375 0.578125,2.390625 0.765625,0.65625 1.90625,-0.03125 2.03125,-0.9375 l 0.015625,0 c 0.015625,0.140625 0.078125,0.28125 0.15625,0.40625 0.28125,0.578125 0.90625,0.953125 1.546875,0.734375 0.125,-0.046875 0.21875,-0.109375 0.328125,-0.203125 0.65625,-0.515625 0.875,-1.625 0.59375,-2.40625 C 5.1875,-3.171875 4.8125,-3.59375 4.34375,-3.875 4.140625,-4 3.890625,-4.125 3.65625,-4.15625 l 0,-0.015625 0.6875,0 0,-0.765625 -4.34375,0 z m 2.75,3.078125 c -0.109375,0.265625 -0.1875,0.5 -0.390625,0.71875 C 2.265625,-1.0625 2.15625,-0.96875 2.046875,-0.90625 1.4375,-0.53125 0.75,-0.953125 0.515625,-1.578125 0.28125,-2.234375 0.546875,-2.984375 1,-3.46875 1.671875,-4.171875 2.875,-4.375 3.75,-3.984375 c 0.921875,0.4375 1.65625,1.5625 1.140625,2.5625 -0.0625,0.140625 -0.140625,0.25 -0.25,0.359375 -0.53125,0.53125 -1.3125,0.265625 -1.6875,-0.296875 C 2.875,-1.5 2.765625,-1.6875 2.75,-1.859375 z m 0,0"
               id="path4836" />
          </symbol>
          <symbol
             style="overflow:visible"
             overflow="visible"
             id="textext-f6b15aa2-5">
            <path
               style="stroke:none"
               d="m -1.625,-6.515625 -0.09375,0.15625 c 0.484375,0.203125 0.5,0.953125 0.109375,1.25 -0.28125,0.21875 -0.65625,0.171875 -1,0.171875 l 0,0.765625 c 0.46875,0 0.890625,0.03125 1.25,-0.328125 0.0625,-0.078125 0.109375,-0.15625 0.15625,-0.234375 C -0.9375,-5.1875 -0.875,-5.90625 -1.28125,-6.296875 -1.359375,-6.390625 -1.5,-6.5 -1.625,-6.515625 z m 0,0"
               id="path4839" />
          </symbol>
          <symbol
             style="overflow:visible"
             overflow="visible"
             id="textext-f6b15aa2-6">
            <path
               style="stroke:none"
               d="m -1.21875,-2.296875 c -0.03125,0.078125 0,0.1875 0,0.25 0,0.25 0.03125,0.453125 0.125,0.6875 0.3125,0.765625 1.15625,1.6875 2.078125,1.265625 0.421875,-0.203125 0.6875,-0.609375 0.84375,-1.046875 C 2.203125,-2.09375 2,-3.234375 1.421875,-4.0625 c -0.375,-0.5 -1.015625,-1.015625 -1.6875,-0.859375 -0.0625,0.015625 -0.109375,0.03125 -0.15625,0.0625 -0.296875,0.171875 -0.109375,0.46875 0.109375,0.59375 0.1875,0.125 0.453125,0.125 0.65625,0.203125 0.46875,0.1875 0.859375,0.5 1.15625,0.890625 0.140625,0.21875 0.25,0.46875 0.28125,0.734375 0.078125,0.75 -0.390625,1.609375 -1.1875,1.671875 -0.859375,0.0625 -1.5625,-0.796875 -1.8125,-1.53125 z m 0,0"
               id="path4842" />
          </symbol>
          <symbol
             style="overflow:visible"
             overflow="visible"
             id="textext-f6b15aa2-7">
            <path
               style="stroke:none"
               d="m -1.9375,2.671875 0.03125,0 c 0,0.125 0.0625,0.265625 0.125,0.390625 0.109375,0.234375 0.328125,0.46875 0.578125,0.578125 C -0.75,3.8125 -0.234375,3.484375 -0.0625,3.078125 0.09375,2.71875 0.109375,2.25 -0.15625,1.9375 -0.203125,1.859375 -0.28125,1.796875 -0.359375,1.734375 -0.40625,1.71875 -0.453125,1.6875 -0.484375,1.640625 -0.53125,1.5625 -0.515625,1.421875 -0.5625,1.328125 -0.640625,1.109375 -0.796875,0.921875 -0.984375,0.78125 c -0.859375,-0.6875 -2.25,-0.21875 -2.75,0.703125 -0.25,0.46875 -0.21875,1.078125 0,1.5625 0.09375,0.1875 0.234375,0.40625 0.421875,0.515625 0.5,0.3125 1.015625,-0.046875 1.25,-0.5 0.0625,-0.125 0.125,-0.265625 0.125,-0.390625 z m 1.28125,-1.125 C -0.78125,1.515625 -0.921875,1.484375 -1.0625,1.5 c -0.1875,0.03125 -0.40625,0.125 -0.5,0.3125 -0.09375,0.21875 0.03125,0.484375 0.25,0.578125 0.140625,0.046875 0.28125,0.03125 0.421875,-0.03125 0.078125,-0.0625 0.15625,-0.125 0.234375,-0.203125 C -0.59375,2.046875 -0.53125,1.9375 -0.5,1.8125 -0.0625,2.125 -0.171875,2.828125 -0.6875,2.984375 -1.25,3.171875 -1.71875,2.671875 -1.921875,2.21875 -2.046875,2.546875 -2.328125,2.90625 -2.703125,3 -3.296875,3.15625 -3.625,2.515625 -3.5625,2.015625 -3.453125,0.875 -1.96875,0.296875 -1.09375,0.984375 c 0.1875,0.125 0.375,0.328125 0.4375,0.5625 z m 0,0.21875 c -0.0625,0.203125 -0.265625,0.328125 -0.484375,0.328125 -0.078125,0 -0.15625,0 -0.203125,-0.0625 -0.171875,-0.25 0.234375,-0.40625 0.40625,-0.375 0.09375,0.015625 0.1875,0.078125 0.28125,0.109375 z m 0,0"
               id="path4845" />
          </symbol>
          <symbol
             style="overflow:visible"
             overflow="visible"
             id="textext-f6b15aa2-8">
            <path
               style="stroke:none"
               d="m 2.328125,-6.15625 c -0.140625,0.046875 -0.265625,0.171875 -0.375,0.25 -0.28125,0.21875 -0.546875,0.46875 -0.78125,0.734375 -0.34375,0.375 -0.640625,0.8125 -0.828125,1.28125 -0.5625,1.34375 -0.4375,2.9375 0.328125,4.171875 0.3125,0.5 0.71875,0.9375 1.203125,1.3125 0.09375,0.078125 0.203125,0.15625 0.296875,0.21875 0.046875,0.015625 0.09375,0.078125 0.125,0.078125 0.0625,0 0.140625,-0.09375 0.140625,-0.125 C 2.453125,1.71875 2.390625,1.6875 2.375,1.671875 2.296875,1.578125 2.203125,1.5 2.125,1.40625 1.828125,1.0625 1.5625,0.703125 1.359375,0.296875 0.84375,-0.75 0.734375,-1.96875 0.921875,-3.125 c 0.15625,-0.78125 0.4375,-1.53125 0.9375,-2.171875 C 1.96875,-5.453125 2.109375,-5.609375 2.25,-5.75 2.296875,-5.796875 2.40625,-5.859375 2.421875,-5.9375 2.4375,-5.984375 2.359375,-6.09375 2.328125,-6.15625 z m 0,0"
               id="path4848" />
          </symbol>
          <symbol
             style="overflow:visible"
             overflow="visible"
             id="textext-f6b15aa2-9">
            <path
               style="stroke:none"
               d="m 0,-4.9375 0,0.765625 4.34375,0 0,-0.765625 -4.34375,0 z m 2.640625,0.90625 C 2.109375,-3.9375 2.078125,-3.125 2.609375,-3 2.6875,-2.984375 2.765625,-2.984375 2.84375,-2.984375 3.390625,-3.09375 3.40625,-3.875 2.890625,-4.03125 c -0.078125,-0.015625 -0.171875,-0.015625 -0.25,0 z M 2.75,-2.1875 l -0.015625,0 c -0.03125,0.515625 -0.421875,1.078125 -0.875,1.296875 -0.53125,0.265625 -1.25,0.109375 -1.546875,-0.4375 -0.109375,-0.234375 -0.125,-0.5 -0.03125,-0.75 0.125,-0.296875 0.46875,-0.53125 0.8125,-0.40625 0.125,0.0625 0.265625,0.171875 0.3125,0.328125 0.078125,0.25 -0.015625,0.609375 -0.3125,0.625 l 0,0.171875 c 0.484375,0 0.84375,-0.515625 0.6875,-0.96875 C 1.734375,-2.5 1.609375,-2.625 1.46875,-2.71875 0.921875,-3.0625 0.296875,-2.6875 0.09375,-2.140625 -0.296875,-1.171875 0.484375,0.28125 1.640625,-0.03125 1.890625,-0.09375 2.109375,-0.25 2.28125,-0.4375 2.5,-0.65625 2.703125,-1 2.734375,-1.3125 c 0.109375,0.28125 0.203125,0.53125 0.375,0.75 0.375,0.5 1.09375,0.765625 1.640625,0.390625 0.1875,-0.125 0.34375,-0.296875 0.46875,-0.484375 0.3125,-0.546875 0.28125,-1.140625 0.25,-1.75 0,-0.3125 -0.03125,-0.671875 -0.171875,-0.953125 C 5.21875,-3.5 5.109375,-3.640625 4.96875,-3.703125 4.890625,-3.734375 4.78125,-3.734375 4.75,-3.65625 4.6875,-3.375 4.9375,-3.109375 5.03125,-2.875 5.28125,-2.34375 5.40625,-1.6875 5,-1.1875 4.890625,-1.0625 4.78125,-0.953125 4.625,-0.875 3.921875,-0.484375 3.15625,-1.09375 2.875,-1.71875 2.828125,-1.859375 2.765625,-2.03125 2.75,-2.1875 z m 0,0"
               id="path4851" />
          </symbol>
          <symbol
             style="overflow:visible"
             overflow="visible"
             id="textext-f6b15aa2-10">
            <path
               style="stroke:none"
               d="m 3.078125,-4.984375 c 0.3125,0.3125 0.4375,0.71875 0.34375,1.171875 C 3.40625,-3.703125 3.34375,-3.625 3.296875,-3.515625 3.125,-3.609375 2.90625,-3.625 2.703125,-3.625 2.265625,-3.625 1.859375,-3.5625 1.5,-3.296875 1.25,-3.09375 1.03125,-2.734375 1.203125,-2.40625 1.34375,-2.140625 1.6875,-2.015625 1.96875,-1.984375 2.609375,-1.90625 3.421875,-2.375 3.515625,-3.078125 3.921875,-2.765625 4.0625,-2.125 3.875,-1.65625 3.765625,-1.40625 3.578125,-1.203125 3.359375,-1.0625 2.6875,-0.59375 1.6875,-0.59375 1.015625,-1.015625 0.5625,-1.296875 0.109375,-1.890625 0.4375,-2.421875 0.40625,-2.4375 0.3125,-2.515625 0.265625,-2.515625 0.171875,-2.5 0.078125,-2.28125 0.0625,-2.1875 c -0.09375,0.28125 -0.078125,0.59375 0,0.875 0.234375,0.78125 1.09375,1.234375 1.84375,1.296875 C 2.703125,0.0625 3.53125,-0.203125 4,-0.875 4.5,-1.5625 4.359375,-2.90625 3.515625,-3.296875 3.875,-4.140625 3.625,-5.15625 2.953125,-5.765625 c -0.4375,-0.40625 -1.125,-0.546875 -1.5625,-0.0625 -0.078125,0.09375 -0.125,0.1875 -0.15625,0.296875 -0.140625,0.484375 0.125,1.140625 0.609375,1.296875 0.53125,0.203125 1.234375,-0.125 1.234375,-0.75 z m -0.9375,-0.671875 c 0.21875,-0.015625 0.421875,0.140625 0.578125,0.28125 0.03125,0.046875 0.125,0.109375 0.125,0.171875 0,0.0625 -0.046875,0.125 -0.078125,0.171875 C 2.65625,-4.8125 2.46875,-4.671875 2.21875,-4.65625 2.046875,-4.640625 1.8125,-4.6875 1.6875,-4.8125 1.484375,-5.015625 1.59375,-5.359375 1.796875,-5.515625 1.90625,-5.609375 2.015625,-5.625 2.140625,-5.65625 z M 3.1875,-3.296875 C 3.109375,-2.8125 2.515625,-2.578125 2.09375,-2.53125 1.9375,-2.515625 1.65625,-2.5 1.5625,-2.65625 1.4375,-2.84375 1.6875,-3.125 1.828125,-3.21875 2.1875,-3.453125 2.796875,-3.484375 3.1875,-3.296875 z m 0,0"
               id="path4854" />
          </symbol>
          <symbol
             style="overflow:visible"
             overflow="visible"
             id="textext-f6b15aa2-11">
            <path
               style="stroke:none"
               d="m 0,-6.03125 0,0.015625 C 0.421875,-5.609375 0.78125,-5.15625 1.046875,-4.625 1.453125,-3.8125 1.625,-2.890625 1.625,-1.984375 1.625,-1.5 1.578125,-1 1.453125,-0.53125 1.28125,0.09375 0.953125,0.6875 0.515625,1.171875 0.40625,1.28125 0.28125,1.40625 0.15625,1.53125 0.125,1.5625 0.046875,1.609375 0.03125,1.671875 c 0,0.046875 0.078125,0.15625 0.109375,0.21875 C 0.421875,1.75 0.6875,1.5 0.921875,1.3125 1.375,0.9375 1.796875,0.515625 2.0625,-0.015625 c 0.296875,-0.5625 0.390625,-1.203125 0.390625,-1.828125 0,-0.765625 -0.125,-1.515625 -0.4375,-2.21875 C 1.71875,-4.71875 1.28125,-5.296875 0.71875,-5.75 0.578125,-5.875 0.453125,-5.984375 0.296875,-6.078125 0.265625,-6.09375 0.1875,-6.171875 0.140625,-6.15625 0.09375,-6.15625 0.046875,-6.078125 0,-6.03125 z m 0,0"
               id="path4857" />
          </symbol>
          <symbol
             style="overflow:visible"
             overflow="visible"
             id="textext-f6b15aa2-12">
            <path
               style="stroke:none"
               d="m 0,-4.9375 0,0.765625 1.75,0 c 0.296875,0 0.625,-0.03125 0.9375,0 0.625,0.0625 1.234375,0.328125 1.671875,0.765625 0.546875,0.5625 0.96875,1.515625 0.484375,2.234375 C 4.78125,-1.09375 4.703125,-1 4.625,-0.921875 4.359375,-0.703125 4,-0.734375 3.703125,-0.890625 3.234375,-1.109375 2.828125,-1.671875 2.75,-2.1875 l -0.015625,0 c -0.109375,0.53125 -0.484375,1.09375 -1,1.328125 -0.5625,0.265625 -1.3125,-0.0625 -1.484375,-0.671875 -0.078125,-0.296875 0,-0.625 0.234375,-0.84375 0.28125,-0.234375 0.75,-0.1875 0.90625,0.171875 0.078125,0.15625 0.03125,0.375 -0.078125,0.515625 -0.09375,0.109375 -0.21875,0.109375 -0.21875,0.265625 0.46875,0 0.84375,-0.46875 0.6875,-0.9375 C 1.71875,-2.5 1.609375,-2.625 1.484375,-2.71875 c -0.53125,-0.359375 -1.171875,0 -1.390625,0.5625 -0.28125,0.703125 0.0625,1.75 0.78125,2.0625 0.21875,0.109375 0.46875,0.109375 0.703125,0.078125 0.28125,-0.046875 0.515625,-0.1875 0.71875,-0.359375 0.25,-0.234375 0.4375,-0.578125 0.4375,-0.9375 l 0.015625,0 c 0,0.953125 1.25,1.6875 2.03125,1.109375 0.328125,-0.25 0.546875,-0.640625 0.625,-1.03125 0.265625,-1.03125 -0.1875,-2.03125 -1.09375,-2.59375 -0.21875,-0.140625 -0.5,-0.28125 -0.765625,-0.328125 l 0,-0.015625 0.796875,0 0,-0.765625 -4.34375,0 z m 0,0"
               id="path4860" />
          </symbol>
          <symbol
             style="overflow:visible"
             overflow="visible"
             id="textext-f6b15aa2-13">
            <path
               style="stroke:none"
               d="m 0,-4.9375 0,0.765625 1.296875,0 0,0.015625 C 1.0625,-4.109375 0.8125,-3.921875 0.640625,-3.75 0.125,-3.234375 -0.09375,-2.5 0.046875,-1.78125 0.234375,-0.703125 1.21875,0.03125 2.296875,0 3.515625,-0.03125 4.4375,-1.125 4.390625,-2.296875 4.359375,-2.90625 4.09375,-3.484375 3.625,-3.875 3.484375,-3.984375 3.296875,-4.125 3.09375,-4.15625 l 0,-0.015625 0.09375,0 0,-0.765625 -3.1875,0 z m 2.015625,0.765625 C 2.734375,-4.25 3.515625,-3.84375 3.8125,-3.1875 3.984375,-2.8125 4,-2.359375 3.875,-1.96875 c -0.0625,0.1875 -0.140625,0.359375 -0.25,0.515625 -0.140625,0.171875 -0.3125,0.328125 -0.5,0.4375 -0.203125,0.125 -0.4375,0.203125 -0.6875,0.234375 -0.546875,0.0625 -1.109375,-0.109375 -1.5,-0.5 C 0.390625,-1.8125 0.25,-2.78125 0.71875,-3.421875 0.859375,-3.625 1.03125,-3.78125 1.25,-3.921875 1.46875,-4.0625 1.75,-4.125 2.015625,-4.171875 z m 0,0"
               id="path4863" />
          </symbol>
          <symbol
             style="overflow:visible"
             overflow="visible"
             id="textext-f6b15aa2-14">
            <path
               style="stroke:none"
               d="m 0,-4.9375 0,0.765625 1.640625,0 0,0.015625 C 1.546875,-4.125 1.453125,-4.046875 1.375,-3.984375 1.15625,-3.828125 0.96875,-3.625 0.796875,-3.40625 0.0625,-2.40625 0,-1.1875 0,0 l 0.765625,0 c 0,-1.09375 -0.03125,-2.203125 0.40625,-3.234375 0.1875,-0.4375 0.546875,-0.96875 1.09375,-0.9375 0.46875,0.03125 0.75,0.53125 0.9375,0.90625 0.5,1 0.421875,2.171875 0.421875,3.265625 l 0.765625,0 c 0,-1.15625 -0.046875,-2.296875 -0.71875,-3.296875 C 3.515625,-3.53125 3.3125,-3.765625 3.078125,-3.953125 2.984375,-4.015625 2.875,-4.109375 2.765625,-4.15625 l 0,-0.015625 0.46875,0 0,-0.765625 -3.234375,0 z m 0,0"
               id="path4866" />
          </symbol>
          <symbol
             style="overflow:visible"
             overflow="visible"
             id="textext-f6b15aa2-15">
            <path
               style="stroke:none"
               d="m -1.234375,-2.296875 -0.015625,0 c 0,0.140625 -0.015625,0.296875 0,0.4375 0.03125,0.140625 0.09375,0.28125 0.140625,0.40625 0.1875,0.453125 0.46875,0.859375 0.84375,1.140625 0.515625,0.375 1.25,0.453125 1.71875,-0.03125 C 1.875,-0.765625 1.6875,-1.390625 1.609375,-1.90625 1.5625,-2.203125 1.53125,-2.5 1.5625,-2.796875 c 0.078125,-0.5625 0.5,-1.0625 1.03125,-1.265625 0.234375,-0.109375 0.5,-0.125 0.75,-0.109375 0.75,0.0625 1.578125,0.453125 1.875,1.171875 0.375,0.859375 -0.140625,2.15625 -1.15625,2.234375 C 3.75,-0.75 3.375,-0.828125 3.140625,-1.046875 2.8125,-1.359375 2.875,-1.921875 3.25,-2.1875 3.203125,-2.078125 3.203125,-1.953125 3.234375,-1.84375 3.296875,-1.546875 3.65625,-1.28125 3.9375,-1.5 4.15625,-1.6875 4.234375,-2.140625 4.03125,-2.359375 3.953125,-2.46875 3.8125,-2.515625 3.6875,-2.515625 3.578125,-2.53125 3.46875,-2.515625 3.359375,-2.5 2.65625,-2.359375 2.5,-1.578125 2.65625,-0.984375 2.828125,-0.328125 3.4375,0.046875 4.09375,0 4.8125,-0.046875 5.25,-0.78125 5.4375,-1.421875 5.75,-2.53125 5.5,-3.765625 4.53125,-4.484375 4.359375,-4.625 4.15625,-4.734375 3.953125,-4.8125 c -1.015625,-0.34375 -2.28125,0.03125 -2.6875,1.078125 -0.0625,0.171875 -0.09375,0.359375 -0.09375,0.53125 -0.03125,0.4375 0.125,0.875 0.1875,1.296875 0.03125,0.21875 0.0625,0.4375 -0.03125,0.625 -0.21875,0.46875 -0.875,0.625 -1.3125,0.421875 -0.578125,-0.25 -1.015625,-0.859375 -1.25,-1.4375 z m 0,0"
               id="path4869" />
          </symbol>
          <symbol
             style="overflow:visible"
             overflow="visible"
             id="textext-f6b15aa2-16">
            <path
               style="stroke:none"
               d="m 1.859375,-1.75 0,0 c -0.453125,0.203125 -0.53125,0.921875 -0.3125,1.3125 0.265625,0.46875 0.921875,0.5625 1.34375,0.265625 0.140625,-0.125 0.25,-0.25 0.3125,-0.390625 0.09375,-0.171875 0.109375,-0.390625 0.078125,-0.578125 -0.046875,-0.25 -0.140625,-0.4375 -0.3125,-0.609375 0.578125,0 1.265625,-0.28125 1.484375,-0.875 C 4.5,-2.78125 4.5,-2.9375 4.5,-3.109375 4.5,-3.265625 4.453125,-3.40625 4.40625,-3.546875 4.34375,-3.71875 4.234375,-3.890625 4.09375,-4 4,-4.0625 3.890625,-4.109375 3.828125,-4.203125 3.703125,-4.359375 3.609375,-4.546875 3.5,-4.71875 3.46875,-4.78125 3.421875,-4.890625 3.375,-4.9375 c -0.0625,-0.03125 -0.1875,0 -0.25,0 l -0.609375,0 0,0.765625 c 0.421875,0 0.953125,-0.109375 1.296875,0.1875 0.359375,0.328125 0.390625,0.859375 0.140625,1.265625 -0.25,0.375 -0.71875,0.6875 -1.15625,0.734375 C 2.71875,-1.96875 2.640625,-2.046875 2.578125,-2.09375 2.4375,-2.171875 2.296875,-2.234375 2.140625,-2.265625 1.609375,-2.4375 1.046875,-2.453125 0.59375,-2.828125 0.453125,-2.953125 0.328125,-3.09375 0.265625,-3.265625 0.125,-3.640625 0.28125,-4.0625 0.609375,-4.28125 0.484375,-3.8125 0.734375,-3.125 1.3125,-3.1875 1.375,-3.203125 1.453125,-3.21875 1.515625,-3.25 2,-3.484375 2.078125,-4.171875 1.859375,-4.609375 1.78125,-4.78125 1.640625,-4.9375 1.46875,-5.015625 1.296875,-5.078125 1.0625,-5.046875 0.890625,-4.984375 0.703125,-4.921875 0.53125,-4.78125 0.40625,-4.625 c -0.609375,0.703125 -0.5,1.796875 0.125,2.4375 0.359375,0.390625 0.828125,0.4375 1.328125,0.4375 z m -0.6875,-2.75 c 0.1875,-0.015625 0.390625,0.03125 0.5,0.1875 C 1.875,-4.03125 1.6875,-3.671875 1.359375,-3.625 1.15625,-3.59375 0.9375,-3.671875 0.8125,-3.859375 0.65625,-4.125 0.875,-4.453125 1.171875,-4.5 z m 1.046875,2.75 c 0.078125,-0.015625 0.1875,0 0.265625,0.015625 0.546875,0.171875 0.453125,1 -0.109375,1.078125 -0.078125,0.015625 -0.15625,0 -0.234375,-0.015625 C 1.59375,-0.84375 1.65625,-1.671875 2.21875,-1.75 z m 0,0"
               id="path4872" />
          </symbol>
        </g>
      </defs>
      <g
         id="textext-f6b15aa2-17">
        <path
           style="fill:none;stroke:#000000;stroke-width:1.37500012;stroke-linecap:butt;stroke-linejoin:miter;stroke-miterlimit:4;stroke-dasharray:none;stroke-opacity:1"
           d="m 5.1785716,127.68232 0,-19.28571 262.8158184,0 0,22.32325"
           id="path6286"
           sodipodi:nodetypes="cccc"
           inkscape:connector-curvature="0" />
        <path
           inkscape:connector-curvature="0"
           id="path6298-3"
           d="m 135.82549,70.016794 0,-16.66752"
           style="fill:none;stroke:#000000;stroke-width:1.375;stroke-linecap:butt;stroke-linejoin:miter;stroke-miterlimit:4;stroke-dasharray:none;stroke-opacity:1" />
        <path
           inkscape:connector-curvature="0"
           id="path6298-3-6"
           d="m 135.19596,108.08309 0,-16.66752"
           style="fill:none;stroke:#000000;stroke-width:1.375;stroke-linecap:butt;stroke-linejoin:miter;stroke-miterlimit:4;stroke-dasharray:none;stroke-opacity:1" />
        <text
           xml:space="preserve"
           style="font-style:normal;font-weight:normal;font-size:10px;line-height:125%;font-family:sans-serif;letter-spacing:0px;word-spacing:0px;fill:#000000;fill-opacity:1;stroke:none;stroke-width:1px;stroke-linecap:butt;stroke-linejoin:miter;stroke-opacity:1"
           x="74.762177"
           y="44.797466"
           id="text3836"
           sodipodi:linespacing="125%"><tspan
             sodipodi:role="line"
             id="tspan3838"
             x="74.762177"
             y="44.797466">ನಾಗವರ್ಮ್ಮ - (ಪತ್ನಿ) ಚಂದಿಕಬ್ಬೆ (ಚಂಡಿಕಬ್ಬೆ)</tspan></text>
        <text
           xml:space="preserve"
           style="font-style:normal;font-weight:normal;font-size:10px;line-height:125%;font-family:sans-serif;letter-spacing:0px;word-spacing:0px;fill:#000000;fill-opacity:1;stroke:none;stroke-width:1px;stroke-linecap:butt;stroke-linejoin:miter;stroke-opacity:1"
           x="64.060364"
           y="82.345703"
           id="text3840"
           sodipodi:linespacing="125%"><tspan
             sodipodi:role="line"
             id="tspan3842"
             x="64.060364"
             y="82.345703">ಬಲದೇವ ದಂಡನಾಯಕ - (ಪತ್ನಿ) ಬಾಚಿಕಬ್ಬೆ </tspan></text>
        <path
           id="path6298-7"
           d="m 140.23212,125.0078 0,-16.66752"
           style="fill:none;stroke:#000000;stroke-width:1.375;stroke-linecap:butt;stroke-linejoin:miter;stroke-miterlimit:4;stroke-dasharray:none;stroke-opacity:1"
           inkscape:connector-curvature="0" />
        <text
           xml:space="preserve"
           style="font-style:normal;font-weight:normal;font-size:10px;line-height:125%;font-family:sans-serif;letter-spacing:0px;word-spacing:0px;fill:#000000;fill-opacity:1;stroke:none;stroke-width:1px;stroke-linecap:butt;stroke-linejoin:miter;stroke-opacity:1"
           x="-35.403587"
           y="138.70718"
           id="text3874"
           sodipodi:linespacing="125%"><tspan
             sodipodi:role="line"
             id="tspan3876"
             x="-35.403587"
             y="138.70718">       ಮಾಚಿಕಬ್ಬೆ</tspan><tspan
             sodipodi:role="line"
             x="-35.403587"
             y="151.20718"
             id="tspan3878">(ಪತಿ) ಮಾರಸಿಂಗಮಯ್ಯ </tspan></text>
        <text
           xml:space="preserve"
           style="font-style:normal;font-weight:normal;font-size:10px;line-height:125%;font-family:sans-serif;letter-spacing:0px;word-spacing:0px;fill:#000000;fill-opacity:1;stroke:none;stroke-width:1px;stroke-linecap:butt;stroke-linejoin:miter;stroke-opacity:1"
           x="102.46099"
           y="134.30057"
           id="text3880"
           sodipodi:linespacing="125%"><tspan
             sodipodi:role="line"
             id="tspan3882"
             x="102.46099"
             y="134.30057">        ಸಿಂಗಣ</tspan><tspan
             sodipodi:role="line"
             x="102.46099"
             y="146.80057"
             id="tspan3884">    (ಸಿಂಗಿಮಯ್ಯ)</tspan><tspan
             sodipodi:role="line"
             x="102.46099"
             y="159.30057"
             id="tspan3886">(ಪತ್ನಿ) ಶ್ರೀಯಾದೇವಿ</tspan></text>
        <text
           xml:space="preserve"
           style="font-style:normal;font-weight:normal;font-size:10px;line-height:125%;font-family:sans-serif;letter-spacing:0px;word-spacing:0px;fill:#000000;fill-opacity:1;stroke:none;stroke-width:1px;stroke-linecap:butt;stroke-linejoin:miter;stroke-opacity:1"
           x="225.21715"
           y="142.4843"
           id="text3888"
           sodipodi:linespacing="125%"><tspan
             sodipodi:role="line"
             id="tspan3890"
             x="225.21715"
             y="142.4843">ನಾಗದೇವ - (ಪತ್ನಿ) ನಾಗಿಯಕ್ಕ </tspan></text>
        <path
           id="path6298-5"
           d="m 2.957905,177.21271 0,-16.66752"
           style="fill:none;stroke:#000000;stroke-width:1.375;stroke-linecap:butt;stroke-linejoin:miter;stroke-miterlimit:4;stroke-dasharray:none;stroke-opacity:1"
           inkscape:connector-curvature="0" />
        <path
           sodipodi:nodetypes="cccc"
           id="path6296"
           d="m 212.78041,198.00304 0,-34.438 102.93376,0 0,38.47861"
           style="fill:none;stroke:#000000;stroke-width:1.375;stroke-linecap:butt;stroke-linejoin:miter;stroke-miterlimit:4;stroke-dasharray:none;stroke-opacity:1"
           inkscape:connector-curvature="0" />
        <path
           id="path6298"
           d="m 266.68426,162.54434 0,-16.66752"
           style="fill:none;stroke:#000000;stroke-width:1.375;stroke-linecap:butt;stroke-linejoin:miter;stroke-miterlimit:4;stroke-dasharray:none;stroke-opacity:1"
           inkscape:connector-curvature="0" />
        <text
           xml:space="preserve"
           style="font-style:normal;font-weight:normal;font-size:10px;line-height:125%;font-family:sans-serif;letter-spacing:0px;word-spacing:0px;fill:#000000;fill-opacity:1;stroke:none;stroke-width:1px;stroke-linecap:butt;stroke-linejoin:miter;stroke-opacity:1"
           x="174.22614"
           y="206.69519"
           id="text3946"
           sodipodi:linespacing="125%"><tspan
             sodipodi:role="line"
             id="tspan3948"
             x="174.22614"
             y="206.69519">          ಬಲ್ಲಣ</tspan><tspan
             sodipodi:role="line"
             x="174.22614"
             y="219.19519"
             id="tspan3950">  (ಬಲ್ಲ ಬಲ್ಲೆಯ ನಾಯಕ)</tspan><tspan
             sodipodi:role="line"
             x="174.22614"
             y="231.69519"
             id="tspan3952">(ಮಾಳಿಗೆಯೂರನ್ನು ಆಳುತ್ತಿದ್ದು</tspan><tspan
             sodipodi:role="line"
             x="174.22614"
             y="244.19519"
             id="tspan3956">ಕ್ರಿಶ 1140ರಲ್ಲಿ ಮುಡುಪಿದ  )</tspan></text>
        <text
           xml:space="preserve"
           style="font-style:normal;font-weight:normal;font-size:10px;line-height:125%;font-family:sans-serif;letter-spacing:0px;word-spacing:0px;fill:#000000;fill-opacity:1;stroke:none;stroke-width:1px;stroke-linecap:butt;stroke-linejoin:miter;stroke-opacity:1"
           x="300.75937"
           y="212.99039"
           id="text3960"
           sodipodi:linespacing="125%"><tspan
             sodipodi:role="line"
             id="tspan3962"
             x="300.75937"
             y="212.99039">ಏಚಿಯಕ್ಕ </tspan></text>
        <text
           xml:space="preserve"
           style="font-style:normal;font-weight:normal;font-size:10px;line-height:125%;font-family:sans-serif;letter-spacing:0px;word-spacing:0px;fill:#000000;fill-opacity:1;stroke:none;stroke-width:1px;stroke-linecap:butt;stroke-linejoin:miter;stroke-opacity:1"
           x="-52.400589"
           y="187.80965"
           id="text3399"
           sodipodi:linespacing="125%"><tspan
             sodipodi:role="line"
             id="tspan3401"
             x="-52.400589"
             y="187.80965">             ಶಾಂತಲೆ</tspan><tspan
             sodipodi:role="line"
             x="-52.400589"
             y="200.30965"
             id="tspan3403">(ವಿಷ್ಣುವರ್ಧನನ ಪಿರಿಯರಸಿ) </tspan></text>
      </g>
    </g>
  </g>
</svg>
