<?xml version="1.0" encoding="UTF-8" standalone="no"?>
<!-- Created with Inkscape (http://www.inkscape.org/) -->

<svg
   xmlns:ns0="http://www.iki.fi/pav/software/textext/"
   xmlns:dc="http://purl.org/dc/elements/1.1/"
   xmlns:cc="http://creativecommons.org/ns#"
   xmlns:rdf="http://www.w3.org/1999/02/22-rdf-syntax-ns#"
   xmlns:svg="http://www.w3.org/2000/svg"
   xmlns="http://www.w3.org/2000/svg"
   xmlns:sodipodi="http://sodipodi.sourceforge.net/DTD/sodipodi-0.dtd"
   xmlns:inkscape="http://www.inkscape.org/namespaces/inkscape"
   width="744.09448819"
   height="1052.3622047"
   id="svg2"
   version="1.1"
   inkscape:version="0.48.4 r9939"
   sodipodi:docname="chap3-fig1.svg">
  <sodipodi:namedview
     id="base"
     pagecolor="#ffffff"
     bordercolor="#666666"
     borderopacity="1.0"
     inkscape:pageopacity="0.0"
     inkscape:pageshadow="2"
     inkscape:zoom="2.8"
     inkscape:cx="404.8739"
     inkscape:cy="800.26239"
     inkscape:document-units="px"
     inkscape:current-layer="g3354"
     showgrid="false"
     inkscape:window-width="1366"
     inkscape:window-height="744"
     inkscape:window-x="0"
     inkscape:window-y="24"
     inkscape:window-maximized="1" />
  <defs
     id="defs4">
    <inkscape:perspective
       sodipodi:type="inkscape:persp3d"
       inkscape:vp_x="0 : 526.18109 : 1"
       inkscape:vp_y="0 : 1000 : 0"
       inkscape:vp_z="744.09448 : 526.18109 : 1"
       inkscape:persp3d-origin="372.04724 : 350.78739 : 1"
       id="perspective10" />
  </defs>
  <metadata
     id="metadata7">
    <rdf:RDF>
      <cc:Work
         rdf:about="">
        <dc:format>image/svg+xml</dc:format>
        <dc:type
           rdf:resource="http://purl.org/dc/dcmitype/StillImage" />
        <dc:title />
      </cc:Work>
    </rdf:RDF>
  </metadata>
  <g
     inkscape:label="Layer 1"
     inkscape:groupmode="layer"
     id="layer1">
    <g
       transform="translate(151.0178,125.25892)"
       ns0:text="{\\kan goVviMdamayayx}\n\n{\\kan mAbalayayx}\n\n{\\kan Isarayayx (IsaragaMDa)}\n\n{\\kan mahAdeVva(?)}\n\n{\\kan cAvuMDa (cAmuMDarAya)}\n\n{\\kan jinadeVva}"
       ns0:preamble="/home/sriranga/Desktop/eps-figs/nudi-package.tex"
       id="g2822">
      <defs
         id="defs2824">
        <g
           id="g2826">
          <symbol
             style="overflow:visible"
             overflow="visible"
             id="textext-7c9714d1-0">
            <path
               style="stroke:none"
               d=""
               id="path2829" />
          </symbol>
          <symbol
             style="overflow:visible"
             overflow="visible"
             id="textext-7c9714d1-1">
            <path
               style="stroke:none"
               d="m 0,-4.9375 0,0.765625 1.640625,0 0,0.015625 C 1.546875,-4.125 1.453125,-4.046875 1.375,-3.984375 1.15625,-3.828125 0.96875,-3.625 0.796875,-3.40625 0.0625,-2.40625 0,-1.1875 0,0 l 0.765625,0 c 0,-1.09375 -0.03125,-2.203125 0.40625,-3.234375 0.1875,-0.4375 0.546875,-0.96875 1.09375,-0.9375 0.46875,0.03125 0.75,0.53125 0.9375,0.90625 0.5,1 0.421875,2.171875 0.421875,3.265625 l 0.765625,0 c 0,-1.15625 -0.046875,-2.296875 -0.71875,-3.296875 C 3.515625,-3.53125 3.3125,-3.765625 3.078125,-3.953125 2.984375,-4.015625 2.875,-4.109375 2.765625,-4.15625 l 0,-0.015625 0.46875,0 0,-0.765625 -3.234375,0 z m 0,0"
               id="path2832" />
          </symbol>
          <symbol
             style="overflow:visible"
             overflow="visible"
             id="textext-7c9714d1-2">
            <path
               style="stroke:none"
               d="m -2.078125,-6.53125 c 0.1875,0.015625 0.359375,0.0625 0.5,0.1875 0.359375,0.28125 0.4375,0.796875 0.109375,1.140625 C -1.796875,-4.875 -2.25,-4.9375 -2.65625,-4.9375 l 0,0.765625 c 0.40625,0 0.84375,0.0625 1.171875,-0.25 0.59375,-0.53125 0.703125,-1.578125 0.0625,-2.125 -0.109375,-0.09375 -0.21875,-0.15625 -0.359375,-0.203125 -0.375,-0.125 -0.859375,-0.03125 -1.09375,0.3125 -0.234375,0.40625 0.03125,0.921875 0.5,0.890625 0.484375,-0.015625 0.578125,-0.6875 0.296875,-0.984375 z m 0,0"
               id="path2835" />
          </symbol>
          <symbol
             style="overflow:visible"
             overflow="visible"
             id="textext-7c9714d1-3">
            <path
               style="stroke:none"
               d="m -1.234375,-2.296875 -0.015625,0 c 0,0.140625 -0.015625,0.296875 0,0.4375 0.03125,0.140625 0.09375,0.28125 0.140625,0.40625 0.1875,0.453125 0.46875,0.859375 0.84375,1.140625 0.515625,0.375 1.25,0.453125 1.71875,-0.03125 C 1.875,-0.765625 1.6875,-1.390625 1.609375,-1.90625 1.5625,-2.203125 1.53125,-2.5 1.5625,-2.796875 c 0.078125,-0.5625 0.5,-1.0625 1.03125,-1.265625 0.234375,-0.109375 0.5,-0.125 0.75,-0.109375 0.75,0.0625 1.578125,0.453125 1.875,1.171875 0.375,0.859375 -0.140625,2.15625 -1.15625,2.234375 C 3.75,-0.75 3.375,-0.828125 3.140625,-1.046875 2.8125,-1.359375 2.875,-1.921875 3.25,-2.1875 3.203125,-2.078125 3.203125,-1.953125 3.234375,-1.84375 3.296875,-1.546875 3.65625,-1.28125 3.9375,-1.5 4.15625,-1.6875 4.234375,-2.140625 4.03125,-2.359375 3.953125,-2.46875 3.8125,-2.515625 3.6875,-2.515625 3.578125,-2.53125 3.46875,-2.515625 3.359375,-2.5 2.65625,-2.359375 2.5,-1.578125 2.65625,-0.984375 2.828125,-0.328125 3.4375,0.046875 4.09375,0 4.8125,-0.046875 5.25,-0.78125 5.4375,-1.421875 5.75,-2.53125 5.5,-3.765625 4.53125,-4.484375 4.359375,-4.625 4.15625,-4.734375 3.953125,-4.8125 c -1.015625,-0.34375 -2.28125,0.03125 -2.6875,1.078125 -0.0625,0.171875 -0.09375,0.359375 -0.09375,0.53125 -0.03125,0.4375 0.125,0.875 0.1875,1.296875 0.03125,0.21875 0.0625,0.4375 -0.03125,0.625 -0.21875,0.46875 -0.875,0.625 -1.3125,0.421875 -0.578125,-0.25 -1.015625,-0.859375 -1.25,-1.4375 z m 0,0"
               id="path2838" />
          </symbol>
          <symbol
             style="overflow:visible"
             overflow="visible"
             id="textext-7c9714d1-4">
            <path
               style="stroke:none"
               d="m 2.296875,0 0,-0.015625 c -0.234375,-0.125 -0.4375,-0.328125 -0.65625,-0.5 C 1.109375,-0.984375 0.53125,-1.5625 0.3125,-2.25 c -0.234375,-0.6875 0,-1.53125 0.671875,-1.90625 -0.34375,0.5 -0.203125,1.359375 0.46875,1.5 0.078125,0.015625 0.171875,0.03125 0.25,0.03125 0.328125,-0.046875 0.5625,-0.265625 0.703125,-0.5625 0.28125,-0.578125 0.25,-1.515625 -0.5,-1.71875 C 1.796875,-4.9375 1.6875,-4.9375 1.578125,-4.9375 1.421875,-4.921875 1.25,-4.890625 1.09375,-4.8125 0.125,-4.359375 -0.0625,-3.15625 0.03125,-2.21875 c 0.015625,0.203125 0.046875,0.421875 0.109375,0.609375 0.0625,0.234375 0.140625,0.453125 0.25,0.65625 0.125,0.28125 0.3125,0.53125 0.515625,0.734375 0.078125,0.0625 0.140625,0.15625 0.21875,0.203125 C 1.203125,0.03125 1.375,0 1.46875,0 l 0.828125,0 z m -0.65625,-4.28125 c 0.125,0 0.25,0 0.359375,0.046875 0.515625,0.25 0.328125,1.09375 -0.203125,1.15625 -0.40625,0.0625 -0.796875,-0.375 -0.6875,-0.78125 0.0625,-0.234375 0.3125,-0.390625 0.53125,-0.421875 z m -0.65625,0.125 c 0,0 0,-0.015625 0,-0.015625 0,0 0,0.015625 0,0.015625 z m 0,0"
               id="path2841" />
          </symbol>
          <symbol
             style="overflow:visible"
             overflow="visible"
             id="textext-7c9714d1-5">
            <path
               style="stroke:none"
               d="m 2.296875,-5.421875 0,-0.015625 c 0.171875,0.03125 0.328125,0.03125 0.5,0.046875 0.328125,0.0625 0.65625,0.1875 0.953125,0.359375 0.921875,0.59375 1.5,1.71875 1.40625,2.8125 C 5.140625,-1.8125 5.0625,-1.359375 4.78125,-1.0625 4.453125,-0.703125 4,-0.703125 3.609375,-0.9375 3.1875,-1.171875 2.828125,-1.703125 2.75,-2.1875 l -0.015625,0 c -0.109375,0.53125 -0.484375,1.09375 -1,1.328125 -0.5625,0.265625 -1.3125,-0.0625 -1.484375,-0.671875 -0.078125,-0.296875 0,-0.625 0.234375,-0.84375 0.28125,-0.234375 0.75,-0.1875 0.90625,0.171875 0.078125,0.15625 0.03125,0.375 -0.078125,0.515625 -0.09375,0.109375 -0.21875,0.109375 -0.21875,0.265625 0.46875,0 0.84375,-0.46875 0.6875,-0.9375 C 1.71875,-2.5 1.609375,-2.625 1.484375,-2.71875 c -0.53125,-0.359375 -1.171875,0 -1.390625,0.5625 -0.28125,0.703125 0.0625,1.75 0.78125,2.0625 0.21875,0.109375 0.46875,0.109375 0.703125,0.078125 0.28125,-0.046875 0.515625,-0.1875 0.71875,-0.359375 0.25,-0.234375 0.4375,-0.578125 0.4375,-0.9375 0.09375,0.265625 0.109375,0.5 0.28125,0.71875 0.40625,0.5625 1.28125,0.828125 1.84375,0.328125 C 5.375,-0.734375 5.53125,-1.5625 5.5,-2.21875 5.484375,-2.625 5.4375,-3.03125 5.296875,-3.40625 c -0.375,-1.0625 -1.25,-1.953125 -2.34375,-2.28125 -0.4375,-0.109375 -1.046875,-0.25 -1.484375,-0.015625 -0.21875,0.125 -0.390625,0.3125 -0.46875,0.5625 -0.109375,0.5 0.25,0.96875 0.75,0.96875 0.40625,0.015625 0.796875,-0.328125 0.796875,-0.75 0,-0.171875 -0.0625,-0.421875 -0.25,-0.5 z M 1.75,-5.375 c 0.1875,0 0.4375,0.09375 0.515625,0.296875 0.125,0.3125 -0.171875,0.671875 -0.484375,0.6875 -0.359375,0 -0.703125,-0.40625 -0.5,-0.75 C 1.375,-5.296875 1.578125,-5.359375 1.75,-5.375 z m 0,0"
               id="path2844" />
          </symbol>
          <symbol
             style="overflow:visible"
             overflow="visible"
             id="textext-7c9714d1-6">
            <path
               style="stroke:none"
               d="M 1.90625,-4.96875 C 1.6875,-4.9375 1.5,-4.890625 1.3125,-4.8125 c -1.140625,0.53125 -1.546875,2.046875 -1.1875,3.171875 0.296875,0.96875 1.15625,1.765625 2.203125,1.625 0.5625,-0.0625 1.03125,-0.421875 1.359375,-0.875 0.5625,-0.78125 0.65625,-1.953125 0.234375,-2.8125 -0.375,-0.765625 -1.125,-1.375 -2.015625,-1.265625 z m 0,0.796875 c 1.125,-0.125 2.25,0.90625 1.96875,2.0625 -0.03125,0.171875 -0.09375,0.3125 -0.1875,0.46875 -0.15625,0.25 -0.375,0.4375 -0.609375,0.609375 -0.234375,0.140625 -0.484375,0.21875 -0.75,0.25 -0.359375,0.046875 -0.75,0 -1.078125,-0.171875 -0.734375,-0.375 -1.15625,-1.203125 -0.921875,-2 0.046875,-0.171875 0.15625,-0.34375 0.265625,-0.5 0.140625,-0.171875 0.296875,-0.328125 0.5,-0.4375 0.25,-0.15625 0.515625,-0.234375 0.8125,-0.28125 z m 0,0"
               id="path2847" />
          </symbol>
          <symbol
             style="overflow:visible"
             overflow="visible"
             id="textext-7c9714d1-7">
            <path
               style="stroke:none"
               d="m 0,-4.9375 0,0.765625 1.828125,0 0,0.015625 C 1.59375,-4.125 1.34375,-3.984375 1.140625,-3.875 0.6875,-3.59375 0.296875,-3.15625 0.125,-2.65625 c -0.296875,0.796875 -0.078125,1.84375 0.578125,2.390625 0.765625,0.65625 1.90625,-0.03125 2.03125,-0.9375 l 0.015625,0 c 0.015625,0.140625 0.078125,0.28125 0.15625,0.40625 0.28125,0.578125 0.90625,0.953125 1.546875,0.734375 0.125,-0.046875 0.21875,-0.109375 0.328125,-0.203125 0.65625,-0.515625 0.875,-1.625 0.59375,-2.40625 C 5.1875,-3.171875 4.8125,-3.59375 4.34375,-3.875 4.140625,-4 3.890625,-4.125 3.65625,-4.15625 l 0,-0.015625 0.6875,0 0,-0.765625 -4.34375,0 z m 2.75,3.078125 c -0.109375,0.265625 -0.1875,0.5 -0.390625,0.71875 C 2.265625,-1.0625 2.15625,-0.96875 2.046875,-0.90625 1.4375,-0.53125 0.75,-0.953125 0.515625,-1.578125 0.28125,-2.234375 0.546875,-2.984375 1,-3.46875 1.671875,-4.171875 2.875,-4.375 3.75,-3.984375 c 0.921875,0.4375 1.65625,1.5625 1.140625,2.5625 -0.0625,0.140625 -0.140625,0.25 -0.25,0.359375 -0.53125,0.53125 -1.3125,0.265625 -1.6875,-0.296875 C 2.875,-1.5 2.765625,-1.6875 2.75,-1.859375 z m 0,0"
               id="path2850" />
          </symbol>
          <symbol
             style="overflow:visible"
             overflow="visible"
             id="textext-7c9714d1-8">
            <path
               style="stroke:none"
               d="m -1.625,-6.515625 -0.09375,0.15625 c 0.484375,0.203125 0.5,0.953125 0.109375,1.25 -0.28125,0.21875 -0.65625,0.171875 -1,0.171875 l 0,0.765625 c 0.46875,0 0.890625,0.03125 1.25,-0.328125 0.0625,-0.078125 0.109375,-0.15625 0.15625,-0.234375 C -0.9375,-5.1875 -0.875,-5.90625 -1.28125,-6.296875 -1.359375,-6.390625 -1.5,-6.5 -1.625,-6.515625 z m 0,0"
               id="path2853" />
          </symbol>
          <symbol
             style="overflow:visible"
             overflow="visible"
             id="textext-7c9714d1-9">
            <path
               style="stroke:none"
               d="m 0,-4.9375 0,0.765625 1.75,0 c 0.296875,0 0.625,-0.03125 0.9375,0 0.625,0.0625 1.234375,0.328125 1.671875,0.765625 0.546875,0.5625 0.96875,1.515625 0.484375,2.234375 C 4.78125,-1.09375 4.703125,-1 4.625,-0.921875 4.359375,-0.703125 4,-0.734375 3.703125,-0.890625 3.234375,-1.109375 2.828125,-1.671875 2.75,-2.1875 l -0.015625,0 c -0.109375,0.53125 -0.484375,1.09375 -1,1.328125 -0.5625,0.265625 -1.3125,-0.0625 -1.484375,-0.671875 -0.078125,-0.296875 0,-0.625 0.234375,-0.84375 0.28125,-0.234375 0.75,-0.1875 0.90625,0.171875 0.078125,0.15625 0.03125,0.375 -0.078125,0.515625 -0.09375,0.109375 -0.21875,0.109375 -0.21875,0.265625 0.46875,0 0.84375,-0.46875 0.6875,-0.9375 C 1.71875,-2.5 1.609375,-2.625 1.484375,-2.71875 c -0.53125,-0.359375 -1.171875,0 -1.390625,0.5625 -0.28125,0.703125 0.0625,1.75 0.78125,2.0625 0.21875,0.109375 0.46875,0.109375 0.703125,0.078125 0.28125,-0.046875 0.515625,-0.1875 0.71875,-0.359375 0.25,-0.234375 0.4375,-0.578125 0.4375,-0.9375 l 0.015625,0 c 0,0.953125 1.25,1.6875 2.03125,1.109375 0.328125,-0.25 0.546875,-0.640625 0.625,-1.03125 0.265625,-1.03125 -0.1875,-2.03125 -1.09375,-2.59375 -0.21875,-0.140625 -0.5,-0.28125 -0.765625,-0.328125 l 0,-0.015625 0.796875,0 0,-0.765625 -4.34375,0 z m 0,0"
               id="path2856" />
          </symbol>
          <symbol
             style="overflow:visible"
             overflow="visible"
             id="textext-7c9714d1-10">
            <path
               style="stroke:none"
               d="m -1.21875,-2.296875 c -0.03125,0.078125 0,0.1875 0,0.25 0,0.25 0.03125,0.453125 0.125,0.6875 0.3125,0.765625 1.15625,1.6875 2.078125,1.265625 0.421875,-0.203125 0.6875,-0.609375 0.84375,-1.046875 C 2.203125,-2.09375 2,-3.234375 1.421875,-4.0625 c -0.375,-0.5 -1.015625,-1.015625 -1.6875,-0.859375 -0.0625,0.015625 -0.109375,0.03125 -0.15625,0.0625 -0.296875,0.171875 -0.109375,0.46875 0.109375,0.59375 0.1875,0.125 0.453125,0.125 0.65625,0.203125 0.46875,0.1875 0.859375,0.5 1.15625,0.890625 0.140625,0.21875 0.25,0.46875 0.28125,0.734375 0.078125,0.75 -0.390625,1.609375 -1.1875,1.671875 -0.859375,0.0625 -1.5625,-0.796875 -1.8125,-1.53125 z m 0,0"
               id="path2859" />
          </symbol>
          <symbol
             style="overflow:visible"
             overflow="visible"
             id="textext-7c9714d1-11">
            <path
               style="stroke:none"
               d="m -0.53125,-4.9375 0,0.765625 c 0.46875,0 0.90625,-0.0625 1.328125,0.15625 C 1.5625,-3.625 1.96875,-2.640625 1.78125,-1.8125 1.640625,-1.203125 1.125,-0.640625 0.453125,-0.796875 0.3125,-0.828125 0.15625,-0.890625 0.03125,-0.984375 -0.171875,-1.109375 -0.34375,-1.28125 -0.5,-1.453125 -0.71875,-1.71875 -0.9375,-2.03125 -1.0625,-2.34375 l -0.015625,0 c 0,0.203125 -0.03125,0.453125 0,0.65625 0.03125,0.1875 0.125,0.390625 0.21875,0.5625 0.125,0.265625 0.328125,0.515625 0.5625,0.71875 0.453125,0.359375 1.078125,0.546875 1.625,0.296875 C 1.5,-0.1875 1.640625,-0.3125 1.78125,-0.453125 1.890625,-0.5625 2,-0.71875 2.0625,-0.875 c 0.125,-0.28125 0.15625,-0.5625 0.15625,-0.859375 0,-0.609375 -0.171875,-1.21875 -0.5,-1.734375 -0.1875,-0.296875 -0.5,-0.609375 -0.84375,-0.6875 l 0,-0.015625 0.1875,0 0,-0.765625 -1.59375,0 z m 0,0"
               id="path2862" />
          </symbol>
          <symbol
             style="overflow:visible"
             overflow="visible"
             id="textext-7c9714d1-12">
            <path
               style="stroke:none"
               d="M -1.484375,1.84375 -1.4375,1.734375 c -0.15625,-0.125 -0.234375,-0.375 -0.03125,-0.5 0.265625,-0.140625 0.6875,0.046875 0.6875,0.359375 0.015625,0.296875 -0.28125,0.4375 -0.5,0.5625 C -1.421875,2.25 -1.609375,2.3125 -1.734375,2.4375 c -0.234375,0.234375 -0.3125,0.625 -0.171875,0.9375 0.125,0.296875 0.484375,0.484375 0.796875,0.578125 C -0.359375,4.15625 0.5625,3.875 0.859375,3.09375 0.90625,2.953125 0.953125,2.828125 0.953125,2.6875 c 0,-0.71875 -0.3125,-1.234375 -0.796875,-1.75 -0.21875,-0.234375 -0.71875,-0.59375 -0.546875,-0.953125 0.109375,-0.25 0.375,-0.28125 0.578125,-0.140625 0.1875,0.140625 0.296875,0.359375 0.328125,0.578125 l 0.109375,0 C 0.625,0.078125 0.546875,-0.296875 0.34375,-0.5625 0.171875,-0.828125 -0.171875,-0.859375 -0.421875,-0.65625 -0.78125,-0.34375 -0.75,0.171875 -0.515625,0.5625 -0.296875,0.890625 0.03125,1.140625 0.28125,1.4375 0.515625,1.71875 0.671875,2.140625 0.625,2.5 0.515625,3.234375 -0.25,3.546875 -0.921875,3.4375 -1.171875,3.40625 -1.53125,3.296875 -1.640625,3.015625 -1.71875,2.765625 -1.5,2.5625 -1.328125,2.421875 -1,2.15625 -0.484375,1.90625 -0.5625,1.40625 -0.578125,1.328125 -0.59375,1.265625 -0.625,1.203125 -0.65625,1.125 -0.71875,1.046875 -0.78125,0.984375 c -0.25,-0.25 -0.703125,-0.234375 -0.953125,0.046875 -0.265625,0.296875 -0.125,0.703125 0.25,0.8125 z m 0,0"
               id="path2865" />
          </symbol>
          <symbol
             style="overflow:visible"
             overflow="visible"
             id="textext-7c9714d1-13">
            <path
               style="stroke:none"
               d="m -2.65625,-4.9375 0,0.765625 2.546875,0 c 0.65625,0 1.296875,-0.03125 1.890625,0.296875 0.328125,0.171875 0.59375,0.4375 0.75,0.765625 0.296875,0.703125 0.046875,1.734375 -0.625,2.15625 C 1.296875,-0.5625 0.25,-0.796875 0.03125,-1.5625 -0.015625,-1.75 0,-2 0.0625,-2.1875 c 0.03125,-0.15625 0.109375,-0.28125 0.21875,-0.390625 -0.046875,0.109375 -0.0625,0.25 -0.015625,0.359375 0.125,0.25 0.515625,0.40625 0.75,0.21875 0.09375,-0.0625 0.15625,-0.1875 0.1875,-0.3125 0.015625,-0.09375 0.015625,-0.203125 0,-0.296875 C 1.171875,-2.71875 1.109375,-2.796875 1.03125,-2.875 0.9375,-2.953125 0.8125,-3 0.703125,-3.015625 0.09375,-3.078125 -0.1875,-2.375 -0.203125,-1.875 -0.234375,-1.109375 0.015625,-0.234375 0.875,-0.046875 1,0 1.15625,0.015625 1.296875,0 1.90625,-0.046875 2.3125,-0.5 2.578125,-1.015625 3.125,-2.125 2.890625,-3.53125 2.015625,-4.390625 1.453125,-4.9375 0.734375,-4.9375 0.015625,-4.9375 l -2.671875,0 z m 0,0"
               id="path2868" />
          </symbol>
          <symbol
             style="overflow:visible"
             overflow="visible"
             id="textext-7c9714d1-14">
            <path
               style="stroke:none"
               d="M 0.8125,-3.078125 C 0.71875,-3.140625 0.625,-3.21875 0.546875,-3.3125 c -0.21875,-0.296875 -0.0625,-0.796875 0.28125,-0.9375 0.203125,-0.09375 0.46875,0.015625 0.625,0.15625 0.0625,0.078125 0.125,0.171875 0.15625,0.265625 0.15625,0.4375 -0.234375,0.765625 -0.515625,1.03125 -0.53125,0.484375 -1.1875,0.96875 -1.078125,1.765625 0.015625,0.15625 0.078125,0.3125 0.15625,0.453125 0.078125,0.109375 0.171875,0.21875 0.265625,0.3125 0.625,0.5 1.46875,0.21875 1.953125,-0.3125 0.171875,-0.1875 0.34375,-0.453125 0.375,-0.703125 l 0.015625,0 c 0.015625,0.140625 0.09375,0.296875 0.15625,0.4375 0.109375,0.25 0.265625,0.484375 0.484375,0.65625 C 3.859375,0.109375 4.4375,0.046875 4.8125,-0.3125 5.046875,-0.546875 5.21875,-0.875 5.328125,-1.203125 5.640625,-2.0625 5.546875,-3.015625 5.234375,-3.875 5.140625,-4.140625 5.03125,-4.46875 4.859375,-4.703125 4.71875,-4.890625 4.53125,-4.953125 4.3125,-4.9375 c -0.171875,0.015625 -0.328125,0.15625 -0.265625,0.359375 0.046875,0.15625 0.1875,0.25 0.3125,0.34375 C 4.53125,-4.125 4.671875,-4 4.796875,-3.84375 5.328125,-3.203125 5.484375,-2.1875 5.0625,-1.453125 4.9375,-1.203125 4.75,-0.984375 4.5,-0.875 3.671875,-0.453125 2.78125,-1.359375 2.75,-2.15625 2.6875,-2.046875 2.6875,-1.890625 2.625,-1.765625 2.421875,-1.359375 2.078125,-1 1.640625,-0.84375 1.4375,-0.765625 1.1875,-0.734375 0.96875,-0.8125 0.65625,-0.890625 0.390625,-1.21875 0.4375,-1.546875 c 0.046875,-0.3125 0.28125,-0.546875 0.5,-0.75 0.5,-0.5 1.203125,-0.953125 1.09375,-1.734375 C 1.96875,-4.390625 1.75,-4.71875 1.421875,-4.859375 0.78125,-5.140625 0.015625,-4.6875 0,-3.984375 c -0.015625,0.3125 0.109375,0.65625 0.34375,0.875 0.078125,0.0625 0.15625,0.125 0.25,0.171875 0.03125,0 0.078125,0.03125 0.109375,0.03125 C 0.75,-2.9375 0.796875,-3.03125 0.8125,-3.078125 z m 0,0"
               id="path2871" />
          </symbol>
          <symbol
             style="overflow:visible"
             overflow="visible"
             id="textext-7c9714d1-15">
            <path
               style="stroke:none"
               d="m 1.09375,-4.21875 c -0.28125,0.5 -0.203125,1.265625 0.4375,1.4375 0.078125,0.03125 0.1875,0.046875 0.265625,0.046875 C 2.84375,-2.875 2.890625,-4.515625 1.984375,-4.875 1.875,-4.921875 1.75,-4.9375 1.640625,-4.9375 c -0.1875,0 -0.390625,0.046875 -0.5625,0.125 C 0.75,-4.65625 0.515625,-4.390625 0.34375,-4.09375 -0.125,-3.3125 -0.109375,-2.25 0.3125,-1.46875 1,-0.203125 2.578125,0.359375 3.875,-0.234375 c 0.75,-0.359375 1.34375,-1.0625 1.53125,-1.875 C 5.5,-2.5 5.5,-2.9375 5.421875,-3.34375 5.328125,-3.875 5.0625,-4.359375 4.609375,-4.65625 c -0.1875,-0.125 -0.4375,-0.25 -0.6875,-0.203125 -0.25,0.046875 -0.203125,0.421875 -0.0625,0.5625 C 4,-4.140625 4.234375,-4.109375 4.40625,-4 4.859375,-3.734375 5.234375,-3.296875 5.25,-2.75 5.28125,-2.28125 5.03125,-1.859375 4.703125,-1.53125 4,-0.84375 2.9375,-0.625 2,-0.859375 1.390625,-1 0.75,-1.390625 0.421875,-1.9375 0,-2.6875 0.25,-3.859375 1.09375,-4.21875 z m 0.5625,-0.171875 c 0.234375,-0.03125 0.546875,0.046875 0.671875,0.28125 C 2.5,-3.75 2.125,-3.4375 1.796875,-3.40625 1.3125,-3.34375 0.96875,-4.03125 1.4375,-4.3125 1.5,-4.34375 1.578125,-4.375 1.65625,-4.390625 z m 0,0"
               id="path2874" />
          </symbol>
          <symbol
             style="overflow:visible"
             overflow="visible"
             id="textext-7c9714d1-16">
            <path
               style="stroke:none"
               d="m 4,-6.25 c 0.140625,0.09375 0.28125,0.234375 0.34375,0.40625 0.109375,0.375 -0.125,0.796875 -0.5,0.875 C 3.703125,-4.921875 3.5625,-4.9375 3.421875,-4.9375 l -0.71875,0 -2.328125,0 0,0.765625 1.390625,0 0,0.015625 C 1.640625,-4.140625 1.5,-4.0625 1.390625,-3.984375 1.09375,-3.78125 0.875,-3.46875 0.703125,-3.140625 0.65625,-3.015625 0.609375,-2.90625 0.5625,-2.78125 c 0,0.046875 -0.015625,0.125 -0.046875,0.140625 C 0.484375,-2.625 0.40625,-2.625 0.375,-2.625 l -0.375,0 0,0.546875 0.484375,0 c 0,0.28125 0.046875,0.546875 0.15625,0.8125 0.09375,0.234375 0.234375,0.453125 0.421875,0.625 0.171875,0.1875 0.375,0.34375 0.609375,0.453125 1.046875,0.484375 2.28125,0.03125 2.78125,-1 C 4.59375,-1.46875 4.65625,-1.78125 4.65625,-2.078125 l 1.21875,0 c 0.109375,0 0.34375,-0.0625 0.4375,0.015625 0.078125,0.0625 0.125,0.171875 0.171875,0.265625 0.1875,0.296875 0.359375,0.8125 0.109375,1.125 -0.140625,0.1875 -0.390625,0.234375 -0.625,0.234375 0,0.140625 0.09375,0.234375 0.21875,0.3125 C 6.421875,0.03125 6.75,0.046875 7,-0.09375 c 0.59375,-0.375 0.4375,-1.1875 0.0625,-1.640625 -0.140625,-0.1875 -0.328125,-0.3125 -0.5,-0.46875 0.234375,-0.0625 0.453125,-0.34375 0.5625,-0.546875 0.109375,-0.203125 0.15625,-0.453125 0.15625,-0.703125 0,-0.203125 -0.03125,-0.40625 -0.109375,-0.578125 -0.25,-0.46875 -0.90625,-0.796875 -1.34375,-0.390625 -0.09375,0.0625 -0.140625,0.15625 -0.203125,0.25 -0.125,0.25 -0.109375,0.578125 -0.03125,0.859375 0.09375,0.265625 0.265625,0.453125 0.421875,0.6875 L 5,-2.625 c -0.078125,0 -0.28125,0.03125 -0.34375,-0.03125 C 4.609375,-2.6875 4.609375,-2.765625 4.59375,-2.796875 4.5625,-2.90625 4.515625,-3.015625 4.46875,-3.125 4.3125,-3.453125 4.0625,-3.78125 3.75,-3.984375 3.640625,-4.0625 3.515625,-4.140625 3.375,-4.15625 3.453125,-4.1875 3.5625,-4.171875 3.671875,-4.171875 c 0.140625,0 0.28125,-0.03125 0.40625,-0.078125 C 4.65625,-4.515625 4.84375,-5.265625 4.609375,-5.8125 4.53125,-5.984375 4.421875,-6.140625 4.265625,-6.265625 4.171875,-6.34375 4.0625,-6.40625 4,-6.25 z m 0.25,3.625 -3.390625,0 C 1.03125,-3.265625 1.453125,-3.875 2.09375,-4.09375 2.875,-4.359375 3.671875,-3.875 4.046875,-3.1875 4.140625,-3.03125 4.234375,-2.828125 4.25,-2.625 z m 2.109375,-1.484375 c 0.4375,-0.0625 0.765625,0.328125 0.625,0.75 -0.09375,0.265625 -0.375,0.453125 -0.640625,0.5 -0.046875,0 -0.109375,0.015625 -0.15625,0 C 6.046875,-2.90625 5.9375,-3.140625 5.890625,-3.265625 5.78125,-3.625 5.96875,-4.046875 6.359375,-4.109375 z M 4.25,-2.078125 c 0,0.171875 -0.078125,0.359375 -0.15625,0.515625 -0.375,0.75 -1.265625,1.140625 -2.0625,0.890625 -0.640625,-0.21875 -1.015625,-0.78125 -1.171875,-1.40625 l 3.390625,0 z m 0,0"
               id="path2877" />
          </symbol>
          <symbol
             style="overflow:visible"
             overflow="visible"
             id="textext-7c9714d1-17">
            <path
               style="stroke:none"
               d="m 0,-4.9375 0,0.765625 3.375,0 0,-0.765625 -3.375,0 z m 1.75,0.875 c -0.546875,0.09375 -0.5625,0.875 -0.046875,1.03125 0.09375,0.015625 0.171875,0.015625 0.265625,0.015625 0.3125,-0.078125 0.5,-0.4375 0.359375,-0.75 C 2.234375,-3.984375 1.984375,-4.109375 1.75,-4.0625 z m 1.921875,0.546875 C 3.734375,-3.375 3.84375,-3.25 3.90625,-3.09375 c 0.109375,0.296875 0.140625,0.625 0.15625,0.9375 0,0.265625 0,0.53125 -0.078125,0.78125 -0.09375,0.265625 -0.3125,0.671875 -0.65625,0.59375 -0.3125,-0.078125 -0.34375,-0.421875 -0.4375,-0.671875 C 2.765625,-1.765625 2.5625,-2.03125 2.28125,-2.21875 1.71875,-2.59375 1.046875,-2.390625 0.625,-1.90625 0.171875,-1.390625 0,-0.671875 0,0 l 0.21875,0 c 0,-0.8125 0.578125,-1.640625 1.453125,-1.640625 0.109375,0 0.234375,0.015625 0.359375,0.046875 0.140625,0.046875 0.28125,0.109375 0.40625,0.203125 0.203125,0.15625 0.359375,0.359375 0.453125,0.59375 0.09375,0.234375 0.09375,0.46875 0.296875,0.640625 0.265625,0.21875 0.640625,0.203125 0.859375,-0.0625 0.140625,-0.1875 0.234375,-0.40625 0.3125,-0.625 0.1875,-0.578125 0.203125,-1.265625 0,-1.84375 -0.078125,-0.25 -0.1875,-0.5 -0.34375,-0.71875 -0.03125,-0.046875 -0.09375,-0.1875 -0.171875,-0.203125 -0.046875,-0.015625 -0.125,0.0625 -0.171875,0.09375 z m 0,0"
               id="path2880" />
          </symbol>
          <symbol
             style="overflow:visible"
             overflow="visible"
             id="textext-7c9714d1-18">
            <path
               style="stroke:none"
               d="m 0,-4.9375 0,0.765625 1.296875,0 0,0.015625 C 1.0625,-4.109375 0.8125,-3.921875 0.640625,-3.75 0.125,-3.234375 -0.09375,-2.5 0.046875,-1.78125 0.234375,-0.703125 1.21875,0.03125 2.296875,0 3.515625,-0.03125 4.4375,-1.125 4.390625,-2.296875 4.359375,-2.90625 4.09375,-3.484375 3.625,-3.875 3.484375,-3.984375 3.296875,-4.125 3.09375,-4.15625 l 0,-0.015625 0.09375,0 0,-0.765625 -3.1875,0 z m 2.015625,0.765625 C 2.734375,-4.25 3.515625,-3.84375 3.8125,-3.1875 3.984375,-2.8125 4,-2.359375 3.875,-1.96875 c -0.0625,0.1875 -0.140625,0.359375 -0.25,0.515625 -0.140625,0.171875 -0.3125,0.328125 -0.5,0.4375 -0.203125,0.125 -0.4375,0.203125 -0.6875,0.234375 -0.546875,0.0625 -1.109375,-0.109375 -1.5,-0.5 C 0.390625,-1.8125 0.25,-2.78125 0.71875,-3.421875 0.859375,-3.625 1.03125,-3.78125 1.25,-3.921875 1.46875,-4.0625 1.75,-4.125 2.015625,-4.171875 z m 0,0"
               id="path2883" />
          </symbol>
          <symbol
             style="overflow:visible"
             overflow="visible"
             id="textext-7c9714d1-19">
            <path
               style="stroke:none"
               d="m 2.328125,-6.15625 c -0.140625,0.046875 -0.265625,0.171875 -0.375,0.25 -0.28125,0.21875 -0.546875,0.46875 -0.78125,0.734375 -0.34375,0.375 -0.640625,0.8125 -0.828125,1.28125 -0.5625,1.34375 -0.4375,2.9375 0.328125,4.171875 0.3125,0.5 0.71875,0.9375 1.203125,1.3125 0.09375,0.078125 0.203125,0.15625 0.296875,0.21875 0.046875,0.015625 0.09375,0.078125 0.125,0.078125 0.0625,0 0.140625,-0.09375 0.140625,-0.125 C 2.453125,1.71875 2.390625,1.6875 2.375,1.671875 2.296875,1.578125 2.203125,1.5 2.125,1.40625 1.828125,1.0625 1.5625,0.703125 1.359375,0.296875 0.84375,-0.75 0.734375,-1.96875 0.921875,-3.125 c 0.15625,-0.78125 0.4375,-1.53125 0.9375,-2.171875 C 1.96875,-5.453125 2.109375,-5.609375 2.25,-5.75 2.296875,-5.796875 2.40625,-5.859375 2.421875,-5.9375 2.4375,-5.984375 2.359375,-6.09375 2.328125,-6.15625 z m 0,0"
               id="path2886" />
          </symbol>
          <symbol
             style="overflow:visible"
             overflow="visible"
             id="textext-7c9714d1-20">
            <path
               style="stroke:none"
               d="m 0,-4.9375 0,0.765625 1.8125,0 0,0.015625 C 1.5,-4.140625 1.140625,-3.953125 0.890625,-3.765625 c -0.8125,0.609375 -1.078125,1.6875 -0.765625,2.65625 0.109375,0.296875 0.25,0.59375 0.5,0.8125 0.109375,0.09375 0.21875,0.1875 0.359375,0.234375 0.625,0.234375 1.3125,-0.25 1.59375,-0.8125 C 2.65625,-1 2.71875,-1.140625 2.734375,-1.296875 l 0.015625,0 c 0.015625,0.1875 0.125,0.40625 0.21875,0.5625 0.15625,0.25 0.34375,0.484375 0.625,0.625 0.578125,0.28125 1.25,0 1.59375,-0.515625 C 5.484375,-1.03125 5.609375,-1.6875 5.40625,-2.171875 5.359375,-2.296875 5.28125,-2.40625 5.203125,-2.5 5.15625,-2.53125 5.078125,-2.59375 5.0625,-2.65625 5.046875,-2.6875 5.078125,-2.75 5.09375,-2.796875 5.109375,-2.90625 5.109375,-3.015625 5.078125,-3.140625 4.953125,-3.5625 4.578125,-3.875 4.1875,-4.03125 4.0625,-4.09375 3.921875,-4.140625 3.78125,-4.15625 l 0,-0.015625 0.5625,0 0,-0.765625 -4.34375,0 z m 4.609375,1.984375 c -0.15625,-0.125 -0.3125,-0.21875 -0.515625,-0.25 C 3.96875,-3.234375 3.8125,-3.234375 3.6875,-3.21875 3.203125,-3.140625 2.875,-2.609375 3.203125,-2.1875 3.484375,-1.828125 4,-1.78125 4.375,-2 4.5625,-2.109375 4.703125,-2.25 4.828125,-2.40625 5.359375,-2.1875 5.171875,-1.375 4.84375,-1.0625 4.75,-0.953125 4.609375,-0.890625 4.484375,-0.84375 3.8125,-0.609375 3.234375,-1 2.9375,-1.609375 2.84375,-1.78125 2.765625,-1.984375 2.75,-2.171875 2.625,-1.828125 2.5625,-1.515625 2.296875,-1.234375 2.1875,-1.109375 2.046875,-1 1.90625,-0.90625 1.375,-0.609375 0.84375,-0.84375 0.609375,-1.375 0.375,-1.890625 0.375,-2.53125 0.640625,-3.046875 c 0.546875,-0.96875 1.84375,-1.3125 2.875,-1.03125 0.5,0.15625 1.234375,0.484375 1.09375,1.125 z m -0.84375,-0.125 c 0.21875,-0.015625 0.4375,0.0625 0.609375,0.203125 0.046875,0.03125 0.15625,0.078125 0.15625,0.140625 0,0.046875 -0.078125,0.109375 -0.109375,0.125 -0.140625,0.109375 -0.28125,0.21875 -0.453125,0.25 -0.1875,0.03125 -0.40625,-0.015625 -0.515625,-0.1875 -0.15625,-0.21875 0.078125,-0.5 0.3125,-0.53125 z m 0,0"
               id="path2889" />
          </symbol>
          <symbol
             style="overflow:visible"
             overflow="visible"
             id="textext-7c9714d1-21">
            <path
               style="stroke:none"
               d="m 0,-6.03125 0,0.015625 C 0.421875,-5.609375 0.78125,-5.15625 1.046875,-4.625 1.453125,-3.8125 1.625,-2.890625 1.625,-1.984375 1.625,-1.5 1.578125,-1 1.453125,-0.53125 1.28125,0.09375 0.953125,0.6875 0.515625,1.171875 0.40625,1.28125 0.28125,1.40625 0.15625,1.53125 0.125,1.5625 0.046875,1.609375 0.03125,1.671875 c 0,0.046875 0.078125,0.15625 0.109375,0.21875 C 0.421875,1.75 0.6875,1.5 0.921875,1.3125 1.375,0.9375 1.796875,0.515625 2.0625,-0.015625 c 0.296875,-0.5625 0.390625,-1.203125 0.390625,-1.828125 0,-0.765625 -0.125,-1.515625 -0.4375,-2.21875 C 1.71875,-4.71875 1.28125,-5.296875 0.71875,-5.75 0.578125,-5.875 0.453125,-5.984375 0.296875,-6.078125 0.265625,-6.09375 0.1875,-6.171875 0.140625,-6.15625 0.09375,-6.15625 0.046875,-6.078125 0,-6.03125 z m 0,0"
               id="path2892" />
          </symbol>
          <symbol
             style="overflow:visible"
             overflow="visible"
             id="textext-7c9714d1-22">
            <path
               style="stroke:none"
               d="m 0,-4.9375 0,0.765625 0.8125,0 c 0.140625,0 0.296875,-0.015625 0.4375,0 0.765625,0.125 1.59375,0.75 1.59375,1.578125 l 0,0 C 2.78125,-2.75 2.625,-2.890625 2.5,-3 2.0625,-3.34375 1.390625,-3.40625 0.890625,-3.15625 c -0.625,0.328125 -0.953125,1.046875 -0.875,1.734375 0.078125,0.609375 0.515625,1.21875 1.125,1.375 C 1.6875,0.09375 2.3125,-0.0625 2.703125,-0.453125 2.84375,-0.59375 2.984375,-0.78125 3.015625,-0.984375 l 0,0 c 0.015625,0.125 0.09375,0.265625 0.171875,0.375 0.296875,0.515625 0.9375,0.71875 1.5,0.5625 C 5.375,-0.25 5.796875,-0.921875 5.828125,-1.609375 5.84375,-2.328125 5.375,-3.078125 4.640625,-3.25 c -0.4375,-0.109375 -0.96875,-0.015625 -1.3125,0.3125 -0.109375,0.109375 -0.234375,0.265625 -0.25,0.421875 l 0,0 c 0,-0.53125 -0.234375,-1.0625 -0.640625,-1.40625 C 2.3125,-4.015625 2.15625,-4.109375 2,-4.15625 l 0,-0.015625 2.6875,0 0,-0.765625 -4.6875,0 z m 1.421875,1.859375 c 0.859375,-0.09375 1.65625,0.890625 1.203125,1.6875 -0.09375,0.1875 -0.25,0.328125 -0.421875,0.4375 -0.140625,0.09375 -0.296875,0.15625 -0.46875,0.171875 -0.203125,0.03125 -0.40625,0.015625 -0.59375,-0.0625 -0.125,-0.046875 -0.25,-0.125 -0.34375,-0.21875 -0.65625,-0.625 -0.34375,-1.890625 0.625,-2.015625 z m 2.71875,0 c 0.140625,0 0.28125,0 0.390625,0.03125 0.65625,0.15625 0.984375,0.9375 0.796875,1.53125 C 5.25,-1.28125 5.078125,-1.078125 4.875,-0.9375 4.71875,-0.84375 4.5625,-0.78125 4.375,-0.765625 4.234375,-0.75 4.09375,-0.78125 3.953125,-0.8125 3.796875,-0.84375 3.65625,-0.90625 3.53125,-1 2.875,-1.46875 2.953125,-2.453125 3.625,-2.890625 c 0.15625,-0.09375 0.328125,-0.15625 0.515625,-0.1875 z m 0,0"
               id="path2895" />
          </symbol>
          <symbol
             style="overflow:visible"
             overflow="visible"
             id="textext-7c9714d1-23">
            <path
               style="stroke:none"
               d="m 0.453125,-3.84375 c -0.25,-0.296875 -0.078125,-0.734375 0.140625,-1 C 0.96875,-5.265625 1.625,-5.375 2.125,-5.125 c 0.453125,0.234375 0.796875,0.765625 0.71875,1.28125 -0.078125,0.53125 -0.34375,1 -0.546875,1.484375 -0.265625,0.65625 -0.4375,1.328125 -0.4375,2.03125 l 0.21875,0 C 2.09375,-1 2.5,-1.625 2.9375,-2.125 3.125,-2.359375 3.375,-2.546875 3.53125,-2.8125 3.78125,-3.21875 3.875,-3.75 3.84375,-4.234375 3.8125,-4.421875 3.765625,-4.609375 3.671875,-4.78125 3.109375,-5.9375 1.5,-6.125 0.5625,-5.3125 0.375,-5.15625 0.21875,-4.96875 0.125,-4.75 0.046875,-4.578125 0.015625,-4.390625 0,-4.203125 c -0.015625,0.453125 0.234375,1 0.703125,1.125 0.453125,0.09375 0.875,-0.328125 0.6875,-0.765625 -0.1875,-0.40625 -0.78125,-0.421875 -0.9375,0 z m 1.46875,4.0625 C 1.75,0.25 1.578125,0.34375 1.484375,0.515625 1.328125,0.796875 1.46875,1.1875 1.78125,1.296875 1.875,1.3125 1.96875,1.328125 2.0625,1.3125 2.140625,1.3125 2.203125,1.28125 2.265625,1.25 2.734375,0.953125 2.5,0.140625 1.921875,0.21875 z m 0,0"
               id="path2898" />
          </symbol>
          <symbol
             style="overflow:visible"
             overflow="visible"
             id="textext-7c9714d1-24">
            <path
               style="stroke:none"
               d="m 0.875,-3.296875 c -0.09375,-0.046875 -0.171875,-0.09375 -0.25,-0.15625 -0.234375,-0.25 -0.109375,-0.65625 0.1875,-0.796875 0.21875,-0.09375 0.46875,0 0.640625,0.15625 0.078125,0.09375 0.125,0.171875 0.15625,0.28125 0.140625,0.421875 -0.21875,0.78125 -0.5,1.046875 -0.484375,0.5 -1.0625,0.984375 -0.96875,1.734375 C 0.234375,-0.3125 1,0.171875 1.6875,-0.0625 c 0.421875,-0.140625 0.734375,-0.53125 0.921875,-0.921875 0.0625,-0.140625 0.125,-0.296875 0.15625,-0.4375 l 0,0 c 0.03125,0.25 0.1875,0.546875 0.34375,0.75 0.125,0.1875 0.296875,0.359375 0.484375,0.5 C 4.28125,0.25 5.078125,-0.15625 5.375,-0.84375 5.625,-1.4375 5.515625,-2.109375 5.046875,-2.546875 c -0.125,-0.109375 -0.328125,-0.25 -0.5,-0.296875 l 0,0 0.96875,0 0,-0.671875 -0.65625,0 C 4.921875,-3.625 4.96875,-3.71875 4.96875,-3.84375 4.984375,-4.109375 4.71875,-4.359375 4.59375,-4.5625 L 4.421875,-4.828125 c -0.015625,-0.03125 -0.03125,-0.09375 -0.0625,-0.109375 -0.109375,-0.046875 -0.296875,0 -0.40625,0 l -0.96875,0 0,0.765625 1.125,0 0.296875,0 c 0.046875,0 0.09375,0 0.125,0.03125 0.109375,0.09375 0.078125,0.375 0.015625,0.5 -0.015625,0.046875 -0.046875,0.109375 -0.09375,0.125 -0.109375,0.046875 -0.3125,0 -0.4375,0 l -1.03125,0 0,0.671875 0.6875,0 c 0.140625,0 0.28125,-0.015625 0.40625,0.015625 0.203125,0.046875 0.40625,0.125 0.59375,0.25 0.484375,0.359375 0.71875,1.046875 0.25,1.515625 C 4.828125,-0.984375 4.75,-0.90625 4.640625,-0.875 4.53125,-0.8125 4.390625,-0.78125 4.25,-0.765625 3.75,-0.734375 3.296875,-1.0625 3.046875,-1.46875 2.90625,-1.671875 2.78125,-1.9375 2.765625,-2.1875 c -0.046875,0.125 -0.0625,0.28125 -0.125,0.421875 C 2.5,-1.40625 2.21875,-1.078125 1.875,-0.890625 1.640625,-0.78125 1.375,-0.734375 1.125,-0.796875 0.78125,-0.90625 0.515625,-1.328125 0.5625,-1.6875 c 0.0625,-0.25 0.28125,-0.453125 0.453125,-0.625 0.4375,-0.421875 1.125,-0.859375 1.0625,-1.546875 -0.03125,-0.390625 -0.265625,-0.78125 -0.625,-0.96875 -0.46875,-0.25 -1.140625,-0.078125 -1.375,0.40625 -0.171875,0.359375 -0.046875,0.75 0.234375,1 0.09375,0.09375 0.203125,0.15625 0.328125,0.203125 0.03125,0.015625 0.09375,0.03125 0.125,0.03125 C 0.8125,-3.203125 0.84375,-3.265625 0.875,-3.296875 z m 0,0"
               id="path2901" />
          </symbol>
          <symbol
             style="overflow:visible"
             overflow="visible"
             id="textext-7c9714d1-25">
            <path
               style="stroke:none"
               d="m -3.625,-0.53125 -0.109375,0 c 0,0.609375 0.203125,1.1875 0.625,1.640625 C -2.5,1.78125 -1.40625,2.015625 -0.625,1.46875 c 1.21875,-0.875 1.203125,-2.5 1.03125,-3.828125 -0.078125,-0.546875 -0.203125,-1.15625 -0.5,-1.625 -0.078125,-0.125 -0.421875,-0.375 -0.484375,-0.109375 -0.046875,0.203125 0.0625,0.375 0.171875,0.546875 0.109375,0.21875 0.234375,0.453125 0.3125,0.6875 0.1875,0.5 0.296875,1.03125 0.34375,1.578125 0.03125,0.40625 0,0.796875 -0.171875,1.171875 -0.125,0.25 -0.28125,0.453125 -0.484375,0.640625 C -1.125,1.203125 -2.328125,1.109375 -3.046875,0.515625 -3.359375,0.25 -3.625,-0.125 -3.625,-0.53125 z m 0,0"
               id="path2904" />
          </symbol>
          <symbol
             style="overflow:visible"
             overflow="visible"
             id="textext-7c9714d1-26">
            <path
               style="stroke:none"
               d="m 4.359375,-5.6875 c 0.140625,0.046875 0.25,0.125 0.34375,0.234375 0.09375,0.109375 0.171875,0.234375 0.21875,0.375 0.1875,0.5625 -0.25,1.09375 -0.75,1.265625 C 3.390625,-3.5625 2.625,-4 2,-4.453125 1.828125,-4.5625 1.671875,-4.71875 1.5,-4.8125 1.203125,-4.96875 0.75,-5 0.453125,-4.828125 0.0625,-4.59375 -0.15625,-3.953125 0.125,-3.5625 c 0.109375,0.140625 0.28125,0.25 0.453125,0.328125 C 0.625,-3.21875 0.703125,-3.1875 0.75,-3.1875 0.8125,-3.203125 0.84375,-3.265625 0.875,-3.296875 0.78125,-3.3125 0.703125,-3.375 0.625,-3.421875 c -0.25,-0.171875 -0.21875,-0.5 -0.03125,-0.6875 0.1875,-0.203125 0.546875,-0.234375 0.75,-0.0625 0.0625,0.0625 0.109375,0.125 0.15625,0.203125 0.1875,0.484375 -0.140625,0.875 -0.46875,1.1875 -0.484375,0.484375 -1.125,1 -0.984375,1.78125 0.125,0.703125 0.953125,1.15625 1.625,0.953125 C 2.1875,-0.203125 2.6875,-0.765625 2.765625,-1.3125 l 0,0 c 0.03125,0.25 0.203125,0.546875 0.359375,0.75 0.140625,0.1875 0.34375,0.359375 0.5625,0.453125 0.1875,0.09375 0.421875,0.125 0.625,0.09375 0.53125,-0.0625 0.953125,-0.4375 1.09375,-0.953125 0.0625,-0.21875 0.0625,-0.453125 0,-0.671875 C 5.296875,-2.078125 4.875,-2.40625 4.421875,-2.40625 l 0,0.21875 c 0.546875,0 0.9375,0.6875 0.53125,1.109375 C 4.640625,-0.734375 4.09375,-0.6875 3.6875,-0.875 3.296875,-1.0625 3.015625,-1.4375 2.875,-1.828125 2.828125,-1.9375 2.78125,-2.078125 2.765625,-2.1875 l 0,0 C 2.71875,-1.640625 2.28125,-1.0625 1.78125,-0.84375 1.25,-0.640625 0.578125,-0.890625 0.484375,-1.5 0.40625,-1.9375 0.828125,-2.21875 1.09375,-2.484375 1.453125,-2.828125 1.9375,-3.15625 1.984375,-3.703125 2,-3.859375 1.90625,-4 1.890625,-4.15625 2.390625,-3.609375 2.9375,-3.125 3.71875,-3.078125 4.796875,-3 5.5625,-4.1875 5.21875,-5.171875 c -0.171875,-0.5 -0.71875,-0.90625 -1.265625,-0.875 -0.546875,0.03125 -0.828125,0.65625 -0.609375,1.125 0.171875,0.390625 0.71875,0.578125 1.03125,0.25 0.234375,-0.21875 0.1875,-0.78125 -0.015625,-1.015625 z M 3.875,-5.703125 c 0.421875,0 0.4375,0.765625 -0.015625,0.765625 -0.4375,0 -0.4375,-0.765625 0.015625,-0.765625 z m 0,0"
               id="path2907" />
          </symbol>
          <symbol
             style="overflow:visible"
             overflow="visible"
             id="textext-7c9714d1-27">
            <path
               style="stroke:none"
               d="m 0,-4.9375 0,0.765625 1.421875,0 c 0.296875,0 0.625,-0.03125 0.90625,0 0.453125,0.0625 0.890625,0.296875 1.234375,0.578125 0.578125,0.515625 0.890625,1.328125 0.625,2.09375 -0.09375,0.28125 -0.296875,0.609375 -0.59375,0.703125 -0.390625,0.125 -0.8125,-0.125 -1.046875,-0.421875 C 2.421875,-1.375 2.34375,-1.546875 2.265625,-1.734375 2.078125,-2.21875 1.6875,-2.9375 1.0625,-2.84375 0.953125,-2.828125 0.84375,-2.796875 0.75,-2.75 c -0.90625,0.421875 -0.890625,1.703125 -0.5,2.46875 0.15625,0.328125 0.421875,0.625 0.78125,0.734375 0.125,0.03125 0.328125,0.046875 0.421875,-0.0625 0.078125,-0.109375 0,-0.28125 -0.0625,-0.375 -0.125,-0.171875 -0.3125,-0.234375 -0.5,-0.3125 -0.1875,-0.09375 -0.375,-0.21875 -0.515625,-0.375 -0.328125,-0.421875 -0.078125,-1 0.3125,-1.265625 0.1875,-0.109375 0.390625,-0.15625 0.609375,-0.140625 0.28125,0 0.5625,0.140625 0.75,0.359375 0.125,0.171875 0.171875,0.390625 0.25,0.578125 0.09375,0.203125 0.21875,0.40625 0.359375,0.59375 C 2.9375,-0.15625 3.328125,0.125 3.828125,-0.0625 4.34375,-0.265625 4.625,-0.875 4.6875,-1.390625 4.828125,-2.328125 4.421875,-3.265625 3.65625,-3.8125 3.453125,-3.953125 3.21875,-4.109375 2.984375,-4.15625 l 0,-0.015625 0.640625,0 0,-0.765625 -3.625,0 z m 0,0"
               id="path2910" />
          </symbol>
        </g>
      </defs>
      <g
         id="textext-7c9714d1-28">
        <g
           id="g3157"
           ns0:preamble="/home/sriranga/Desktop/eps-figs/nudi-package.tex"
           ns0:text="{\\kanb goVviMdamayayx}\n\n{\\kanb mAbalayayx}\n\n{\\kanb Isarayayx (IsaragaMDa)}\n\n{\\kanb mahAdeVva(?)}\n\n{\\kanb cAvuMDa (cAmuMDarAya)}\n\n{\\kanb jinadeVva}"
           transform="scale(1.100000,1.100000)">
          <defs
             id="defs3159">
            <g
               id="g3161">
              <symbol
                 id="textext-23f56812-0"
                 overflow="visible">
                <path
                   id="path3164"
                   d=""
                   style="stroke:none;" />
              </symbol>
              <symbol
                 id="textext-23f56812-1"
                 overflow="visible">
                <path
                   id="path3167"
                   d="M 0 -4.9375 L 0 -3.84375 L 1.53125 -3.84375 L 1.53125 -3.828125 C 1.4375 -3.796875 1.359375 -3.734375 1.28125 -3.671875 C 1.0625 -3.53125 0.890625 -3.328125 0.734375 -3.125 C 0.3125 -2.546875 0.09375 -1.84375 0.015625 -1.140625 C -0.015625 -0.765625 0 -0.375 0 0 L 1.09375 0 L 1.09375 -1.265625 C 1.09375 -1.859375 1.109375 -2.4375 1.328125 -3 C 1.5 -3.390625 1.78125 -3.875 2.265625 -3.84375 C 2.671875 -3.8125 2.9375 -3.3125 3.0625 -2.984375 C 3.28125 -2.4375 3.296875 -1.890625 3.296875 -1.3125 L 3.296875 0 L 4.390625 0 C 4.390625 -0.34375 4.40625 -0.671875 4.375 -1.015625 C 4.3125 -1.71875 4.109375 -2.4375 3.71875 -3.03125 C 3.515625 -3.328125 3.21875 -3.703125 2.875 -3.828125 L 2.875 -3.84375 L 3.125 -3.84375 L 3.125 -4.9375 L 0 -4.9375 Z M 0 -4.9375 "
                   style="stroke:none;" />
              </symbol>
              <symbol
                 id="textext-23f56812-2"
                 overflow="visible">
                <path
                   id="path3170"
                   d="M -1.953125 -6.484375 C -1.859375 -6.46875 -1.765625 -6.453125 -1.671875 -6.40625 C -1.171875 -6.15625 -1.21875 -5.484375 -1.578125 -5.140625 C -1.90625 -4.828125 -2.484375 -4.9375 -2.890625 -4.9375 L -2.890625 -3.84375 C -2.265625 -3.84375 -1.671875 -3.8125 -1.1875 -4.296875 C -0.515625 -4.96875 -0.609375 -6.375 -1.578125 -6.734375 C -2 -6.890625 -2.609375 -6.78125 -2.84375 -6.375 C -3.078125 -5.984375 -2.84375 -5.4375 -2.375 -5.390625 C -2 -5.34375 -1.6875 -5.6875 -1.734375 -6.078125 C -1.75 -6.234375 -1.859375 -6.359375 -1.953125 -6.484375 Z M -1.953125 -6.484375 "
                   style="stroke:none;" />
              </symbol>
              <symbol
                 id="textext-23f56812-3"
                 overflow="visible">
                <path
                   id="path3173"
                   d="M -1.203125 -1.96875 C -1.203125 -1.828125 -1.21875 -1.671875 -1.1875 -1.53125 C -1.140625 -1.34375 -1.03125 -1.171875 -0.953125 -1 C -0.578125 -0.40625 0.078125 0.140625 0.828125 -0.03125 C 0.984375 -0.0625 1.109375 -0.125 1.234375 -0.203125 C 1.328125 -0.265625 1.421875 -0.359375 1.5 -0.453125 C 2.046875 -1.09375 1.5625 -1.90625 1.671875 -2.65625 C 1.71875 -3.046875 2.0625 -3.40625 2.390625 -3.59375 C 3.125 -4.046875 4.125 -3.84375 4.71875 -3.265625 C 4.984375 -2.984375 5.203125 -2.609375 5.171875 -2.21875 C 5.15625 -2.078125 5.140625 -1.9375 5.078125 -1.8125 C 4.859375 -1.328125 4.28125 -1.171875 3.78125 -1.21875 C 3.578125 -1.234375 3.375 -1.265625 3.1875 -1.390625 C 2.96875 -1.53125 2.828125 -1.8125 2.859375 -2.078125 C 2.90625 -2.375 3.234375 -2.5625 3.515625 -2.5 C 3.453125 -2.40625 3.328125 -2.265625 3.3125 -2.15625 C 3.234375 -1.890625 3.578125 -1.640625 3.8125 -1.609375 C 4.359375 -1.578125 4.671875 -2.1875 4.421875 -2.640625 C 4.359375 -2.765625 4.25 -2.875 4.125 -2.953125 C 3.609375 -3.25 2.90625 -2.84375 2.65625 -2.375 C 2.546875 -2.140625 2.53125 -1.90625 2.546875 -1.671875 C 2.578125 -1.0625 2.765625 -0.34375 3.375 -0.078125 C 3.515625 -0.03125 3.671875 0 3.828125 0 C 4.03125 0 4.234375 -0.03125 4.421875 -0.09375 C 4.9375 -0.3125 5.25 -0.875 5.390625 -1.390625 C 5.71875 -2.65625 5.296875 -4.109375 4.0625 -4.71875 C 3.828125 -4.84375 3.53125 -4.921875 3.265625 -4.9375 C 2.984375 -4.9375 2.703125 -4.921875 2.4375 -4.828125 C 1.796875 -4.609375 1.265625 -4.03125 1.21875 -3.359375 C 1.203125 -3.046875 1.28125 -2.71875 1.3125 -2.390625 C 1.328125 -2.234375 1.34375 -2.0625 1.3125 -1.90625 C 1.28125 -1.796875 1.21875 -1.6875 1.171875 -1.609375 C 0.765625 -1.109375 0.09375 -1.140625 -0.421875 -1.390625 C -0.609375 -1.484375 -0.78125 -1.609375 -0.9375 -1.734375 C -1.03125 -1.8125 -1.109375 -1.90625 -1.203125 -1.96875 Z M -1.203125 -1.96875 "
                   style="stroke:none;" />
              </symbol>
              <symbol
                 id="textext-23f56812-4"
                 overflow="visible">
                <path
                   id="path3176"
                   d="M 2.84375 0 L 2.84375 -0.015625 C 2.609375 -0.078125 2.375 -0.203125 2.15625 -0.3125 C 1.15625 -0.84375 0.203125 -1.8125 0.34375 -3.015625 C 0.375 -3.203125 0.421875 -3.40625 0.515625 -3.578125 C 0.609375 -3.765625 0.734375 -3.90625 0.875 -4.0625 C 0.875 -3.453125 1.25 -2.53125 2 -2.78125 C 2.109375 -2.828125 2.1875 -2.875 2.265625 -2.9375 C 2.90625 -3.515625 2.6875 -4.75 1.84375 -5 C 1.6875 -5.046875 1.515625 -5.046875 1.359375 -5.03125 C 1.203125 -5.015625 1.0625 -4.96875 0.921875 -4.890625 C -0.140625 -4.265625 -0.109375 -2.765625 0.125 -1.71875 C 0.1875 -1.484375 0.265625 -1.25 0.359375 -1.03125 C 0.46875 -0.765625 0.609375 -0.515625 0.78125 -0.265625 C 0.84375 -0.1875 0.890625 -0.0625 0.984375 -0.015625 C 1.015625 0.015625 1.078125 0 1.125 0 L 1.484375 0 L 2.84375 0 Z M 1.203125 -4.171875 C 1.5 -4.328125 1.8125 -4.3125 2.078125 -4.125 C 2.140625 -4.09375 2.296875 -4 2.296875 -3.9375 C 2.296875 -3.890625 2.21875 -3.828125 2.1875 -3.796875 C 2.078125 -3.671875 1.859375 -3.578125 1.6875 -3.640625 C 1.484375 -3.703125 1.296875 -3.984375 1.203125 -4.171875 Z M 1.203125 -4.171875 "
                   style="stroke:none;" />
              </symbol>
              <symbol
                 id="textext-23f56812-5"
                 overflow="visible">
                <path
                   id="path3179"
                   d="M 2.625 -5.046875 C 3.875 -5.046875 4.984375 -4.078125 5.140625 -2.828125 C 5.1875 -2.40625 5.15625 -1.953125 4.890625 -1.59375 C 4.75 -1.421875 4.578125 -1.296875 4.375 -1.234375 C 3.75 -1.0625 2.921875 -1.578125 2.75 -2.1875 L 2.734375 -2.1875 C 2.515625 -1.515625 1.828125 -1.171875 1.15625 -1.21875 C 0.859375 -1.234375 0.375 -1.375 0.328125 -1.71875 C 0.296875 -1.96875 0.53125 -2.1875 0.734375 -2.265625 C 1.109375 -2.40625 1.53125 -2.171875 1.53125 -1.75 C 1.59375 -1.75 1.703125 -1.734375 1.75 -1.765625 C 1.78125 -1.78125 1.796875 -1.859375 1.8125 -1.890625 C 1.859375 -2.046875 1.890625 -2.171875 1.828125 -2.328125 C 1.75 -2.578125 1.515625 -2.75 1.265625 -2.828125 C 0.703125 -2.984375 0.140625 -2.578125 0.03125 -2.03125 C -0.15625 -1.171875 0.4375 0.109375 1.453125 -0.015625 C 1.5625 -0.015625 1.671875 -0.046875 1.78125 -0.09375 C 2 -0.1875 2.1875 -0.34375 2.34375 -0.515625 C 2.515625 -0.734375 2.703125 -1.03125 2.734375 -1.3125 C 2.90625 -0.890625 3.0625 -0.53125 3.4375 -0.234375 C 3.84375 0.046875 4.40625 0.09375 4.828125 -0.1875 C 5.046875 -0.34375 5.21875 -0.578125 5.328125 -0.828125 C 5.5 -1.171875 5.5 -1.5625 5.5 -1.9375 C 5.484375 -2.703125 5.390625 -3.484375 5 -4.171875 C 4.578125 -4.9375 3.921875 -5.546875 3.0625 -5.796875 C 2.796875 -5.875 2.515625 -5.90625 2.234375 -5.9375 C 2.140625 -5.9375 2.03125 -5.921875 1.9375 -5.90625 C 1.484375 -5.859375 0.8125 -5.625 0.890625 -5.046875 C 0.890625 -4.984375 0.90625 -4.921875 0.921875 -4.84375 C 0.96875 -4.75 1.015625 -4.65625 1.09375 -4.578125 C 1.3125 -4.28125 1.828125 -4.03125 2.203125 -4.21875 C 2.5 -4.359375 2.625 -4.71875 2.625 -5.046875 Z M 2.1875 -5.046875 C 2.1875 -4.96875 2.1875 -4.890625 2.15625 -4.8125 C 2.046875 -4.609375 1.703125 -4.515625 1.53125 -4.703125 C 1.421875 -4.828125 1.53125 -5 1.671875 -5.03125 C 1.734375 -5.046875 1.796875 -5.046875 1.859375 -5.046875 L 2.1875 -5.046875 Z M 2.1875 -5.046875 "
                   style="stroke:none;" />
              </symbol>
              <symbol
                 id="textext-23f56812-6"
                 overflow="visible">
                <path
                   id="path3182"
                   d="M 1.875 -4.921875 C 0.359375 -4.71875 -0.296875 -2.9375 0.125 -1.609375 C 0.421875 -0.671875 1.265625 0.109375 2.296875 -0.015625 C 3.890625 -0.203125 4.5 -2.296875 3.90625 -3.609375 C 3.546875 -4.390625 2.78125 -5.046875 1.875 -4.921875 Z M 1.90625 -3.84375 C 2.734375 -3.9375 3.78125 -3.4375 3.78125 -2.5 C 3.78125 -2.375 3.765625 -2.25 3.734375 -2.140625 C 3.671875 -2 3.59375 -1.875 3.484375 -1.765625 C 3.375 -1.640625 3.21875 -1.515625 3.0625 -1.4375 C 2.84375 -1.3125 2.609375 -1.25 2.359375 -1.21875 C 1.859375 -1.15625 1.328125 -1.28125 0.921875 -1.578125 C 0.390625 -2 0.234375 -2.734375 0.703125 -3.265625 C 0.84375 -3.40625 0.984375 -3.53125 1.15625 -3.625 C 1.390625 -3.75 1.65625 -3.8125 1.90625 -3.84375 Z M 1.90625 -3.84375 "
                   style="stroke:none;" />
              </symbol>
              <symbol
                 id="textext-23f56812-7"
                 overflow="visible">
                <path
                   id="path3185"
                   d="M 0 -4.9375 L 0 -3.84375 L 1.515625 -3.84375 L 1.515625 -3.828125 C 1.421875 -3.8125 1.328125 -3.765625 1.234375 -3.703125 C 0.984375 -3.59375 0.75 -3.421875 0.5625 -3.203125 C 0.375 -3 0.203125 -2.78125 0.125 -2.515625 C -0.15625 -1.75 0.046875 -0.640625 0.75 -0.171875 C 1.5625 0.375 2.625 -0.453125 2.734375 -1.3125 L 2.75 -1.3125 C 2.765625 -1.140625 2.859375 -0.953125 2.953125 -0.8125 C 3.296875 -0.203125 4.09375 0.28125 4.75 -0.171875 C 5.421875 -0.640625 5.65625 -1.734375 5.390625 -2.484375 C 5.21875 -2.921875 4.90625 -3.296875 4.515625 -3.546875 C 4.359375 -3.65625 4.171875 -3.78125 3.984375 -3.828125 L 3.984375 -3.84375 L 4.21875 -3.84375 L 4.21875 -4.9375 L 0 -4.9375 Z M 2.75 -2.078125 C 2.609375 -1.8125 2.5 -1.578125 2.234375 -1.421875 C 2.109375 -1.328125 1.96875 -1.265625 1.828125 -1.234375 C 1.703125 -1.21875 1.5625 -1.203125 1.453125 -1.21875 C 0.796875 -1.3125 0.53125 -2.109375 0.703125 -2.671875 C 0.765625 -2.84375 0.875 -3.015625 1 -3.15625 C 1.671875 -3.921875 2.984375 -4.015625 3.875 -3.609375 C 4.5625 -3.296875 5.03125 -2.578125 4.75 -1.828125 C 4.640625 -1.578125 4.453125 -1.328125 4.1875 -1.25 C 3.765625 -1.109375 3.25 -1.34375 2.96875 -1.671875 C 2.875 -1.78125 2.765625 -1.9375 2.75 -2.078125 Z M 2.75 -2.078125 "
                   style="stroke:none;" />
              </symbol>
              <symbol
                 id="textext-23f56812-8"
                 overflow="visible">
                <path
                   id="path3188"
                   d="M -1.578125 -6.375 L -1.578125 -6.359375 C -1.453125 -6.234375 -1.3125 -6.078125 -1.25 -5.90625 C -1.109375 -5.515625 -1.359375 -5.140625 -1.71875 -4.984375 C -1.859375 -4.921875 -2.03125 -4.9375 -2.1875 -4.9375 L -2.796875 -4.9375 L -2.796875 -3.84375 C -2.421875 -3.84375 -2 -3.78125 -1.640625 -3.890625 C -0.984375 -4.109375 -0.625 -4.859375 -0.71875 -5.515625 C -0.765625 -5.828125 -0.921875 -6.140625 -1.140625 -6.375 C -1.1875 -6.421875 -1.296875 -6.5625 -1.359375 -6.5625 C -1.4375 -6.5625 -1.53125 -6.421875 -1.578125 -6.375 Z M -1.578125 -6.375 "
                   style="stroke:none;" />
              </symbol>
              <symbol
                 id="textext-23f56812-9"
                 overflow="visible">
                <path
                   id="path3191"
                   d="M 0 -4.9375 L 0 -3.84375 L 2.5 -3.84375 C 3.015625 -3.84375 3.53125 -3.890625 4.015625 -3.65625 C 4.671875 -3.328125 5.296875 -2.546875 4.96875 -1.78125 C 4.921875 -1.6875 4.875 -1.59375 4.8125 -1.515625 C 4.203125 -0.828125 2.953125 -1.421875 2.75 -2.1875 L 2.734375 -2.1875 C 2.515625 -1.515625 1.828125 -1.171875 1.15625 -1.21875 C 0.859375 -1.234375 0.375 -1.375 0.328125 -1.71875 C 0.296875 -1.96875 0.53125 -2.1875 0.734375 -2.265625 C 1.109375 -2.40625 1.53125 -2.171875 1.53125 -1.75 C 1.59375 -1.75 1.703125 -1.734375 1.75 -1.765625 C 1.78125 -1.78125 1.796875 -1.859375 1.8125 -1.890625 C 1.859375 -2.046875 1.890625 -2.171875 1.828125 -2.328125 C 1.75 -2.578125 1.515625 -2.75 1.265625 -2.828125 C 0.703125 -2.984375 0.140625 -2.578125 0.03125 -2.03125 C -0.15625 -1.171875 0.4375 0.109375 1.453125 -0.015625 C 1.5625 -0.015625 1.671875 -0.046875 1.78125 -0.09375 C 2 -0.1875 2.1875 -0.34375 2.34375 -0.515625 C 2.515625 -0.734375 2.703125 -1.03125 2.734375 -1.3125 L 2.75 -1.3125 C 2.765625 -1.140625 2.859375 -0.953125 2.953125 -0.8125 C 3.328125 -0.140625 4.1875 0.296875 4.875 -0.21875 C 5.21875 -0.484375 5.40625 -0.921875 5.46875 -1.328125 C 5.578125 -2.03125 5.390625 -2.71875 4.921875 -3.25 C 4.71875 -3.484375 4.390625 -3.765625 4.09375 -3.828125 L 4.09375 -3.84375 L 4.359375 -3.84375 L 4.359375 -4.9375 L 0 -4.9375 Z M 0 -4.9375 "
                   style="stroke:none;" />
              </symbol>
              <symbol
                 id="textext-23f56812-10"
                 overflow="visible">
                <path
                   id="path3194"
                   d="M -1.140625 -1.859375 C -1.171875 -1.796875 -1.15625 -1.71875 -1.15625 -1.65625 C -1.15625 -1.421875 -1.09375 -1.25 -0.984375 -1.03125 C -0.65625 -0.40625 0.078125 0.265625 0.84375 -0.09375 C 1.265625 -0.296875 1.5625 -0.75 1.703125 -1.203125 C 2.015625 -2.125 1.890625 -3.3125 1.21875 -4.0625 C 0.921875 -4.390625 0.53125 -4.609375 0.078125 -4.609375 C -0.171875 -4.609375 -0.421875 -4.53125 -0.546875 -4.296875 C -0.71875 -4 -0.5 -3.671875 -0.203125 -3.59375 C 0.015625 -3.53125 0.234375 -3.53125 0.453125 -3.484375 C 1.078125 -3.3125 1.78125 -2.828125 1.53125 -2.078125 C 1.484375 -1.9375 1.40625 -1.8125 1.3125 -1.703125 C 0.671875 -0.96875 -0.59375 -1.09375 -1.140625 -1.859375 Z M -1.140625 -1.859375 "
                   style="stroke:none;" />
              </symbol>
              <symbol
                 id="textext-23f56812-11"
                 overflow="visible">
                <path
                   id="path3197"
                   d="M -0.328125 -4.9375 L -0.328125 -3.84375 C -0.15625 -3.84375 0.0625 -3.875 0.234375 -3.828125 C 0.375 -3.8125 0.515625 -3.71875 0.625 -3.65625 C 0.875 -3.5 1.09375 -3.3125 1.265625 -3.078125 C 1.65625 -2.5625 1.625 -1.84375 1.09375 -1.4375 C 1 -1.359375 0.890625 -1.296875 0.765625 -1.25 C 0.203125 -1.078125 -0.53125 -1.390625 -0.875 -1.859375 L -0.875 -1.859375 C -0.875 -1.6875 -0.90625 -1.484375 -0.875 -1.3125 C -0.859375 -1.203125 -0.796875 -1.09375 -0.75 -1 C -0.625 -0.765625 -0.453125 -0.5625 -0.234375 -0.375 C -0.09375 -0.265625 0.078125 -0.15625 0.265625 -0.09375 C 0.453125 -0.015625 0.640625 0 0.84375 0 C 1.9375 -0.03125 2.484375 -1.359375 2.25 -2.296875 C 2.171875 -2.625 2 -2.9375 1.765625 -3.1875 C 1.546875 -3.4375 1.21875 -3.734375 0.890625 -3.828125 L 0.890625 -3.84375 L 1.140625 -3.84375 L 1.140625 -4.9375 L -0.328125 -4.9375 Z M -0.328125 -4.9375 "
                   style="stroke:none;" />
              </symbol>
              <symbol
                 id="textext-23f56812-12"
                 overflow="visible">
                <path
                   id="path3200"
                   d="M 0.671875 0.375 L 0.90625 0.375 C 0.984375 -0.015625 0.90625 -0.53125 0.59375 -0.8125 C 0.234375 -1.15625 -0.421875 -1.1875 -0.609375 -0.640625 C -0.796875 -0.140625 -0.453125 0.296875 -0.15625 0.671875 C -0.015625 0.84375 0.15625 1 0.265625 1.1875 C 0.53125 1.609375 0.65625 2.1875 0.421875 2.65625 C 0.359375 2.8125 0.25 2.953125 0.109375 3.046875 C -0.203125 3.28125 -0.59375 3.234375 -0.921875 3.078125 C -1.125 2.953125 -1.28125 2.796875 -1.25 2.546875 C -1.203125 2.3125 -0.96875 2.1875 -0.796875 2.046875 C -0.59375 1.859375 -0.46875 1.625 -0.5 1.34375 C -0.53125 1.09375 -0.625 0.84375 -0.84375 0.703125 C -1.171875 0.46875 -1.6875 0.640625 -1.875 0.984375 C -2 1.21875 -1.9375 1.5625 -1.765625 1.765625 C -1.71875 1.796875 -1.65625 1.90625 -1.59375 1.90625 C -1.5625 1.921875 -1.4375 1.84375 -1.421875 1.796875 C -1.421875 1.765625 -1.453125 1.71875 -1.453125 1.6875 C -1.46875 1.609375 -1.46875 1.53125 -1.4375 1.46875 C -1.328125 1.25 -0.96875 1.28125 -0.890625 1.515625 C -0.75 1.90625 -1.203125 2.078125 -1.453125 2.25 C -1.6875 2.421875 -1.796875 2.65625 -1.828125 2.953125 C -1.859375 3.5 -1.46875 3.84375 -0.984375 3.984375 C -0.3125 4.171875 0.484375 4 0.890625 3.421875 C 1.390625 2.71875 1.125 1.671875 0.59375 1.0625 C 0.375 0.8125 0.09375 0.625 -0.078125 0.34375 C -0.15625 0.234375 -0.21875 0.0625 -0.15625 -0.0625 C -0.03125 -0.296875 0.359375 -0.25 0.515625 -0.09375 C 0.640625 0.03125 0.671875 0.203125 0.671875 0.375 Z M 0.671875 0.375 "
                   style="stroke:none;" />
              </symbol>
              <symbol
                 id="textext-23f56812-13"
                 overflow="visible">
                <path
                   id="path3203"
                   d="M -3.09375 -4.9375 L -3.09375 -3.84375 L -0.546875 -3.84375 C -0.109375 -3.84375 0.34375 -3.875 0.78125 -3.828125 C 1.34375 -3.78125 1.96875 -3.671875 2.34375 -3.203125 C 2.734375 -2.6875 2.625 -1.828125 2.109375 -1.453125 C 1.671875 -1.125 1 -1.125 0.5625 -1.390625 C 0.1875 -1.625 0.078125 -2.03125 0.3125 -2.40625 C 0.421875 -2.578125 0.609375 -2.765625 0.84375 -2.71875 C 0.78125 -2.65625 0.75 -2.578125 0.734375 -2.484375 C 0.671875 -2.15625 0.984375 -1.9375 1.265625 -1.953125 C 1.625 -1.984375 1.828125 -2.3125 1.75 -2.65625 C 1.71875 -2.75 1.671875 -2.84375 1.578125 -2.921875 C 1.5 -3.015625 1.375 -3.078125 1.25 -3.125 C 0.609375 -3.3125 0.078125 -2.796875 -0.09375 -2.21875 C -0.15625 -2.015625 -0.15625 -1.796875 -0.125 -1.578125 C -0.0625 -0.9375 0.265625 -0.1875 0.953125 -0.03125 C 1.6875 0.140625 2.265625 -0.359375 2.59375 -0.96875 C 3.109375 -1.921875 3.015625 -3.34375 2.296875 -4.171875 C 1.875 -4.640625 1.3125 -4.875 0.703125 -4.9375 C 0.40625 -4.96875 0.078125 -4.9375 -0.21875 -4.9375 L -3.09375 -4.9375 Z M -3.09375 -4.9375 "
                   style="stroke:none;" />
              </symbol>
              <symbol
                 id="textext-23f56812-14"
                 overflow="visible">
                <path
                   id="path3206"
                   d="M 0.765625 -3.296875 L 0.765625 -3.3125 C 0.703125 -3.375 0.625 -3.421875 0.578125 -3.515625 C 0.484375 -3.671875 0.625 -3.890625 0.75 -3.984375 C 1.03125 -4.171875 1.5 -4.03125 1.53125 -3.671875 C 1.5625 -3.265625 1.171875 -2.96875 0.90625 -2.734375 C 0.578125 -2.453125 0.15625 -2.171875 0.046875 -1.71875 C 0 -1.546875 0.015625 -1.34375 0.046875 -1.171875 C 0.09375 -0.96875 0.15625 -0.78125 0.265625 -0.609375 C 0.359375 -0.453125 0.46875 -0.328125 0.625 -0.234375 C 1.328125 0.265625 2.1875 -0.140625 2.578125 -0.828125 C 2.65625 -0.984375 2.75 -1.15625 2.765625 -1.328125 L 2.78125 -1.328125 C 2.796875 -1.15625 2.890625 -0.96875 2.96875 -0.828125 C 3.25 -0.328125 3.875 0.171875 4.484375 -0.0625 C 4.578125 -0.09375 4.671875 -0.15625 4.75 -0.234375 C 5.046875 -0.484375 5.234375 -0.921875 5.359375 -1.28125 C 5.59375 -2.078125 5.59375 -2.984375 5.359375 -3.78125 C 5.25 -4.140625 5.078125 -4.515625 4.8125 -4.78125 C 4.640625 -4.96875 4.390625 -5.078125 4.140625 -5.046875 C 3.890625 -5.03125 3.828125 -4.65625 3.890625 -4.46875 C 4.03125 -4.109375 4.421875 -4 4.671875 -3.78125 C 5.140625 -3.375 5.296875 -2.65625 5.125 -2.078125 C 5.015625 -1.734375 4.75 -1.390625 4.390625 -1.265625 C 3.75 -1.046875 2.953125 -1.5625 2.78125 -2.203125 C 2.71875 -2.109375 2.671875 -1.96875 2.609375 -1.859375 C 2.390625 -1.5625 2.0625 -1.3125 1.6875 -1.234375 C 1.3125 -1.171875 0.8125 -1.28125 0.703125 -1.703125 C 0.6875 -1.78125 0.671875 -1.859375 0.6875 -1.9375 C 0.734375 -2.109375 0.875 -2.265625 0.984375 -2.40625 C 1.21875 -2.6875 1.53125 -2.921875 1.765625 -3.203125 C 1.90625 -3.375 2.078125 -3.59375 2.078125 -3.8125 C 2.09375 -4.046875 2.046875 -4.28125 1.9375 -4.484375 C 1.671875 -4.96875 1.0625 -5.21875 0.546875 -4.96875 C 0.421875 -4.90625 0.3125 -4.8125 0.234375 -4.71875 C -0.046875 -4.40625 -0.046875 -3.953125 0.125 -3.59375 C 0.203125 -3.453125 0.296875 -3.328125 0.40625 -3.203125 C 0.4375 -3.1875 0.5 -3.09375 0.546875 -3.09375 C 0.625 -3.09375 0.71875 -3.25 0.765625 -3.296875 Z M 0.765625 -3.296875 "
                   style="stroke:none;" />
              </symbol>
              <symbol
                 id="textext-23f56812-15"
                 overflow="visible">
                <path
                   id="path3209"
                   d="M 0.984375 -3.953125 C 0.984375 -3.484375 1.1875 -2.75 1.75 -2.734375 C 1.828125 -2.734375 1.90625 -2.765625 1.984375 -2.78125 C 2.078125 -2.8125 2.15625 -2.859375 2.234375 -2.921875 C 2.9375 -3.5 2.671875 -4.859375 1.734375 -5.03125 C 1.609375 -5.046875 1.46875 -5.046875 1.359375 -5.03125 C 1.21875 -5.015625 1.09375 -4.96875 0.984375 -4.921875 C 0.703125 -4.75 0.5 -4.5 0.34375 -4.234375 C -0.453125 -2.875 0.15625 -0.96875 1.5625 -0.265625 C 2.125 0.015625 2.796875 0.0625 3.40625 -0.0625 C 3.734375 -0.15625 4.046875 -0.28125 4.328125 -0.484375 C 4.5 -0.59375 4.671875 -0.75 4.8125 -0.90625 C 5.53125 -1.71875 5.625 -2.84375 5.375 -3.875 C 5.25 -4.3125 5 -4.765625 4.609375 -5 C 4.4375 -5.109375 4.203125 -5.1875 4 -5.15625 C 3.890625 -5.140625 3.8125 -5.015625 3.78125 -4.921875 C 3.6875 -4.671875 3.734375 -4.40625 3.921875 -4.21875 C 4.265625 -3.859375 4.859375 -3.796875 5.078125 -3.296875 C 5.328125 -2.75 5.078125 -2.140625 4.625 -1.78125 C 4.0625 -1.328125 3.3125 -1.171875 2.609375 -1.203125 C 1.921875 -1.234375 1.203125 -1.421875 0.6875 -1.921875 C 0.078125 -2.515625 0.296875 -3.53125 0.984375 -3.953125 Z M 2.359375 -4 C 2.328125 -3.9375 2.265625 -3.875 2.21875 -3.828125 C 1.90625 -3.515625 1.453125 -3.578125 1.203125 -3.953125 C 1.359375 -4.03125 1.5 -4.125 1.6875 -4.171875 C 1.90625 -4.203125 2.15625 -4.09375 2.359375 -4 Z M 2.359375 -4 "
                   style="stroke:none;" />
              </symbol>
              <symbol
                 id="textext-23f56812-16"
                 overflow="visible">
                <path
                   id="path3212"
                   d="M 4.09375 -6.484375 C 4.0625 -6.453125 4 -6.40625 4 -6.375 C 4 -6.328125 4.078125 -6.28125 4.109375 -6.25 C 4.171875 -6.171875 4.234375 -6.078125 4.28125 -5.96875 C 4.359375 -5.71875 4.3125 -5.40625 4.15625 -5.203125 C 3.890625 -4.859375 3.453125 -4.9375 3.078125 -4.9375 L 0.375 -4.9375 L 0.375 -3.84375 L 1.78125 -3.84375 L 1.78125 -3.828125 C 1.671875 -3.8125 1.578125 -3.75 1.484375 -3.703125 C 1.25 -3.5625 1.046875 -3.375 0.875 -3.15625 C 0.8125 -3.078125 0.765625 -3 0.71875 -2.921875 C 0.6875 -2.875 0.671875 -2.828125 0.625 -2.796875 C 0.578125 -2.765625 0.484375 -2.796875 0.4375 -2.796875 L 0 -2.796875 L 0 -1.96875 L 0.484375 -1.96875 C 0.484375 -1.765625 0.515625 -1.5625 0.578125 -1.359375 C 0.671875 -1.109375 0.828125 -0.875 1.015625 -0.671875 C 1.84375 0.15625 3.21875 0.234375 4.140625 -0.515625 C 4.421875 -0.734375 4.65625 -1.046875 4.78125 -1.390625 C 4.8125 -1.53125 4.84375 -1.671875 4.859375 -1.796875 C 4.859375 -1.84375 4.84375 -1.9375 4.890625 -1.96875 C 4.921875 -1.984375 4.96875 -1.96875 5.015625 -1.96875 L 5.328125 -1.96875 C 5.703125 -1.96875 6.1875 -1.890625 6.515625 -2.078125 C 6.671875 -1.6875 6.875 -1.328125 6.578125 -0.9375 C 6.53125 -0.875 6.46875 -0.8125 6.40625 -0.75 C 6.28125 -0.671875 6.15625 -0.609375 6.015625 -0.546875 C 6.078125 -0.453125 6.140625 -0.34375 6.21875 -0.265625 C 6.296875 -0.171875 6.390625 -0.09375 6.484375 -0.046875 C 7.078125 0.203125 7.640625 -0.4375 7.609375 -1 C 7.59375 -1.484375 7.046875 -1.78125 6.734375 -2.09375 C 6.921875 -2.15625 7.125 -2.359375 7.234375 -2.515625 C 7.65625 -3.125 7.640625 -4.25 6.84375 -4.546875 C 6.421875 -4.71875 5.875 -4.53125 5.734375 -4.0625 C 5.65625 -3.875 5.6875 -3.640625 5.765625 -3.453125 C 5.875 -3.203125 6.03125 -3.015625 6.1875 -2.796875 L 5.109375 -2.796875 L 4.828125 -2.796875 C 4.796875 -2.796875 4.734375 -2.78125 4.703125 -2.796875 C 4.671875 -2.828125 4.65625 -2.875 4.625 -2.921875 L 4.46875 -3.15625 C 4.265625 -3.4375 3.953125 -3.78125 3.59375 -3.828125 L 3.59375 -3.84375 C 3.875 -3.890625 4.09375 -3.953125 4.3125 -4.15625 C 4.953125 -4.78125 4.9375 -6.03125 4.09375 -6.484375 Z M 4.140625 -2.796875 L 1.140625 -2.796875 C 1.4375 -3.515625 2.25 -3.984375 3.015625 -3.796875 C 3.3125 -3.734375 3.5625 -3.546875 3.78125 -3.34375 C 3.921875 -3.1875 4.09375 -2.984375 4.140625 -2.796875 Z M 6.59375 -3.78125 C 6.890625 -3.8125 7.28125 -3.671875 7.21875 -3.296875 C 7.203125 -3.25 7.171875 -3.203125 7.15625 -3.15625 C 7.03125 -2.9375 6.765625 -2.828125 6.53125 -2.796875 C 6.5 -2.796875 6.4375 -2.78125 6.40625 -2.796875 C 6.328125 -2.84375 6.28125 -3.03125 6.25 -3.109375 C 6.125 -3.40625 6.234375 -3.734375 6.59375 -3.78125 Z M 4.140625 -1.96875 C 4.09375 -1.59375 3.765625 -1.3125 3.4375 -1.15625 C 2.625 -0.75 1.4375 -1.0625 1.140625 -1.96875 L 4.140625 -1.96875 Z M 4.140625 -1.96875 "
                   style="stroke:none;" />
              </symbol>
              <symbol
                 id="textext-23f56812-17"
                 overflow="visible">
                <path
                   id="path3215"
                   d="M 0 -4.9375 L 0 -3.84375 L 1.71875 -3.84375 L 1.71875 -3.828125 C 1.3125 -3.828125 0.9375 -3.390625 1.140625 -2.984375 C 1.28125 -2.75 1.578125 -2.625 1.84375 -2.625 C 2.125 -2.625 2.4375 -2.75 2.578125 -3.015625 C 2.765625 -3.40625 2.390625 -3.8125 2 -3.828125 L 2 -3.84375 L 3.265625 -3.84375 L 3.265625 -4.9375 L 0 -4.9375 Z M 0 0 L 0.328125 0 C 0.328125 -0.125 0.34375 -0.234375 0.40625 -0.34375 C 0.703125 -1.09375 1.65625 -1.234375 2.328125 -0.984375 C 2.578125 -0.890625 2.796875 -0.734375 2.953125 -0.53125 C 3.078125 -0.359375 3.125 -0.15625 3.34375 -0.0625 C 3.6875 0.09375 4.015625 -0.0625 4.203125 -0.375 C 4.46875 -0.796875 4.515625 -1.296875 4.5 -1.78125 C 4.46875 -2.25 4.34375 -2.71875 4.109375 -3.125 C 4.046875 -3.234375 3.96875 -3.40625 3.875 -3.484375 C 3.8125 -3.515625 3.703125 -3.453125 3.6875 -3.40625 C 3.671875 -3.34375 3.734375 -3.265625 3.734375 -3.203125 C 3.796875 -3.046875 3.84375 -2.890625 3.890625 -2.734375 C 4.015625 -2.296875 3.921875 -1.78125 3.765625 -1.359375 C 3.6875 -1.1875 3.578125 -0.96875 3.390625 -0.890625 C 3.265625 -0.84375 3.109375 -0.890625 3.015625 -1 C 2.9375 -1.09375 2.90625 -1.25 2.84375 -1.359375 C 2.703125 -1.640625 2.484375 -1.890625 2.21875 -2.046875 C 2.078125 -2.109375 1.953125 -2.15625 1.796875 -2.1875 C 1.359375 -2.265625 0.921875 -2.046875 0.625 -1.71875 C 0.1875 -1.25 0 -0.625 0 0 Z M 0 0 "
                   style="stroke:none;" />
              </symbol>
              <symbol
                 id="textext-23f56812-18"
                 overflow="visible">
                <path
                   id="path3218"
                   d="M 0 -4.9375 L 0 -3.84375 L 0.984375 -3.84375 L 0.984375 -3.828125 C 0.75 -3.765625 0.546875 -3.53125 0.421875 -3.34375 C -0.015625 -2.765625 -0.125 -1.953125 0.171875 -1.28125 C 0.265625 -1.046875 0.40625 -0.84375 0.59375 -0.671875 C 0.84375 -0.421875 1.125 -0.234375 1.453125 -0.109375 C 2.484375 0.234375 3.6875 -0.203125 4.171875 -1.1875 C 4.390625 -1.59375 4.421875 -2.046875 4.359375 -2.5 C 4.28125 -2.890625 4.078125 -3.28125 3.78125 -3.5625 C 3.703125 -3.640625 3.625 -3.703125 3.53125 -3.765625 C 3.5 -3.78125 3.4375 -3.8125 3.40625 -3.84375 C 3.34375 -3.921875 3.34375 -4.09375 3.3125 -4.1875 C 3.265625 -4.4375 3.171875 -4.6875 3.140625 -4.9375 L 0 -4.9375 Z M 1.984375 -3.84375 C 2.515625 -3.890625 3.140625 -3.765625 3.53125 -3.375 C 3.921875 -3.015625 4.046875 -2.359375 3.765625 -1.890625 C 3.640625 -1.6875 3.4375 -1.53125 3.21875 -1.40625 C 2.984375 -1.28125 2.734375 -1.21875 2.46875 -1.203125 C 1.84375 -1.125 1.0625 -1.28125 0.671875 -1.828125 C 0.3125 -2.328125 0.484375 -3.0625 0.953125 -3.453125 C 1.25 -3.6875 1.609375 -3.78125 1.984375 -3.84375 Z M 1.984375 -3.84375 "
                   style="stroke:none;" />
              </symbol>
              <symbol
                 id="textext-23f56812-19"
                 overflow="visible">
                <path
                   id="path3221"
                   d="M 2.328125 -6.15625 C 2.1875 -6.109375 2.046875 -5.984375 1.9375 -5.890625 C 1.671875 -5.671875 1.40625 -5.4375 1.171875 -5.171875 C 0.75 -4.71875 0.4375 -4.1875 0.234375 -3.609375 C -0.203125 -2.359375 -0.046875 -0.90625 0.640625 0.21875 C 0.953125 0.75 1.375 1.203125 1.859375 1.578125 L 2.1875 1.828125 C 2.21875 1.84375 2.265625 1.890625 2.3125 1.890625 C 2.359375 1.890625 2.421875 1.8125 2.4375 1.78125 C 2.453125 1.734375 2.40625 1.703125 2.375 1.671875 C 2.296875 1.59375 2.21875 1.515625 2.15625 1.4375 C 1.859375 1.109375 1.59375 0.75 1.390625 0.359375 C 1.03125 -0.375 0.796875 -1.203125 0.84375 -2.03125 C 0.859375 -2.4375 0.9375 -2.84375 1 -3.25 C 1.046875 -3.515625 1.0625 -3.828125 1.15625 -4.09375 C 1.28125 -4.5 1.546875 -4.921875 1.8125 -5.265625 C 1.953125 -5.4375 2.09375 -5.59375 2.25 -5.734375 C 2.296875 -5.796875 2.40625 -5.859375 2.421875 -5.9375 C 2.4375 -6 2.359375 -6.09375 2.328125 -6.15625 Z M 2.328125 -6.15625 "
                   style="stroke:none;" />
              </symbol>
              <symbol
                 id="textext-23f56812-20"
                 overflow="visible">
                <path
                   id="path3224"
                   d="M 0 -4.9375 L 0 -3.84375 L 1.1875 -3.84375 L 1.1875 -3.828125 C 0.875 -3.765625 0.578125 -3.453125 0.40625 -3.21875 C -0.0625 -2.609375 -0.09375 -1.78125 0.140625 -1.078125 C 0.25 -0.765625 0.421875 -0.4375 0.6875 -0.234375 C 1.5 0.40625 2.625 -0.421875 2.734375 -1.3125 L 2.75 -1.3125 C 2.765625 -1.140625 2.875 -0.953125 2.953125 -0.8125 C 3.3125 -0.1875 4.234375 0.3125 4.890625 -0.203125 C 5.390625 -0.578125 5.53125 -1.3125 5.5 -1.90625 C 5.484375 -2.078125 5.46875 -2.25 5.421875 -2.40625 C 5.390625 -2.515625 5.359375 -2.625 5.28125 -2.71875 C 5.25 -2.765625 5.1875 -2.8125 5.171875 -2.859375 C 5.125 -2.953125 5.140625 -3.078125 5.109375 -3.1875 C 5 -3.484375 4.6875 -3.84375 4.359375 -3.84375 L 4.359375 -4.9375 L 0 -4.9375 Z M 4.828125 -3.1875 C 4.484375 -3.234375 4.203125 -3.4375 3.84375 -3.40625 C 3.34375 -3.34375 2.84375 -2.78125 3.1875 -2.296875 C 3.421875 -1.90625 3.921875 -1.796875 4.34375 -1.890625 C 4.546875 -1.9375 4.734375 -2.03125 4.875 -2.1875 C 4.9375 -2.25 4.984375 -2.34375 5.046875 -2.40625 C 5.109375 -2.328125 5.15625 -2.21875 5.15625 -2.109375 C 5.1875 -1.71875 4.8125 -1.421875 4.46875 -1.28125 C 3.890625 -1.09375 3.3125 -1.28125 2.953125 -1.78125 C 2.875 -1.890625 2.765625 -2.046875 2.75 -2.1875 C 2.6875 -2.078125 2.640625 -1.953125 2.578125 -1.828125 C 2.40625 -1.578125 2.171875 -1.375 1.90625 -1.28125 C 1.78125 -1.21875 1.640625 -1.203125 1.5 -1.203125 C 0.84375 -1.234375 0.46875 -2 0.5625 -2.578125 C 0.625 -2.984375 0.9375 -3.265625 1.265625 -3.46875 C 1.96875 -3.890625 2.875 -3.90625 3.671875 -3.78125 C 4.0625 -3.71875 4.625 -3.59375 4.828125 -3.1875 Z M 4.828125 -2.734375 C 4.6875 -2.640625 4.5625 -2.546875 4.40625 -2.484375 C 4.234375 -2.421875 4.046875 -2.375 3.875 -2.4375 C 3.65625 -2.515625 3.53125 -2.765625 3.671875 -2.953125 C 3.75 -3.0625 3.859375 -3.078125 3.96875 -3.078125 C 4.1875 -3.078125 4.421875 -3.015625 4.609375 -2.90625 C 4.6875 -2.859375 4.78125 -2.8125 4.828125 -2.734375 Z M 4.828125 -2.734375 "
                   style="stroke:none;" />
              </symbol>
              <symbol
                 id="textext-23f56812-21"
                 overflow="visible">
                <path
                   id="path3227"
                   d="M 0 -6.03125 L 0 -6.015625 C 0.453125 -5.578125 0.875 -5.09375 1.140625 -4.515625 C 1.3125 -4.171875 1.375 -3.796875 1.453125 -3.421875 C 1.5625 -2.890625 1.640625 -2.34375 1.625 -1.796875 C 1.609375 -1.265625 1.46875 -0.734375 1.359375 -0.21875 C 1.234375 0.3125 0.84375 0.8125 0.484375 1.203125 L 0.15625 1.53125 C 0.125 1.5625 0.046875 1.609375 0.03125 1.671875 C 0.03125 1.71875 0.109375 1.828125 0.140625 1.890625 C 0.421875 1.75 0.703125 1.5 0.9375 1.3125 C 1.359375 0.953125 1.75 0.5625 2.03125 0.0625 C 2.390625 -0.625 2.5 -1.421875 2.4375 -2.1875 C 2.40625 -2.828125 2.28125 -3.453125 2.015625 -4.0625 C 1.71875 -4.71875 1.265625 -5.296875 0.71875 -5.75 C 0.59375 -5.875 0.453125 -5.984375 0.296875 -6.078125 C 0.265625 -6.09375 0.1875 -6.171875 0.140625 -6.15625 C 0.09375 -6.15625 0.046875 -6.078125 0 -6.03125 Z M 0 -6.03125 "
                   style="stroke:none;" />
              </symbol>
              <symbol
                 id="textext-23f56812-22"
                 overflow="visible">
                <path
                   id="path3230"
                   d="M 0 -4.9375 L 0 -3.84375 L 1.5 -3.84375 L 1.96875 -3.84375 C 2.046875 -3.84375 2.140625 -3.84375 2.203125 -3.828125 C 2.296875 -3.8125 2.40625 -3.71875 2.484375 -3.65625 C 2.796875 -3.40625 2.953125 -3.046875 2.953125 -2.640625 L 2.953125 -2.640625 C 2.859375 -2.828125 2.625 -2.984375 2.453125 -3.078125 C 1.421875 -3.703125 0.078125 -2.921875 0 -1.75 C -0.046875 -1.125 0.296875 -0.5 0.84375 -0.203125 C 1.5625 0.171875 2.703125 0.03125 3.078125 -0.765625 C 3.1875 -0.5625 3.34375 -0.40625 3.53125 -0.265625 C 3.703125 -0.15625 3.90625 -0.078125 4.109375 -0.046875 C 4.484375 0.03125 4.875 0.015625 5.21875 -0.15625 C 5.96875 -0.515625 6.3125 -1.390625 6.078125 -2.15625 C 5.765625 -3.125 4.640625 -3.5625 3.765625 -3.109375 C 3.5625 -3.015625 3.28125 -2.828125 3.1875 -2.625 L 3.1875 -2.625 C 3.1875 -2.984375 3.0625 -3.3125 2.828125 -3.59375 C 2.765625 -3.671875 2.6875 -3.78125 2.578125 -3.828125 L 2.578125 -3.84375 L 4.890625 -3.84375 L 4.890625 -4.9375 L 0 -4.9375 Z M 1.5 -2.953125 C 2.125 -3.03125 2.9375 -2.5625 2.703125 -1.84375 C 2.671875 -1.75 2.625 -1.671875 2.546875 -1.578125 C 2.46875 -1.5 2.375 -1.421875 2.265625 -1.359375 C 2.140625 -1.28125 1.984375 -1.234375 1.828125 -1.21875 C 1.5 -1.171875 1.171875 -1.25 0.890625 -1.453125 C 0.53125 -1.71875 0.421875 -2.21875 0.734375 -2.578125 C 0.828125 -2.6875 0.9375 -2.765625 1.046875 -2.828125 C 1.1875 -2.90625 1.34375 -2.9375 1.5 -2.953125 Z M 4.359375 -2.953125 C 4.71875 -3 5.078125 -2.890625 5.34375 -2.65625 C 5.625 -2.375 5.6875 -1.921875 5.4375 -1.609375 C 5.34375 -1.515625 5.234375 -1.421875 5.125 -1.359375 C 5 -1.28125 4.84375 -1.234375 4.6875 -1.21875 C 4.34375 -1.171875 3.96875 -1.25 3.703125 -1.484375 C 3.59375 -1.578125 3.515625 -1.671875 3.453125 -1.796875 C 3.28125 -2.203125 3.53125 -2.625 3.90625 -2.828125 C 4.046875 -2.90625 4.203125 -2.9375 4.359375 -2.953125 Z M 4.359375 -2.953125 "
                   style="stroke:none;" />
              </symbol>
              <symbol
                 id="textext-23f56812-23"
                 overflow="visible">
                <path
                   id="path3233"
                   d="M 1.328125 -1.421875 L 1.578125 -1.421875 C 1.578125 -2.3125 2.46875 -2.734375 2.890625 -3.40625 C 3.046875 -3.671875 3.109375 -3.984375 3.09375 -4.296875 C 3.078125 -4.421875 3.0625 -4.546875 3.015625 -4.65625 C 2.71875 -5.40625 1.6875 -5.578125 1 -5.359375 C 0.8125 -5.296875 0.640625 -5.234375 0.484375 -5.140625 C 0.15625 -4.921875 -0.046875 -4.59375 0.015625 -4.203125 C 0.015625 -4.09375 0.046875 -3.984375 0.109375 -3.890625 C 0.3125 -3.640625 0.84375 -3.703125 0.890625 -4.046875 C 0.953125 -4.328125 0.671875 -4.5 0.65625 -4.75 C 0.65625 -4.890625 0.765625 -5 0.890625 -5.0625 C 1.109375 -5.15625 1.4375 -5.171875 1.671875 -5.078125 C 1.96875 -4.96875 2.25 -4.65625 2.265625 -4.3125 C 2.28125 -4.15625 2.25 -4 2.21875 -3.859375 C 2.03125 -3.25 1.671875 -2.71875 1.46875 -2.125 C 1.390625 -1.890625 1.328125 -1.671875 1.328125 -1.421875 Z M 1.359375 -0.953125 C 1 -0.890625 0.859375 -0.484375 1.0625 -0.1875 C 1.171875 -0.046875 1.359375 0.015625 1.53125 0 C 1.890625 -0.046875 2.109375 -0.53125 1.859375 -0.8125 C 1.734375 -0.953125 1.515625 -0.96875 1.359375 -0.953125 Z M 1.359375 -0.953125 "
                   style="stroke:none;" />
              </symbol>
              <symbol
                 id="textext-23f56812-24"
                 overflow="visible">
                <path
                   id="path3236"
                   d="M 0.765625 -3.296875 L 0.765625 -3.296875 C 0.703125 -3.359375 0.625 -3.421875 0.578125 -3.5 C 0.484375 -3.671875 0.625 -3.875 0.75 -3.984375 C 1.03125 -4.15625 1.5 -4.015625 1.53125 -3.65625 C 1.5625 -3.3125 1.25 -3.078125 1.015625 -2.890625 C 0.5625 -2.515625 -0.03125 -2.140625 0.015625 -1.46875 C 0.0625 -0.703125 0.640625 0 1.4375 0 C 1.578125 0 1.71875 -0.015625 1.84375 -0.0625 C 2.203125 -0.21875 2.4375 -0.5625 2.609375 -0.90625 C 2.671875 -1.03125 2.734375 -1.171875 2.765625 -1.3125 L 2.78125 -1.3125 C 2.8125 -1.09375 2.96875 -0.84375 3.109375 -0.671875 C 3.34375 -0.34375 3.6875 -0.046875 4.109375 0 C 4.25 0.015625 4.375 -0.015625 4.5 -0.046875 C 5.46875 -0.28125 5.828125 -1.578125 5.1875 -2.296875 L 5.515625 -2.296875 L 5.515625 -3.296875 L 4.96875 -3.296875 C 5.15625 -3.53125 4.828125 -3.734375 4.734375 -3.921875 L 4.40625 -4.65625 C 4.375 -4.71875 4.34375 -4.890625 4.28125 -4.921875 C 4.234375 -4.96875 4.0625 -4.9375 3.984375 -4.9375 L 3.203125 -4.9375 L 3.203125 -3.84375 L 4.09375 -3.84375 C 4.1875 -3.84375 4.359375 -3.875 4.4375 -3.8125 C 4.578125 -3.71875 4.59375 -3.375 4.40625 -3.296875 C 4.3125 -3.265625 4.140625 -3.296875 4.03125 -3.296875 L 3.203125 -3.296875 L 3.203125 -2.296875 L 4.1875 -2.296875 C 4.328125 -2.296875 4.5 -2.328125 4.640625 -2.296875 C 4.8125 -2.25 5.03125 -2.03125 5.0625 -1.84375 C 5.15625 -1.4375 4.59375 -1.234375 4.28125 -1.21875 C 3.78125 -1.1875 3.40625 -1.390625 3.078125 -1.765625 C 2.953125 -1.890625 2.875 -2.0625 2.765625 -2.1875 C 2.515625 -1.796875 2.21875 -1.328125 1.734375 -1.21875 C 1.328125 -1.140625 0.640625 -1.375 0.671875 -1.875 C 0.703125 -2.109375 0.921875 -2.359375 1.09375 -2.515625 C 1.4375 -2.859375 1.90625 -3.203125 2.0625 -3.6875 C 2.09375 -3.796875 2.09375 -3.921875 2.078125 -4.046875 C 1.984375 -4.78125 1.140625 -5.328125 0.484375 -4.921875 C 0.078125 -4.671875 -0.09375 -4.21875 0.046875 -3.765625 C 0.109375 -3.5625 0.234375 -3.40625 0.375 -3.234375 C 0.40625 -3.203125 0.484375 -3.09375 0.546875 -3.09375 C 0.625 -3.09375 0.71875 -3.234375 0.765625 -3.296875 Z M 0.765625 -3.296875 "
                   style="stroke:none;" />
              </symbol>
              <symbol
                 id="textext-23f56812-25"
                 overflow="visible">
                <path
                   id="path3239"
                   d="M -3.5625 -0.640625 C -3.53125 -0.421875 -3.46875 -0.203125 -3.40625 -0.015625 C -3.078125 0.875 -2.359375 1.671875 -1.359375 1.671875 C -1.1875 1.671875 -1 1.625 -0.84375 1.5625 C -0.671875 1.5 -0.515625 1.390625 -0.375 1.28125 C 0.65625 0.421875 0.78125 -1 0.6875 -2.234375 C 0.640625 -2.828125 0.484375 -3.375 0.234375 -3.921875 C 0.15625 -4.0625 0 -4.421875 -0.21875 -4.34375 C -0.34375 -4.3125 -0.359375 -4.15625 -0.375 -4.046875 C -0.421875 -3.75 -0.3125 -3.421875 -0.203125 -3.140625 C 0.09375 -2.28125 0.703125 -1.375 0.1875 -0.453125 C 0.09375 -0.296875 0 -0.15625 -0.125 -0.015625 C -0.84375 0.71875 -2.046875 0.75 -2.859375 0.140625 C -3.046875 0 -3.203125 -0.15625 -3.3125 -0.359375 C -3.390625 -0.484375 -3.40625 -0.640625 -3.5625 -0.640625 Z M -3.5625 -0.640625 "
                   style="stroke:none;" />
              </symbol>
              <symbol
                 id="textext-23f56812-26"
                 overflow="visible">
                <path
                   id="path3242"
                   d="M 4.71875 -5.59375 C 4.890625 -5.421875 5.046875 -5.265625 5.125 -5.03125 C 5.359375 -4.28125 4.46875 -3.84375 3.859375 -3.84375 C 3.40625 -3.828125 2.875 -3.921875 2.5 -4.171875 C 2.171875 -4.390625 1.90625 -4.71875 1.5625 -4.90625 C 1.25 -5.078125 0.859375 -5.109375 0.546875 -4.953125 C 0.09375 -4.734375 -0.09375 -4.234375 0.046875 -3.765625 C 0.109375 -3.5625 0.234375 -3.40625 0.375 -3.234375 C 0.40625 -3.203125 0.484375 -3.09375 0.546875 -3.09375 C 0.625 -3.09375 0.71875 -3.234375 0.765625 -3.296875 L 0.765625 -3.296875 C 0.703125 -3.359375 0.625 -3.421875 0.578125 -3.5 C 0.484375 -3.671875 0.625 -3.875 0.75 -3.984375 C 1.03125 -4.15625 1.5 -4.015625 1.53125 -3.65625 C 1.5625 -3.34375 1.265625 -3.078125 1.0625 -2.875 C 0.703125 -2.5 0.109375 -2.15625 0.015625 -1.59375 C 0.015625 -1.46875 0.015625 -1.328125 0.046875 -1.21875 C 0.078125 -1.015625 0.15625 -0.8125 0.265625 -0.640625 C 0.390625 -0.484375 0.53125 -0.328125 0.703125 -0.21875 C 1.0625 0.015625 1.5625 0.078125 1.9375 -0.109375 C 2.359375 -0.328125 2.71875 -0.84375 2.765625 -1.3125 L 2.78125 -1.3125 C 2.796875 -1.0625 2.984375 -0.78125 3.125 -0.578125 C 3.265625 -0.40625 3.453125 -0.234375 3.65625 -0.125 C 3.75 -0.078125 3.875 -0.046875 3.984375 -0.015625 C 4.78125 0.140625 5.40625 -0.578125 5.5 -1.328125 C 5.53125 -1.546875 5.515625 -1.75 5.4375 -1.953125 C 5.328125 -2.171875 5.15625 -2.34375 4.9375 -2.46875 C 4.8125 -2.546875 4.640625 -2.625 4.46875 -2.625 L 4.375 -2.296875 C 4.65625 -2.25 5.234375 -2 5.046875 -1.609375 C 5.03125 -1.578125 5 -1.53125 4.96875 -1.5 C 4.8125 -1.34375 4.578125 -1.265625 4.390625 -1.234375 C 3.71875 -1.109375 2.96875 -1.5 2.78125 -2.1875 L 2.765625 -2.1875 C 2.59375 -1.671875 2.203125 -1.265625 1.640625 -1.203125 C 1.25 -1.171875 0.671875 -1.421875 0.671875 -1.859375 C 0.6875 -2.171875 1.03125 -2.40625 1.234375 -2.59375 C 1.6875 -2.984375 2.1875 -3.34375 2.1875 -3.984375 C 2.859375 -3.5625 3.546875 -2.90625 4.421875 -3.109375 C 4.5625 -3.15625 4.703125 -3.203125 4.828125 -3.296875 C 5.734375 -3.875 5.671875 -5.28125 4.859375 -5.921875 C 4.5625 -6.15625 4.078125 -6.25 3.765625 -6.015625 C 3.28125 -5.65625 3.265625 -4.8125 3.859375 -4.546875 C 4.28125 -4.359375 4.765625 -4.6875 4.828125 -5.140625 C 4.84375 -5.296875 4.78125 -5.4375 4.71875 -5.59375 Z M 4.0625 -5.609375 C 4.34375 -5.609375 4.359375 -5.171875 4.0625 -5.15625 C 3.78125 -5.140625 3.765625 -5.59375 4.0625 -5.609375 Z M 4.0625 -5.609375 "
                   style="stroke:none;" />
              </symbol>
              <symbol
                 id="textext-23f56812-27"
                 overflow="visible">
                <path
                   id="path3245"
                   d="M 0 -4.9375 L 0 -3.84375 L 1.75 -3.84375 L 2.421875 -3.84375 C 2.53125 -3.84375 2.65625 -3.859375 2.75 -3.84375 C 2.984375 -3.78125 3.234375 -3.625 3.421875 -3.484375 C 4 -3.078125 4.4375 -2.234375 3.984375 -1.5625 C 3.890625 -1.40625 3.734375 -1.265625 3.546875 -1.21875 C 3.09375 -1.109375 2.578125 -1.4375 2.328125 -1.796875 C 2.15625 -2.109375 2.078125 -2.4375 1.84375 -2.71875 C 1.59375 -3.015625 1.140625 -3.296875 0.734375 -3.140625 C 0.453125 -3.015625 0.265625 -2.734375 0.140625 -2.453125 C -0.09375 -1.84375 -0.03125 -1.078125 0.203125 -0.484375 C 0.3125 -0.171875 0.515625 0.1875 0.828125 0.296875 C 0.953125 0.34375 1.140625 0.34375 1.265625 0.296875 C 1.5 0.203125 1.578125 -0.0625 1.5 -0.296875 C 1.421875 -0.546875 1.1875 -0.625 0.96875 -0.703125 C 0.765625 -0.796875 0.578125 -0.90625 0.453125 -1.09375 C 0.234375 -1.390625 0.34375 -1.71875 0.671875 -1.890625 C 0.890625 -2 1.171875 -2 1.421875 -1.9375 C 1.6875 -1.875 1.953125 -1.71875 2.109375 -1.484375 C 2.1875 -1.359375 2.234375 -1.203125 2.296875 -1.0625 C 2.390625 -0.84375 2.515625 -0.640625 2.65625 -0.453125 C 2.90625 -0.140625 3.265625 0.09375 3.671875 -0.046875 C 4.09375 -0.1875 4.34375 -0.640625 4.46875 -1.03125 C 4.75 -1.90625 4.609375 -2.84375 3.890625 -3.453125 C 3.734375 -3.59375 3.515625 -3.78125 3.3125 -3.828125 L 3.3125 -3.84375 L 3.34375 -3.84375 L 3.34375 -4.9375 L 0 -4.9375 Z M 0 -4.9375 "
                   style="stroke:none;" />
              </symbol>
            </g>
          </defs>
          <g
             id="textext-23f56812-28">
            <g
               id="g3354"
               style="fill:#000000;fill-opacity:1"
               transform="translate(67.532469,-82.467532)">
              <text
                 xml:space="preserve"
                 style="font-size:10px;font-style:normal;font-variant:normal;font-weight:bold;font-stretch:normal;text-align:center;line-height:125%;letter-spacing:0px;word-spacing:0px;text-anchor:middle;fill:#000000;fill-opacity:1;stroke:none;font-family:NudiUni01eBold;-inkscape-font-specification:NudiUni01eBold Bold"
                 x="150.37343"
                 y="169.11986"
                 id="text3172"
                 sodipodi:linespacing="125%"><tspan
                   sodipodi:role="line"
                   id="tspan3174"
                   x="150.37343"
                   y="169.11986"> ()</tspan></text>
              <text
                 xml:space="preserve"
                 style="font-size:10px;font-style:normal;font-variant:normal;font-weight:bold;font-stretch:normal;text-align:center;line-height:125%;letter-spacing:0px;word-spacing:0px;text-anchor:middle;fill:#000000;fill-opacity:1;stroke:none;font-family:NudiUni01eBold;-inkscape-font-specification:NudiUni01eBold Bold"
                 x="262.71109"
                 y="168.79518"
                 id="text3176"
                 sodipodi:linespacing="125%"><tspan
                   sodipodi:role="line"
                   id="tspan3178"
                   x="262.71109"
                   y="168.79518"></tspan></text>
              <text
                 xml:space="preserve"
                 style="font-size:10px;font-style:normal;font-variant:normal;font-weight:bold;font-stretch:normal;text-align:center;line-height:125%;letter-spacing:0px;word-spacing:0px;text-anchor:middle;fill:#000000;fill-opacity:1;stroke:none;font-family:NudiUni01eBold;-inkscape-font-specification:NudiUni01eBold Bold"
                 x="145.82799"
                 y="117.82116"
                 id="text3180"
                 sodipodi:linespacing="125%"><tspan
                   sodipodi:role="line"
                   id="tspan3182"
                   x="145.82799"
                   y="117.82116"></tspan></text>
            </g>
            <text
               xml:space="preserve"
               style="font-size:11px;font-style:normal;font-variant:normal;font-weight:bold;font-stretch:normal;text-align:center;line-height:125%;letter-spacing:0px;word-spacing:0px;text-anchor:middle;fill:#000000;fill-opacity:1;stroke:none;font-family:NudiUni01e;-inkscape-font-specification:Sans Bold"
               x="388.57144"
               y="279.50504"
               id="text3211"
               sodipodi:linespacing="125%"
               transform="matrix(0.90909091,0,0,0.90909091,-137.28891,-113.87175)"><tspan
                 sodipodi:role="line"
                 id="tspan3213"
                 x="388.57144"
                 y="279.50504" /></text>
            <text
               xml:space="preserve"
               style="font-size:10px;font-style:normal;font-variant:normal;font-weight:bold;font-stretch:normal;text-align:center;line-height:125%;letter-spacing:0px;word-spacing:0px;text-anchor:middle;fill:#000000;fill-opacity:1;stroke:none;font-family:NudiUni01e;-inkscape-font-specification:NudiUni01eBold Bold"
               x="99.724083"
               y="85.678284"
               id="text3215"
               sodipodi:linespacing="125%"><tspan
                 sodipodi:role="line"
                 id="tspan3217"
                 x="99.724083"
                 y="85.678284"
                 style="font-style:normal;font-variant:normal;font-weight:bold;font-stretch:normal;font-family:NudiUni01eBold;-inkscape-font-specification:NudiUni01eBold Bold"> - () </tspan></text>
            <text
               xml:space="preserve"
               style="font-size:10px;font-style:normal;font-variant:normal;font-weight:bold;font-stretch:normal;text-align:center;line-height:125%;letter-spacing:0px;word-spacing:0px;text-anchor:middle;fill:#000000;fill-opacity:1;stroke:none;font-family:NudiUni01e;-inkscape-font-specification:Sans Bold"
               x="106.86693"
               y="116.19775"
               id="text3219"
               sodipodi:linespacing="125%"><tspan
                 sodipodi:role="line"
                 id="tspan3221"
                 x="106.86693"
                 y="116.19775"
                 style="font-style:normal;font-variant:normal;font-weight:bold;font-stretch:normal;font-family:NudiUni01eBold;-inkscape-font-specification:NudiUni01eBold Bold"> () - () </tspan></text>
            <text
               xml:space="preserve"
               style="font-size:10px;font-style:normal;font-variant:normal;font-weight:bold;font-stretch:normal;text-align:center;line-height:125%;letter-spacing:0px;word-spacing:0px;text-anchor:middle;fill:#000000;fill-opacity:1;stroke:none;font-family:NudiUni01e;-inkscape-font-specification:Sans Bold"
               x="99.074722"
               y="150.61336"
               id="text3223"
               sodipodi:linespacing="125%"><tspan
                 sodipodi:role="line"
                 id="tspan3225"
                 x="99.074722"
                 y="150.61336"
                 style="font-style:normal;font-variant:normal;font-weight:bold;font-stretch:normal;font-family:NudiUni01eBold;-inkscape-font-specification:NudiUni01eBold Bold"></tspan></text>
          </g>
        </g>
      </g>
    </g>
    <path
       id="path3298"
       d="m 257.14286,208.07647 0,-20 256.42857,0 0,22.85714"
       style="fill:none;stroke:#000000;stroke-width:1.375;stroke-linecap:butt;stroke-linejoin:miter;stroke-opacity:1;stroke-miterlimit:4;stroke-dasharray:none" />
    <path
       id="path4072"
       d="m 385.85171,168.11238 0,20.71428"
       style="fill:none;stroke:#000000;stroke-width:1.375;stroke-linecap:butt;stroke-linejoin:miter;stroke-miterlimit:4;stroke-opacity:1;stroke-dasharray:none" />
    <path
       style="fill:none;stroke:#000000;stroke-width:1.375;stroke-linecap:butt;stroke-linejoin:miter;stroke-miterlimit:4;stroke-opacity:1;stroke-dasharray:none"
       d="m 385.85171,187.10222 0,20.71428"
       id="path4074" />
    <path
       id="path4076"
       d="m 256.86187,222.59714 0,20.71428"
       style="fill:none;stroke:#000000;stroke-width:1.375;stroke-linecap:butt;stroke-linejoin:miter;stroke-miterlimit:4;stroke-opacity:1;stroke-dasharray:none" />
    <path
       style="fill:none;stroke:#000000;stroke-width:1.375;stroke-linecap:butt;stroke-linejoin:miter;stroke-miterlimit:4;stroke-opacity:1;stroke-dasharray:none"
       d="m 256.86187,258.5565 0,20.71428"
       id="path4078" />
    <path
       id="path3228"
       d="m 256.86187,294.5565 0,20.71428"
       style="fill:none;stroke:#000000;stroke-width:1.375;stroke-linecap:butt;stroke-linejoin:miter;stroke-miterlimit:4;stroke-opacity:1;stroke-dasharray:none"
       inkscape:connector-curvature="0" />
    <text
       xml:space="preserve"
       style="font-size:11px;font-style:normal;font-variant:normal;font-weight:bold;font-stretch:normal;text-align:center;line-height:125%;letter-spacing:0px;word-spacing:0px;text-anchor:middle;fill:#000000;fill-opacity:1;stroke:none;font-family:NudiUni01e;-inkscape-font-specification:Sans Bold"
       x="260.71429"
       y="328.07648"
       id="text3230"
       sodipodi:linespacing="125%"><tspan
         sodipodi:role="line"
         id="tspan3232"
         x="263.50726"
         y="328.07648"><tspan
           style="font-style:normal;font-variant:normal;font-weight:bold;font-stretch:normal;font-family:NudiUni01eBold;-inkscape-font-specification:NudiUni01eBold Bold"
           id="tspan3234">  </tspan></tspan></text>
  </g>
</svg>
