<?xml version="1.0" encoding="UTF-8" standalone="no"?>
<!-- Created with Inkscape (http://www.inkscape.org/) -->

<svg
   xmlns:dc="http://purl.org/dc/elements/1.1/"
   xmlns:cc="http://creativecommons.org/ns#"
   xmlns:rdf="http://www.w3.org/1999/02/22-rdf-syntax-ns#"
   xmlns:svg="http://www.w3.org/2000/svg"
   xmlns="http://www.w3.org/2000/svg"
   xmlns:sodipodi="http://sodipodi.sourceforge.net/DTD/sodipodi-0.dtd"
   xmlns:inkscape="http://www.inkscape.org/namespaces/inkscape"
   id="svg2"
   version="1.1"
   inkscape:version="0.91 r13725"
   xml:space="preserve"
   width="371.25"
   height="133.75"
   viewBox="0 0 371.25 133.75"
   sodipodi:docname="chap3fig14.svg"><metadata
     id="metadata8"><rdf:RDF><cc:Work
         rdf:about=""><dc:format>image/svg+xml</dc:format><dc:type
           rdf:resource="http://purl.org/dc/dcmitype/StillImage" /><dc:title></dc:title></cc:Work></rdf:RDF></metadata><defs
     id="defs6" /><sodipodi:namedview
     pagecolor="#ffffff"
     bordercolor="#666666"
     borderopacity="1"
     objecttolerance="10"
     gridtolerance="10"
     guidetolerance="10"
     inkscape:pageopacity="0"
     inkscape:pageshadow="2"
     inkscape:window-width="1024"
     inkscape:window-height="744"
     id="namedview4"
     showgrid="false"
     inkscape:zoom="3.0398449"
     inkscape:cx="54.072062"
     inkscape:cy="85.289343"
     inkscape:window-x="0"
     inkscape:window-y="24"
     inkscape:window-maximized="1"
     inkscape:current-layer="g12" /><g
     id="g10"
     inkscape:groupmode="layer"
     inkscape:label="ink_ext_XXXXXX"
     transform="matrix(1.25,0,0,-1.25,0,133.75)"><g
       id="g12"
       transform="scale(0.1,0.1)"><path
         d="m 735.121,1038.45 0,-9.53 21.789,0 c 4.5,0 8.988,0.43 13.211,-1.64 5.738,-2.85 11.207,-9.65 8.32,-16.33 -0.39,-0.82 -0.82,-1.64 -1.371,-2.34 -5.308,-5.98 -16.211,-0.82 -17.968,5.86 l -0.153,0 c -1.879,-5.86 -7.898,-8.83 -13.75,-8.44 -2.578,0.15 -6.801,1.36 -7.23,4.37 -0.27,2.19 1.801,4.07 3.551,4.77 3.281,1.21 6.96,-0.82 6.96,-4.49 0.54,0 1.481,-0.16 1.911,0.11 0.269,0.16 0.39,0.82 0.55,1.1 0.387,1.36 0.661,2.46 0.11,3.83 -0.66,2.18 -2.731,3.67 -4.922,4.33 -4.879,1.37 -9.801,-2.15 -10.738,-6.95 -1.641,-7.46 3.558,-18.631 12.379,-17.58 0.98,0 1.921,0.269 2.89,0.699 1.879,0.82 3.52,2.191 4.891,3.672 1.519,1.919 3.121,4.499 3.398,6.959 l 0.153,0 c 0.117,-1.49 0.937,-3.13 1.757,-4.38 3.282,-5.861 10.782,-9.65 16.762,-5.15 3,2.301 4.649,6.13 5.188,9.65 0.941,6.13 -0.7,12.14 -4.758,16.79 -1.801,2.03 -4.653,4.49 -7.231,5.04 l 0,0.12 2.301,0 0,9.53 -38,0 z"
         style="fill:#000000;fill-opacity:1;fill-rule:nonzero;stroke:none"
         id="path14"
         inkscape:connector-curvature="0" /><path
         d="m 776.211,1050.99 0,-0.12 c 1.09,-1.09 2.34,-2.46 2.891,-3.94 1.207,-3.44 -0.981,-6.68 -4.102,-8.05 -1.211,-0.55 -2.73,-0.43 -4.102,-0.43 l -5.308,0 0,-9.53 c 3.281,0 6.949,-0.55 10.109,0.43 5.711,1.87 8.832,8.44 8.012,14.14 -0.391,2.73 -1.762,5.47 -3.672,7.5 -0.391,0.43 -1.367,1.64 -1.918,1.64 -0.66,0 -1.48,-1.21 -1.91,-1.64 z"
         style="fill:#000000;fill-opacity:1;fill-rule:nonzero;stroke:none"
         id="path16"
         inkscape:connector-curvature="0" /><path
         d="m 780.121,1011.61 c -0.281,-0.54 -0.121,-1.21 -0.121,-1.75 0,-2.07 0.551,-3.56 1.48,-5.47 2.899,-5.429 9.258,-11.288 15.942,-8.171 3.707,1.761 6.289,5.711 7.5,9.691 2.738,8.01 1.637,18.4 -4.223,24.92 -2.578,2.85 -5.969,4.77 -9.961,4.77 -2.148,0 -4.328,-0.67 -5.429,-2.74 -1.481,-2.57 0.39,-5.43 3.011,-6.13 1.91,-0.55 3.789,-0.55 5.7,-0.94 5.468,-1.48 11.601,-5.74 9.421,-12.26 -0.429,-1.21 -1.101,-2.31 -1.921,-3.28 -5.579,-6.41 -16.641,-5.32 -21.399,1.36 z"
         style="fill:#000000;fill-opacity:1;fill-rule:nonzero;stroke:none"
         id="path18"
         inkscape:connector-curvature="0" /><path
         d="m 824.449,1031.77 c -2.57,-1.48 -4.648,-3.13 -6.129,-5.59 -3.832,-5.97 -4.492,-14.29 -1.09,-20.7 5.309,-9.691 18.122,-13.089 27.379,-6.8 11.442,7.62 10.352,24.26 4.102,34.89 -1.09,1.91 -2.621,3.79 -4.102,5.43 -5.699,6.01 -14.839,9.14 -22.73,5.86 -3.719,-1.49 -8.207,-6.41 -4.649,-10.36 1.75,-2.03 4.649,-2.57 7.219,-2.73 z m 24.102,-5.59 c -0.93,0.98 -1.641,2.07 -2.571,3.01 -2.742,2.58 -6.531,4.1 -10.242,4.49 -2.968,0.28 -6.25,-0.39 -9.258,0.28 -1.48,0.27 -3.121,1.25 -3.671,2.61 -0.539,1.76 0.671,2.86 1.921,3.68 2.461,1.21 5.43,1.21 8.161,0.93 7.339,-0.82 15,-7.22 15.66,-15 z m -16.211,4.65 c 4.769,0.39 10.238,-0.94 13.519,-4.65 5.039,-5.43 2.969,-14.57 -3.437,-17.96 -1.91,-1.1 -4.063,-1.65 -6.25,-1.92 -5.043,-0.66 -10.512,0.82 -14.024,4.65 -4.918,5.31 -3.437,13.87 2.852,17.58 2.191,1.36 4.77,1.91 7.34,2.3 z"
         style="fill:#000000;fill-opacity:1;fill-rule:nonzero;stroke:none"
         id="path20"
         inkscape:connector-curvature="0" /><path
         d="m 876.641,1038.33 c -13.243,-1.76 -18.942,-17.3 -15.27,-28.9 2.578,-8.17 9.918,-14.961 18.938,-13.91 13.91,1.64 19.222,19.92 14.031,31.37 -3.129,6.79 -9.809,12.54 -17.699,11.44 z m 0.238,-9.41 c 7.223,0.82 16.359,-3.56 16.359,-11.72 0,-1.09 -0.117,-2.19 -0.386,-3.13 -0.551,-1.25 -1.25,-2.3 -2.192,-3.28 -0.969,-1.09 -2.301,-2.18 -3.672,-2.85 -1.91,-1.09 -3.976,-1.64 -6.129,-1.91 -4.379,-0.55 -9.019,0.54 -12.539,3.12 -4.648,3.67 -6.019,10.08 -1.91,14.73 1.211,1.21 2.461,2.3 3.942,3.12 2.027,1.1 4.378,1.64 6.527,1.92 z"
         style="fill:#000000;fill-opacity:1;fill-rule:nonzero;stroke:none"
         id="path22"
         inkscape:connector-curvature="0" /><path
         d="m 898.91,1038.45 0,-9.53 c 1.481,0 3.391,0.27 4.879,-0.12 1.25,-0.16 2.461,-0.98 3.441,-1.52 2.149,-1.37 4.059,-2.97 5.579,-5.04 3.402,-4.49 3.132,-10.74 -1.52,-14.3 -0.82,-0.7 -1.758,-1.21 -2.848,-1.64 -4.921,-1.48 -11.332,1.21 -14.3,5.31 0,-1.48 -0.27,-3.28 0,-4.76 0.121,-0.94 0.66,-1.92 1.089,-2.74 1.059,-2.03 2.579,-3.79 4.5,-5.43 1.211,-0.969 2.692,-1.91 4.329,-2.461 1.64,-0.699 3.281,-0.821 5.043,-0.821 9.57,0.282 14.339,11.842 12.269,20.042 -0.672,2.85 -2.152,5.59 -4.223,7.78 -1.918,2.14 -4.769,4.76 -7.617,5.58 l 0,0.12 2.188,0 0,9.53 -12.809,0 z"
         style="fill:#000000;fill-opacity:1;fill-rule:nonzero;stroke:none"
         id="path24"
         inkscape:connector-curvature="0" /><path
         d="m 914.262,1050.99 0,-0.12 c 1.09,-1.09 2.297,-2.46 2.847,-3.94 1.25,-3.44 -0.937,-6.68 -4.058,-8.05 -1.25,-0.55 -2.742,-0.43 -4.102,-0.43 l -5.32,0 0,-9.53 c 3.281,0 6.961,-0.55 10.082,0.43 5.738,1.87 8.867,8.44 8.051,14.14 -0.434,2.73 -1.762,5.47 -3.672,7.5 -0.43,0.43 -1.371,1.64 -1.918,1.64 -0.703,0 -1.481,-1.21 -1.91,-1.64 z"
         style="fill:#000000;fill-opacity:1;fill-rule:nonzero;stroke:none"
         id="path26"
         inkscape:connector-curvature="0" /><path
         d="m 925.23,1038.45 0,-9.53 c 1.532,0 3.442,0.27 4.93,-0.12 1.211,-0.16 2.461,-0.98 3.391,-1.52 2.187,-1.37 4.109,-2.97 5.59,-5.04 3.398,-4.49 3.129,-10.74 -1.481,-14.3 -0.82,-0.7 -1.762,-1.21 -2.859,-1.64 -4.922,-1.48 -11.321,1.21 -14.332,5.31 0,-1.48 -0.27,-3.28 0,-4.76 0.152,-0.94 0.703,-1.92 1.09,-2.74 1.101,-2.03 2.582,-3.79 4.492,-5.43 1.25,-0.969 2.738,-1.91 4.379,-2.461 1.64,-0.699 3.281,-0.821 5.039,-0.821 9.531,0.282 14.301,11.842 12.261,20.042 -0.66,2.85 -2.179,5.59 -4.21,7.78 -1.918,2.14 -4.77,4.76 -7.622,5.58 l 0,0.12 2.153,0 0,9.53 -12.821,0 z"
         style="fill:#000000;fill-opacity:1;fill-rule:nonzero;stroke:none"
         id="path28"
         inkscape:connector-curvature="0" /><path
         d="m 927.379,1038.45 0,-9.53 22.23,0 c 3.832,0 7.77,0.27 11.602,-0.12 4.879,-0.43 10.348,-1.37 13.59,-5.47 3.437,-4.49 2.469,-11.99 -2.031,-15.27 -3.821,-2.85 -9.68,-2.85 -13.469,-0.55 -3.281,2.07 -4.223,5.59 -2.192,8.87 0.942,1.52 2.582,3.12 4.61,2.73 -0.508,-0.54 -0.778,-1.21 -0.938,-2.03 -0.551,-2.89 2.188,-4.76 4.649,-4.65 3.121,0.28 4.879,3.13 4.218,6.14 -0.269,0.82 -0.699,1.64 -1.527,2.3 -0.66,0.82 -1.75,1.37 -2.851,1.8 -5.579,1.64 -10.192,-2.89 -11.719,-7.93 -0.539,-1.76 -0.539,-3.67 -0.27,-5.59 0.547,-5.58 3.399,-12.111 9.418,-13.47 6.403,-1.489 11.442,2.851 14.289,8.16 4.492,8.32 3.672,20.74 -2.578,27.93 -3.672,4.1 -8.59,6.13 -13.898,6.68 -2.582,0.27 -5.434,0 -8.051,0 l -25.082,0 z"
         style="fill:#000000;fill-opacity:1;fill-rule:nonzero;stroke:none"
         id="path30"
         inkscape:connector-curvature="0" /><path
         d="m 986.641,1038.45 0,-9.53 21.129,0 c 0.94,0 2.03,0.15 2.85,0 2.08,-0.55 4.22,-1.92 5.86,-3.13 5.04,-3.55 8.87,-10.9 4.93,-16.75 -0.82,-1.37 -2.19,-2.58 -3.83,-3.01 -3.95,-0.94 -8.44,1.91 -10.63,5.04 -1.48,2.73 -2.18,5.58 -4.22,8.04 -2.18,2.58 -6.128,5.04 -9.679,3.68 -2.461,-1.1 -4.071,-3.56 -5.16,-5.98 -2.071,-5.31 -1.52,-11.99 0.55,-17.189 0.938,-2.73 2.688,-5.859 5.43,-6.801 1.09,-0.429 2.731,-0.429 3.828,0 2.031,0.821 2.731,3.129 2.031,5.16 -0.671,2.19 -2.742,2.85 -4.609,3.56 -1.801,0.82 -3.441,1.75 -4.531,3.39 -1.879,2.58 -0.942,5.47 1.91,6.96 1.91,0.93 4.379,0.93 6.559,0.43 2.311,-0.55 4.611,-1.92 5.981,-3.99 0.7,-1.09 1.09,-2.42 1.64,-3.67 0.82,-1.91 1.91,-3.67 3.12,-5.308 2.19,-2.743 5.32,-4.774 8.87,-3.563 3.67,1.25 5.86,5.201 6.95,8.601 2.47,7.65 1.22,15.82 -5.03,21.13 -1.37,1.21 -3.29,2.85 -5.04,3.28 l 0,0.12 0.27,0 0,9.53 -29.179,0 z"
         style="fill:#000000;fill-opacity:1;fill-rule:nonzero;stroke:none"
         id="path32"
         inkscape:connector-curvature="0" /><path
         d="m 1016.76,1051.97 c 0.82,-0.16 1.64,-0.28 2.46,-0.71 4.33,-2.19 3.94,-8.04 0.82,-11.01 -2.89,-2.74 -7.93,-1.8 -11.45,-1.8 l 0,-9.53 c 5.43,0 10.63,-0.28 14.85,3.94 5.86,5.86 5.04,18.13 -3.4,21.29 -3.71,1.33 -9.02,0.39 -11.06,-3.16 -2.03,-3.4 0,-8.17 4.11,-8.56 3.24,-0.43 5.97,2.58 5.58,5.98 -0.15,1.37 -1.09,2.46 -1.91,3.56 z"
         style="fill:#000000;fill-opacity:1;fill-rule:nonzero;stroke:none"
         id="path34"
         inkscape:connector-curvature="0" /><path
         d="m 1090.51,975.789 c -2.58,2.43 -8.21,7.742 -11.88,18.789 -2.3,6.962 -3.24,14.852 -3.24,22.622 0,17.03 4.34,30.66 14.02,40.35 1.21,1.37 1.37,1.37 1.37,1.92 0,0.93 -0.98,1.21 -1.64,1.21 -1.48,0 -5.04,-3.29 -6.68,-4.77 -13.48,-13.48 -15.55,-29.45 -15.55,-38.71 0,-10.9 2.89,-20.43 6.96,-27.661 5.74,-9.961 13.63,-15.82 15.27,-15.82 0.66,0 1.64,0.281 1.64,1.25 0,0.39 -0.27,0.82 -0.27,0.82 z"
         style="fill:#000000;fill-opacity:1;fill-rule:nonzero;stroke:none"
         id="path36"
         inkscape:connector-curvature="0" /><path
         d="m 1141.37,1014.74 -4.1,0 c -0.28,-1.76 -1.1,-7.35 -2.31,-7.89 -0.98,-0.55 -7.5,-0.55 -8.87,-0.55 l -12.81,0 c 4.1,3.4 8.71,7.07 12.54,9.96 9.96,7.35 15.55,11.45 15.55,19.61 0,10.08 -9.14,16.49 -21.29,16.49 -10.63,0 -18.79,-5.43 -18.79,-13.21 0,-5.19 4.22,-6.4 6.25,-6.4 2.89,0 6.29,1.91 6.29,6.25 0,4.49 -3.67,5.86 -4.92,6.29 2.46,2.03 5.86,3 9.02,3 7.34,0 11.45,-5.86 11.45,-12.42 0,-5.98 -3.29,-11.99 -9.42,-18.12 l -17.46,-17.859 c -1.21,-0.93 -1.21,-1.211 -1.21,-3 l 0,-1.493 37.34,0 2.74,19.342 z"
         style="fill:#000000;fill-opacity:1;fill-rule:nonzero;stroke:none"
         id="path38"
         inkscape:connector-curvature="0" /><path
         d="m 1175.78,1017.2 c 0,10.78 -2.85,20.31 -6.95,27.54 -5.86,10.08 -13.75,15.94 -15.39,15.94 -0.71,0 -1.53,-0.28 -1.53,-1.21 0,-0.55 0,-0.71 1.53,-2.08 10.9,-11.17 13.9,-26.56 13.9,-40.19 0,-17.15 -4.53,-30.778 -14.06,-40.47 -1.37,-1.21 -1.37,-1.371 -1.37,-1.761 0,-0.969 0.82,-1.25 1.53,-1.25 1.48,0 5.15,3.281 6.68,4.769 13.63,13.364 15.66,29.452 15.66,38.712 z"
         style="fill:#000000;fill-opacity:1;fill-rule:nonzero;stroke:none"
         id="path40"
         inkscape:connector-curvature="0" /><path
         d="m 1226.45,1034.93 0,-18.39 -17.58,0 0,-4.65 17.58,0 0,-18.402 5.03,0 0,18.402 17.58,0 0,4.65 -17.58,0 0,18.39 -5.03,0 z"
         style="fill:#000000;fill-opacity:1;fill-rule:nonzero;stroke:none"
         id="path42"
         inkscape:connector-curvature="0" /><path
         d="m 1286.21,1024.15 0,0.16 c -0.55,0.51 -1.21,0.94 -1.6,1.76 -0.82,1.36 0.39,3.28 1.48,4.1 2.46,1.6 6.53,0.39 6.8,-2.74 0.27,-3 -3.4,-5.46 -5.31,-7.22 -2.97,-2.74 -6.96,-5.59 -7.78,-9.96 -0.11,-1.21 -0.11,-2.74 0.16,-3.95 0.27,-1.91 0.94,-3.55 2.03,-5.19 0.98,-1.329 2.19,-2.7 3.56,-3.68 3,-2.032 7.34,-2.692 10.62,-1.211 3.95,1.761 7.11,6.531 7.5,10.751 l 0.12,0 c 0.16,-1.61 1.09,-3.25 1.8,-4.5 1.64,-2.849 4.06,-5.579 7.34,-6.521 6.29,-1.91 13.09,2.301 14.45,8.711 0.82,3.67 0.16,8.05 -2.58,10.9 -0.97,1.09 -2.18,2.07 -3.67,2.62 -0.43,0 -1.09,0.39 -1.64,0.11 -0.43,-0.11 -1.09,-1.48 -1.37,-2.03 3.52,-0.7 6.41,-5.31 3.4,-8.2 -1.48,-1.49 -3.82,-2.03 -5.86,-2.03 -5.04,0 -10.62,3.4 -11.87,8.59 l -0.12,0 c -1.48,-4.65 -4.92,-8.05 -9.8,-8.59 -3.4,-0.39 -8.44,1.76 -8.44,5.74 0.12,2.3 2.42,4.34 3.95,5.86 3.67,3.4 9.8,7.62 8.71,13.32 5.19,-5.16 13.75,-10.35 21.13,-6.52 3.4,1.75 5.86,5.04 7.34,8.59 0.16,0.94 0.98,2.58 0.82,3.55 -0.11,0.4 -0.39,0.67 -0.66,0.94 -0.7,0.55 -1.37,1.64 -2.19,1.92 -1.09,-2.86 -3.55,-5.2 -6.29,-6.68 -6.25,-3.13 -13.9,-2.03 -19.76,1.36 -3.68,2.19 -6.8,5.98 -11.57,5.32 -0.82,0 -1.48,-0.28 -2.18,-0.55 -4.22,-1.8 -5.98,-6.41 -4.77,-10.63 0.66,-1.79 1.64,-3.43 3.01,-4.64 0.27,-0.39 0.82,-1.22 1.37,-1.22 0.66,0 1.48,1.37 1.87,1.76 z"
         style="fill:#000000;fill-opacity:1;fill-rule:nonzero;stroke:none"
         id="path44"
         inkscape:connector-curvature="0" /><path
         d="m 1334.61,1038.45 0,-9.53 12.38,0 c 0.28,0 0.71,0 1.1,-0.28 1.09,-0.66 1.09,-2.73 0.54,-3.82 -0.11,-0.51 -0.39,-1.06 -0.93,-1.21 -1.25,-0.28 -2.86,0 -4.11,0 l -8.98,0 0,-8.17 6.68,0 c -1.25,-1.25 -2.07,-3.01 -2.31,-4.76 -0.82,-2.89 -0.82,-6.14 0.51,-8.87 4.81,-8.708 19.22,-8.591 23.05,0.94 0.82,1.91 0.94,4.1 0.66,6.01 -0.23,2.46 -1.05,4.77 -2.69,6.68 l 5.7,0 0,8.17 -14.45,0 c 0.97,1.64 1.25,3.67 0.15,5.31 l 3.4,0 0,9.53 -20.7,0 z m 15.27,-21.09 c 2.42,0.27 5.04,-0.43 6.96,-2.19 2.03,-1.92 2.42,-5.31 0.39,-7.5 -0.67,-0.7 -1.21,-1.21 -2.03,-1.64 -1.1,-0.67 -2.35,-0.94 -3.56,-1.1 -4.37,-0.54 -9.69,3.13 -8.16,7.89 0.27,0.71 0.54,1.25 0.93,1.8 0.67,0.67 1.37,1.21 2.04,1.76 1.09,0.55 2.18,0.82 3.43,0.98 z"
         style="fill:#000000;fill-opacity:1;fill-rule:nonzero;stroke:none"
         id="path46"
         inkscape:connector-curvature="0" /><path
         d="m 1358.05,1050.99 0,-0.12 c 1.09,-1.09 2.34,-2.46 2.89,-3.94 1.21,-3.44 -0.98,-6.68 -4.1,-8.05 -1.22,-0.55 -2.74,-0.43 -4.11,-0.43 l -5.31,0 0,-9.53 c 3.28,0 6.96,-0.55 10.08,0.43 5.74,1.87 8.87,8.44 8.05,14.14 -0.39,2.73 -1.76,5.47 -3.67,7.5 -0.4,0.43 -1.37,1.64 -1.92,1.64 -0.66,0 -1.48,-1.21 -1.91,-1.64 z"
         style="fill:#000000;fill-opacity:1;fill-rule:nonzero;stroke:none"
         id="path48"
         inkscape:connector-curvature="0" /><path
         d="m 1349.84,985.32 0,-7.648 6.68,0 c -1.25,-1.332 -2.46,-3.242 -2.73,-5.16 -0.27,-1.524 -0.12,-3.121 0.27,-4.653 0.39,-1.359 1.1,-2.57 1.92,-3.668 5.86,-6.8 17.57,-3.55 18.67,5.469 0.12,1.211 0,2.578 -0.27,3.789 -0.55,1.52 -1.37,3.16 -2.58,4.223 l 6.64,0 0,7.648 -9.53,0 c 2.34,3.289 3.94,8.442 3.12,12.391 -0.39,2.07 -2.58,5.189 -5.04,3.549 -1.21,-0.94 -0.94,-2.85 -0.66,-4.1 0.39,-3.121 1.21,-5.98 0,-9.101 -0.39,-0.821 -0.94,-2.34 -1.76,-2.618 -0.43,-0.269 -0.98,-0.121 -1.37,-0.121 l -13.36,0 z m 13.75,-7.648 c 3.95,0.547 8.21,-3.672 5.47,-7.352 -0.43,-0.539 -0.97,-0.929 -1.52,-1.359 -0.55,-0.391 -1.37,-0.672 -2.15,-0.82 -2.07,-0.282 -4.1,0.269 -5.59,1.64 -2.34,2.188 -1.52,5.739 1.22,7.219 0.82,0.391 1.64,0.551 2.57,0.672 z"
         style="fill:#000000;fill-opacity:1;fill-rule:nonzero;stroke:none"
         id="path50"
         inkscape:connector-curvature="0" /><path
         d="m 1406.25,1038.45 0,-9.53 5.16,0 c 0.82,0 1.79,0.15 2.61,-0.12 0.94,-0.16 2.03,-0.82 2.86,-1.37 1.36,-0.7 2.3,-1.79 3.28,-2.85 0.82,-0.97 1.32,-1.91 1.75,-3.16 0.39,-0.82 0.55,-1.64 0.55,-2.58 0.39,-6.02 -5.04,-9.69 -10.08,-11.45 -8.2,-2.85 -18.67,-1.91 -25.9,3.13 -2.03,1.37 -3.82,3.28 -4.64,5.59 -1.92,5.03 0.82,11.05 5.19,13.78 0,-3.98 1.92,-10.66 6.8,-10.66 0.7,0 1.37,0.27 2.07,0.43 0.66,0.27 1.48,0.66 2.15,1.21 5.19,4.38 4.25,13.36 -1.21,17.03 -1.76,1.25 -3.68,1.53 -5.71,1.53 -1.25,0 -2.61,-0.43 -3.71,-0.98 -2.42,-1.21 -4.33,-3.4 -5.7,-5.7 -7.23,-11.61 -2.34,-27.82 9.26,-34.5 7.77,-4.328 18.51,-3.672 26.01,1.102 2.89,1.758 5.59,4.218 7.23,7.218 2.85,5.32 2.85,12.54 0.43,17.86 -0.55,1.21 -1.37,2.3 -2.35,3.28 -0.54,0.54 -1.48,0.82 -1.75,1.48 -1.21,2.03 -2.03,4.49 -3.01,6.68 -0.27,0.7 -0.55,2.03 -1.09,2.46 -0.55,0.39 -2.15,0.12 -2.86,0.12 l -7.34,0 z m -7.23,-8.16 c -1.79,-4.11 -8.16,-4.5 -10.07,-0.4 1.36,0.55 2.42,1.22 3.78,1.61 2.19,0.7 4.5,0 6.29,-1.21 z"
         style="fill:#000000;fill-opacity:1;fill-rule:nonzero;stroke:none"
         id="path52"
         inkscape:connector-curvature="0" /><path
         d="m 1416.29,1051.97 c 0.82,-0.16 1.64,-0.28 2.46,-0.71 4.34,-2.19 3.95,-8.04 0.82,-11.01 -2.89,-2.74 -7.93,-1.8 -11.45,-1.8 l 0,-9.53 c 5.43,0 10.63,-0.28 14.85,3.94 5.86,5.86 5.04,18.13 -3.4,21.29 -3.71,1.33 -9.02,0.39 -11.05,-3.16 -2.04,-3.4 0,-8.17 4.1,-8.56 3.24,-0.43 5.97,2.58 5.58,5.98 -0.15,1.37 -1.09,2.46 -1.91,3.56 z"
         style="fill:#000000;fill-opacity:1;fill-rule:nonzero;stroke:none"
         id="path54"
         inkscape:connector-curvature="0" /><path
         d="m 1477.42,1049.07 c -1.21,-0.39 -2.46,-1.48 -3.4,-2.3 -2.3,-1.91 -4.64,-3.95 -6.68,-6.25 -3.67,-3.95 -6.4,-8.59 -8.16,-13.63 -3.83,-10.9 -2.46,-23.6 3.52,-33.402 2.73,-4.609 6.4,-8.597 10.66,-11.84 l 2.85,-2.179 c 0.27,-0.16 0.67,-0.547 1.09,-0.547 0.4,0 0.94,0.656 1.1,0.937 0.12,0.43 -0.28,0.7 -0.55,0.969 -0.7,0.672 -1.37,1.371 -1.91,2.031 -2.58,2.86 -4.92,6.02 -6.68,9.422 -3.13,6.399 -5.2,13.629 -4.77,20.819 0.12,3.55 0.82,7.11 1.37,10.66 0.39,2.31 0.55,5.04 1.37,7.35 1.09,3.55 3.39,7.22 5.7,10.23 1.25,1.48 2.46,2.85 3.83,4.06 0.39,0.55 1.36,1.1 1.48,1.8 0.16,0.55 -0.54,1.37 -0.82,1.87 z"
         style="fill:#000000;fill-opacity:1;fill-rule:nonzero;stroke:none"
         id="path56"
         inkscape:connector-curvature="0" /><path
         d="m 1492.15,1024.15 0,0.16 c -0.55,0.51 -1.21,0.94 -1.64,1.76 -0.82,1.36 0.43,3.28 1.52,4.1 2.42,1.6 6.52,0.39 6.8,-2.74 0.27,-3 -3.4,-5.46 -5.31,-7.22 -3.01,-2.74 -6.96,-5.59 -7.78,-9.96 -0.12,-1.21 -0.12,-2.74 0.16,-3.95 0.27,-1.91 0.94,-3.55 2.03,-5.19 0.94,-1.329 2.19,-2.7 3.55,-3.68 2.97,-2.032 7.35,-2.692 10.63,-1.211 3.94,1.761 7.07,6.531 7.5,10.751 l 0.12,0 c 0.15,-1.61 1.09,-3.25 1.79,-4.5 1.6,-2.849 4.07,-5.579 7.35,-6.521 6.25,-1.91 13.08,2.301 14.45,8.711 0.82,3.67 0.12,8.05 -2.62,10.9 -0.93,1.09 -2.15,2.07 -3.67,2.62 -0.39,0 -1.09,0.39 -1.64,0.11 -0.39,-0.11 -1.05,-1.48 -1.33,-2.03 3.52,-0.7 6.37,-5.31 3.4,-8.2 -1.52,-1.49 -3.83,-2.03 -5.86,-2.03 -5.04,0 -10.62,3.4 -11.87,8.59 l -0.12,0 c -1.52,-4.65 -4.92,-8.05 -9.81,-8.59 -3.43,-0.39 -8.47,1.76 -8.47,5.74 0.15,2.3 2.46,4.34 3.94,5.86 3.71,3.4 9.85,7.62 8.75,13.32 5.16,-5.16 13.75,-10.35 21.1,-6.52 3.43,1.75 5.86,5.04 7.38,8.59 0.12,0.94 0.94,2.58 0.82,3.55 -0.16,0.4 -0.43,0.67 -0.7,0.94 -0.67,0.55 -1.37,1.64 -2.19,1.92 -1.05,-2.86 -3.52,-5.2 -6.25,-6.68 -6.25,-3.13 -13.91,-2.03 -19.77,1.36 -3.67,2.19 -6.79,5.98 -11.56,5.32 -0.82,0 -1.52,-0.28 -2.19,-0.55 -4.21,-1.8 -6.01,-6.41 -4.76,-10.63 0.66,-1.79 1.64,-3.43 2.97,-4.64 0.27,-0.39 0.82,-1.22 1.36,-1.22 0.71,0 1.53,1.37 1.92,1.76 z"
         style="fill:#000000;fill-opacity:1;fill-rule:nonzero;stroke:none"
         id="path58"
         inkscape:connector-curvature="0" /><path
         d="m 1540.55,1038.45 0,-9.53 12.38,0 c 0.27,0 0.7,0 1.09,-0.28 1.1,-0.66 1.1,-2.73 0.55,-3.82 -0.16,-0.51 -0.43,-1.06 -0.94,-1.21 -1.25,-0.28 -2.89,0 -4.1,0 l -8.98,0 0,-8.17 6.68,0 c -1.25,-1.25 -2.07,-3.01 -2.35,-4.76 -0.82,-2.89 -0.82,-6.14 0.55,-8.87 4.77,-8.708 19.22,-8.591 23.05,0.94 0.82,1.91 0.93,4.1 0.66,6.01 -0.27,2.46 -1.09,4.77 -2.73,6.68 l 5.74,0 0,8.17 -14.45,0 c 0.97,1.64 1.25,3.67 0.15,5.31 l 3.4,0 0,9.53 -20.7,0 z m 15.23,-21.09 c 2.46,0.27 5.04,-0.43 6.95,-2.19 2.07,-1.92 2.47,-5.31 0.43,-7.5 -0.7,-0.7 -1.25,-1.21 -2.07,-1.64 -1.09,-0.67 -2.3,-0.94 -3.51,-1.1 -4.38,-0.54 -9.69,3.13 -8.2,7.89 0.27,0.71 0.54,1.25 0.97,1.8 0.67,0.67 1.37,1.21 2.03,1.76 1.1,0.55 2.19,0.82 3.4,0.98 z"
         style="fill:#000000;fill-opacity:1;fill-rule:nonzero;stroke:none"
         id="path60"
         inkscape:connector-curvature="0" /><path
         d="m 1563.98,1050.99 0,-0.12 c 1.1,-1.09 2.31,-2.46 2.86,-3.94 1.25,-3.44 -0.94,-6.68 -4.07,-8.05 -1.25,-0.55 -2.73,-0.43 -4.1,-0.43 l -5.31,0 0,-9.53 c 3.28,0 6.95,-0.55 10.08,0.43 5.74,1.87 8.86,8.44 8.04,14.14 -0.39,2.73 -1.75,5.47 -3.67,7.5 -0.43,0.43 -1.36,1.64 -1.91,1.64 -0.67,0 -1.49,-1.21 -1.92,-1.64 z"
         style="fill:#000000;fill-opacity:1;fill-rule:nonzero;stroke:none"
         id="path62"
         inkscape:connector-curvature="0" /><path
         d="m 1555.78,985.32 0,-7.648 6.68,0 c -1.25,-1.332 -2.46,-3.242 -2.73,-5.16 -0.28,-1.524 -0.16,-3.121 0.27,-4.653 0.39,-1.359 1.09,-2.57 1.91,-3.668 5.86,-6.8 17.58,-3.55 18.68,5.469 0.11,1.211 0,2.578 -0.28,3.789 -0.54,1.52 -1.36,3.16 -2.61,4.223 l 6.68,0 0,7.648 -9.54,0 c 2.31,3.289 3.95,8.442 3.13,12.391 -0.39,2.07 -2.58,5.189 -5.04,3.549 -1.21,-0.94 -0.94,-2.85 -0.66,-4.1 0.39,-3.121 1.21,-5.98 0,-9.101 -0.43,-0.821 -0.98,-2.34 -1.8,-2.618 -0.39,-0.269 -0.94,-0.121 -1.37,-0.121 l -13.32,0 z m 13.75,-7.648 c 3.95,0.547 8.17,-3.672 5.43,-7.352 -0.39,-0.539 -0.94,-0.929 -1.48,-1.359 -0.55,-0.391 -1.37,-0.672 -2.19,-0.82 -2.03,-0.282 -4.06,0.269 -5.59,1.64 -2.3,2.188 -1.48,5.739 1.25,7.219 0.82,0.391 1.64,0.551 2.58,0.672 z"
         style="fill:#000000;fill-opacity:1;fill-rule:nonzero;stroke:none"
         id="path64"
         inkscape:connector-curvature="0" /><path
         d="m 1591.99,1016.38 c -2.03,-0.94 -3.94,-2.58 -5.15,-4.49 -3.56,-4.92 -3.56,-12.929 2.69,-15.941 3.71,-1.64 7.66,0.121 10.51,2.731 0.66,0.55 2.19,1.49 2.46,2.31 0,0.55 -1.52,2.03 -1.91,2.03 -0.43,-0.12 -0.71,-0.66 -1.1,-0.82 -0.54,-0.39 -1.37,-0.82 -2.03,-0.94 -2.89,-0.66 -5.47,2.19 -6.13,4.65 -0.98,3.79 1.21,6.68 4.22,8.71 0.82,0.55 2.57,1.1 3.12,1.92 -3.01,0.66 -6.13,2.57 -7.77,5.15 -0.94,1.53 -1.21,3.4 0,4.92 1.52,1.76 3.94,2.31 6.13,2.31 5.47,0 10.24,-3.56 12.15,-8.6 l 0.12,0 c 2.34,6.96 10.5,9.57 17.18,8.21 3.95,-0.82 7.5,-3.17 8.87,-6.96 0.51,-1.36 0.78,-2.85 0.78,-4.37 0,-6.13 -5.15,-11.45 -11.29,-11.56 -2.46,0 -5.04,0.54 -7.22,1.87 -1.1,0.98 -2.19,2.07 -2.19,3.56 0,3.55 4.1,4.65 6.95,3.94 1.1,-0.27 2.74,-0.94 3.01,-2.3 0.27,-0.82 -0.55,-1.64 -0.82,-2.31 0.55,-0.27 1.37,-0.82 1.91,-0.82 0.28,0.12 0.55,0.39 0.67,0.67 0.55,0.82 1.25,1.79 1.25,2.73 0,3.28 -2.46,6.8 -6.02,7.07 -4.49,0.16 -8.32,-3.4 -9.14,-7.73 -0.94,-6.02 1.53,-14.179 7.78,-16.371 6.83,-2.461 12.96,2.731 15.66,8.711 1.8,3.95 2.34,8.16 2.19,12.42 -0.28,6.25 -1.92,12.54 -5.98,17.58 -1.8,2.15 -4.37,4.06 -7.38,4.61 -6.13,1.09 -11.99,-2.97 -14.57,-8.32 -0.82,-1.48 -1.49,-3.24 -1.64,-4.88 -0.39,1.21 -0.55,2.3 -0.94,3.4 -0.98,2.57 -2.46,4.92 -4.38,6.67 -5.43,5.04 -13.9,4.11 -17.96,-2.18 -0.71,-1.1 -1.25,-2.46 -1.53,-3.79 -0.27,-1.53 -0.27,-3.17 0,-4.65 0.98,-4.22 4.1,-6.95 7.5,-9.14 z"
         style="fill:#000000;fill-opacity:1;fill-rule:nonzero;stroke:none"
         id="path66"
         inkscape:connector-curvature="0" /><path
         d="m 1652.54,1024.15 c -0.55,0.55 -1.21,1.1 -1.64,1.76 -0.82,1.52 0.43,3.28 1.48,4.26 2.46,1.48 6.57,0.27 6.84,-2.89 0.27,-3.4 -3.13,-6.14 -5.47,-8.05 -2.97,-2.58 -6.8,-5.16 -7.5,-9.26 -0.39,-1.48 -0.27,-3.12 0,-4.61 0.43,-1.64 0.98,-3.28 1.91,-4.64 0.71,-1.22 1.64,-2.47 2.89,-3.29 6.25,-4.489 13.75,-1.09 17.31,5.04 0.66,1.25 1.48,2.89 1.6,4.38 l 0.16,0 c 0.11,-1.49 0.93,-3.13 1.76,-4.38 3.16,-5.579 10.07,-9.529 15.93,-5.31 8.87,6.13 7.39,20.04 0.98,27.15 -1.64,1.76 -3.83,3.79 -6.13,4.49 l 0,0.12 0.54,0 0,9.53 -13.24,0 0,-9.53 5.74,0 c 1.49,0 2.85,0 4.38,-0.67 2.3,-1.36 4.61,-3.16 6.13,-5.31 1.33,-1.8 2.31,-3.71 2.7,-5.74 0.27,-1.37 0.43,-2.85 0.15,-4.22 -0.15,-1.09 -0.54,-2.3 -1.25,-3.28 -0.51,-0.82 -1.05,-1.48 -1.87,-2.19 -5.47,-4.49 -14.18,1.1 -15.82,6.96 -0.67,-0.83 -0.94,-2.04 -1.49,-2.97 -2.07,-2.89 -5.08,-4.93 -8.47,-5.47 -3.25,-0.39 -7.23,0.7 -8.17,4.1 -0.15,0.66 -0.27,1.37 -0.15,1.91 0.43,1.49 1.64,2.85 2.61,3.95 2.46,2.73 5.43,5.04 7.62,7.89 0.98,1.37 1.91,3.01 1.91,4.65 0.12,2.69 -0.54,5.31 -2.3,7.5 -3.71,4.22 -9.96,4.61 -13.79,0.39 -2.42,-2.74 -2.42,-6.53 -0.94,-9.69 0.67,-1.21 1.49,-2.42 2.46,-3.4 0.28,-0.27 0.82,-0.94 1.21,-0.94 0.71,0 1.49,1.22 1.92,1.76 z"
         style="fill:#000000;fill-opacity:1;fill-rule:nonzero;stroke:none"
         id="path68"
         inkscape:connector-curvature="0" /><path
         d="m 1683.87,1051.97 c 0.82,-0.16 1.64,-0.28 2.46,-0.71 4.37,-2.19 3.94,-8.04 0.82,-11.01 -2.85,-2.74 -7.89,-1.8 -11.45,-1.8 l 0,-9.53 c 5.43,0 10.63,-0.28 14.85,3.94 5.86,5.86 5.04,18.13 -3.4,21.29 -3.67,1.33 -8.99,0.39 -11.06,-3.16 -2.03,-3.4 0,-8.17 4.11,-8.56 3.28,-0.43 6.01,2.58 5.58,5.98 -0.12,1.37 -1.09,2.46 -1.91,3.56 z"
         style="fill:#000000;fill-opacity:1;fill-rule:nonzero;stroke:none"
         id="path70"
         inkscape:connector-curvature="0" /><path
         d="m 1673.05,978.762 c 0.27,0.277 1.09,0.976 1.09,1.367 0,0.269 -0.66,0.82 -0.82,1.09 -0.39,0.551 -0.27,1.531 0,2.191 1.37,2.852 6.68,1.211 5.59,-2.031 -1.49,-4.77 -8.01,-6.289 -8.99,-11.328 -1.37,-6.25 5.2,-12.11 11.06,-9.41 1.91,0.82 3.51,2.461 4.49,4.371 0.39,0.816 0.66,2.187 1.21,2.847 0.16,-1.089 0.7,-2.3 1.25,-3.121 2.42,-3.949 8.01,-6.949 11.56,-2.578 4.65,5.699 4.92,15.391 2.31,22.07 -0.67,2.309 -2.03,4.77 -4.22,5.981 -0.94,0.539 -2.15,0.82 -3.13,0.43 -1.75,-0.821 -1.09,-3.672 -0.11,-4.77 1.09,-1.25 2.69,-1.91 3.94,-3.012 1.92,-1.75 3.01,-4.371 3.13,-6.789 0.15,-4.531 -2.58,-8.601 -7.23,-8.601 -0.82,0 -1.64,0.121 -2.46,0.39 -2.58,0.981 -3.79,3.129 -5.04,5.469 -0.39,-0.699 -0.66,-1.359 -1.21,-2.066 -0.98,-1.481 -2.58,-2.852 -4.49,-3.512 -2.74,-0.82 -7.23,-0.16 -7.11,3.672 0.15,1.637 1.79,3.277 2.89,4.367 2.03,1.883 5.15,4.07 5.58,7.191 0.28,1.09 0,2.461 -0.43,3.559 -0.39,0.82 -0.93,1.789 -1.64,2.461 -3.51,3.281 -9.92,1.75 -10.62,-3.281 -0.27,-2.969 1.37,-5.039 3.4,-6.957 z"
         style="fill:#000000;fill-opacity:1;fill-rule:nonzero;stroke:none"
         id="path72"
         inkscape:connector-curvature="0" /><path
         d="m 1703.24,1048.02 0,-0.16 c 3.99,-3.82 7.66,-8.04 9.96,-13.08 1.49,-3.01 2.03,-6.25 2.74,-9.53 0.94,-4.65 1.64,-9.42 1.48,-14.18 -0.12,-4.61 -1.37,-9.26 -2.3,-13.75 -1.1,-4.648 -4.5,-8.992 -7.62,-12.429 l -2.89,-2.852 c -0.27,-0.269 -0.94,-0.66 -1.09,-1.211 0,-0.43 0.7,-1.359 0.97,-1.906 2.46,1.207 4.89,3.398 6.96,5.039 3.67,3.117 7.07,6.519 9.53,10.898 3.12,5.971 4.1,12.931 3.55,19.611 -0.27,5.58 -1.37,11.05 -3.71,16.36 -2.58,5.74 -6.52,10.78 -11.29,14.73 -1.09,1.09 -2.3,2.03 -3.67,2.85 -0.27,0.16 -0.98,0.82 -1.37,0.66 -0.43,0 -0.82,-0.66 -1.25,-1.05 z"
         style="fill:#000000;fill-opacity:1;fill-rule:nonzero;stroke:none"
         id="path74"
         inkscape:connector-curvature="0" /><path
         d="m 6.60156,573.531 c -0.55078,0.539 -1.21093,1.09 -1.64062,1.758 -0.78125,1.481 0.42969,3.281 1.51953,4.211 2.46875,1.531 6.53123,0.281 6.80083,-2.852 0.2695,-3.398 -3.1211,-6.128 -5.42974,-8.039 -3.01172,-2.578 -6.83203,-5.16 -7.499997,-9.257 -0.429688,-1.493 -0.273438,-3.133 0,-4.653 0.386718,-1.64 0.937497,-3.238 1.917967,-4.609 0.66016,-1.25 1.64063,-2.461 2.85156,-3.281 6.25001,-4.489 13.75001,-1.09 17.30081,5.043 0.6679,1.207 1.4883,2.847 1.6367,4.367 l 0.1211,0 c 0.1601,-1.52 0.9805,-3.16 1.8008,-4.367 3.1211,-5.59 10.0703,-9.532 15.9297,-5.313 8.8711,6.133 7.3515,20.031 0.9414,27.102 -1.6407,1.8 -3.793,3.828 -6.1328,4.5 l 0,0.148 0.5507,0 0,9.531 -13.2109,0 0,-9.531 5.7109,0 c 1.5196,0 2.8907,0 4.3711,-0.699 2.3086,-1.371 4.6485,-3.121 6.1289,-5.309 1.3711,-1.761 2.3086,-3.672 2.7422,-5.711 0.2696,-1.359 0.3867,-2.851 0.1094,-4.211 -0.1094,-1.097 -0.543,-2.347 -1.2109,-3.289 -0.5391,-0.82 -1.0899,-1.48 -1.9102,-2.179 -5.4687,-4.5 -14.1797,1.089 -15.8203,6.949 -0.6602,-0.82 -0.9414,-2.031 -1.4805,-3.012 -2.039,-2.848 -5.039,-4.879 -8.4375,-5.43 -3.2812,-0.429 -7.23045,0.672 -8.21092,4.071 -0.10937,0.703 -0.26953,1.359 -0.10937,1.91 0.38672,1.519 1.63672,2.851 2.57812,3.941 2.46097,2.739 5.46097,5.039 7.65237,7.93 0.9375,1.371 1.8789,2.969 1.8789,4.609 0.1484,2.743 -0.5508,5.321 -2.3125,7.5 -3.668,4.219 -9.95705,4.653 -13.75002,0.43 -2.45703,-2.73 -2.45703,-6.559 -0.96875,-9.68 0.69922,-1.218 1.51953,-2.468 2.46094,-3.398 0.26953,-0.281 0.82031,-0.981 1.21094,-0.981 0.69922,0 1.51953,1.25 1.91015,1.801 z"
         style="fill:#000000;fill-opacity:1;fill-rule:nonzero;stroke:none"
         id="path76"
         inkscape:connector-curvature="0" /><path
         d="m 37.9688,601.301 c 0.8203,-0.121 1.6406,-0.27 2.4218,-0.66 4.3789,-2.192 3.9883,-8.051 0.8203,-11.063 -2.8515,-2.687 -7.8906,-1.758 -11.4414,-1.758 l 0,-9.531 c 5.461,0 10.6211,-0.269 14.8789,3.949 5.8633,5.864 5.043,18.121 -3.4375,21.25 -3.6718,1.371 -8.9804,0.434 -11.0117,-3.129 -2.0781,-3.39 0,-8.16 4.0625,-8.589 3.2774,-0.391 6.0078,2.582 5.5781,6.019 -0.1093,1.359 -1.0507,2.422 -1.871,3.512 z"
         style="fill:#000000;fill-opacity:1;fill-rule:nonzero;stroke:none"
         id="path78"
         inkscape:connector-curvature="0" /><path
         d="m 44.5703,561.93 c 0,-1.211 -0.1211,-2.578 0.1602,-3.828 0.3906,-1.602 1.3593,-3.133 2.0312,-4.614 3.2774,-5.199 8.9766,-9.957 15.5391,-8.437 1.3711,0.269 2.4687,0.82 3.5586,1.488 0.7812,0.539 1.6015,1.359 2.3008,2.18 4.7695,5.59 0.5507,12.66 1.4882,19.222 0.4297,3.399 3.4024,6.528 6.293,8.168 6.3984,3.942 15.1094,2.18 20.3086,-2.859 2.3008,-2.461 4.219,-5.738 3.949,-9.141 -0.16,-1.211 -0.2771,-2.461 -0.8201,-3.55 -1.918,-4.219 -6.957,-5.59 -11.3281,-5.161 -1.7617,0.122 -3.5625,0.391 -5.1602,1.493 -1.9101,1.211 -3.1601,3.668 -2.8906,6.007 0.4297,2.582 3.2813,4.223 5.7383,3.672 -0.5391,-0.82 -1.6367,-2.07 -1.7578,-3 -0.6992,-2.308 2.3086,-4.5 4.3398,-4.769 4.7695,-0.27 7.5,5.039 5.3086,8.988 -0.5391,1.09 -1.4805,2.07 -2.5781,2.731 -4.4922,2.582 -10.6211,-0.942 -12.8125,-5.04 -0.9375,-2.031 -1.0899,-4.101 -0.9375,-6.128 0.2773,-5.313 1.8789,-11.602 7.1875,-13.911 1.25,-0.39 2.6211,-0.66 3.9922,-0.66 1.75,0 3.5078,0.27 5.1484,0.821 4.4922,1.867 7.2301,6.789 8.4801,11.289 2.852,11.05 -0.82,23.711 -11.5973,29.019 -2.0312,1.09 -4.6523,1.801 -6.9609,1.91 -2.461,0 -4.9219,-0.109 -7.2227,-0.929 -5.5898,-1.922 -10.1992,-6.961 -10.6289,-12.821 -0.1094,-2.73 0.5508,-5.582 0.8203,-8.468 0.1211,-1.372 0.2813,-2.852 0,-4.223 -0.2695,-0.938 -0.8203,-1.91 -1.2109,-2.578 -3.5469,-4.371 -9.4102,-4.102 -13.8984,-1.91 -1.6407,0.82 -3.1289,1.91 -4.5,3 -0.8204,0.668 -1.5196,1.488 -2.3399,2.039 z"
         style="fill:#000000;fill-opacity:1;fill-rule:nonzero;stroke:none"
         id="path80"
         inkscape:connector-curvature="0" /><path
         d="m 111.68,587.82 0,-9.531 22.89,0 0,-0.148 c -3.519,0 -6.8,-3.672 -5.16,-7.071 1.102,-2.308 3.828,-3.398 6.141,-3.398 2.461,0 5.039,0.937 6.25,3.117 1.91,3.402 -1.371,7.231 -4.891,7.352 l 0,0.148 12.82,0 0,9.531 -38.05,0 z m 23.98,-23.98 -0.109,0 c -1.371,-6.129 -8.051,-8.871 -13.75,-8.442 -2.461,0.122 -6.571,1.211 -7.11,4.071 -0.39,1.64 0.539,3.16 1.758,4.101 2.61,1.91 6.832,1.75 8.039,-1.64 0.282,-0.668 0.282,-1.211 0.16,-1.918 l 2.301,-0.942 c 2.313,5.16 -2.027,11.02 -7.5,10.508 -4.488,-0.43 -7.34,-4.527 -7.769,-8.75 -0.66,-7.609 5.468,-18.668 14.34,-15.656 1.21,0.43 2.14,0.937 3.121,1.637 1.48,1.211 2.847,2.582 3.828,4.101 1.051,1.481 2.152,3.399 2.582,5.309 1.09,-2.457 2.179,-4.649 3.937,-6.828 1.641,-1.922 3.832,-3.52 6.293,-4.34 4.77,-1.371 9.918,1.328 12.11,5.59 2.578,4.879 1.757,10.621 1.488,15.929 -0.277,2.469 -0.551,5.16 -1.488,7.621 -0.391,0.7 -0.942,1.368 -1.762,1.918 -2.07,0.93 -3.981,-0.82 -4.25,-2.859 -0.238,-5.191 7.769,-9.531 3.711,-14.719 -4.11,-4.769 -11.879,-3.832 -16.371,-0.16 -1.489,1.367 -3.129,3.438 -3.559,5.469 z"
         style="fill:#000000;fill-opacity:1;fill-rule:nonzero;stroke:none"
         id="path82"
         inkscape:connector-curvature="0" /><path
         d="m 152.809,600.359 0,-0.148 c 1.101,-1.063 2.312,-2.422 2.851,-3.949 1.25,-3.403 -0.93,-6.684 -4.058,-8.043 -1.25,-0.508 -2.731,-0.399 -4.102,-0.399 l -5.309,0 0,-9.531 c 3.278,0 6.95,-0.539 10.079,0.391 5.699,1.922 8.859,8.48 8.039,14.179 -0.43,2.743 -1.789,5.469 -3.668,7.5 -0.43,0.391 -1.371,1.641 -1.911,1.641 -0.71,0 -1.531,-1.25 -1.921,-1.641 z"
         style="fill:#000000;fill-opacity:1;fill-rule:nonzero;stroke:none"
         id="path84"
         inkscape:connector-curvature="0" /><path
         d="m 150.859,531.262 c -0.82,-1.211 -1.25,-2.461 -2.461,-3.672 -2.308,-2.031 -6.128,-2.731 -8.988,-1.762 -1.25,0.281 -2.461,0.942 -3.121,2.031 -1.09,2.582 2.422,4.77 4.609,4.11 0.981,-0.278 1.762,-0.981 2.032,-1.918 0.269,-0.43 0.16,-0.981 0.429,-1.25 0.27,-0.391 1.09,-0.66 1.481,-0.66 1.25,3.828 -1.641,8.16 -5.969,7.07 -0.711,0 -1.371,-0.391 -1.922,-0.672 -0.82,-0.539 -1.359,-1.359 -1.91,-2.18 -0.551,-0.82 -0.82,-1.918 -0.937,-2.859 -0.274,-3.941 1.367,-8.711 5.039,-10.781 4.879,-2.578 10.468,2.461 11.558,7.23 l 0.281,0 c 1.52,-5.859 8.04,-10.199 13.629,-6.41 0.981,0.711 1.801,1.531 2.461,2.461 1.758,2.738 1.641,5.859 1.371,8.988 0,1.801 -0.16,3.551 -0.429,5.313 -0.282,2.07 -0.551,3.949 -1.211,5.859 -0.391,0.82 -0.672,1.641 -1.492,2.07 -1.911,1.09 -3.161,-0.82 -3.161,-2.46 0.274,-2.848 1.801,-5.739 2.731,-8.321 0.43,-1.371 0.98,-2.73 0.711,-4.097 -0.281,-1.211 -1.102,-2.153 -2.07,-2.704 -3.008,-2.179 -7.5,-1.25 -10.079,0.942 -1.371,1.09 -1.761,2.301 -2.582,3.672 z"
         style="fill:#000000;fill-opacity:1;fill-rule:nonzero;stroke:none"
         id="path86"
         inkscape:connector-curvature="0" /><path
         d="m 517.539,581.93 0,-9.539 17.152,0 c 0.7,0 1.481,0 2.028,-0.153 0.82,-0.117 1.801,-0.937 2.461,-1.488 2.73,-2.18 4.101,-5.309 4.101,-8.859 -0.82,1.64 -2.851,3 -4.371,3.828 -8.988,5.422 -20.711,-1.367 -21.371,-11.61 -0.43,-5.429 2.582,-10.89 7.34,-13.468 6.25,-3.282 16.211,-2.071 19.5,4.879 0.93,-1.758 2.301,-3.129 3.941,-4.34 1.481,-0.969 3.282,-1.641 5.039,-1.91 3.282,-0.7 6.68,-0.551 9.692,0.941 6.519,3.16 9.527,10.777 7.5,17.461 -2.742,8.437 -12.539,12.258 -20.199,8.316 -1.762,-0.816 -4.223,-2.457 -5.043,-4.218 0,3.121 -1.09,5.98 -3.118,8.441 -0.55,0.66 -1.211,1.641 -2.191,2.027 l 0,0.153 20.16,0 0,9.539 -42.621,0 z m 13.051,-17.309 c 5.461,0.668 12.531,-3.402 10.5,-9.691 -0.27,-0.821 -0.66,-1.481 -1.36,-2.301 -0.671,-0.699 -1.492,-1.367 -2.46,-1.91 -1.098,-0.668 -2.43,-1.098 -3.79,-1.219 -2.89,-0.43 -5.75,0.281 -8.21,2.039 -3.122,2.301 -4.059,6.68 -1.36,9.801 0.82,0.941 1.789,1.64 2.731,2.191 1.25,0.66 2.621,0.938 3.949,1.09 z m 24.961,0 c 3.121,0.391 6.25,-0.551 8.59,-2.582 2.418,-2.461 2.968,-6.398 0.82,-9.141 -0.82,-0.82 -1.801,-1.636 -2.731,-2.179 -1.101,-0.668 -2.46,-1.098 -3.832,-1.219 -3.007,-0.43 -6.25,0.281 -8.597,2.309 -0.93,0.82 -1.641,1.64 -2.141,2.73 -1.531,3.52 0.66,7.231 3.942,8.992 1.207,0.66 2.578,0.938 3.949,1.09 z"
         style="fill:#000000;fill-opacity:1;fill-rule:nonzero;stroke:none"
         id="path88"
         inkscape:connector-curvature="0" /><path
         d="m 561.02,595.398 c 0.82,-0.109 1.64,-0.269 2.46,-0.66 4.372,-2.187 3.942,-8.047 0.821,-11.058 -2.852,-2.731 -7.891,-1.75 -11.449,-1.75 l 0,-9.539 c 5.429,0 10.628,-0.27 14.847,3.949 5.852,5.859 5.031,18.129 -3.398,21.25 -3.68,1.371 -8.992,0.43 -11.063,-3.121 -2.027,-3.399 0,-8.207 4.102,-8.598 3.281,-0.391 5.98,2.578 5.59,6.02 -0.121,1.328 -1.09,2.418 -1.91,3.507 z"
         style="fill:#000000;fill-opacity:1;fill-rule:nonzero;stroke:none"
         id="path90"
         inkscape:connector-curvature="0" /><path
         d="m 578.121,581.93 0,-9.539 13.359,0 0,-0.153 c -0.82,-0.269 -1.48,-0.816 -2.14,-1.367 -1.918,-1.211 -3.442,-2.973 -4.809,-4.762 -3.672,-5.039 -5.582,-11.179 -6.25,-17.308 -0.269,-3.281 -0.16,-6.68 -0.16,-9.961 l 9.578,0 0,11.051 c 0,5.199 0.11,10.238 2.031,15.121 1.481,3.398 3.942,7.66 8.161,7.379 3.558,-0.27 5.859,-4.641 6.949,-7.5 1.922,-4.762 2.07,-9.532 2.07,-14.602 l 0,-11.449 9.539,0 c 0,3.012 0.11,5.859 -0.16,8.871 -0.551,6.129 -2.309,12.418 -5.699,17.578 -1.801,2.609 -4.379,5.852 -7.391,6.949 l 0,0.153 2.192,0 0,9.539 -27.27,0 z"
         style="fill:#000000;fill-opacity:1;fill-rule:nonzero;stroke:none"
         id="path92"
         inkscape:connector-curvature="0" /><path
         d="m 609.609,594.469 0,-0.16 c 1.09,-1.09 2.301,-2.418 2.852,-3.95 1.25,-3.39 -0.941,-6.679 -4.102,-8.039 -1.211,-0.55 -2.699,-0.39 -4.058,-0.39 l -5.321,0 0,-9.539 c 3.29,0 6.961,-0.539 10.079,0.398 5.711,1.91 8.871,8.43 8.05,14.18 -0.429,2.73 -1.8,5.422 -3.668,7.5 -0.429,0.39 -1.371,1.64 -1.921,1.64 -0.7,0 -1.52,-1.25 -1.911,-1.64 z"
         style="fill:#000000;fill-opacity:1;fill-rule:nonzero;stroke:none"
         id="path94"
         inkscape:connector-curvature="0" /><path
         d="m 601.91,507.789 6.84,0 c 0,6.012 -0.551,12.422 1.371,18 0.66,2.43 2.301,5.43 5.309,5.43 2.968,0 4.492,-2.848 5.308,-5.43 1.922,-5.578 1.371,-12.148 1.371,-18 l 6.68,0 c 0,6.949 -0.43,13.902 -3.988,20.031 -2.141,3.68 -5.582,6.532 -10.071,6.41 -4.07,-0.269 -6.8,-3.402 -8.71,-6.679 -1.918,-3.672 -3.399,-7.891 -3.829,-12.153 -0.281,-2.418 -0.281,-5.039 -0.281,-7.609 z"
         style="fill:#000000;fill-opacity:1;fill-rule:nonzero;stroke:none"
         id="path96"
         inkscape:connector-curvature="0" /><path
         d="m 628.871,581.93 0,-9.539 10.348,0 0,-0.153 c -2.739,-0.547 -5.309,-3.277 -6.84,-5.308 -4.059,-5.321 -4.328,-12.539 -2.301,-18.68 0.942,-2.73 2.461,-5.578 4.762,-7.34 7.109,-5.59 16.922,1.641 17.859,9.379 l 0.153,0 c 0.117,-1.488 1.097,-3.129 1.757,-4.34 3.121,-5.469 11.172,-9.808 16.911,-5.308 4.339,3.281 5.589,9.648 5.32,14.839 -0.16,1.489 -0.281,3.008 -0.711,4.379 -0.27,0.93 -0.539,1.911 -1.207,2.692 -0.274,0.429 -0.82,0.82 -0.973,1.25 -0.398,0.82 -0.277,1.918 -0.551,2.847 -0.937,2.582 -3.668,5.743 -6.519,5.743 l 0,9.539 -38.008,0 z m 42.109,-15.282 c -3.011,0.43 -5.468,2.192 -8.601,1.922 -4.367,-0.55 -8.707,-5.468 -5.738,-9.691 2.07,-3.399 6.41,-4.34 10.078,-3.52 1.801,0.391 3.441,1.211 4.652,2.582 0.539,0.547 0.93,1.368 1.481,1.918 0.546,-0.711 0.976,-1.64 0.976,-2.621 0.274,-3.398 -3.008,-5.976 -6.019,-7.187 -5.039,-1.641 -10.079,0 -13.2,4.34 -0.66,0.968 -1.64,2.3 -1.757,3.55 -0.551,-0.972 -0.973,-2.031 -1.524,-3.121 -1.488,-2.191 -3.519,-3.992 -5.859,-4.769 -1.09,-0.551 -2.309,-0.699 -3.52,-0.699 -5.738,0.269 -9.019,6.949 -8.199,11.988 0.551,3.551 3.281,6.019 6.129,7.769 6.141,3.68 14.07,3.832 20.98,2.743 3.442,-0.551 8.321,-1.641 10.121,-5.204 z m 0,-3.937 c -1.25,-0.82 -2.351,-1.641 -3.71,-2.191 -1.489,-0.551 -3.129,-0.942 -4.61,-0.391 -1.922,0.66 -3.012,2.851 -1.801,4.492 0.7,0.938 1.641,1.098 2.621,1.098 1.911,0 3.942,-0.547 5.579,-1.528 0.671,-0.39 1.492,-0.82 1.921,-1.48 z"
         style="fill:#000000;fill-opacity:1;fill-rule:nonzero;stroke:none"
         id="path98"
         inkscape:connector-curvature="0" /><path
         d="m 666.68,595.398 c 0.82,-0.109 1.64,-0.269 2.461,-0.66 4.379,-2.187 3.949,-8.047 0.82,-11.058 -2.852,-2.731 -7.891,-1.75 -11.441,-1.75 l 0,-9.539 c 5.46,0 10.621,-0.27 14.839,3.949 5.86,5.859 5.039,18.129 -3.398,21.25 -3.672,1.371 -8.981,0.43 -11.012,-3.121 -2.07,-3.399 0,-8.207 4.063,-8.598 3.277,-0.391 6.008,2.578 5.578,6.02 -0.11,1.328 -1.09,2.418 -1.91,3.507 z"
         style="fill:#000000;fill-opacity:1;fill-rule:nonzero;stroke:none"
         id="path100"
         inkscape:connector-curvature="0" /><path
         d="m 683.828,581.93 0,-9.539 13.203,0 0,-0.153 c -0.82,-0.117 -1.64,-0.547 -2.461,-1.097 -2.148,-0.93 -4.218,-2.461 -5.859,-4.332 -1.641,-1.797 -3.121,-3.707 -3.789,-6.02 -2.461,-6.68 -0.703,-16.359 5.43,-20.43 7.109,-4.757 16.367,2.461 17.308,9.93 l 0.149,0 c 0.121,-1.488 0.941,-3.129 1.761,-4.34 3.008,-5.308 9.961,-9.527 15.66,-5.59 5.86,4.071 7.93,13.641 5.59,20.161 -1.48,3.832 -4.218,7.109 -7.621,9.261 -1.359,0.969 -3,2.071 -4.648,2.457 l 0,0.153 2.07,0 0,9.539 -36.793,0 z m 23.981,-24.961 c -1.25,-2.309 -2.188,-4.34 -4.489,-5.707 -1.09,-0.821 -2.34,-1.371 -3.55,-1.641 -1.098,-0.121 -2.309,-0.269 -3.29,-0.121 -5.699,0.789 -8.039,7.738 -6.519,12.66 0.551,1.481 1.488,3.012 2.578,4.219 5.859,6.68 17.301,7.5 25.082,3.941 5.969,-2.691 10.078,-8.98 7.609,-15.5 -0.929,-2.191 -2.57,-4.379 -4.878,-5.039 -3.711,-1.25 -8.204,0.778 -10.622,3.668 -0.82,0.942 -1.8,2.301 -1.921,3.52 z"
         style="fill:#000000;fill-opacity:1;fill-rule:nonzero;stroke:none"
         id="path102"
         inkscape:connector-curvature="0" /><path
         d="m 721.559,595.398 c 0.82,-0.109 1.64,-0.269 2.461,-0.66 4.378,-2.187 3.949,-8.047 0.82,-11.058 -2.852,-2.731 -7.891,-1.75 -11.442,-1.75 l 0,-9.539 c 5.473,0 10.622,-0.27 14.84,3.949 5.864,5.859 5.043,18.129 -3.398,21.25 -3.668,1.371 -8.981,0.43 -11.051,-3.121 -2.027,-3.399 0,-8.207 4.102,-8.598 3.281,-0.391 6.019,2.578 5.589,6.02 -0.121,1.328 -1.101,2.418 -1.921,3.507 z"
         style="fill:#000000;fill-opacity:1;fill-rule:nonzero;stroke:none"
         id="path104"
         inkscape:connector-curvature="0" /><path
         d="m 763.52,538.84 0,0.16 c -2.071,0.539 -4.11,1.641 -6.02,2.57 -8.711,4.649 -17.031,13.09 -15.82,23.602 0.269,1.637 0.699,3.398 1.519,4.879 0.821,1.64 1.922,2.89 3.129,4.219 0,-5.309 3.281,-13.321 9.801,-11.168 0.98,0.429 1.641,0.82 2.312,1.367 5.618,5.031 3.707,15.82 -3.671,18 -1.372,0.39 -2.86,0.39 -4.219,0.281 -1.371,-0.16 -2.582,-0.551 -3.832,-1.25 -9.258,-5.43 -8.989,-18.52 -6.918,-27.66 0.508,-2.031 1.219,-4.059 2.039,-5.981 0.93,-2.339 2.18,-4.488 3.672,-6.679 0.539,-0.7 0.937,-1.789 1.758,-2.18 0.269,-0.281 0.82,-0.16 1.25,-0.16 l 15,0 z m -14.34,36.41 c 2.621,1.359 5.308,1.211 7.66,-0.43 0.539,-0.281 1.871,-1.058 1.871,-1.601 0,-0.43 -0.66,-0.981 -0.941,-1.25 -0.93,-1.098 -2.848,-1.918 -4.372,-1.367 -1.757,0.539 -3.398,3.007 -4.218,4.648 z"
         style="fill:#000000;fill-opacity:1;fill-rule:nonzero;stroke:none"
         id="path106"
         inkscape:connector-curvature="0" /><path
         d="m 770.512,581.93 0,-9.539 21.828,0 c 4.5,0 8.988,0.398 13.211,-1.641 5.738,-2.852 11.168,-9.68 8.32,-16.359 -0.43,-0.821 -0.82,-1.641 -1.371,-2.313 -5.309,-6.008 -16.211,-0.816 -18.012,5.863 l -0.109,0 c -1.918,-5.863 -7.899,-8.871 -13.758,-8.441 -2.609,0.121 -6.832,1.328 -7.223,4.34 -0.277,2.191 1.762,4.101 3.512,4.769 3.289,1.25 6.961,-0.82 6.961,-4.5 0.539,0 1.52,-0.109 1.91,0.161 0.27,0.121 0.43,0.82 0.547,1.089 0.434,1.332 0.703,2.43 0.152,3.789 -0.699,2.192 -2.73,3.672 -4.921,4.383 -4.918,1.36 -9.797,-2.191 -10.778,-6.961 -1.601,-7.5 3.559,-18.672 12.418,-17.57 0.942,0 1.922,0.27 2.852,0.66 1.918,0.82 3.558,2.192 4.929,3.711 1.481,1.879 3.122,4.488 3.399,6.918 l 0.109,0 c 0.16,-1.488 0.981,-3.129 1.801,-4.34 3.242,-5.859 10.742,-9.687 16.762,-5.199 3,2.352 4.609,6.141 5.148,9.691 0.981,6.129 -0.66,12.11 -4.758,16.758 -1.761,2.031 -4.613,4.492 -7.23,5.039 l 0,0.153 2.34,0 0,9.539 -38.039,0 z"
         style="fill:#000000;fill-opacity:1;fill-rule:nonzero;stroke:none"
         id="path108"
         inkscape:connector-curvature="0" /><path
         d="m 811.641,594.469 0,-0.16 c 1.089,-1.09 2.308,-2.418 2.847,-3.95 1.25,-3.39 -0.937,-6.679 -4.058,-8.039 -1.25,-0.55 -2.731,-0.39 -4.102,-0.39 l -5.308,0 0,-9.539 c 3.281,0 6.949,-0.539 10.07,0.398 5.75,1.91 8.871,8.43 8.051,14.18 -0.43,2.73 -1.801,5.422 -3.672,7.5 -0.43,0.39 -1.367,1.64 -1.918,1.64 -0.699,0 -1.52,-1.25 -1.91,-1.64 z"
         style="fill:#000000;fill-opacity:1;fill-rule:nonzero;stroke:none"
         id="path110"
         inkscape:connector-curvature="0" /><path
         d="m 1740.98,562.711 c -0.55,0.539 -1.21,1.09 -1.64,1.758 -0.82,1.519 0.43,3.281 1.52,4.211 2.42,1.531 6.52,0.281 6.8,-2.852 0.27,-3.398 -3.13,-6.129 -5.43,-8.039 -3.01,-2.578 -6.84,-5.16 -7.5,-9.258 -0.43,-1.492 -0.28,-3.133 0,-4.609 0.39,-1.641 0.93,-3.281 1.91,-4.652 0.66,-1.211 1.6,-2.461 2.85,-3.282 6.25,-4.488 13.75,-1.097 17.31,5.043 0.66,1.25 1.48,2.891 1.64,4.367 l 0.11,0 c 0.16,-1.476 0.98,-3.117 1.8,-4.367 3.13,-5.59 10.08,-9.531 15.94,-5.312 8.83,6.133 7.34,20.031 0.94,27.101 -1.64,1.801 -3.83,3.828 -6.14,4.539 l 0,0.11 0.55,0 0,9.531 -13.2,0 0,-9.531 5.7,0 c 1.52,0 2.89,0 4.38,-0.66 2.3,-1.368 4.64,-3.168 6.13,-5.309 1.37,-1.801 2.3,-3.711 2.73,-5.75 0.28,-1.359 0.39,-2.852 0.12,-4.211 -0.12,-1.098 -0.55,-2.309 -1.21,-3.289 -0.55,-0.82 -1.09,-1.48 -1.91,-2.18 -5.47,-4.5 -14.18,1.09 -15.83,6.95 -0.66,-0.821 -0.93,-2.032 -1.48,-2.969 -2.03,-2.891 -5.04,-4.922 -8.44,-5.473 -3.28,-0.43 -7.22,0.672 -8.2,4.102 -0.12,0.672 -0.27,1.371 -0.12,1.879 0.39,1.519 1.64,2.89 2.58,3.98 2.46,2.699 5.47,5.039 7.62,7.891 0.97,1.371 1.91,3.011 1.91,4.648 0.16,2.703 -0.54,5.313 -2.3,7.461 -3.67,4.262 -9.96,4.652 -13.75,0.43 -2.46,-2.731 -2.46,-6.559 -0.98,-9.68 0.7,-1.219 1.52,-2.469 2.46,-3.398 0.27,-0.282 0.82,-0.942 1.21,-0.942 0.71,0 1.53,1.211 1.92,1.762 z"
         style="fill:#000000;fill-opacity:1;fill-rule:nonzero;stroke:none"
         id="path112"
         inkscape:connector-curvature="0" /><path
         d="m 1762.38,577 0,-9.531 22.23,0 c 3.79,0 7.73,0.281 11.56,-0.11 4.92,-0.429 10.35,-1.371 13.63,-5.468 3.4,-4.5 2.47,-12 -2.03,-15.282 -3.82,-2.847 -9.68,-2.847 -13.51,-0.539 -3.28,2.071 -4.22,5.578 -2.19,8.86 0.98,1.492 2.62,3.129 4.65,2.742 -0.55,-0.551 -0.82,-1.25 -0.94,-2.031 -0.55,-2.891 2.15,-4.813 4.61,-4.653 3.13,0.274 4.92,3.121 4.22,6.133 -0.27,0.82 -0.66,1.641 -1.49,2.309 -0.66,0.82 -1.75,1.359 -2.85,1.789 -5.58,1.601 -10.23,-2.891 -11.72,-7.93 -0.54,-1.75 -0.54,-3.668 -0.27,-5.578 0.55,-5.59 3.4,-12.109 9.38,-13.481 6.4,-1.519 11.44,2.848 14.33,8.161 4.49,8.328 3.67,20.711 -2.61,27.929 -3.68,4.11 -8.56,6.141 -13.87,6.68 -2.62,0.281 -5.47,0 -8.05,0 l -25.08,0 z"
         style="fill:#000000;fill-opacity:1;fill-rule:nonzero;stroke:none"
         id="path114"
         inkscape:connector-curvature="0" /><path
         d="m 1821.64,577 0,-9.531 17.15,0 c 0.7,0 1.52,0 2.07,-0.11 0.82,-0.16 1.76,-0.98 2.42,-1.531 2.74,-2.187 4.1,-5.308 4.1,-8.859 -0.82,1.64 -2.85,3 -4.37,3.82 -8.99,5.473 -20.71,-1.359 -21.37,-11.559 -0.43,-5.468 2.58,-10.941 7.34,-13.511 6.29,-3.289 16.22,-2.039 19.5,4.922 0.93,-1.801 2.3,-3.129 3.94,-4.379 1.53,-0.942 3.28,-1.641 5.04,-1.91 3.28,-0.672 6.68,-0.551 9.69,0.968 6.52,3.129 9.53,10.75 7.5,17.43 -2.74,8.469 -12.54,12.262 -20.2,8.32 -1.75,-0.82 -4.22,-2.461 -5.04,-4.218 0,3.117 -1.09,5.968 -3.12,8.437 -0.55,0.699 -1.21,1.641 -2.19,2.07 l 0,0.11 20.2,0 0,9.531 -42.66,0 z m 13.09,-17.301 c 5.43,0.699 12.54,-3.398 10.47,-9.648 -0.28,-0.821 -0.67,-1.52 -1.37,-2.34 -0.67,-0.672 -1.49,-1.371 -2.42,-1.922 -1.1,-0.66 -2.46,-1.09 -3.83,-1.211 -2.85,-0.43 -5.74,0.281 -8.17,2.031 -3.16,2.352 -4.1,6.68 -1.36,9.813 0.82,0.969 1.75,1.637 2.69,2.187 1.25,0.7 2.62,0.969 3.99,1.09 z m 24.92,0 c 3.12,0.43 6.29,-0.551 8.59,-2.578 2.46,-2.461 3.01,-6.402 0.82,-9.141 -0.82,-0.82 -1.79,-1.64 -2.73,-2.191 -1.1,-0.66 -2.46,-1.09 -3.83,-1.211 -2.97,-0.43 -6.25,0.281 -8.55,2.313 -0.98,0.82 -1.65,1.64 -2.19,2.73 -1.53,3.559 0.66,7.231 3.94,8.988 1.21,0.7 2.58,0.969 3.95,1.09 z"
         style="fill:#000000;fill-opacity:1;fill-rule:nonzero;stroke:none"
         id="path116"
         inkscape:connector-curvature="0" /><path
         d="m 1868.4,589.539 0,-0.109 c 1.09,-1.102 2.3,-2.461 2.85,-3.95 1.25,-3.441 -0.94,-6.679 -4.06,-8.05 -1.25,-0.539 -2.74,-0.43 -4.1,-0.43 l -5.32,0 0,-9.531 c 3.28,0 6.96,-0.539 10.08,0.429 5.74,1.883 8.87,8.442 8.05,14.141 -0.39,2.742 -1.76,5.473 -3.67,7.5 -0.43,0.43 -1.37,1.641 -1.92,1.641 -0.7,0 -1.48,-1.211 -1.91,-1.641 z"
         style="fill:#000000;fill-opacity:1;fill-rule:nonzero;stroke:none"
         id="path118"
         inkscape:connector-curvature="0" /><path
         d="m 1872.3,550.172 c -0.27,-0.551 -0.11,-1.211 -0.11,-1.762 0,-2.07 0.51,-3.551 1.48,-5.469 2.85,-5.429 9.26,-11.293 15.94,-8.16 3.67,1.758 6.29,5.699 7.5,9.649 2.73,8.039 1.64,18.39 -4.22,24.961 -2.62,2.847 -6.01,4.757 -9.96,4.757 -2.19,0 -4.38,-0.66 -5.43,-2.726 -1.52,-2.582 0.39,-5.434 2.97,-6.133 1.91,-0.551 3.83,-0.551 5.74,-0.937 5.43,-1.532 11.56,-5.743 9.41,-12.274 -0.42,-1.25 -1.09,-2.297 -1.91,-3.277 -5.59,-6.41 -16.64,-5.313 -21.41,1.371 z"
         style="fill:#000000;fill-opacity:1;fill-rule:nonzero;stroke:none"
         id="path120"
         inkscape:connector-curvature="0" /><path
         d="m 1913.91,562.711 0,0.109 c -0.55,0.551 -1.25,0.981 -1.64,1.801 -0.82,1.367 0.39,3.277 1.48,4.059 2.46,1.64 6.56,0.429 6.84,-2.692 0.27,-3.558 -3.17,-6.129 -5.47,-8.199 -2.85,-2.43 -6.53,-4.891 -7.5,-8.828 -0.39,-1.531 -0.28,-3.281 0,-4.813 0.43,-1.757 0.97,-3.398 1.91,-4.878 0.82,-1.372 1.76,-2.461 3.13,-3.282 6.13,-4.34 13.63,-0.816 17.03,5.192 0.7,1.371 1.52,2.859 1.64,4.34 l 0.15,0 c 0.12,-1.481 0.94,-3.129 1.64,-4.34 2.43,-4.371 7.9,-8.75 13.21,-6.68 0.82,0.281 1.64,0.82 2.3,1.488 2.62,2.192 4.22,6.012 5.32,9.141 2.07,6.949 2.07,14.84 0,21.801 -0.94,3.121 -2.43,6.398 -4.77,8.711 -1.48,1.64 -3.67,2.609 -5.86,2.339 -2.19,-0.16 -2.73,-3.441 -2.19,-5.039 1.25,-3.16 4.65,-4.101 6.84,-6.011 4.06,-3.559 5.43,-9.809 3.94,-14.852 -0.93,-3.008 -3.28,-6.008 -6.4,-7.109 -5.59,-1.867 -12.54,2.621 -14.03,8.211 -0.54,-0.821 -0.97,-2.071 -1.52,-3.008 -1.91,-2.582 -4.76,-4.774 -8.05,-5.473 -3.24,-0.551 -7.61,0.43 -8.55,4.102 -0.16,0.699 -0.27,1.371 -0.16,2.027 0.43,1.531 1.64,2.891 2.62,4.102 2.03,2.461 4.77,4.5 6.8,6.961 1.21,1.48 2.73,3.398 2.73,5.308 0.12,2.031 -0.27,4.102 -1.25,5.86 -2.3,4.222 -7.62,6.41 -12.11,4.222 -1.09,-0.551 -2.07,-1.371 -2.73,-2.191 -2.46,-2.699 -2.46,-6.68 -0.94,-9.801 0.66,-1.219 1.48,-2.309 2.42,-3.398 0.28,-0.121 0.82,-0.942 1.25,-0.942 0.67,0 1.49,1.332 1.92,1.762 z"
         style="fill:#000000;fill-opacity:1;fill-rule:nonzero;stroke:none"
         id="path122"
         inkscape:connector-curvature="0" /><path
         d="m 1996.76,582.859 c 1.36,-0.82 2.58,-1.48 3.79,-2.57 2.61,-2.187 4.37,-5.199 5.47,-8.32 1.09,-3.289 1.64,-6.957 1.21,-10.199 -0.12,-2.071 -0.67,-4.098 -1.49,-5.86 -6.01,-12.269 -22.62,-14.34 -33.79,-7.93 -2.34,1.52 -4.76,3.399 -6.01,6.02 -2.31,5.309 0.27,11.559 4.92,14.41 0,-4.769 2.58,-11.988 8.59,-10.351 0.67,0.269 1.49,0.703 2.03,1.089 6.8,5.204 3.83,18.832 -5.46,18.832 -0.94,0 -1.88,0 -2.86,-0.269 -1.48,-0.43 -2.85,-1.102 -3.94,-2.07 -2.03,-1.493 -3.56,-3.789 -4.65,-5.981 -5.98,-12.539 0,-28.91 12.97,-34.219 3.12,-1.089 6.52,-1.64 9.8,-1.48 2.74,0.109 5.47,0.82 7.89,2.027 2.74,1.09 5.2,3.121 7.23,5.313 9.42,10.347 10.51,27.66 2.74,39.258 -3.4,5.043 -8.6,8.711 -14.73,9.691 -1.76,0.27 -3.79,0.539 -5.7,-0.16 -3.44,-1.371 -3.95,-4.77 -2.74,-7.891 2.03,-4.918 11.06,-9.41 14.02,-3.008 0.43,0.938 0.98,2.457 0.71,3.668 z m -4.38,3.282 c 0,-1.641 0,-4.102 -1.21,-5.192 -1.09,-0.937 -2.89,-0.937 -4.1,-0.937 0,1.636 0.27,4.218 1.76,5.308 0.97,0.821 2.34,0.821 3.55,0.821 z m -19.61,-17.731 c 2.58,1.09 5.04,2.621 7.89,1.52 0.43,-0.149 2.19,-0.969 2.19,-1.641 -0.27,-0.82 -1.52,-1.641 -2.19,-2.027 -2.85,-1.524 -6.25,-0.434 -7.89,2.148 z"
         style="fill:#000000;fill-opacity:1;fill-rule:nonzero;stroke:none"
         id="path124"
         inkscape:connector-curvature="0" /><path
         d="m 1246.84,525.359 c -0.55,0.551 -1.25,1.102 -1.64,1.762 -0.82,1.52 0.39,3.277 1.48,4.219 2.46,1.519 6.52,0.269 6.8,-2.852 0.27,-3.398 -3.13,-6.129 -5.43,-8.047 -3.01,-2.582 -6.84,-5.152 -7.5,-9.261 -0.39,-1.481 -0.28,-3.121 0,-4.61 0.43,-1.64 0.93,-3.281 1.91,-4.64 0.66,-1.211 1.64,-2.461 2.85,-3.289 6.29,-4.493 13.75,-1.09 17.31,5.039 0.7,1.25 1.52,2.89 1.64,4.379 l 0.15,0 c 0.12,-1.489 0.94,-3.129 1.76,-4.379 3.13,-5.578 10.08,-9.532 15.94,-5.309 8.87,6.129 7.34,20.039 0.94,27.109 -1.6,1.801 -3.79,3.829 -6.14,4.532 l 0,0.117 0.55,0 0,9.531 -13.2,0 0,-9.531 5.74,0 c 1.48,0 2.85,0 4.34,-0.66 2.34,-1.367 4.64,-3.168 6.13,-5.321 1.37,-1.789 2.34,-3.707 2.73,-5.738 0.28,-1.371 0.39,-2.851 0.12,-4.219 -0.12,-1.089 -0.51,-2.3 -1.21,-3.281 -0.55,-0.82 -1.09,-1.48 -1.91,-2.191 -5.43,-4.489 -14.18,1.101 -15.79,6.961 -0.7,-0.821 -0.97,-2.039 -1.52,-2.969 -2.03,-2.891 -5.04,-4.922 -8.44,-5.473 -3.28,-0.386 -7.22,0.66 -8.16,4.102 -0.16,0.66 -0.27,1.371 -0.16,1.879 0.43,1.519 1.64,2.89 2.58,3.98 2.46,2.692 5.47,5.039 7.66,7.891 0.93,1.371 1.91,3.012 1.91,4.648 0.12,2.692 -0.43,5.153 -2.34,7.34 -3.52,4.383 -9.92,4.774 -13.75,0.551 -2.46,-2.738 -2.46,-6.52 -0.98,-9.688 0.7,-1.211 1.52,-2.461 2.46,-3.402 0.28,-0.269 0.82,-0.93 1.25,-0.93 0.67,0 1.49,1.211 1.92,1.75 z m 17.14,-20.699 c -1.36,-3.398 -3.12,-6.68 -4.37,-10.082 -0.55,-1.359 -1.33,-3.008 -1.33,-4.527 0.55,-5.039 8.28,-5.981 10.74,-2.031 1.1,1.48 0.82,3.121 0.16,4.921 -0.82,2.579 -2.07,5.161 -3.28,7.887 -0.55,1.211 -1.1,2.852 -1.92,3.832 z"
         style="fill:#000000;fill-opacity:1;fill-rule:nonzero;stroke:none"
         id="path170"
         inkscape:connector-curvature="0" /><path
         d="m 1281.45,552.199 0,-0.121 c 1.05,-1.09 2.3,-2.457 2.85,-3.937 1.21,-3.442 -0.98,-6.68 -4.1,-8.051 -1.22,-0.551 -2.74,-0.43 -4.07,-0.43 l -5.35,0 0,-9.531 c 3.28,0 6.95,-0.551 10.12,0.43 5.7,1.871 8.83,8.441 8.01,14.14 -0.39,2.731 -1.76,5.473 -3.68,7.5 -0.39,0.43 -1.36,1.641 -1.91,1.641 -0.66,0 -1.48,-1.211 -1.87,-1.641 z"
         style="fill:#000000;fill-opacity:1;fill-rule:nonzero;stroke:none"
         id="path172"
         inkscape:connector-curvature="0" /><path
         d="m 1295.27,539.66 0,-9.531 8.6,0 0,-0.117 c -2.03,-0.543 -3.83,-2.621 -4.92,-4.262 -3.79,-5.031 -4.77,-12.109 -2.15,-17.961 0.78,-2.039 2.03,-3.828 3.67,-5.32 2.19,-2.18 4.61,-3.828 7.5,-4.918 8.98,-2.973 19.45,0.82 23.71,9.418 1.87,3.551 2.15,7.5 1.6,11.441 -0.66,3.399 -2.42,6.801 -5.04,9.262 -0.66,0.699 -1.33,1.25 -2.15,1.797 -0.27,0.109 -0.82,0.39 -1.09,0.66 -0.55,0.699 -0.55,2.191 -0.82,3.012 -0.43,2.179 -1.25,4.328 -1.52,6.519 l -27.39,0 z m 17.31,-9.531 c 4.65,0.43 10.08,-0.66 13.51,-4.098 3.4,-3.133 4.5,-8.832 2.03,-12.929 -1.09,-1.762 -2.85,-3.133 -4.76,-4.223 -2.07,-1.09 -4.22,-1.641 -6.56,-1.758 -5.43,-0.699 -12.27,0.668 -15.67,5.43 -3.12,4.379 -1.64,10.777 2.46,14.179 2.58,2.032 5.71,2.848 8.99,3.399 z"
         style="fill:#000000;fill-opacity:1;fill-rule:nonzero;stroke:none"
         id="path174"
         inkscape:connector-curvature="0" /><path
         d="m 1326.76,552.199 0,-0.121 c 1.05,-1.09 2.3,-2.457 2.85,-3.937 1.21,-3.442 -0.98,-6.68 -4.1,-8.051 -1.21,-0.551 -2.74,-0.43 -4.06,-0.43 l -5.36,0 0,-9.531 c 3.29,0 6.96,-0.551 10.12,0.43 5.7,1.871 8.83,8.441 8.01,14.14 -0.39,2.731 -1.76,5.473 -3.67,7.5 -0.39,0.43 -1.37,1.641 -1.92,1.641 -0.66,0 -1.48,-1.211 -1.87,-1.641 z"
         style="fill:#000000;fill-opacity:1;fill-rule:nonzero;stroke:none"
         id="path176"
         inkscape:connector-curvature="0" /><path
         d="m 1340.59,539.66 0,-9.531 16.48,0 c 2.73,0 5.59,0.269 8.32,0 2.19,-0.27 3.95,-2.738 3.95,-4.77 -2.74,0.672 -5.04,1.102 -7.78,0.942 -1.87,-0.27 -3.67,-0.551 -5.31,-1.332 -3.52,-1.641 -7.07,-5.739 -4.06,-9.571 0.54,-0.66 1.21,-1.207 2.03,-1.636 4.22,-2.852 10.51,-2.301 14.57,0.707 1.91,1.359 3.67,3.672 3.83,5.972 3.94,-2.3 2.58,-7.89 -0.67,-10.082 -5.35,-3.789 -12.97,-3.789 -19.1,-2.57 -3.01,0.66 -6.8,2.18 -8.05,5.191 -0.54,1.211 -0.39,2.418 -0.39,3.668 -0.54,0 -1.36,0.282 -1.91,0 -0.82,-0.429 -1.37,-2.179 -1.48,-3.007 -0.98,-3.121 -0.16,-6.52 1.6,-9.25 4.26,-5.75 12.54,-8.211 19.37,-7.782 7.07,0.551 14.3,4.11 17.03,11.02 1.49,3.98 1.1,8.75 -1.36,12.422 -1.1,1.371 -2.74,3.008 -4.5,3.398 -0.15,1.641 -0.7,3.551 -1.48,5.039 -0.27,0.551 -0.7,1.25 -1.25,1.524 -0.39,0.117 -0.94,0.117 -1.37,0.117 l 0,9.531 -28.47,0 z m 28.2,-16.601 c -0.27,-0.821 -0.94,-1.637 -1.37,-2.34 -2.03,-2.309 -4.61,-3.399 -7.62,-2.86 -1.36,0.161 -2.85,0.551 -3.67,1.762 -0.7,1.098 0.12,2.348 0.94,3.168 1.8,1.359 4.22,1.75 6.41,1.641 1.91,-0.282 3.55,-0.981 5.31,-1.371 z"
         style="fill:#000000;fill-opacity:1;fill-rule:nonzero;stroke:none"
         id="path178"
         inkscape:connector-curvature="0" /><path
         d="m 1373.01,552.199 0,-0.121 c 1.09,-1.09 2.3,-2.457 2.85,-3.937 1.25,-3.442 -0.94,-6.68 -4.06,-8.051 -1.25,-0.551 -2.74,-0.43 -4.1,-0.43 l -5.32,0 0,-9.531 c 3.28,0 6.96,-0.551 10.08,0.43 5.74,1.871 8.87,8.441 8.05,14.14 -0.43,2.731 -1.76,5.473 -3.67,7.5 -0.43,0.43 -1.37,1.641 -1.92,1.641 -0.7,0 -1.48,-1.211 -1.91,-1.641 z"
         style="fill:#000000;fill-opacity:1;fill-rule:nonzero;stroke:none"
         id="path180"
         inkscape:connector-curvature="0" /><path
         d="m 499.141,88.1016 0,-9.5313 9.531,0 c -1.094,-1.1015 -2.192,-2.0312 -2.621,-3.3984 -1.321,-4.1016 2.621,-8.6016 6.679,-8.2031 2.891,0.2695 4.379,3.7109 3.29,6.2812 -0.668,1.6406 -3.008,1.7617 -4.379,0.9414 -1.211,-0.6601 -1.871,-1.9101 -2.032,-3.2422 -2.461,0.6602 -2.187,3.9414 -0.66,5.5899 3.942,3.9414 11.442,1.8711 13.629,-2.8985 1.211,-2.9609 0.274,-6.6718 -2.738,-8.2812 -5.86,-3.1602 -13.238,0.9414 -18.668,-3.711 -3.281,-2.8476 -2.192,-7.6093 0.277,-10.4687 3.942,-4.6406 10.352,-6.3984 16.051,-6.1289 8.32,0.3906 17.191,5.4297 19.379,13.75 1.211,5.039 0.269,10.8984 -2.578,15.2695 -1.25,1.7578 -3.172,3.7891 -5.321,4.3399 -0.699,0.2695 -1.789,0.1601 -2.609,0.1601 l 0,9.5313 -27.23,0 z m 22.187,-9.6914 c 1.25,0.5507 3.402,-0.2696 4.652,-0.8204 2.731,-0.9414 5.309,-3.121 6.25,-5.9804 0.7,-1.9102 0.54,-4.3711 0.149,-6.25 -0.27,-1.0899 -0.699,-2.3399 -1.25,-3.4297 -3.117,-5.5899 -11.008,-6.4102 -16.75,-6.4102 -2.469,0 -7.348,-0.1211 -8.438,2.8907 -0.671,1.8789 0.938,2.8515 2.848,2.9687 4.371,0.1602 9.41,-0.2695 13.242,2.0703 3.949,2.3008 4.879,7.7696 2.699,11.5625 -0.82,1.3672 -2.031,2.5781 -3.402,3.3985 z"
         style="fill:#000000;fill-opacity:1;fill-rule:nonzero;stroke:none"
         id="path182"
         inkscape:connector-curvature="0" /><path
         d="m 517.379,88.1016 0,-9.5313 22.191,0 c 3.828,0 7.77,0.2695 11.602,-0.1601 4.879,-0.3907 10.348,-1.3321 13.629,-5.4297 3.398,-4.4922 2.429,-11.9922 -2.071,-15.2696 -3.781,-2.8515 -9.64,-2.8515 -13.468,-0.5507 -3.282,2.0703 -4.223,5.5898 -2.192,8.8711 0.942,1.4804 2.578,3.1171 4.649,2.7304 -0.547,-0.5429 -0.821,-1.25 -0.981,-2.0703 -0.539,-2.8516 2.192,-4.7617 4.653,-4.6133 3.129,0.2813 4.879,3.1328 4.218,6.1407 -0.269,0.8203 -0.66,1.6406 -1.488,2.3007 -0.699,0.8203 -1.793,1.3711 -2.891,1.7618 -5.582,1.6406 -10.191,-2.8516 -11.71,-7.8907 -0.551,-1.7617 -0.551,-3.6718 -0.282,-5.5898 0.551,-5.582 3.442,-12.1094 9.422,-13.4805 6.399,-1.5195 11.442,2.8594 14.289,8.168 4.531,8.3203 3.711,20.7031 -2.57,27.9336 -3.68,4.0976 -8.598,6.1289 -13.91,6.6797 -2.578,0.2695 -5.43,0 -8.047,0 l -25.043,0 z"
         style="fill:#000000;fill-opacity:1;fill-rule:nonzero;stroke:none"
         id="path184"
         inkscape:connector-curvature="0" /><path
         d="M 592.969,87.9805 C 579.77,86.1797 574.02,70.6797 577.699,59.0703 c 2.61,-8.1601 9.961,-15 18.942,-13.8984 13.91,1.6367 19.218,19.9179 14.058,31.3672 -3.16,6.789 -9.84,12.5312 -17.73,11.4414 z m 0.269,-9.4102 c 7.231,0.8203 16.371,-3.5586 16.371,-11.7187 0,-1.1016 -0.16,-2.1914 -0.429,-3.1328 -0.551,-1.25 -1.211,-2.3399 -2.192,-3.2774 -0.937,-1.0898 -2.297,-2.1914 -3.668,-2.8516 -1.91,-1.0898 -3.941,-1.6406 -6.129,-1.9101 -4.339,-0.5508 -8.992,0.5391 -12.543,3.1211 -4.609,3.668 -5.976,10.0781 -1.918,14.7305 1.25,1.207 2.469,2.2968 3.989,3.1171 2.031,1.1016 4.332,1.6407 6.519,1.9219 z"
         style="fill:#000000;fill-opacity:1;fill-rule:nonzero;stroke:none"
         id="path186"
         inkscape:connector-curvature="0" /><path
         d="m 618.121,88.1016 0,-9.5313 16.488,0 c 2.692,0 5.59,0.2695 8.282,0 2.187,-0.2812 3.988,-2.7422 3.988,-4.7695 -2.738,0.668 -5.039,1.0898 -7.777,0.9375 -1.911,-0.2695 -3.672,-0.5469 -5.313,-1.3672 -3.559,-1.6406 -7.109,-5.6992 -4.098,-9.5313 0.539,-0.6601 1.207,-1.2109 2.028,-1.6406 4.261,-2.8476 10.511,-2.3086 14.609,0.6992 1.91,1.3711 3.672,3.6719 3.793,5.9805 3.981,-2.3086 2.609,-7.8906 -0.672,-10.0781 -5.308,-3.832 -12.929,-3.832 -19.058,-2.582 -3.012,0.6718 -6.84,2.1914 -8.051,5.1601 -0.539,1.25 -0.43,2.4609 -0.43,3.7109 -0.539,0 -1.359,0.2696 -1.91,0 -0.82,-0.4296 -1.328,-2.1914 -1.48,-3.0117 -0.942,-3.1172 -0.122,-6.5586 1.64,-9.2578 4.219,-5.7422 12.539,-8.1992 19.328,-7.7695 7.114,0.5508 14.34,4.0586 17.032,11.0195 1.531,3.9414 1.101,8.75 -1.36,12.418 -1.058,1.3711 -2.699,2.9726 -4.5,3.4023 -0.109,1.6407 -0.66,3.5508 -1.48,5.0391 -0.27,0.5391 -0.66,1.2109 -1.211,1.4805 -0.43,0.1601 -0.981,0.1601 -1.367,0.1601 l 0,9.5313 -28.481,0 z m 28.207,-16.6407 c -0.277,-0.7812 -0.976,-1.6015 -1.367,-2.3125 -2.07,-2.2968 -4.652,-3.3984 -7.66,-2.8476 -1.321,0.1211 -2.852,0.5508 -3.672,1.7578 -0.66,1.0898 0.16,2.3398 0.98,3.1602 1.762,1.332 4.219,1.7617 6.411,1.6015 1.871,-0.2695 3.511,-0.9297 5.308,-1.3594 z"
         style="fill:#000000;fill-opacity:1;fill-rule:nonzero;stroke:none"
         id="path188"
         inkscape:connector-curvature="0" /><path
         d="m 650.512,100.641 0,-0.121 c 1.09,-1.0903 2.34,-2.4614 2.886,-3.9809 1.211,-3.3985 -0.976,-6.6797 -4.097,-8.0078 -1.211,-0.5508 -2.742,-0.4297 -4.102,-0.4297 l -5.32,0 0,-9.5313 c 3.281,0 6.961,-0.5508 10.082,0.3906 5.738,1.9102 8.867,8.4688 8.051,14.1797 -0.391,2.7305 -1.762,5.4688 -3.672,7.5004 -0.391,0.429 -1.371,1.64 -1.918,1.64 -0.66,0 -1.481,-1.211 -1.91,-1.64 z"
         style="fill:#000000;fill-opacity:1;fill-rule:nonzero;stroke:none"
         id="path190"
         inkscape:connector-curvature="0" /><path
         d="m 1164.34,88.8789 0,-9.5273 13.24,0 0,-0.1211 c -0.82,-0.1602 -1.64,-0.5508 -2.46,-1.0899 -2.19,-0.9804 -4.22,-2.4609 -5.86,-4.3789 -1.64,-1.7617 -3.13,-3.6719 -3.83,-5.9726 -2.46,-6.6797 -0.66,-16.3672 5.47,-20.4688 7.07,-4.7695 16.33,2.461 17.3,9.961 l 0.12,0 c 0.16,-1.4922 0.98,-3.1329 1.8,-4.3829 2.97,-5.3086 9.92,-9.5273 15.66,-5.5781 5.86,4.1016 7.89,13.6289 5.59,20.1914 -1.53,3.7891 -4.22,7.0664 -7.66,9.2578 -1.33,0.9414 -2.97,2.0313 -4.61,2.461 l 0,0.1211 2.03,0 0,9.5273 -36.79,0 z m 23.98,-24.918 c -1.21,-2.3125 -2.19,-4.3828 -4.49,-5.7421 -1.1,-0.8282 -2.31,-1.3672 -3.56,-1.6485 -1.05,-0.1094 -2.3,-0.2695 -3.24,-0.1094 -5.74,0.8204 -8.05,7.7696 -6.56,12.6485 0.55,1.5312 1.52,3.0117 2.62,4.2617 5.86,6.6406 17.3,7.457 25.03,3.9492 6.02,-2.7422 10.12,-9.0312 7.66,-15.5508 -0.98,-2.1914 -2.58,-4.3789 -4.92,-5.039 -3.67,-1.211 -8.16,0.8203 -10.63,3.6679 -0.82,0.9805 -1.75,2.3125 -1.91,3.5625 z"
         style="fill:#000000;fill-opacity:1;fill-rule:nonzero;stroke:none"
         id="path192"
         inkscape:connector-curvature="0" /><path
         d="m 1202.11,102.391 c 0.82,-0.153 1.64,-0.27 2.46,-0.7 4.34,-2.191 3.95,-8.0504 0.82,-11.0113 -2.89,-2.7383 -7.93,-1.8008 -11.44,-1.8008 l 0,-9.5273 c 5.43,0 10.62,-0.2813 14.84,3.9375 5.86,5.8593 5.04,18.1329 -3.4,21.2499 -3.71,1.371 -9.02,0.43 -11.05,-3.117 -2.04,-3.4025 0,-8.172 4.1,-8.6017 3.24,-0.3906 5.97,2.6211 5.58,6.0195 -0.15,1.3712 -1.09,2.4612 -1.91,3.5512 z"
         style="fill:#000000;fill-opacity:1;fill-rule:nonzero;stroke:none"
         id="path194"
         inkscape:connector-curvature="0" /><path
         d="m 1244.02,45.8281 0,0.1211 c -2.03,0.5508 -4.1,1.6406 -5.97,2.6211 -8.75,4.6094 -17.03,13.0781 -15.82,23.5508 0.27,1.6406 0.66,3.3984 1.48,4.918 0.82,1.6406 1.91,2.8515 3.17,4.2226 0,-5.3125 3.24,-13.3633 9.8,-11.1719 0.94,0.3907 1.64,0.8204 2.3,1.3711 5.59,5.0391 3.68,15.7774 -3.67,17.9688 -1.36,0.4297 -2.85,0.4297 -4.22,0.2695 -1.36,-0.1211 -2.61,-0.5508 -3.82,-1.2109 -9.26,-5.4688 -8.99,-18.5586 -6.96,-27.6602 0.55,-2.0664 1.21,-4.0976 2.03,-6.0078 0.98,-2.3086 2.19,-4.5 3.71,-6.6797 0.55,-0.6718 0.94,-1.7617 1.76,-2.1914 0.28,-0.2695 0.82,-0.1211 1.21,-0.1211 l 15,0 z m -14.29,36.3711 c 2.57,1.3711 5.31,1.25 7.61,-0.3906 0.55,-0.2695 1.92,-1.0898 1.92,-1.6367 0,-0.3906 -0.67,-0.9414 -0.94,-1.211 -0.98,-1.1015 -2.89,-1.9218 -4.37,-1.3711 -1.76,0.5508 -3.4,2.9688 -4.22,4.6094 z"
         style="fill:#000000;fill-opacity:1;fill-rule:nonzero;stroke:none"
         id="path196"
         inkscape:connector-curvature="0" /><path
         d="m 1251.05,88.8789 0,-9.5273 21.8,0 c 4.49,0 8.99,0.4297 13.24,-1.6407 5.71,-2.8515 11.18,-9.6914 8.29,-16.332 -0.4,-0.8203 -0.83,-1.6406 -1.37,-2.3398 -5.31,-5.9805 -16.21,-0.8203 -17.97,5.8515 l -0.16,0 c -1.87,-5.8515 -7.89,-8.8593 -13.75,-8.4297 -2.58,0.1094 -6.79,1.3594 -7.22,4.3672 -0.28,2.1524 1.79,4.0625 3.55,4.7735 3.28,1.207 6.95,-0.8203 6.95,-4.4922 0.55,0 1.49,-0.1602 1.92,0.1094 0.27,0.1601 0.39,0.8203 0.55,1.1015 0.39,1.3594 0.66,2.461 0.11,3.8203 -0.66,2.1485 -2.73,3.6797 -4.88,4.3399 -4.92,1.3711 -9.84,-2.1914 -10.78,-6.9492 -1.64,-7.5 3.55,-18.6719 12.38,-17.5821 0.98,0 1.91,0.2696 2.89,0.6992 1.88,0.8204 3.52,2.1914 4.88,3.6719 1.53,1.918 3.13,4.5 3.4,6.961 l 0.16,0 c 0.12,-1.4922 0.94,-3.1329 1.76,-4.3829 3.28,-5.8593 10.78,-9.6484 16.75,-5.1484 3.01,2.3008 4.65,6.1289 5.2,9.6406 0.94,6.1407 -0.66,12.1485 -4.77,16.7578 -1.79,2.0704 -4.64,4.5313 -7.22,5.0821 l 0,0.1211 2.3,0 0,9.5273 -38.01,0 z"
         style="fill:#000000;fill-opacity:1;fill-rule:nonzero;stroke:none"
         id="path198"
         inkscape:connector-curvature="0" /><path
         d="m 1292.15,101.422 0,-0.121 c 1.09,-1.09 2.34,-2.4612 2.89,-3.9416 1.21,-3.4375 -0.98,-6.6797 -4.1,-8.0508 -1.21,-0.5469 -2.74,-0.4297 -4.1,-0.4297 l -5.32,0 0,-9.5273 c 3.28,0 6.96,-0.5508 10.12,0.4297 5.7,1.8671 8.83,8.4375 8.01,14.1406 -0.39,2.7265 -1.76,5.4687 -3.67,7.5001 -0.39,0.43 -1.37,1.637 -1.92,1.637 -0.66,0 -1.48,-1.207 -1.91,-1.637 z"
         style="fill:#000000;fill-opacity:1;fill-rule:nonzero;stroke:none"
         id="path200"
         inkscape:connector-curvature="0" /><path
         d="m 1296.05,62.0391 c -0.27,-0.5391 -0.11,-1.211 -0.11,-1.75 0,-2.0703 0.54,-3.5586 1.48,-5.4688 2.89,-5.4297 9.3,-11.289 15.94,-8.1719 3.71,1.7618 6.29,5.711 7.5,9.6524 2.73,8.0508 1.64,18.3984 -4.22,24.9609 -2.58,2.8477 -5.98,4.7696 -9.92,4.7696 -2.19,0 -4.38,-0.6719 -5.47,-2.7422 -1.48,-2.5703 0.39,-5.4297 3.01,-6.1289 1.91,-0.5508 3.79,-0.5508 5.7,-0.9414 5.47,-1.5196 11.6,-5.7383 9.42,-12.2579 -0.43,-1.25 -1.1,-2.3125 -1.92,-3.2812 -5.58,-6.4102 -16.6,-5.3203 -21.41,1.3594 z"
         style="fill:#000000;fill-opacity:1;fill-rule:nonzero;stroke:none"
         id="path202"
         inkscape:connector-curvature="0" /><path
         d="m 1339.57,80.2891 c 0,-4.0703 1.76,-10.4688 6.68,-10.6289 0.66,0 1.37,0.2695 2.03,0.4296 0.82,0.2696 1.52,0.6602 2.19,1.211 6.13,5.039 3.83,16.918 -4.38,18.3984 -1.09,0.1602 -2.3,0.1602 -3.24,0 -1.25,-0.1211 -2.34,-0.5508 -3.28,-0.9375 -2.46,-1.5234 -4.22,-3.6719 -5.59,-6.0117 -6.95,-11.8398 -1.64,-28.4805 10.63,-34.6094 4.92,-2.4609 10.78,-2.8515 16.09,-1.7617 2.85,0.8203 5.59,1.9102 8.01,3.6719 1.52,0.9375 3.01,2.3086 4.26,3.668 6.25,7.1093 7.07,16.9218 4.88,25.9023 -1.09,3.8281 -3.28,7.7695 -6.68,9.8086 -1.48,0.9687 -3.51,1.6406 -5.31,1.3594 -0.94,-0.1094 -1.64,-1.211 -1.91,-2.0274 -0.83,-2.1914 -0.4,-4.4922 1.25,-6.1328 3,-3.1289 8.16,-3.668 10.07,-8.0508 2.19,-4.7578 0,-10.0781 -3.94,-13.1992 -4.92,-3.9883 -11.45,-5.3476 -17.58,-5.0781 -6.02,0.2695 -12.27,1.918 -16.76,6.289 -5.31,5.1993 -3.44,14.0196 2.58,17.6993 z m 11.99,0.4297 c -0.27,-0.5469 -0.82,-1.0977 -1.21,-1.4883 -2.73,-2.7305 -6.68,-2.1914 -8.87,1.0586 1.37,0.6992 2.58,1.5195 4.22,1.9101 1.92,0.2696 4.1,-0.6601 5.86,-1.4804 z"
         style="fill:#000000;fill-opacity:1;fill-rule:nonzero;stroke:none"
         id="path204"
         inkscape:connector-curvature="0" /><path
         d="m 1385.86,88.8789 0,-9.5273 13.2,0 0,-0.1211 c -0.78,-0.1602 -1.6,-0.5508 -2.42,-1.0899 -2.19,-0.9804 -4.26,-2.4609 -5.86,-4.3789 -1.64,-1.7617 -3.16,-3.6719 -3.83,-5.9726 -2.46,-6.6797 -0.66,-16.3672 5.43,-20.4688 7.11,-4.7695 16.37,2.461 17.35,9.961 l 0.11,0 c 0.16,-1.4922 0.94,-3.1329 1.76,-4.3829 3.01,-5.3086 9.96,-9.5273 15.7,-5.5781 5.86,4.1016 7.9,13.6289 5.59,20.1914 -1.52,3.7891 -4.26,7.0664 -7.66,9.2578 -1.36,0.9414 -3,2.0313 -4.61,2.461 l 0,0.1211 2.04,0 0,9.5273 -36.8,0 z m 23.98,-24.918 c -1.21,-2.3125 -2.18,-4.3828 -4.49,-5.7421 -1.09,-0.8282 -2.3,-1.3672 -3.55,-1.6485 -1.1,-0.1094 -2.31,-0.2695 -3.28,-0.1094 -5.71,0.8204 -8.01,7.7696 -6.53,12.6485 0.55,1.5312 1.49,3.0117 2.58,4.2617 5.86,6.6406 17.31,7.457 25.08,3.9492 6.01,-2.7422 10.08,-9.0312 7.65,-15.5508 -0.97,-2.1914 -2.61,-4.3789 -4.92,-5.039 -3.67,-1.211 -8.16,0.8203 -10.62,3.6679 -0.82,0.9805 -1.76,2.3125 -1.92,3.5625 z"
         style="fill:#000000;fill-opacity:1;fill-rule:nonzero;stroke:none"
         id="path206"
         inkscape:connector-curvature="0" /><path
         d="m 1423.63,102.391 c 0.82,-0.153 1.64,-0.27 2.42,-0.7 4.38,-2.191 3.99,-8.0504 0.83,-11.0113 -2.86,-2.7383 -7.9,-1.8008 -11.45,-1.8008 l 0,-9.5273 c 5.47,0 10.62,-0.2813 14.88,3.9375 5.86,5.8593 5.04,18.1329 -3.43,21.2499 -3.68,1.371 -8.99,0.43 -11.02,-3.117 -2.07,-3.4025 0,-8.172 4.06,-8.6017 3.28,-0.3906 6.02,2.6211 5.59,6.0195 -0.12,1.3712 -1.06,2.4612 -1.88,3.5512 z"
         style="fill:#000000;fill-opacity:1;fill-rule:nonzero;stroke:none"
         id="path208"
         inkscape:connector-curvature="0" /><path
         d="m 1465.55,45.8281 0,0.1211 c -2.03,0.5508 -4.1,1.6406 -6.02,2.6211 -8.71,4.6094 -17.03,13.0781 -15.78,23.5508 0.27,1.6406 0.66,3.3984 1.48,4.918 0.82,1.6406 1.92,2.8515 3.13,4.2226 0,-5.3125 3.28,-13.3633 9.8,-11.1719 0.98,0.3907 1.64,0.8204 2.35,1.3711 5.58,5.0391 3.67,15.7774 -3.67,17.9688 -1.37,0.4297 -2.89,0.4297 -4.26,0.2695 -1.33,-0.1211 -2.58,-0.5508 -3.79,-1.2109 -9.26,-5.4688 -8.99,-18.5586 -6.95,-27.6602 0.54,-2.0664 1.21,-4.0976 2.03,-6.0078 0.97,-2.3086 2.18,-4.5 3.67,-6.6797 0.55,-0.6718 0.98,-1.7617 1.8,-2.1914 0.27,-0.2695 0.82,-0.1211 1.21,-0.1211 l 15,0 z m -14.3,36.3711 c 2.58,1.3711 5.31,1.25 7.62,-0.3906 0.54,-0.2695 1.91,-1.0898 1.91,-1.6367 0,-0.3906 -0.7,-0.9414 -0.98,-1.211 -0.93,-1.1015 -2.85,-1.9218 -4.33,-1.3711 -1.8,0.5508 -3.44,2.9688 -4.22,4.6094 z"
         style="fill:#000000;fill-opacity:1;fill-rule:nonzero;stroke:none"
         id="path210"
         inkscape:connector-curvature="0" /><path
         d="m 1495.47,89.8594 c 10.9,0 20.58,-8.4805 21.91,-19.3789 0.43,-3.6719 0.16,-7.6211 -2.15,-10.7422 -1.25,-1.5195 -2.73,-2.6172 -4.49,-3.168 -5.47,-1.4805 -12.69,3.0078 -14.18,8.3203 l -0.15,0 c -1.92,-5.8515 -7.89,-8.8593 -13.75,-8.4297 -2.58,0.1094 -6.84,1.3594 -7.23,4.3672 -0.27,2.1524 1.76,4.0625 3.55,4.7735 3.25,1.207 6.96,-0.8203 6.96,-4.4922 0.54,0 1.48,-0.1602 1.87,0.1094 0.28,0.1601 0.43,0.8203 0.55,1.1015 0.43,1.3594 0.7,2.461 0.16,3.8203 -0.71,2.1485 -2.74,3.6797 -4.93,4.3399 -4.88,1.3711 -9.8,-2.1914 -10.74,-6.9492 -1.64,-7.5 3.52,-18.6719 12.38,-17.5821 0.98,0 1.92,0.2696 2.86,0.6992 1.91,0.8204 3.55,2.1914 4.92,3.6719 1.48,1.918 3.12,4.5 3.4,6.961 1.52,-3.6719 2.85,-6.8399 6.13,-9.4219 3.55,-2.461 8.48,-2.8477 12.15,-0.3906 1.91,1.371 3.4,3.4023 4.33,5.5898 1.53,2.9727 1.53,6.4102 1.53,9.6523 -0.16,6.6797 -0.98,13.5079 -4.38,19.4883 -3.67,6.6797 -9.41,11.9922 -16.91,14.1797 -2.31,0.6992 -4.77,0.9805 -7.19,1.25 -0.82,0 -1.8,-0.1601 -2.62,-0.2695 -3.94,-0.4297 -9.8,-2.4688 -9.1,-7.5 0,-0.5508 0.12,-1.0977 0.27,-1.8008 0.4,-0.8203 0.79,-1.6367 1.49,-2.3086 1.91,-2.5703 6.41,-4.7617 9.69,-3.1211 2.58,1.2109 3.67,4.3399 3.67,7.2305 z m -3.83,0 c 0,-0.711 0,-1.3711 -0.27,-2.0703 -0.94,-1.7578 -3.95,-2.5782 -5.43,-0.9375 -0.98,1.0898 0,2.5781 1.21,2.8476 0.55,0.1602 1.09,0.1602 1.64,0.1602 l 2.85,0 z"
         style="fill:#000000;fill-opacity:1;fill-rule:nonzero;stroke:none"
         id="path212"
         inkscape:connector-curvature="0" /><path
         d="m 1949.41,84.1094 0,-9.5313 13.21,0 0,-0.1093 c -0.82,-0.1602 -1.64,-0.5469 -2.46,-1.0977 -2.15,-0.9805 -4.22,-2.4609 -5.86,-4.3711 -1.6,-1.7617 -3.13,-3.6797 -3.79,-5.9805 -2.46,-6.6797 -0.71,-16.3711 5.43,-20.4687 7.11,-4.7617 16.36,2.4609 17.3,9.9609 l 0.16,0 c 0.12,-1.4804 0.94,-3.1211 1.76,-4.332 3,-5.3594 9.96,-9.5703 15.66,-5.6289 5.86,4.0976 7.93,13.6289 5.59,20.1992 -1.49,3.7891 -4.22,7.0703 -7.62,9.25 -1.37,0.9414 -3.01,2.0391 -4.65,2.4688 l 0,0.1093 2.07,0 0,9.5313 -36.8,0 z m 23.99,-24.918 c -1.25,-2.3008 -2.19,-4.3711 -4.49,-5.7031 -1.1,-0.8164 -2.35,-1.3672 -3.56,-1.6367 -1.09,-0.1602 -2.3,-0.2813 -3.28,-0.1602 -5.7,0.8203 -8.05,7.7774 -6.52,12.6992 0.54,1.4805 1.48,2.9688 2.57,4.2188 5.86,6.6797 17.31,7.5 25.08,3.9414 6.02,-2.7305 10.08,-8.9805 7.62,-15.5508 -0.94,-2.1797 -2.58,-4.3281 -4.88,-5.0312 -3.67,-1.2188 -8.21,0.8203 -10.63,3.6718 -0.82,0.9688 -1.79,2.3399 -1.91,3.5508 z"
         style="fill:#000000;fill-opacity:1;fill-rule:nonzero;stroke:none"
         id="path214"
         inkscape:connector-curvature="0" /><path
         d="m 1990.43,96.6484 0,-0.1093 c 1.09,-1.0977 2.3,-2.4688 2.85,-3.9493 1.25,-3.3984 -0.94,-6.6796 -4.06,-8.0507 -1.25,-0.5391 -2.74,-0.4297 -4.1,-0.4297 l -5.32,0 0,-9.5313 c 3.29,0 6.96,-0.539 10.08,0.4336 5.74,1.918 8.87,8.4375 8.05,14.1797 -0.39,2.6992 -1.76,5.4297 -3.67,7.457 -0.43,0.4297 -1.37,1.6407 -1.92,1.6407 -0.66,0 -1.48,-1.211 -1.91,-1.6407 z"
         style="fill:#000000;fill-opacity:1;fill-rule:nonzero;stroke:none"
         id="path216"
         inkscape:connector-curvature="0" /><path
         d="m 1994.34,57.2813 c -0.28,-0.5508 -0.12,-1.211 -0.12,-1.7618 0,-2.0312 0.55,-3.5507 1.48,-5.4687 2.85,-5.4297 9.26,-11.2891 15.94,-8.1602 3.67,1.75 6.29,5.7383 7.5,9.6797 2.74,8.0508 1.64,18.3985 -4.22,24.9297 -2.58,2.8516 -6.01,4.7617 -9.96,4.7617 -2.19,0 -4.34,-0.6601 -5.43,-2.7304 -1.52,-2.5821 0.39,-5.4297 2.97,-6.1407 1.91,-0.5 3.83,-0.5 5.74,-0.9297 5.43,-1.4921 11.56,-5.7109 9.42,-12.2695 -0.43,-1.2109 -1.1,-2.3008 -1.92,-3.2812 -5.58,-6.4102 -16.64,-5.3086 -21.4,1.3711 z"
         style="fill:#000000;fill-opacity:1;fill-rule:nonzero;stroke:none"
         id="path218"
         inkscape:connector-curvature="0" /><path
         d="m 2029.26,84.1094 0,-9.5313 13.36,0 0,-0.1093 c -0.82,-0.2774 -1.53,-0.8282 -2.19,-1.3672 -1.91,-1.211 -3.4,-3.0118 -4.77,-4.7735 -3.67,-5.039 -5.58,-11.1679 -6.28,-17.2968 -0.28,-3.2813 -0.12,-6.6797 -0.12,-9.961 l 9.53,0 0,11.0508 c 0,5.1602 0.12,10.1992 2.03,15.1172 1.52,3.4023 3.95,7.6211 8.2,7.3398 3.52,-0.2695 5.86,-4.6093 6.96,-7.5 1.87,-4.7578 2.03,-9.5273 2.03,-14.5664 l 0,-11.4414 9.53,0 c 0,3 0.16,5.8594 -0.12,8.8594 -0.54,6.1406 -2.34,12.3906 -5.74,17.582 -1.76,2.5781 -4.38,5.8594 -7.34,6.9571 l 0,0.1093 2.18,0 0,9.5313 -27.26,0 z"
         style="fill:#000000;fill-opacity:1;fill-rule:nonzero;stroke:none"
         id="path220"
         inkscape:connector-curvature="0" /><path
         d="m 2060.7,96.6484 0,-0.1093 c 1.1,-1.0977 2.35,-2.4688 2.85,-3.9493 1.25,-3.3984 -0.93,-6.6796 -4.06,-8.0507 -1.25,-0.5391 -2.73,-0.4297 -4.1,-0.4297 l -5.31,0 0,-9.5313 c 3.28,0 6.95,-0.539 10.08,0.4336 5.74,1.918 8.86,8.4375 8.04,14.1797 -0.39,2.6992 -1.75,5.4297 -3.67,7.457 -0.43,0.4297 -1.37,1.6407 -1.91,1.6407 -0.67,0 -1.49,-1.211 -1.92,-1.6407 z"
         style="fill:#000000;fill-opacity:1;fill-rule:nonzero;stroke:none"
         id="path222"
         inkscape:connector-curvature="0" /><path
         d="m 2053.05,10.0117 6.79,0 c 0,5.9766 -0.54,12.3789 1.37,17.9688 0.67,2.4609 2.31,5.4687 5.31,5.4687 3.01,0 4.5,-2.8906 5.32,-5.4687 1.91,-5.5899 1.36,-12.1094 1.36,-17.9688 l 6.68,0 c 0,6.9571 -0.43,13.9102 -3.94,20.0391 -2.19,3.668 -5.59,6.5195 -10.08,6.3711 -4.1,-0.2422 -6.84,-3.4024 -8.75,-6.6406 -1.91,-3.711 -3.4,-7.9297 -3.79,-12.1524 -0.27,-2.457 -0.27,-5.0391 -0.27,-7.6172 z"
         style="fill:#000000;fill-opacity:1;fill-rule:nonzero;stroke:none"
         id="path224"
         inkscape:connector-curvature="0" /><path
         d="m 2088.55,75.5586 c 0,-4.0977 1.76,-10.5078 6.68,-10.6289 0.67,0 1.37,0.2812 2.04,0.3906 0.82,0.2813 1.48,0.711 2.18,1.2188 6.14,5.0703 3.79,16.9101 -4.37,18.3906 -1.1,0.1601 -2.31,0.1601 -3.28,0 -1.21,-0.1094 -2.31,-0.5391 -3.25,-0.9297 -2.46,-1.4883 -4.21,-3.6797 -5.58,-5.9805 -6.95,-11.8789 -1.64,-28.5195 10.62,-34.6484 4.89,-2.4219 10.75,-2.8516 16.06,-1.7617 2.89,0.8203 5.58,1.9219 8.05,3.6797 1.52,0.9726 3,2.3398 4.21,3.6718 6.29,7.1094 7.11,16.9102 4.93,25.8985 -1.1,3.8203 -3.29,7.7695 -6.68,9.8008 -1.49,0.9804 -3.56,1.6406 -5.32,1.3711 -0.93,-0.1211 -1.64,-1.211 -1.91,-2.0313 -0.82,-2.1914 -0.39,-4.5 1.25,-6.1406 2.97,-3.1211 8.16,-3.668 10.08,-8.0391 2.19,-4.7695 0,-10.082 -3.95,-13.2109 -4.92,-3.9375 -11.44,-5.3086 -17.58,-5.0391 -6.01,0.2813 -12.26,1.918 -16.79,6.25 -5.32,5.1992 -3.4,14.0703 2.61,17.7383 z m 12,0.3906 c -0.28,-0.5508 -0.82,-1.0898 -1.25,-1.4804 -2.7,-2.7383 -6.68,-2.1875 -8.83,1.0898 1.33,0.6602 2.58,1.4805 4.22,1.9102 1.91,0.2812 4.06,-0.6993 5.86,-1.5196 z"
         style="fill:#000000;fill-opacity:1;fill-rule:nonzero;stroke:none"
         id="path226"
         inkscape:connector-curvature="0" /><path
         d="m 2134.84,84.1094 0,-9.5313 13.21,0 0,-0.1093 c -0.82,-0.1602 -1.64,-0.5469 -2.46,-1.0977 -2.15,-0.9805 -4.22,-2.4609 -5.86,-4.3711 -1.61,-1.7617 -3.13,-3.6797 -3.79,-5.9805 -2.46,-6.6797 -0.71,-16.3711 5.43,-20.4687 7.11,-4.7617 16.36,2.4609 17.3,9.9609 l 0.16,0 c 0.12,-1.4804 0.94,-3.1211 1.76,-4.332 3,-5.3594 9.96,-9.5703 15.66,-5.6289 5.86,4.0976 7.93,13.6289 5.59,20.1992 -1.49,3.7891 -4.22,7.0703 -7.62,9.25 -1.37,0.9414 -3.01,2.0391 -4.65,2.4688 l 0,0.1093 2.07,0 0,9.5313 -36.8,0 z m 23.99,-24.918 c -1.25,-2.3008 -2.19,-4.3711 -4.49,-5.7031 -1.1,-0.8164 -2.35,-1.3672 -3.56,-1.6367 -1.09,-0.1602 -2.3,-0.2813 -3.28,-0.1602 -5.7,0.8203 -8.05,7.7774 -6.52,12.6992 0.54,1.4805 1.48,2.9688 2.57,4.2188 5.86,6.6797 17.31,7.5 25.08,3.9414 6.02,-2.7305 10.08,-8.9805 7.62,-15.5508 -0.94,-2.1797 -2.58,-4.3281 -4.88,-5.0312 -3.67,-1.2188 -8.21,0.8203 -10.63,3.6718 -0.82,0.9688 -1.79,2.3399 -1.91,3.5508 z"
         style="fill:#000000;fill-opacity:1;fill-rule:nonzero;stroke:none"
         id="path228"
         inkscape:connector-curvature="0" /><path
         d="m 2172.58,97.6289 c 0.82,-0.1601 1.64,-0.2695 2.46,-0.6992 4.37,-2.1484 3.94,-8.0078 0.82,-11.0195 -2.85,-2.7305 -7.89,-1.8008 -11.45,-1.8008 l 0,-9.5313 c 5.47,0 10.63,-0.2695 14.85,3.9532 5.86,5.8593 5.04,18.1171 -3.4,21.289 -3.67,1.3597 -8.98,0.3907 -11.02,-3.1719 -2.07,-3.3984 0,-8.1601 4.07,-8.5468 3.28,-0.4297 6.01,2.5781 5.58,5.9687 -0.11,1.3711 -1.09,2.4688 -1.91,3.5586 z"
         style="fill:#000000;fill-opacity:1;fill-rule:nonzero;stroke:none"
         id="path230"
         inkscape:connector-curvature="0" /><path
         d="m 2214.53,41.0703 0,0.1485 c -2.07,0.5507 -4.1,1.6015 -6.01,2.582 -8.72,4.6094 -17.04,13.0898 -15.82,23.5586 0.27,1.6406 0.7,3.4297 1.52,4.9219 0.82,1.6406 1.91,2.8476 3.12,4.2187 0,-5.3203 3.28,-13.3594 9.81,-11.1797 0.97,0.4297 1.64,0.8203 2.34,1.3711 5.59,5.0391 3.67,15.8203 -3.71,17.9688 -1.33,0.4296 -2.85,0.4296 -4.22,0.2695 -1.36,-0.1094 -2.58,-0.5391 -3.79,-1.2109 -9.29,-5.4688 -9.02,-18.5079 -6.95,-27.6485 0.55,-2.0312 1.21,-4.1015 2.03,-6.0195 0.94,-2.3008 2.19,-4.4922 3.67,-6.6797 0.55,-0.6602 0.98,-1.7617 1.8,-2.1523 0.27,-0.2696 0.78,-0.1485 1.21,-0.1485 l 15,0 z m -14.33,36.3985 c 2.61,1.332 5.31,1.2109 7.65,-0.4297 0.55,-0.2696 1.92,-1.0899 1.92,-1.6407 0,-0.3867 -0.71,-0.9296 -0.98,-1.207 -0.94,-1.0898 -2.85,-1.9101 -4.34,-1.3711 -1.79,0.5508 -3.43,3.0078 -4.25,4.6485 z"
         style="fill:#000000;fill-opacity:1;fill-rule:nonzero;stroke:none"
         id="path232"
         inkscape:connector-curvature="0" /><path
         d="m 2244.45,85.0898 c 10.9,0 20.55,-8.4414 21.92,-19.3398 0.43,-3.7109 0.15,-7.6484 -2.19,-10.7812 -1.21,-1.4805 -2.7,-2.5782 -4.49,-3.1172 -5.43,-1.5313 -12.66,2.9687 -14.14,8.2773 l -0.16,0 c -1.91,-5.8594 -7.89,-8.8281 -13.75,-8.4375 -2.62,0.1602 -6.84,1.3672 -7.23,4.3789 -0.27,2.1797 1.76,4.0586 3.52,4.7578 3.28,1.211 6.95,-0.8164 6.95,-4.4883 0.55,0 1.53,-0.1601 1.92,0.1211 0.27,0.1485 0.43,0.8204 0.54,1.0899 0.43,1.3711 0.71,2.4609 0.16,3.8281 -0.7,2.1914 -2.73,3.6719 -4.92,4.3711 -4.88,1.3281 -9.81,-2.1797 -10.74,-6.9492 -1.64,-7.5 3.51,-18.6719 12.38,-17.582 0.94,0 1.91,0.2812 2.85,0.6718 1.91,0.8203 3.55,2.1797 4.92,3.668 1.49,1.9102 3.13,4.4922 3.4,6.9531 1.49,-3.6719 2.85,-6.7929 6.13,-9.4101 3.56,-2.4219 8.44,-2.8516 12.15,-0.3907 1.88,1.3594 3.4,3.3985 4.34,5.5782 1.52,3.0117 1.52,6.4101 1.52,9.6914 -0.15,6.6797 -0.98,13.4804 -4.37,19.4883 -3.68,6.6406 -9.42,12 -16.92,14.1406 -2.3,0.7109 -4.76,0.9804 -7.22,1.25 -0.82,0 -1.76,-0.1485 -2.58,-0.2696 -3.95,-0.4296 -9.81,-2.4609 -9.14,-7.5 0,-0.5507 0.15,-1.0898 0.27,-1.7617 0.43,-0.8164 0.82,-1.6367 1.52,-2.3398 1.92,-2.5781 6.41,-4.7695 9.65,-3.1289 2.62,1.2109 3.71,4.3789 3.71,7.2304 z m -3.83,0 c 0,-0.6992 0,-1.371 -0.27,-2.0312 -0.94,-1.7969 -3.94,-2.6172 -5.47,-0.9805 -0.93,1.1016 0,2.5821 1.25,2.8516 0.55,0.1601 1.1,0.1601 1.64,0.1601 l 2.85,0 z"
         style="fill:#000000;fill-opacity:1;fill-rule:nonzero;stroke:none"
         id="path234"
         inkscape:connector-curvature="0" /><path
         d="m 87.6602,642.867 0,140 2434.2898,0 0,-140"
         style="fill:none;stroke:#000000;stroke-width:11;stroke-linecap:butt;stroke-linejoin:miter;stroke-miterlimit:4;stroke-dasharray:none;stroke-opacity:1"
         id="path258"
         inkscape:connector-curvature="0" /><path
         d="m 1227.66,931.457 0,-151.441"
         style="fill:none;stroke:#000000;stroke-width:11;stroke-linecap:butt;stroke-linejoin:miter;stroke-miterlimit:4;stroke-dasharray:none;stroke-opacity:1"
         id="path260"
         inkscape:connector-curvature="0" /><path
         d="m 673.359,787.438 0,-151.411"
         style="fill:none;stroke:#000000;stroke-width:11;stroke-linecap:butt;stroke-linejoin:miter;stroke-miterlimit:4;stroke-dasharray:none;stroke-opacity:1"
         id="path262"
         inkscape:connector-curvature="0" /><path
         d="m 1308.79,790.328 0,-183.094"
         style="fill:none;stroke:#000000;stroke-width:11;stroke-linecap:butt;stroke-linejoin:miter;stroke-miterlimit:4;stroke-dasharray:none;stroke-opacity:1"
         id="path264"
         inkscape:connector-curvature="0" /><path
         d="m 1875.66,787.438 0,-151.411"
         style="fill:none;stroke:#000000;stroke-width:11;stroke-linecap:butt;stroke-linejoin:miter;stroke-miterlimit:4;stroke-dasharray:none;stroke-opacity:1"
         id="path266"
         inkscape:connector-curvature="0" /><path
         d="m 552.34,130.875 0,140 1525.12,0 0,-140"
         style="fill:none;stroke:#000000;stroke-width:11;stroke-linecap:butt;stroke-linejoin:miter;stroke-miterlimit:4;stroke-dasharray:none;stroke-opacity:1"
         id="path268"
         inkscape:connector-curvature="0" /><path
         d="m 1315.31,371.457 0,-240.312"
         style="fill:none;stroke:#000000;stroke-width:11;stroke-linecap:butt;stroke-linejoin:miter;stroke-miterlimit:4;stroke-dasharray:none;stroke-opacity:1"
         id="path270"
         inkscape:connector-curvature="0" /><text
         xml:space="preserve"
         style="font-style:normal;font-weight:normal;font-size:80px;line-height:125%;font-family:sans-serif;letter-spacing:0px;word-spacing:0px;fill:#000000;fill-opacity:1;stroke:none;stroke-width:1px;stroke-linecap:butt;stroke-linejoin:miter;stroke-opacity:1"
         x="2331.7104"
         y="-550.82709"
         id="text3617"
         sodipodi:linespacing="125%"
         transform="scale(1,-1)"><tspan
           sodipodi:role="line"
           id="tspan3619"
           x="2331.7104"
           y="-550.82709"><tspan
             style="font-style:normal;font-variant:normal;font-weight:bold;font-stretch:normal;font-family:sans-serif;-inkscape-font-specification:'sans-serif Bold'"
             id="tspan3621"> </tspan></tspan></text>
<text
         xml:space="preserve"
         style="font-style:normal;font-weight:normal;font-size:80px;line-height:125%;font-family:sans-serif;letter-spacing:0px;word-spacing:0px;fill:#000000;fill-opacity:1;stroke:none;stroke-width:1px;stroke-linecap:butt;stroke-linejoin:miter;stroke-opacity:1"
         x="394.51126"
         y="-409.3985"
         id="text3458"
         sodipodi:linespacing="125%"
         transform="scale(1,-1)"><tspan
           sodipodi:role="line"
           id="tspan3460"
           x="394.51126"
           y="-409.3985"><tspan
             style="font-style:normal;font-variant:normal;font-weight:bold;font-stretch:normal;font-family:sans-serif;-inkscape-font-specification:'sans-serif Bold'"
             id="tspan3462">  : </tspan></tspan></text>
<text
         xml:space="preserve"
         style="font-style:normal;font-weight:normal;font-size:80px;line-height:125%;font-family:sans-serif;letter-spacing:0px;word-spacing:0px;fill:#000000;fill-opacity:1;stroke:none;stroke-width:1px;stroke-linecap:butt;stroke-linejoin:miter;stroke-opacity:1"
         x="1097.9324"
         y="-409.39847"
         id="text3464"
         sodipodi:linespacing="125%"
         transform="scale(1,-1)"><tspan
           sodipodi:role="line"
           id="tspan3466"
           x="1097.9324"
           y="-409.39847"><tspan
             style="font-style:normal;font-variant:normal;font-weight:bold;font-stretch:normal;font-family:sans-serif;-inkscape-font-specification:'sans-serif Bold'"
             id="tspan3468">  : </tspan></tspan></text>
<text
         xml:space="preserve"
         style="font-style:normal;font-weight:normal;font-size:80px;line-height:125%;font-family:sans-serif;letter-spacing:0px;word-spacing:0px;fill:#000000;fill-opacity:1;stroke:none;stroke-width:1px;stroke-linecap:butt;stroke-linejoin:miter;stroke-opacity:1"
         x="1645.0375"
         y="-424.28571"
         id="text3470"
         sodipodi:linespacing="125%"
         transform="scale(1,-1)"><tspan
           sodipodi:role="line"
           id="tspan3472"
           x="1645.0375"
           y="-424.28571"
           style="font-style:normal;font-variant:normal;font-weight:bold;font-stretch:normal;font-family:sans-serif;-inkscape-font-specification:'sans-serif Bold'"> :  </tspan></text>
<text
         xml:space="preserve"
         style="font-style:normal;font-weight:normal;font-size:80px;line-height:125%;font-family:sans-serif;letter-spacing:0px;word-spacing:0px;fill:#000000;fill-opacity:1;stroke:none;stroke-width:1px;stroke-linecap:butt;stroke-linejoin:miter;stroke-opacity:1"
         x="2262.8572"
         y="-431.72931"
         id="text3474"
         sodipodi:linespacing="125%"
         transform="scale(1,-1)"><tspan
           sodipodi:role="line"
           id="tspan3476"
           x="2262.8572"
           y="-431.72931"
           style="font-style:normal;font-variant:normal;font-weight:bold;font-stretch:normal;font-family:sans-serif;-inkscape-font-specification:'sans-serif Bold'"> :   </tspan></text>
</g></g></svg>