<?xml version="1.0" encoding="UTF-8" standalone="no"?>
<!-- Created with Inkscape (http://www.inkscape.org/) -->

<svg
   xmlns:ns0="http://www.iki.fi/pav/software/textext/"
   xmlns:dc="http://purl.org/dc/elements/1.1/"
   xmlns:cc="http://creativecommons.org/ns#"
   xmlns:rdf="http://www.w3.org/1999/02/22-rdf-syntax-ns#"
   xmlns:svg="http://www.w3.org/2000/svg"
   xmlns="http://www.w3.org/2000/svg"
   xmlns:xlink="http://www.w3.org/1999/xlink"
   xmlns:sodipodi="http://sodipodi.sourceforge.net/DTD/sodipodi-0.dtd"
   xmlns:inkscape="http://www.inkscape.org/namespaces/inkscape"
   width="744.09448"
   height="1052.3622"
   id="svg2"
   version="1.1"
   inkscape:version="0.91 r13725"
   sodipodi:docname="fig5.1.svg">
  <sodipodi:namedview
     id="base"
     pagecolor="#ffffff"
     bordercolor="#666666"
     borderopacity="1.0"
     inkscape:pageopacity="0.0"
     inkscape:pageshadow="2"
     inkscape:zoom="1.1938702"
     inkscape:cx="559.0213"
     inkscape:cy="966.45946"
     inkscape:document-units="px"
     inkscape:current-layer="textext-37351eda-29"
     showgrid="false"
     inkscape:window-width="1024"
     inkscape:window-height="744"
     inkscape:window-x="0"
     inkscape:window-y="24"
     inkscape:window-maximized="1"
     units="cm">
    <inkscape:grid
       id="grid3303"
       type="xygrid"
       empspacing="5"
       visible="true"
       enabled="true"
       snapvisiblegridlinesonly="true" />
  </sodipodi:namedview>
  <defs
     id="defs4">
    <inkscape:path-effect
       effect="spiro"
       id="path-effect3163"
       is_visible="true" />
    <inkscape:path-effect
       effect="spiro"
       id="path-effect3719"
       is_visible="true" />
    <inkscape:path-effect
       is_visible="true"
       id="path-effect3313"
       effect="spiro" />
    <inkscape:path-effect
       is_visible="true"
       id="path-effect3307"
       effect="spiro" />
    <inkscape:perspective
       id="perspective10"
       inkscape:persp3d-origin="372.04724 : 350.78739 : 1"
       inkscape:vp_z="744.09448 : 526.18109 : 1"
       inkscape:vp_y="0 : 1000 : 0"
       inkscape:vp_x="0 : 526.18109 : 1"
       sodipodi:type="inkscape:persp3d" />
  </defs>
  <metadata
     id="metadata7">
    <rdf:RDF>
      <cc:Work
         rdf:about="">
        <dc:format>image/svg+xml</dc:format>
        <dc:type
           rdf:resource="http://purl.org/dc/dcmitype/StillImage" />
        <dc:title></dc:title>
      </cc:Work>
    </rdf:RDF>
  </metadata>
  <g
     id="layer1"
     inkscape:groupmode="layer"
     inkscape:label="Layer 1"
     transform="translate(0,0.00130762)">
    <g
       ns0:text="{\\kan apApxjipaMta (goVviMdarAjayayx)}\\\\\n{\\kan apApxjayayx}\\\\\n{\\kan avAvxjamamx}\\\\\n{\\kan shiMgAramamx}\\\\\n{\\kan sose: amamxNayxmamx}"
       ns0:preamble="/home/sriranga/Desktop/thesis_figures/texfile.tex"
       transform="matrix(1.2,0,0,1.2,3.0304576,7.8286822)"
       id="g2897">
      <defs
         id="defs2899">
        <g
           id="g2901">
          <symbol
             overflow="visible"
             id="textext-37351eda-0"
             style="overflow:visible">
            <path
               style="stroke:none"
               d=""
               id="path2904" />
          </symbol>
          <symbol
             overflow="visible"
             id="textext-37351eda-1"
             style="overflow:visible">
            <path
               style="stroke:none"
               d="m 1.109375,-4.9375 c -0.265625,0.03125 -0.5,0.203125 -0.703125,0.515625 C 0.1875,-4.109375 0.0625,-3.765625 0.015625,-3.3125 0,-3.15625 0,-2.734375 0.015625,-2.5625 0.078125,-2.0625 0.234375,-1.609375 0.5,-1.21875 0.90625,-0.625 1.453125,-0.234375 2.078125,-0.0625 2.46875,0.03125 2.90625,0.046875 3.3125,-0.046875 3.96875,-0.171875 4.578125,-0.625 5.015625,-1.265625 5.359375,-1.796875 5.546875,-2.46875 5.5,-3.15625 5.46875,-3.5625 5.390625,-3.875 5.25,-4.1875 5.015625,-4.640625 4.71875,-4.890625 4.375,-4.9375 4.0625,-4.96875 3.703125,-4.859375 3.53125,-4.671875 c -0.109375,0.109375 -0.125,0.21875 -0.109375,0.390625 0.03125,0.390625 0.234375,0.71875 0.5625,0.9375 l 0.0625,0.03125 -0.921875,0.015625 -0.90625,0 0,0.390625 0,0.375 1.171875,0 1.171875,0 0,-0.375 0,-0.375 -0.03125,0 c -0.15625,0 -0.421875,-0.171875 -0.5625,-0.359375 C 3.859375,-3.78125 3.8125,-3.921875 3.796875,-4.09375 c 0,-0.109375 0,-0.109375 0.015625,-0.15625 0.0625,-0.109375 0.171875,-0.1875 0.296875,-0.21875 0.09375,-0.03125 0.265625,-0.015625 0.359375,0 0.28125,0.078125 0.5,0.296875 0.65625,0.6875 0.171875,0.4375 0.203125,0.984375 0.0625,1.421875 C 5.09375,-2.046875 4.921875,-1.78125 4.671875,-1.53125 4.1875,-1.046875 3.578125,-0.78125 2.84375,-0.75 2.0625,-0.734375 1.390625,-0.984375 0.875,-1.46875 0.59375,-1.71875 0.421875,-2 0.3125,-2.3125 0.171875,-2.734375 0.1875,-3.28125 0.34375,-3.671875 0.375,-3.71875 0.40625,-3.765625 0.40625,-3.78125 L 0.4375,-3.828125 0.453125,-3.71875 c 0.03125,0.265625 0.125,0.5 0.296875,0.671875 0.21875,0.21875 0.53125,0.25 0.78125,0.109375 C 1.671875,-3.015625 1.8125,-3.203125 1.890625,-3.375 1.9375,-3.515625 1.96875,-3.625 1.96875,-3.796875 1.984375,-4.109375 1.921875,-4.359375 1.78125,-4.59375 1.609375,-4.84375 1.375,-4.96875 1.109375,-4.9375 z m 0.25,0.46875 c 0.15625,0.015625 0.296875,0.125 0.359375,0.265625 0.03125,0.0625 0.03125,0.09375 0.03125,0.171875 0,0.09375 -0.015625,0.1875 -0.0625,0.25 -0.03125,0.0625 -0.109375,0.140625 -0.171875,0.1875 -0.1875,0.109375 -0.453125,0.109375 -0.625,-0.015625 -0.21875,-0.140625 -0.296875,-0.375 -0.1875,-0.609375 0.0625,-0.125 0.203125,-0.234375 0.34375,-0.25 0.0625,-0.03125 0.234375,-0.03125 0.3125,0 z m 0,0"
               id="path2907" />
          </symbol>
          <symbol
             overflow="visible"
             id="textext-37351eda-2"
             style="overflow:visible">
            <path
               style="stroke:none"
               d="m 0,-4.5625 0,0.390625 2.171875,0 2.171875,0 0,-0.390625 0,-0.375 -2.171875,0 -2.171875,0 0,0.375 z m 2.578125,0.546875 c -0.15625,0.0625 -0.28125,0.171875 -0.328125,0.34375 -0.03125,0.078125 -0.03125,0.234375 0,0.328125 0.03125,0.125 0.125,0.25 0.265625,0.296875 0.25,0.140625 0.578125,0.03125 0.703125,-0.25 C 3.265625,-3.375 3.265625,-3.375 3.265625,-3.484375 3.265625,-3.65625 3.234375,-3.765625 3.125,-3.890625 3,-4 2.90625,-4.03125 2.734375,-4.03125 c -0.0625,0 -0.109375,0 -0.15625,0.015625 z M 4.78125,-3.6875 C 4.75,-3.65625 4.75,-3.640625 4.75,-3.578125 c 0,0.109375 0.03125,0.1875 0.078125,0.28125 0.25,0.484375 0.328125,0.6875 0.390625,0.96875 0.09375,0.375 0.046875,0.71875 -0.109375,1 -0.125,0.21875 -0.34375,0.40625 -0.546875,0.484375 -0.21875,0.109375 -0.5,0.109375 -0.78125,0.015625 C 3.40625,-0.953125 3.046875,-1.3125 2.859375,-1.78125 2.828125,-1.875 2.75,-2.109375 2.75,-2.15625 2.75,-2.171875 2.734375,-2.140625 2.71875,-2.078125 2.65625,-1.75 2.5,-1.46875 2.296875,-1.234375 1.984375,-0.875 1.578125,-0.71875 1.171875,-0.765625 0.734375,-0.8125 0.34375,-1.125 0.25,-1.53125 0.21875,-1.640625 0.21875,-1.859375 0.25,-1.96875 0.3125,-2.234375 0.515625,-2.4375 0.734375,-2.5 1,-2.5625 1.28125,-2.4375 1.390625,-2.21875 c 0.03125,0.078125 0.03125,0.078125 0.03125,0.1875 C 1.4375,-1.84375 1.390625,-1.6875 1.3125,-1.609375 1.25,-1.5625 1.21875,-1.546875 1.140625,-1.53125 l -0.046875,0 0,0.09375 0,0.078125 0.03125,0 c 0.046875,0 0.171875,-0.03125 0.234375,-0.046875 C 1.4375,-1.4375 1.53125,-1.5 1.609375,-1.578125 1.75,-1.734375 1.8125,-1.90625 1.8125,-2.125 1.8125,-2.28125 1.78125,-2.40625 1.671875,-2.53125 1.5625,-2.65625 1.390625,-2.765625 1.21875,-2.8125 1.125,-2.84375 0.921875,-2.84375 0.828125,-2.828125 0.421875,-2.734375 0.125,-2.375 0.015625,-1.90625 0,-1.765625 0,-1.46875 0.03125,-1.296875 c 0.0625,0.390625 0.234375,0.703125 0.484375,0.96875 0.359375,0.359375 0.859375,0.4375 1.3125,0.21875 0.40625,-0.1875 0.71875,-0.59375 0.890625,-1.078125 l 0.015625,-0.125 0.0625,0.140625 c 0.09375,0.296875 0.21875,0.53125 0.4375,0.75 0.171875,0.171875 0.375,0.3125 0.5625,0.375 0.21875,0.0625 0.484375,0.078125 0.671875,0 0.390625,-0.109375 0.75,-0.515625 0.921875,-1 C 5.484375,-1.34375 5.5,-1.640625 5.484375,-2.1875 c -0.03125,-0.6875 -0.09375,-1.015625 -0.25,-1.265625 -0.125,-0.171875 -0.25,-0.265625 -0.375,-0.265625 -0.0625,0 -0.0625,0 -0.078125,0.03125 z m 0,0"
               id="path2910" />
          </symbol>
          <symbol
             overflow="visible"
             id="textext-37351eda-3"
             style="overflow:visible">
            <path
               style="stroke:none"
               d="m -2.65625,-4.5625 0,0.390625 1.71875,0 c 1.859375,0 1.828125,0 2.109375,0.0625 0.390625,0.078125 0.796875,0.296875 1.0625,0.5625 0.1875,0.203125 0.3125,0.40625 0.375,0.6875 0.03125,0.140625 0.046875,0.453125 0.015625,0.65625 -0.078125,0.59375 -0.390625,1.109375 -0.828125,1.3125 -0.1875,0.078125 -0.328125,0.109375 -0.5625,0.109375 -0.25,0 -0.421875,-0.03125 -0.609375,-0.109375 C 0.46875,-0.96875 0.296875,-1.109375 0.171875,-1.25 0.125,-1.328125 0.0625,-1.46875 0.03125,-1.5625 c -0.078125,-0.265625 -0.015625,-0.671875 0.140625,-0.875 0.046875,-0.078125 0.109375,-0.140625 0.09375,-0.125 0,0.015625 0,0.0625 -0.015625,0.09375 -0.046875,0.203125 0.0625,0.390625 0.265625,0.484375 0.265625,0.140625 0.515625,0.0625 0.625,-0.171875 0.0625,-0.109375 0.078125,-0.1875 0.078125,-0.3125 0,-0.15625 -0.046875,-0.25 -0.15625,-0.359375 C 0.921875,-2.984375 0.671875,-3.046875 0.453125,-2.984375 0.125,-2.90625 -0.125,-2.53125 -0.1875,-2 -0.25,-1.546875 -0.203125,-1.109375 -0.03125,-0.78125 0.21875,-0.296875 0.625,-0.03125 1.140625,0 1.375,0.015625 1.578125,-0.03125 1.78125,-0.125 2.03125,-0.265625 2.234375,-0.453125 2.4375,-0.75 2.6875,-1.171875 2.84375,-1.640625 2.859375,-2.140625 2.890625,-2.90625 2.703125,-3.53125 2.296875,-4.09375 2.21875,-4.1875 2.015625,-4.390625 1.90625,-4.46875 1.671875,-4.671875 1.390625,-4.8125 1.109375,-4.875 0.84375,-4.9375 0.921875,-4.9375 -0.953125,-4.9375 l -1.703125,0 0,0.375 z m 0,0"
               id="path2913" />
          </symbol>
          <symbol
             overflow="visible"
             id="textext-37351eda-4"
             style="overflow:visible">
            <path
               style="stroke:none"
               d="m -0.421875,0.90625 c -0.03125,0.03125 -0.03125,0.109375 -0.03125,0.1875 0.03125,0.0625 0.03125,0.078125 0.140625,0.28125 C 0,1.984375 0.015625,2.46875 -0.296875,2.828125 -0.453125,3.015625 -0.640625,3.09375 -0.875,3.09375 c -0.0625,0 -0.125,0 -0.171875,0 -0.3125,-0.0625 -0.625,-0.296875 -0.78125,-0.65625 C -1.875,2.375 -1.9375,2.171875 -1.953125,2.109375 -1.953125,2.078125 -1.96875,2.0625 -1.96875,2.0625 L -1.984375,2.125 c -0.078125,0.375 -0.34375,0.71875 -0.65625,0.890625 -0.125,0.0625 -0.203125,0.078125 -0.390625,0.078125 -0.140625,0 -0.171875,0 -0.234375,-0.015625 -0.421875,-0.125 -0.65625,-0.5 -0.5625,-0.875 0.03125,-0.109375 0.0625,-0.1875 0.15625,-0.28125 C -3.515625,1.78125 -3.34375,1.75 -3.15625,1.84375 c 0.078125,0.046875 0.171875,0.125 0.1875,0.203125 0.03125,0.125 0,0.359375 -0.078125,0.421875 C -3.078125,2.5 -3.125,2.515625 -3.15625,2.515625 c -0.03125,0 -0.03125,0 -0.03125,0.0625 l 0,0.078125 0.03125,0 C -3,2.65625 -2.8125,2.515625 -2.734375,2.359375 -2.640625,2.1875 -2.640625,2 -2.71875,1.859375 -2.765625,1.78125 -2.859375,1.671875 -2.9375,1.640625 -3.046875,1.578125 -3.140625,1.5625 -3.265625,1.5625 -3.484375,1.5625 -3.59375,1.609375 -3.734375,1.75 -3.84375,1.859375 -3.921875,1.96875 -3.96875,2.109375 -4,2.234375 -4.015625,2.34375 -4.015625,2.515625 -4,2.875 -3.875,3.1875 -3.65625,3.40625 c 0.203125,0.203125 0.390625,0.28125 0.671875,0.265625 0.25,0 0.4375,-0.09375 0.65625,-0.296875 C -2.171875,3.203125 -2.0625,3.015625 -2,2.796875 -1.984375,2.75 -1.96875,2.71875 -1.96875,2.71875 c 0,0 0.03125,0.015625 0.03125,0.0625 0.109375,0.34375 0.375,0.671875 0.65625,0.8125 0.140625,0.0625 0.21875,0.078125 0.390625,0.078125 0.140625,0 0.15625,0 0.25,-0.015625 0.3125,-0.125 0.609375,-0.5 0.6875,-0.921875 C 0.078125,2.609375 0.09375,2.5 0.09375,2.234375 0.09375,1.625 0.03125,1.28125 -0.09375,1.09375 -0.125,1.046875 -0.15625,1 -0.1875,0.984375 -0.265625,0.890625 -0.390625,0.875 -0.421875,0.90625 z m 0,0"
               id="path2916" />
          </symbol>
          <symbol
             overflow="visible"
             id="textext-37351eda-5"
             style="overflow:visible">
            <path
               style="stroke:none"
               d="m 3.875,-6.03125 c -0.3125,0.046875 -0.5625,0.3125 -0.609375,0.671875 -0.03125,0.390625 0.1875,0.75 0.546875,0.84375 C 3.890625,-4.5 4.0625,-4.5 4.140625,-4.53125 4.3125,-4.578125 4.4375,-4.703125 4.5,-4.859375 c 0.015625,-0.0625 0.015625,-0.078125 0.015625,-0.21875 0,-0.234375 -0.046875,-0.46875 -0.125,-0.578125 C 4.375,-5.671875 4.359375,-5.6875 4.375,-5.6875 c 0.015625,0 0.15625,0.078125 0.21875,0.125 0.15625,0.125 0.296875,0.34375 0.34375,0.546875 0.03125,0.125 0.03125,0.1875 0.015625,0.296875 -0.03125,0.25 -0.125,0.4375 -0.3125,0.625 -0.21875,0.21875 -0.5,0.328125 -0.90625,0.359375 C 3.46875,-3.71875 3.265625,-3.765625 2.90625,-3.921875 2.546875,-4.09375 1.953125,-4.453125 1.671875,-4.6875 c -0.1875,-0.171875 -0.453125,-0.25 -0.765625,-0.25 -0.265625,0 -0.4375,0.0625 -0.59375,0.21875 -0.171875,0.15625 -0.265625,0.375 -0.296875,0.625 -0.03125,0.25 0.015625,0.421875 0.171875,0.578125 0.046875,0.0625 0.109375,0.109375 0.140625,0.140625 0.078125,0.0625 0.234375,0.140625 0.34375,0.171875 L 0.765625,-3.1875 0.8125,-3.234375 0.875,-3.296875 0.796875,-3.328125 C 0.625,-3.40625 0.515625,-3.484375 0.46875,-3.59375 0.453125,-3.65625 0.453125,-3.671875 0.453125,-3.75 c 0,-0.125 0.015625,-0.1875 0.078125,-0.28125 0.078125,-0.109375 0.1875,-0.203125 0.3125,-0.234375 C 0.921875,-4.28125 1.0625,-4.28125 1.15625,-4.25 c 0.109375,0.015625 0.171875,0.046875 0.234375,0.125 0.09375,0.109375 0.140625,0.234375 0.15625,0.4375 0,0.15625 -0.015625,0.234375 -0.09375,0.375 C 1.375,-3.125 1.3125,-3.046875 0.84375,-2.578125 c -0.46875,0.46875 -0.515625,0.53125 -0.625,0.71875 -0.21875,0.375 -0.25,0.796875 -0.0625,1.140625 0.125,0.25 0.359375,0.46875 0.625,0.59375 0.21875,0.109375 0.5,0.140625 0.734375,0.109375 0.53125,-0.078125 1.015625,-0.546875 1.21875,-1.1875 L 2.765625,-1.3125 2.8125,-1.1875 c 0.09375,0.3125 0.234375,0.546875 0.421875,0.75 C 3.515625,-0.15625 3.8125,-0.015625 4.140625,0 4.5,0.015625 4.796875,-0.109375 5.046875,-0.375 5.25,-0.5625 5.390625,-0.8125 5.4375,-1.09375 c 0.015625,-0.109375 0.015625,-0.375 0,-0.46875 C 5.40625,-1.65625 5.375,-1.78125 5.328125,-1.859375 5.203125,-2.078125 4.96875,-2.28125 4.71875,-2.359375 4.65625,-2.375 4.515625,-2.40625 4.453125,-2.40625 l -0.03125,0 0,0.109375 0,0.109375 0.03125,0 c 0.078125,0 0.1875,0.03125 0.265625,0.0625 0.21875,0.09375 0.359375,0.3125 0.390625,0.5625 0.03125,0.15625 0,0.296875 -0.09375,0.421875 C 4.78125,-0.8125 4.265625,-0.671875 3.8125,-0.84375 3.421875,-0.96875 3.0625,-1.328125 2.875,-1.78125 2.84375,-1.890625 2.765625,-2.125 2.765625,-2.171875 c 0,-0.015625 0,0.015625 -0.03125,0.078125 -0.15625,0.703125 -0.640625,1.21875 -1.21875,1.3125 -0.21875,0.03125 -0.40625,0 -0.5625,-0.09375 C 0.734375,-1 0.578125,-1.1875 0.515625,-1.390625 0.484375,-1.46875 0.46875,-1.609375 0.46875,-1.6875 0.484375,-1.796875 0.5625,-1.953125 0.703125,-2.109375 0.75,-2.171875 1.078125,-2.46875 1.46875,-2.828125 1.609375,-2.953125 1.6875,-3.0625 1.78125,-3.1875 c 0.109375,-0.15625 0.1875,-0.359375 0.203125,-0.515625 0,-0.078125 0,-0.09375 -0.046875,-0.265625 C 1.90625,-4.0625 1.890625,-4.140625 1.890625,-4.15625 l 0.078125,0.078125 c 0.09375,0.125 0.359375,0.375 0.5,0.484375 0.59375,0.484375 1.21875,0.640625 1.8125,0.4375 0.359375,-0.109375 0.65625,-0.375 0.828125,-0.734375 C 5.21875,-4.125 5.28125,-4.40625 5.28125,-4.71875 5.28125,-5.109375 5.1875,-5.359375 4.921875,-5.625 4.75,-5.796875 4.578125,-5.90625 4.375,-5.96875 4.234375,-6.015625 4,-6.046875 3.875,-6.03125 z m 0.09375,0.34375 c 0.046875,0.015625 0.109375,0.0625 0.140625,0.125 0.0625,0.078125 0.078125,0.15625 0.078125,0.25 0,0.234375 -0.125,0.375 -0.3125,0.375 -0.046875,0 -0.09375,-0.015625 -0.109375,-0.015625 C 3.671875,-5 3.59375,-5.078125 3.5625,-5.1875 3.53125,-5.25 3.53125,-5.375 3.546875,-5.4375 3.5625,-5.515625 3.59375,-5.578125 3.640625,-5.625 3.703125,-5.6875 3.84375,-5.71875 3.96875,-5.6875 z m 0,0"
               id="path2919" />
          </symbol>
          <symbol
             overflow="visible"
             id="textext-37351eda-6"
             style="overflow:visible">
            <path
               style="stroke:none"
               d="m -1.671875,-6.4375 -0.046875,0.0625 0.046875,0.046875 c 0.03125,0.015625 0.09375,0.0625 0.140625,0.109375 0.109375,0.125 0.1875,0.28125 0.203125,0.515625 0,0.234375 -0.0625,0.375 -0.203125,0.53125 -0.078125,0.078125 -0.109375,0.09375 -0.1875,0.140625 -0.171875,0.078125 -0.1875,0.078125 -0.5625,0.09375 l -0.328125,0 0,0.375 0,0.390625 0.234375,0 c 0.25,0 0.390625,0 0.5,-0.03125 C -1.453125,-4.3125 -1.125,-4.6875 -1.03125,-5.21875 -1,-5.359375 -0.984375,-5.609375 -1,-5.71875 c -0.0625,-0.34375 -0.21875,-0.578125 -0.5,-0.75 -0.109375,-0.0625 -0.109375,-0.0625 -0.171875,0.03125 z m 0,0"
               id="path2922" />
          </symbol>
          <symbol
             overflow="visible"
             id="textext-37351eda-7"
             style="overflow:visible">
            <path
               style="stroke:none"
               d="M 1.875,-4.96875 C 1.53125,-4.921875 1.203125,-4.78125 0.9375,-4.5625 0.765625,-4.4375 0.5625,-4.203125 0.421875,-4 0.125,-3.546875 -0.015625,-2.984375 0,-2.375 c 0.03125,0.71875 0.28125,1.3125 0.75,1.796875 0.203125,0.1875 0.359375,0.3125 0.578125,0.40625 0.515625,0.25 1.1875,0.21875 1.6875,-0.078125 0.359375,-0.21875 0.671875,-0.578125 0.875,-1 0.21875,-0.421875 0.3125,-0.90625 0.28125,-1.4375 C 4.140625,-3.203125 4,-3.625 3.734375,-4.03125 3.40625,-4.53125 2.953125,-4.84375 2.4375,-4.9375 2.359375,-4.96875 2.296875,-4.96875 2.125,-4.96875 c -0.125,0 -0.234375,0 -0.25,0 z m 0.453125,0.8125 c 0.546875,0.0625 1.015625,0.359375 1.328125,0.8125 0.171875,0.265625 0.25,0.515625 0.25,0.859375 0,0.265625 -0.03125,0.4375 -0.125,0.640625 -0.125,0.3125 -0.40625,0.625 -0.734375,0.828125 -0.5,0.28125 -1.15625,0.328125 -1.6875,0.09375 -0.390625,-0.15625 -0.75,-0.5 -0.9375,-0.875 C 0.328125,-2 0.296875,-2.140625 0.265625,-2.375 c -0.03125,-0.40625 0.09375,-0.796875 0.375,-1.140625 0.296875,-0.34375 0.71875,-0.578125 1.15625,-0.625 0.125,-0.03125 0.421875,-0.03125 0.53125,-0.015625 z m 0,0"
               id="path2925" />
          </symbol>
          <symbol
             overflow="visible"
             id="textext-37351eda-8"
             style="overflow:visible">
            <path
               style="stroke:none"
               d="m 0,-4.5625 0,0.390625 1.25,0 c 1.15625,0.015625 1.265625,0.015625 1.328125,0.03125 0.15625,0.046875 0.3125,0.125 0.4375,0.234375 0.09375,0.109375 0.15625,0.203125 0.171875,0.3125 0,0.078125 0,0.078125 -0.03125,0.078125 C 3.015625,-3.59375 2.859375,-3.609375 2.625,-3.625 c -0.34375,0 -0.609375,0.046875 -0.859375,0.171875 -0.296875,0.15625 -0.5,0.359375 -0.578125,0.578125 -0.109375,0.328125 0.015625,0.609375 0.359375,0.765625 0.171875,0.09375 0.3125,0.125 0.5625,0.125 0.234375,0 0.421875,-0.046875 0.640625,-0.15625 C 3.09375,-2.3125 3.375,-2.625 3.484375,-2.984375 l 0.03125,-0.09375 0.0625,0.0625 c 0.21875,0.203125 0.34375,0.5 0.375,0.828125 C 3.984375,-1.796875 3.859375,-1.5 3.5625,-1.21875 3.4375,-1.09375 3.3125,-1 3.140625,-0.921875 2.90625,-0.8125 2.6875,-0.734375 2.40625,-0.71875 1.734375,-0.65625 1.09375,-0.875 0.671875,-1.28125 0.484375,-1.484375 0.375,-1.703125 0.34375,-1.96875 c -0.03125,-0.171875 0,-0.296875 0.0625,-0.40625 L 0.4375,-2.421875 0.34375,-2.46875 0.265625,-2.515625 0.234375,-2.5 C 0.1875,-2.4375 0.125,-2.34375 0.09375,-2.265625 c -0.078125,0.15625 -0.109375,0.40625 -0.078125,0.625 0.03125,0.375 0.15625,0.65625 0.4375,0.9375 0.28125,0.296875 0.65625,0.515625 1.0625,0.625 0.234375,0.0625 0.375,0.0625 0.671875,0.0625 0.28125,0 0.390625,0 0.609375,-0.046875 C 3.203125,-0.171875 3.515625,-0.359375 3.8125,-0.640625 4.171875,-1 4.3125,-1.390625 4.28125,-1.90625 4.25,-2.328125 4.15625,-2.625 3.96875,-2.890625 3.875,-3.03125 3.703125,-3.1875 3.5625,-3.265625 l -0.046875,-0.03125 0,-0.0625 c 0,-0.15625 -0.078125,-0.34375 -0.1875,-0.515625 -0.09375,-0.109375 -0.234375,-0.234375 -0.375,-0.265625 l -0.046875,-0.03125 0.109375,0 0.140625,0 0,-0.390625 0,-0.375 -1.578125,0 -1.578125,0 0,0.375 z M 2.90625,-3.375 C 3.046875,-3.359375 3.1875,-3.3125 3.1875,-3.296875 3.1875,-3.265625 3.125,-3.125 3.078125,-3.0625 2.96875,-2.90625 2.796875,-2.765625 2.625,-2.671875 2.296875,-2.515625 1.796875,-2.46875 1.640625,-2.609375 1.5625,-2.65625 1.53125,-2.75 1.546875,-2.859375 1.59375,-3.109375 1.890625,-3.3125 2.3125,-3.375 c 0.125,-0.03125 0.453125,-0.03125 0.59375,0 z m 0,0"
               id="path2928" />
          </symbol>
          <symbol
             overflow="visible"
             id="textext-37351eda-9"
             style="overflow:visible">
            <path
               style="stroke:none"
               d="M 2.15625,-6.046875 C 1,-5.21875 0.3125,-4.21875 0.09375,-3.03125 -0.046875,-2.375 -0.015625,-1.640625 0.140625,-1 c 0.28125,1.140625 0.96875,2.09375 2.03125,2.8125 L 2.3125,1.90625 c 0.015625,0 0.046875,-0.03125 0.078125,-0.078125 L 2.453125,1.75 2.328125,1.625 C 1.46875,0.75 0.984375,-0.296875 0.875,-1.46875 0.8125,-2.109375 0.859375,-2.890625 1.015625,-3.515625 1.21875,-4.40625 1.640625,-5.140625 2.25,-5.75 L 2.4375,-5.9375 2.375,-6.046875 C 2.34375,-6.09375 2.3125,-6.15625 2.3125,-6.15625 l -0.15625,0.109375 z m 0,0"
               id="path2931" />
          </symbol>
          <symbol
             overflow="visible"
             id="textext-37351eda-10"
             style="overflow:visible">
            <path
               style="stroke:none"
               d="m 0,-4.5625 0,0.390625 0.8125,0 0.828125,0 L 1.53125,-4.09375 C 1.09375,-3.8125 0.75,-3.421875 0.484375,-2.875 0.203125,-2.3125 0.046875,-1.6875 0.015625,-0.984375 0,-0.875 0,-0.625 0,-0.40625 L 0,0 l 0.375,0 0.390625,0 0,-0.75 C 0.78125,-1.171875 0.78125,-1.5625 0.78125,-1.625 0.84375,-2.328125 0.984375,-2.84375 1.21875,-3.34375 1.5,-3.890625 1.8125,-4.171875 2.203125,-4.171875 c 0.21875,0 0.40625,0.078125 0.59375,0.28125 0.359375,0.359375 0.65625,1.0625 0.765625,1.84375 0.046875,0.375 0.0625,0.53125 0.0625,1.328125 L 3.625,0 4,0 l 0.390625,0 0,-0.484375 c 0,-0.328125 0,-0.5625 -0.015625,-0.671875 -0.125,-1.3125 -0.671875,-2.375 -1.5,-2.9375 l -0.109375,-0.078125 0.21875,0 0.25,0 0,-0.390625 0,-0.375 -1.625,0 -1.609375,0 0,0.375 z m 0,0"
               id="path2934" />
          </symbol>
          <symbol
             overflow="visible"
             id="textext-37351eda-11"
             style="overflow:visible">
            <path
               style="stroke:none"
               d="m -2.234375,-6.796875 c -0.21875,0.015625 -0.40625,0.125 -0.546875,0.265625 -0.1875,0.203125 -0.234375,0.484375 -0.125,0.703125 0.046875,0.078125 0.171875,0.203125 0.234375,0.21875 0.15625,0.09375 0.359375,0.09375 0.5,0 0.0625,-0.046875 0.171875,-0.15625 0.203125,-0.234375 0.0625,-0.125 0.078125,-0.3125 0.015625,-0.46875 C -1.96875,-6.40625 -2,-6.4375 -2.046875,-6.484375 l -0.03125,-0.046875 0.0625,0.015625 c 0.09375,0 0.203125,0.03125 0.28125,0.0625 0.203125,0.109375 0.375,0.296875 0.453125,0.515625 0.015625,0.078125 0.015625,0.109375 0.015625,0.234375 0,0.125 0,0.140625 -0.015625,0.203125 C -1.375,-5.234375 -1.609375,-5.03125 -1.875,-4.96875 -1.953125,-4.9375 -2,-4.9375 -2.3125,-4.9375 l -0.34375,0 0,0.375 0,0.390625 0.265625,0 c 0.359375,0 0.46875,0 0.625,-0.078125 0.203125,-0.09375 0.4375,-0.296875 0.578125,-0.546875 0.1875,-0.328125 0.25,-0.765625 0.15625,-1.125 -0.046875,-0.1875 -0.171875,-0.390625 -0.3125,-0.546875 -0.203125,-0.203125 -0.421875,-0.296875 -0.6875,-0.328125 -0.109375,-0.015625 -0.109375,-0.015625 -0.203125,0 z m 0,0"
               id="path2937" />
          </symbol>
          <symbol
             overflow="visible"
             id="textext-37351eda-12"
             style="overflow:visible">
            <path
               style="stroke:none"
               d="M 2.984375,-4.9375 C 2.5625,-4.90625 2.203125,-4.78125 1.875,-4.53125 1.75,-4.4375 1.5625,-4.234375 1.46875,-4.109375 c -0.203125,0.296875 -0.296875,0.59375 -0.296875,0.9375 0,0.1875 0.03125,0.375 0.078125,0.671875 0.078125,0.4375 0.09375,0.5 0.109375,0.671875 0.03125,0.21875 0.03125,0.390625 0,0.5 -0.09375,0.25 -0.375,0.453125 -0.71875,0.546875 -0.125,0.015625 -0.359375,0.015625 -0.46875,-0.015625 C -0.0625,-0.859375 -0.265625,-1 -0.515625,-1.21875 -0.78125,-1.46875 -0.953125,-1.734375 -1.15625,-2.125 L -1.25,-2.296875 l 0,0.21875 0,0.21875 0.0625,0.1875 c 0.15625,0.5 0.375,0.859375 0.71875,1.171875 0.296875,0.296875 0.59375,0.453125 0.921875,0.484375 0.390625,0.0625 0.71875,-0.046875 0.984375,-0.3125 0.09375,-0.09375 0.140625,-0.1875 0.203125,-0.28125 C 1.703125,-0.75 1.71875,-0.796875 1.703125,-1.03125 1.703125,-1.25 1.6875,-1.390625 1.640625,-1.75 1.5625,-2.1875 1.53125,-2.46875 1.5625,-2.65625 c 0.015625,-0.25 0.046875,-0.40625 0.15625,-0.609375 0.1875,-0.390625 0.546875,-0.703125 0.921875,-0.828125 0.15625,-0.046875 0.25,-0.0625 0.484375,-0.078125 0.421875,0 0.796875,0.078125 1.15625,0.25 0.40625,0.203125 0.765625,0.546875 0.921875,0.890625 0.109375,0.234375 0.15625,0.5 0.125,0.78125 -0.03125,0.46875 -0.1875,0.84375 -0.5,1.140625 C 4.5625,-0.859375 4.28125,-0.75 3.90625,-0.765625 3.5625,-0.78125 3.296875,-0.890625 3.125,-1.0625 3,-1.1875 2.953125,-1.296875 2.9375,-1.453125 2.90625,-1.671875 2.96875,-1.875 3.109375,-2.046875 c 0.046875,-0.0625 0.125,-0.140625 0.125,-0.140625 0.015625,0 0,0.03125 0,0.0625 -0.03125,0.078125 -0.03125,0.234375 0,0.296875 0.0625,0.25 0.28125,0.421875 0.5,0.40625 0.09375,-0.015625 0.15625,-0.046875 0.234375,-0.109375 0.109375,-0.125 0.171875,-0.28125 0.171875,-0.484375 0,-0.34375 -0.1875,-0.5 -0.5625,-0.5 C 3.265625,-2.515625 3,-2.375 2.8125,-2.140625 2.640625,-1.90625 2.578125,-1.65625 2.609375,-1.328125 2.640625,-0.75 2.875,-0.375 3.328125,-0.15625 3.53125,-0.046875 3.71875,-0.015625 4,-0.015625 c 0.171875,0 0.203125,0 0.28125,-0.015625 C 4.625,-0.125 4.921875,-0.375 5.15625,-0.78125 5.390625,-1.203125 5.515625,-1.640625 5.546875,-2.203125 5.578125,-2.78125 5.46875,-3.296875 5.21875,-3.734375 4.9375,-4.171875 4.53125,-4.5625 4.078125,-4.75 3.75,-4.890625 3.359375,-4.953125 2.984375,-4.9375 z m 0,0"
               id="path2940" />
          </symbol>
          <symbol
             overflow="visible"
             id="textext-37351eda-13"
             style="overflow:visible">
            <path
               style="stroke:none"
               d="m 1.53125,-4.9375 c -0.4375,0.046875 -0.828125,0.3125 -1.125,0.765625 -0.34375,0.515625 -0.453125,1.125 -0.375,1.921875 0.09375,0.921875 0.421875,1.625 1.03125,2.171875 L 1.140625,0 1.71875,0 2.296875,0 2.1875,-0.09375 C 1.78125,-0.375 1.5,-0.625 1.203125,-0.921875 c -0.71875,-0.75 -1.03125,-1.375 -0.96875,-2 C 0.28125,-3.46875 0.515625,-3.875 0.953125,-4.15625 l 0.03125,-0.015625 -0.015625,0.03125 c -0.046875,0.046875 -0.109375,0.21875 -0.125,0.296875 -0.125,0.453125 0.046875,0.921875 0.4375,1.125 0.109375,0.0625 0.203125,0.078125 0.359375,0.078125 0.125,0 0.1875,-0.015625 0.296875,-0.046875 0.28125,-0.140625 0.515625,-0.484375 0.609375,-0.90625 0.03125,-0.140625 0.03125,-0.4375 0.015625,-0.546875 C 2.53125,-4.28125 2.5,-4.390625 2.4375,-4.484375 2.375,-4.578125 2.25,-4.71875 2.15625,-4.78125 c -0.171875,-0.125 -0.375,-0.171875 -0.625,-0.15625 z m 0.375,0.671875 c 0.09375,0.03125 0.15625,0.0625 0.234375,0.15625 0.125,0.109375 0.15625,0.21875 0.15625,0.390625 0,0.203125 -0.078125,0.40625 -0.234375,0.53125 -0.140625,0.109375 -0.3125,0.140625 -0.5,0.078125 C 1.203125,-3.203125 1,-3.625 1.140625,-3.921875 1.21875,-4.09375 1.375,-4.203125 1.5625,-4.25 1.65625,-4.28125 1.828125,-4.28125 1.90625,-4.265625 z m 0,0"
               id="path2943" />
          </symbol>
          <symbol
             overflow="visible"
             id="textext-37351eda-14"
             style="overflow:visible">
            <path
               style="stroke:none"
               d="M 1.75,-5.796875 C 1.390625,-5.71875 1.09375,-5.4375 1,-5.140625 0.984375,-5.03125 0.984375,-4.84375 1,-4.75 c 0.078125,0.265625 0.296875,0.484375 0.5625,0.546875 0.109375,0.03125 0.296875,0.03125 0.40625,0 0.25,-0.0625 0.453125,-0.25 0.546875,-0.5 0.015625,-0.078125 0.015625,-0.09375 0.015625,-0.21875 0,-0.125 0,-0.15625 -0.015625,-0.21875 -0.03125,-0.078125 -0.109375,-0.1875 -0.15625,-0.25 L 2.296875,-5.4375 2.40625,-5.421875 c 0.71875,0.015625 1.296875,0.265625 1.796875,0.75 0.265625,0.28125 0.453125,0.515625 0.625,0.828125 0.21875,0.453125 0.328125,0.921875 0.328125,1.484375 0,0.25 0,0.390625 -0.046875,0.578125 -0.078125,0.4375 -0.3125,0.796875 -0.578125,0.921875 -0.140625,0.078125 -0.203125,0.078125 -0.375,0.078125 -0.125,0 -0.15625,0 -0.234375,-0.015625 C 3.515625,-0.90625 3.125,-1.28125 2.890625,-1.78125 2.84375,-1.890625 2.75,-2.140625 2.75,-2.1875 c 0,0 -0.015625,0.046875 -0.046875,0.140625 C 2.578125,-1.6875 2.4375,-1.4375 2.1875,-1.203125 1.875,-0.859375 1.53125,-0.734375 1.140625,-0.78125 0.875,-0.8125 0.671875,-0.921875 0.484375,-1.109375 0.34375,-1.265625 0.265625,-1.4375 0.234375,-1.640625 0.171875,-2.03125 0.40625,-2.4375 0.734375,-2.5 1,-2.578125 1.28125,-2.453125 1.390625,-2.234375 c 0.03125,0.078125 0.03125,0.09375 0.03125,0.1875 C 1.4375,-1.828125 1.328125,-1.65625 1.15625,-1.5625 l -0.0625,0.03125 0,0.0625 0,0.046875 0.078125,0 c 0.140625,-0.03125 0.25,-0.0625 0.359375,-0.15625 0.1875,-0.140625 0.28125,-0.328125 0.28125,-0.5625 0,-0.15625 -0.046875,-0.28125 -0.140625,-0.40625 C 1.5625,-2.671875 1.390625,-2.78125 1.21875,-2.828125 1.125,-2.84375 0.921875,-2.859375 0.828125,-2.84375 0.421875,-2.75 0.125,-2.390625 0.015625,-1.90625 0,-1.78125 0,-1.46875 0.03125,-1.3125 0.09375,-0.921875 0.25,-0.609375 0.515625,-0.34375 0.75,-0.09375 1.03125,0.015625 1.375,0 c 0.28125,-0.015625 0.515625,-0.09375 0.734375,-0.234375 0.21875,-0.15625 0.390625,-0.328125 0.5,-0.5625 0.0625,-0.140625 0.109375,-0.25 0.125,-0.484375 C 2.75,-1.3125 2.75,-1.3125 2.75,-1.28125 c 0,0.0625 0.03125,0.1875 0.0625,0.296875 0.0625,0.203125 0.171875,0.390625 0.34375,0.5625 C 3.375,-0.203125 3.59375,-0.09375 3.875,-0.03125 4.015625,0 4.296875,0 4.390625,-0.015625 c 0.28125,-0.078125 0.5,-0.25 0.6875,-0.515625 C 5.296875,-0.875 5.4375,-1.265625 5.484375,-1.765625 5.5,-1.90625 5.5,-2.359375 5.484375,-2.515625 5.40625,-3.375 5.109375,-4.046875 4.53125,-4.6875 4,-5.25 3.328125,-5.625 2.609375,-5.765625 2.296875,-5.8125 1.90625,-5.828125 1.75,-5.796875 z M 1.90625,-5.34375 C 2.046875,-5.3125 2.203125,-5.203125 2.25,-5.109375 2.265625,-5.0625 2.28125,-5.03125 2.28125,-4.953125 2.28125,-4.796875 2.25,-4.6875 2.140625,-4.5625 2,-4.40625 1.78125,-4.359375 1.578125,-4.4375 1.421875,-4.484375 1.3125,-4.609375 1.25,-4.75 1.234375,-4.796875 1.234375,-4.828125 1.234375,-4.921875 c 0,-0.125 0.015625,-0.1875 0.09375,-0.265625 C 1.46875,-5.34375 1.6875,-5.40625 1.90625,-5.34375 z m 0,0"
               id="path2946" />
          </symbol>
          <symbol
             overflow="visible"
             id="textext-37351eda-15"
             style="overflow:visible">
            <path
               style="stroke:none"
               d="m 0,-4.5625 0,0.390625 0.921875,0 0.921875,0 -0.15625,0.0625 c -0.40625,0.125 -0.734375,0.328125 -1.015625,0.625 C 0.34375,-3.15625 0.125,-2.78125 0.046875,-2.375 -0.046875,-1.96875 0.015625,-1.421875 0.171875,-1 0.34375,-0.609375 0.640625,-0.265625 0.9375,-0.125 1.15625,0 1.453125,0.03125 1.703125,-0.03125 2.09375,-0.140625 2.46875,-0.5 2.65625,-0.96875 2.6875,-1.03125 2.71875,-1.109375 2.734375,-1.140625 l 0,-0.0625 0.03125,0.09375 c 0.109375,0.296875 0.25,0.546875 0.46875,0.75 0.1875,0.1875 0.390625,0.296875 0.625,0.34375 C 3.9375,0 4.203125,0 4.296875,-0.015625 4.515625,-0.0625 4.71875,-0.1875 4.890625,-0.375 5.21875,-0.703125 5.40625,-1.140625 5.46875,-1.671875 5.5,-1.8125 5.5,-2.140625 5.46875,-2.265625 5.390625,-2.734375 5.15625,-3.171875 4.78125,-3.53125 4.5,-3.796875 4.171875,-3.984375 3.78125,-4.125 l -0.125,-0.046875 0.34375,0 0.34375,0 0,-0.390625 0,-0.375 -2.171875,0 -2.171875,0 0,0.375 z m 3.15625,0.421875 c 0.5,0.078125 0.90625,0.28125 1.265625,0.625 C 4.765625,-3.1875 4.96875,-2.8125 5.03125,-2.375 5.09375,-1.9375 5.015625,-1.578125 4.8125,-1.25 4.71875,-1.140625 4.546875,-0.96875 4.453125,-0.90625 4.15625,-0.734375 3.796875,-0.71875 3.484375,-0.890625 3.15625,-1.0625 2.90625,-1.359375 2.78125,-1.75 L 2.734375,-1.859375 2.71875,-1.75 c -0.046875,0.140625 -0.15625,0.359375 -0.25,0.453125 -0.171875,0.25 -0.421875,0.421875 -0.6875,0.5 -0.125,0.03125 -0.328125,0.046875 -0.46875,0 C 1.046875,-0.875 0.796875,-1.0625 0.625,-1.359375 c -0.21875,-0.375 -0.25,-0.9375 -0.0625,-1.4375 0.21875,-0.515625 0.71875,-1.015625 1.296875,-1.21875 0.171875,-0.078125 0.4375,-0.125 0.625,-0.140625 0.109375,-0.015625 0.5625,0 0.671875,0.015625 z m 0,0"
               id="path2949" />
          </symbol>
          <symbol
             overflow="visible"
             id="textext-37351eda-16"
             style="overflow:visible">
            <path
               style="stroke:none"
               d="m 0,-4.5625 0,0.390625 0.640625,0 0.671875,0 L 1.203125,-4.125 C 0.96875,-4.03125 0.78125,-3.890625 0.59375,-3.703125 0.296875,-3.375 0.09375,-2.984375 0.015625,-2.515625 0,-2.359375 0,-2.03125 0.015625,-1.859375 c 0.078125,0.5 0.296875,0.890625 0.671875,1.25 0.34375,0.328125 0.71875,0.515625 1.171875,0.59375 C 2.015625,0 2.375,0 2.53125,-0.015625 2.953125,-0.09375 3.296875,-0.25 3.625,-0.515625 4.015625,-0.875 4.28125,-1.3125 4.359375,-1.8125 c 0.03125,-0.203125 0.03125,-0.53125 0,-0.703125 -0.03125,-0.25 -0.09375,-0.453125 -0.1875,-0.671875 -0.21875,-0.4375 -0.546875,-0.75 -0.96875,-0.921875 -0.109375,-0.0625 -0.109375,-0.0625 -0.0625,-0.0625 l 0.046875,0 0,-0.390625 0,-0.375 -1.59375,0 -1.59375,0 0,0.375 z m 2.46875,0.421875 c 0.375,0.046875 0.703125,0.1875 0.984375,0.46875 0.34375,0.328125 0.5,0.6875 0.5,1.15625 C 3.953125,-2 3.78125,-1.59375 3.4375,-1.25 3.140625,-0.984375 2.8125,-0.8125 2.40625,-0.78125 1.96875,-0.734375 1.5625,-0.84375 1.21875,-1.0625 0.828125,-1.328125 0.5625,-1.6875 0.484375,-2.140625 c -0.125,-0.578125 0.03125,-1.09375 0.421875,-1.5 0.296875,-0.28125 0.640625,-0.46875 1.03125,-0.515625 0.109375,-0.015625 0.421875,-0.015625 0.53125,0.015625 z m 0,0"
               id="path2952" />
          </symbol>
          <symbol
             overflow="visible"
             id="textext-37351eda-17"
             style="overflow:visible">
            <path
               style="stroke:none"
               d="m 0.875,-4.9375 c -0.25,0.03125 -0.484375,0.15625 -0.65625,0.375 -0.203125,0.25 -0.265625,0.609375 -0.171875,0.875 0.109375,0.234375 0.359375,0.453125 0.671875,0.546875 L 0.765625,-3.125 0.828125,-3.203125 C 0.859375,-3.25 0.875,-3.296875 0.875,-3.296875 c 0,0 -0.03125,-0.015625 -0.0625,-0.015625 C 0.640625,-3.390625 0.515625,-3.484375 0.46875,-3.59375 0.453125,-3.65625 0.453125,-3.671875 0.453125,-3.75 c 0,-0.125 0.015625,-0.1875 0.078125,-0.28125 C 0.609375,-4.15625 0.734375,-4.234375 0.875,-4.265625 0.953125,-4.28125 1.109375,-4.28125 1.203125,-4.25 c 0.1875,0.078125 0.34375,0.234375 0.40625,0.40625 0.03125,0.09375 0.046875,0.234375 0.03125,0.328125 -0.03125,0.09375 -0.09375,0.21875 -0.171875,0.3125 -0.078125,0.109375 -0.125,0.125 -0.625,0.578125 -0.4375,0.375 -0.390625,0.328125 -0.453125,0.40625 -0.3125,0.375 -0.453125,0.890625 -0.34375,1.28125 C 0.09375,-0.75 0.1875,-0.59375 0.359375,-0.421875 0.65625,-0.125 1.015625,0.015625 1.40625,0 c 0.0625,-0.015625 0.15625,-0.015625 0.203125,-0.03125 0.5,-0.109375 0.921875,-0.546875 1.125,-1.140625 L 2.78125,-1.3125 2.796875,-1.234375 c 0.03125,0.125 0.125,0.3125 0.1875,0.421875 0.078125,0.140625 0.15625,0.25 0.28125,0.375 0.21875,0.21875 0.40625,0.34375 0.65625,0.40625 C 4.109375,0.015625 4.40625,0.015625 4.625,-0.0625 4.734375,-0.09375 4.90625,-0.171875 5,-0.234375 5.15625,-0.359375 5.3125,-0.5625 5.390625,-0.71875 5.546875,-1.046875 5.546875,-1.46875 5.40625,-1.796875 5.34375,-1.96875 5.21875,-2.15625 5.09375,-2.265625 4.953125,-2.375 4.734375,-2.46875 4.578125,-2.46875 l -0.046875,0 0,0.109375 0,0.109375 0.03125,0 c 0.046875,0 0.15625,0.03125 0.21875,0.0625 0.078125,0.046875 0.1875,0.15625 0.25,0.25 0.125,0.21875 0.125,0.484375 0,0.703125 C 5,-1.203125 4.953125,-1.140625 4.90625,-1.09375 4.765625,-0.953125 4.609375,-0.859375 4.4375,-0.796875 4.359375,-0.78125 4.34375,-0.78125 4.203125,-0.78125 3.984375,-0.78125 3.84375,-0.8125 3.65625,-0.90625 3.53125,-0.953125 3.4375,-1.03125 3.328125,-1.140625 3.078125,-1.375 2.90625,-1.671875 2.8125,-2.03125 2.796875,-2.09375 2.78125,-2.15625 2.78125,-2.171875 2.78125,-2.1875 2.765625,-2.15625 2.75,-2.09375 2.703125,-1.859375 2.609375,-1.640625 2.484375,-1.453125 2.21875,-1.0625 1.90625,-0.84375 1.53125,-0.78125 1.21875,-0.734375 0.96875,-0.8125 0.75,-1.03125 0.484375,-1.28125 0.390625,-1.59375 0.5,-1.875 0.546875,-2 0.65625,-2.15625 0.796875,-2.296875 0.84375,-2.328125 0.984375,-2.46875 1.140625,-2.578125 1.578125,-2.9375 1.6875,-3.046875 1.78125,-3.125 c 0.28125,-0.296875 0.359375,-0.546875 0.25,-0.859375 0,0 0.015625,0.03125 0.0625,0.0625 C 2.28125,-3.65625 2.5,-3.46875 2.71875,-3.34375 3.140625,-3.078125 3.671875,-3 4.109375,-3.15625 4.3125,-3.203125 4.46875,-3.3125 4.640625,-3.484375 4.921875,-3.765625 5.046875,-4.078125 5.046875,-4.46875 5.046875,-4.625 5.03125,-4.71875 5,-4.859375 L 4.96875,-4.9375 l -0.078125,0 -0.078125,0 0,0.0625 C 4.84375,-4.53125 4.75,-4.234375 4.515625,-4 c -0.21875,0.234375 -0.46875,0.34375 -0.796875,0.375 -0.046875,0 -0.15625,0 -0.25,0 C 3.015625,-3.65625 2.6875,-3.75 2.4375,-3.921875 2.328125,-3.984375 2.25,-4.0625 1.90625,-4.421875 1.75,-4.578125 1.609375,-4.71875 1.578125,-4.75 1.46875,-4.8125 1.359375,-4.875 1.25,-4.90625 1.203125,-4.921875 1,-4.9375 0.984375,-4.9375 c -0.015625,0 -0.0625,0 -0.109375,0 z m 0,0"
               id="path2955" />
          </symbol>
          <symbol
             overflow="visible"
             id="textext-37351eda-18"
             style="overflow:visible">
            <path
               style="stroke:none"
               d="m -0.53125,-4.5625 0,0.390625 0.46875,0 c 0.484375,0 0.484375,0 0.671875,0.078125 0.125,0.03125 0.3125,0.140625 0.40625,0.21875 0.40625,0.296875 0.6875,0.75 0.78125,1.28125 0.03125,0.15625 0.03125,0.46875 0.015625,0.625 -0.03125,0.34375 -0.171875,0.640625 -0.40625,0.875 -0.15625,0.15625 -0.296875,0.25 -0.484375,0.296875 -0.40625,0.09375 -0.828125,-0.0625 -1.265625,-0.484375 -0.25,-0.25 -0.4375,-0.53125 -0.65625,-0.90625 l -0.078125,-0.15625 0,0.328125 0,0.328125 0.046875,0.125 c 0.109375,0.390625 0.296875,0.703125 0.5625,0.96875 0.296875,0.3125 0.625,0.5 0.984375,0.578125 C 0.640625,0 0.921875,0 1.046875,-0.015625 1.296875,-0.078125 1.5,-0.1875 1.6875,-0.359375 2,-0.65625 2.15625,-0.984375 2.203125,-1.421875 2.21875,-1.546875 2.21875,-1.96875 2.1875,-2.140625 2.125,-2.625 1.96875,-3.078125 1.734375,-3.421875 1.640625,-3.59375 1.5625,-3.671875 1.421875,-3.8125 1.265625,-3.953125 1.109375,-4.046875 0.890625,-4.15625 0.875,-4.171875 0.875,-4.171875 0.953125,-4.171875 l 0.109375,0 0,-0.390625 0,-0.375 -0.796875,0 -0.796875,0 0,0.375 z m 0,0"
               id="path2958" />
          </symbol>
          <symbol
             overflow="visible"
             id="textext-37351eda-19"
             style="overflow:visible">
            <path
               style="stroke:none"
               d="m -0.1875,-4.9375 c -0.140625,0.015625 -0.28125,0.078125 -0.34375,0.15625 -0.09375,0.109375 -0.0625,0.25 0.078125,0.390625 0.0625,0.078125 0.15625,0.140625 0.234375,0.171875 0.015625,0.015625 0.109375,0.03125 0.1875,0.046875 C 0.484375,-4.0625 0.875,-3.84375 1.25,-3.453125 1.515625,-3.1875 1.671875,-2.921875 1.75,-2.625 1.78125,-2.53125 1.78125,-2.5 1.78125,-2.34375 1.796875,-1.953125 1.703125,-1.625 1.5,-1.328125 1.4375,-1.21875 1.25,-1.015625 1.140625,-0.953125 0.84375,-0.75 0.46875,-0.71875 0.09375,-0.84375 c -0.515625,-0.1875 -1.015625,-0.703125 -1.28125,-1.375 l -0.03125,-0.078125 0,0.265625 0,0.28125 0.03125,0.109375 c 0.21875,0.75 0.703125,1.34375 1.234375,1.546875 0.171875,0.0625 0.296875,0.078125 0.484375,0.078125 0.15625,0 0.1875,0 0.28125,-0.015625 C 1.125,-0.125 1.421875,-0.375 1.640625,-0.75 1.84375,-1.0625 1.953125,-1.421875 2,-1.84375 2.015625,-2.03125 2,-2.5 1.96875,-2.671875 1.875,-3.3125 1.578125,-3.921875 1.140625,-4.359375 c -0.21875,-0.25 -0.40625,-0.375 -0.65625,-0.46875 -0.1875,-0.09375 -0.5,-0.125 -0.671875,-0.109375 z m 0,0"
               id="path2961" />
          </symbol>
          <symbol
             overflow="visible"
             id="textext-37351eda-20"
             style="overflow:visible">
            <path
               style="stroke:none"
               d="M -0.171875,-0.765625 C -0.375,-0.734375 -0.515625,-0.59375 -0.625,-0.375 c -0.046875,0.125 -0.0625,0.203125 -0.0625,0.34375 0,0.15625 0.015625,0.25 0.0625,0.375 0.09375,0.1875 0.1875,0.3125 0.421875,0.578125 C 0.3125,1.46875 0.375,1.53125 0.46875,1.734375 0.5625,1.9375 0.609375,2.109375 0.625,2.328125 c 0,0.1875 -0.015625,0.28125 -0.078125,0.4375 -0.09375,0.25 -0.359375,0.5 -0.65625,0.609375 -0.15625,0.0625 -0.25,0.078125 -0.4375,0.09375 C -0.75,3.46875 -0.875,3.453125 -1.0625,3.40625 -1.5,3.296875 -1.71875,3.078125 -1.640625,2.796875 -1.578125,2.625 -1.4375,2.484375 -1.046875,2.21875 -0.78125,2.03125 -0.625,1.84375 -0.5625,1.640625 c 0.03125,-0.140625 0,-0.34375 -0.09375,-0.5 C -0.703125,1.046875 -0.84375,0.921875 -0.9375,0.875 -1.109375,0.78125 -1.328125,0.78125 -1.515625,0.875 -1.75,0.984375 -1.890625,1.203125 -1.875,1.4375 -1.859375,1.578125 -1.765625,1.703125 -1.578125,1.796875 -1.53125,1.828125 -1.5,1.84375 -1.5,1.84375 c 0.015625,0 0.03125,-0.015625 0.046875,-0.046875 L -1.4375,1.75 -1.46875,1.71875 c -0.09375,-0.078125 -0.125,-0.140625 -0.109375,-0.25 0,-0.09375 0,-0.140625 0.0625,-0.1875 0.0625,-0.078125 0.234375,-0.109375 0.375,-0.078125 0.21875,0.03125 0.375,0.21875 0.359375,0.4375 0,0.109375 -0.046875,0.1875 -0.140625,0.28125 -0.0625,0.0625 -0.140625,0.109375 -0.390625,0.25 -0.40625,0.234375 -0.390625,0.234375 -0.453125,0.296875 -0.0625,0.078125 -0.09375,0.109375 -0.125,0.203125 C -2,2.859375 -2.015625,3.125 -1.9375,3.3125 -1.796875,3.65625 -1.328125,3.953125 -0.8125,4 -0.671875,4.03125 -0.375,4.015625 -0.265625,3.984375 0.046875,3.921875 0.296875,3.78125 0.53125,3.5625 0.703125,3.390625 0.8125,3.234375 0.875,3.015625 0.921875,2.875 0.953125,2.75 0.953125,2.578125 0.953125,2.203125 0.84375,1.875 0.640625,1.53125 0.53125,1.34375 0.40625,1.203125 0.015625,0.8125 -0.234375,0.546875 -0.3125,0.46875 -0.375,0.34375 -0.421875,0.25 -0.4375,0.171875 -0.421875,0.09375 c 0.015625,-0.140625 0.125,-0.28125 0.234375,-0.3125 0.140625,-0.046875 0.328125,0 0.453125,0.125 0.09375,0.09375 0.1875,0.265625 0.21875,0.421875 l 0.03125,0.09375 0.046875,0 0.0625,0 0,-0.078125 C 0.625,0.125 0.53125,-0.203125 0.421875,-0.421875 0.34375,-0.59375 0.265625,-0.703125 0.125,-0.75 0.046875,-0.78125 -0.09375,-0.796875 -0.171875,-0.765625 z m 0,0"
               id="path2964" />
          </symbol>
          <symbol
             overflow="visible"
             id="textext-37351eda-21"
             style="overflow:visible">
            <path
               style="stroke:none"
               d="M 0.0625,-6.09375 0,-6.015625 0.109375,-5.921875 C 0.5,-5.53125 0.84375,-5.0625 1.078125,-4.5625 c 0.28125,0.59375 0.453125,1.21875 0.53125,1.953125 0.015625,0.234375 0.015625,1 0,1.1875 -0.078125,0.6875 -0.203125,1.15625 -0.4375,1.640625 C 0.9375,0.671875 0.640625,1.0625 0.203125,1.484375 l -0.1875,0.1875 0.0625,0.109375 C 0.109375,1.828125 0.15625,1.875 0.15625,1.875 0.171875,1.875 0.453125,1.671875 0.625,1.53125 1.1875,1.109375 1.609375,0.703125 1.859375,0.3125 2.21875,-0.203125 2.390625,-0.765625 2.4375,-1.46875 c 0.03125,-0.203125 0.015625,-0.75 0,-0.953125 C 2.3125,-3.515625 1.96875,-4.375 1.328125,-5.140625 1.21875,-5.28125 0.875,-5.625 0.71875,-5.75 0.515625,-5.90625 0.171875,-6.171875 0.140625,-6.171875 c 0,0 -0.046875,0.03125 -0.078125,0.078125 z m 0,0"
               id="path2967" />
          </symbol>
          <symbol
             overflow="visible"
             id="textext-37351eda-22"
             style="overflow:visible">
            <path
               style="stroke:none"
               d="m 0,-4.5625 0,0.390625 1.390625,0 c 1.390625,0.015625 1.40625,0.015625 1.515625,0.03125 0.609375,0.125 1.046875,0.34375 1.453125,0.734375 C 4.796875,-2.984375 5,-2.546875 5.046875,-2 5.0625,-1.75 5.03125,-1.53125 4.9375,-1.328125 c -0.0625,0.125 -0.125,0.21875 -0.21875,0.3125 C 4.5,-0.78125 4.234375,-0.71875 3.921875,-0.796875 3.515625,-0.90625 3.125,-1.28125 2.890625,-1.78125 2.84375,-1.890625 2.75,-2.140625 2.75,-2.1875 c 0,0 -0.015625,0.046875 -0.046875,0.140625 C 2.578125,-1.6875 2.4375,-1.4375 2.1875,-1.203125 1.875,-0.859375 1.53125,-0.734375 1.140625,-0.78125 0.875,-0.8125 0.671875,-0.921875 0.484375,-1.109375 0.34375,-1.265625 0.265625,-1.4375 0.234375,-1.640625 0.171875,-2.03125 0.40625,-2.4375 0.734375,-2.5 1,-2.578125 1.28125,-2.453125 1.390625,-2.234375 c 0.03125,0.078125 0.03125,0.09375 0.03125,0.1875 C 1.4375,-1.828125 1.328125,-1.65625 1.15625,-1.5625 l -0.0625,0.03125 0,0.0625 0,0.046875 0.078125,0 c 0.140625,-0.03125 0.25,-0.0625 0.359375,-0.15625 0.1875,-0.140625 0.28125,-0.328125 0.28125,-0.5625 0,-0.15625 -0.046875,-0.28125 -0.140625,-0.40625 C 1.5625,-2.671875 1.390625,-2.78125 1.21875,-2.828125 1.125,-2.84375 0.921875,-2.859375 0.828125,-2.84375 0.421875,-2.75 0.125,-2.390625 0.015625,-1.90625 0,-1.78125 0,-1.46875 0.03125,-1.3125 0.09375,-0.921875 0.25,-0.609375 0.515625,-0.34375 0.75,-0.09375 1.03125,0.015625 1.375,0 c 0.28125,-0.015625 0.515625,-0.09375 0.734375,-0.234375 0.21875,-0.15625 0.390625,-0.328125 0.5,-0.5625 0.0625,-0.140625 0.109375,-0.25 0.125,-0.484375 C 2.75,-1.3125 2.75,-1.3125 2.75,-1.28125 c 0,0.0625 0.03125,0.1875 0.0625,0.296875 0.0625,0.203125 0.171875,0.390625 0.34375,0.5625 C 3.421875,-0.15625 3.734375,-0.015625 4.109375,0 c 0.421875,0.015625 0.75,-0.171875 1.03125,-0.625 0.203125,-0.296875 0.3125,-0.640625 0.34375,-1.078125 0.03125,-0.5625 -0.125,-1.0625 -0.5,-1.53125 C 4.890625,-3.34375 4.65625,-3.578125 4.53125,-3.671875 4.28125,-3.875 4,-4.015625 3.671875,-4.125 l -0.125,-0.046875 0.390625,0 0.40625,0 0,-0.390625 0,-0.375 -2.171875,0 -2.171875,0 0,0.375 z m 0,0"
               id="path2970" />
          </symbol>
          <symbol
             overflow="visible"
             id="textext-37351eda-23"
             style="overflow:visible">
            <path
               style="stroke:none"
               d="m -0.21875,-0.4375 -0.046875,0.046875 0.0625,0.125 c 0.078125,0.15625 0.09375,0.25 0.09375,0.421875 0,0.109375 0,0.140625 -0.015625,0.1875 -0.03125,0.109375 -0.078125,0.1875 -0.171875,0.28125 -0.078125,0.078125 -0.15625,0.125 -0.25,0.15625 L -0.625,0.8125 l -0.78125,0 -0.78125,0 0,0.28125 0,0.265625 0.1875,0 c 0.40625,0.03125 0.71875,0.109375 1.015625,0.25 0.5,0.234375 0.78125,0.578125 0.78125,0.96875 0,0.234375 -0.09375,0.421875 -0.234375,0.578125 -0.125,0.125 -0.234375,0.171875 -0.421875,0.171875 -0.109375,0 -0.1875,-0.015625 -0.28125,-0.0625 -0.28125,-0.140625 -0.53125,-0.46875 -0.65625,-0.875 L -1.859375,2.25 c 0,0 -0.015625,0.046875 -0.03125,0.078125 C -2.03125,2.796875 -2.359375,3.1875 -2.71875,3.296875 -2.828125,3.328125 -3.015625,3.34375 -3.140625,3.3125 -3.453125,3.265625 -3.6875,3.0625 -3.75,2.8125 -3.765625,2.734375 -3.765625,2.578125 -3.75,2.515625 -3.703125,2.34375 -3.5625,2.1875 -3.40625,2.109375 -3.28125,2.03125 -3.203125,2.03125 -3.0625,2.03125 c 0.109375,0 0.125,0 0.203125,0.015625 0.09375,0.03125 0.203125,0.109375 0.28125,0.1875 l 0.0625,0.0625 L -2.453125,2.25 -2.40625,2.1875 -2.4375,2.09375 C -2.5,1.984375 -2.546875,1.890625 -2.625,1.84375 -2.84375,1.65625 -3.1875,1.640625 -3.453125,1.796875 -3.515625,1.828125 -3.65625,1.96875 -3.71875,2.0625 -3.890625,2.328125 -3.984375,2.671875 -3.921875,3.015625 -3.859375,3.484375 -3.5625,3.84375 -3.1875,3.953125 -3.078125,3.984375 -2.90625,4 -2.796875,3.984375 -2.703125,3.953125 -2.578125,3.890625 -2.5,3.84375 -2.359375,3.75 -2.203125,3.578125 -2.09375,3.40625 c 0.0625,-0.09375 0.15625,-0.3125 0.203125,-0.421875 0.015625,-0.078125 0.03125,-0.125 0.03125,-0.125 0,0 0.03125,0.046875 0.046875,0.125 C -1.78125,3.09375 -1.671875,3.3125 -1.609375,3.40625 -1.5,3.578125 -1.34375,3.75 -1.21875,3.84375 -1.125,3.890625 -1,3.953125 -0.921875,3.96875 c 0.09375,0.015625 0.234375,0.015625 0.3125,0 0.21875,-0.046875 0.40625,-0.234375 0.546875,-0.5 C 0.03125,3.265625 0.0625,3.0625 0.0625,2.765625 0.046875,2.578125 0.03125,2.453125 -0.015625,2.296875 -0.09375,2.09375 -0.203125,1.90625 -0.375,1.734375 -0.5625,1.5625 -0.734375,1.453125 -0.953125,1.390625 l -0.078125,-0.03125 0.234375,0 c 0.265625,0 0.328125,-0.015625 0.4375,-0.0625 C -0.125,1.1875 0.0625,0.953125 0.109375,0.671875 0.140625,0.453125 0.09375,0.140625 0.015625,-0.140625 -0.03125,-0.25 -0.140625,-0.484375 -0.15625,-0.484375 c 0,0 -0.03125,0.015625 -0.0625,0.046875 z m 0,0"
               id="path2973" />
          </symbol>
          <symbol
             overflow="visible"
             id="textext-37351eda-24"
             style="overflow:visible">
            <path
               style="stroke:none"
               d="M -1.234375,0.234375 C -1.328125,0.28125 -1.328125,0.34375 -1.28125,0.515625 L -1.21875,0.625 -1.234375,0.78125 c 0,0.203125 -0.03125,0.390625 -0.125,0.671875 l -0.03125,0.09375 -0.078125,0.0625 C -1.75,1.796875 -1.90625,2.03125 -1.96875,2.34375 -2,2.4375 -2,2.484375 -2,2.625 c 0,0.171875 0,0.203125 0.03125,0.28125 0.078125,0.296875 0.265625,0.546875 0.578125,0.765625 C -1.125,3.84375 -0.84375,3.953125 -0.484375,4 -0.4375,4 -0.3125,4 -0.171875,4 0.046875,4 0.0625,4 0.15625,3.984375 0.609375,3.875 0.9375,3.5625 1.328125,2.953125 l 0.078125,-0.125 -0.0625,-0.0625 -0.046875,-0.046875 -0.125,0.109375 C 0.84375,3.15625 0.484375,3.359375 0.125,3.4375 -0.015625,3.46875 -0.296875,3.484375 -0.484375,3.453125 -0.84375,3.40625 -1.140625,3.28125 -1.390625,3.078125 c -0.203125,-0.171875 -0.3125,-0.359375 -0.3125,-0.5625 0,-0.203125 0.0625,-0.4375 0.171875,-0.609375 C -1.5,1.859375 -1.4375,1.765625 -1.421875,1.765625 c 0,0 0,0.046875 0.03125,0.09375 0.109375,0.40625 0.484375,0.765625 0.875,0.828125 0.109375,0.015625 0.3125,0 0.421875,-0.03125 C 0.171875,2.59375 0.4375,2.375 0.5625,2.125 0.609375,2.03125 0.625,1.921875 0.625,1.796875 0.625,1.71875 0.625,1.6875 0.578125,1.625 0.484375,1.421875 0.234375,1.265625 -0.0625,1.203125 c -0.15625,-0.03125 -0.421875,-0.03125 -0.5625,0 -0.125,0.015625 -0.28125,0.078125 -0.40625,0.125 L -1.125,1.390625 -1.078125,1.28125 c 0.09375,-0.25 0.15625,-0.484375 0.140625,-0.703125 C -0.953125,0.4375 -0.96875,0.34375 -1,0.296875 -1.0625,0.21875 -1.140625,0.203125 -1.234375,0.234375 z m 1.0625,1.15625 C 0.171875,1.4375 0.40625,1.5625 0.40625,1.71875 c 0,0.078125 -0.0625,0.171875 -0.1875,0.25 C 0.125,2.046875 0.015625,2.078125 -0.09375,2.109375 -0.21875,2.140625 -0.484375,2.140625 -0.578125,2.125 -0.71875,2.078125 -0.875,2 -0.984375,1.890625 -1.046875,1.84375 -1.140625,1.75 -1.171875,1.6875 c 0,-0.015625 0,-0.015625 0.0625,-0.078125 C -1.03125,1.5625 -0.84375,1.46875 -0.71875,1.4375 -0.546875,1.390625 -0.375,1.375 -0.171875,1.390625 z m 0,0"
               id="path2976" />
          </symbol>
          <symbol
             overflow="visible"
             id="textext-37351eda-25"
             style="overflow:visible">
            <path
               style="stroke:none"
               d="m 1.609375,-6.1875 c -0.25,0.03125 -0.5,0.21875 -0.625,0.5 -0.09375,0.203125 -0.125,0.484375 -0.078125,0.65625 0.046875,0.15625 0.1875,0.3125 0.375,0.390625 0.171875,0.09375 0.40625,0.109375 0.578125,0.0625 0.171875,-0.0625 0.34375,-0.25 0.40625,-0.453125 0.03125,-0.046875 0.03125,-0.09375 0.03125,-0.1875 0,-0.140625 -0.015625,-0.25 -0.0625,-0.359375 l -0.03125,-0.0625 0.046875,0.03125 c 0.390625,0.296875 0.625,0.671875 0.6875,1.15625 0.015625,0.109375 0.03125,0.28125 0.015625,0.28125 0,0 -0.046875,-0.03125 -0.078125,-0.046875 C 2.640625,-4.328125 2.375,-4.375 2,-4.390625 c -0.21875,0 -0.28125,0 -0.359375,0.015625 -0.171875,0.03125 -0.3125,0.09375 -0.46875,0.1875 -0.09375,0.0625 -0.25,0.203125 -0.296875,0.296875 -0.125,0.203125 -0.140625,0.4375 -0.046875,0.625 C 0.9375,-3.046875 1.25,-2.875 1.5,-2.90625 1.671875,-2.9375 1.8125,-3.046875 1.890625,-3.1875 1.90625,-3.234375 1.90625,-3.234375 1.90625,-3.359375 c 0,-0.09375 0,-0.125 -0.015625,-0.171875 C 1.859375,-3.625 1.8125,-3.65625 1.75,-3.703125 1.6875,-3.71875 1.671875,-3.734375 1.578125,-3.734375 1.5,-3.734375 1.46875,-3.71875 1.421875,-3.703125 1.390625,-3.671875 1.34375,-3.65625 1.3125,-3.625 1.21875,-3.53125 1.171875,-3.421875 1.15625,-3.3125 1.140625,-3.28125 1.140625,-3.234375 1.140625,-3.234375 L 1.109375,-3.28125 C 1.03125,-3.421875 1.015625,-3.625 1.09375,-3.765625 c 0.0625,-0.15625 0.265625,-0.3125 0.5,-0.375 C 1.6875,-4.171875 2,-4.171875 2.15625,-4.15625 2.390625,-4.125 2.625,-4.0625 2.84375,-3.953125 l 0.109375,0.0625 0,0.125 C 2.9375,-3.375 2.828125,-3.09375 2.625,-2.875 2.5,-2.734375 2.359375,-2.640625 2.15625,-2.5625 c -0.25,0.09375 -0.65625,0.15625 -1.0625,0.15625 -0.328125,0 -0.609375,0.109375 -0.828125,0.34375 -0.171875,0.1875 -0.25,0.375 -0.25,0.640625 0,0.140625 0,0.25 0.046875,0.390625 0.171875,0.4375 0.703125,0.828125 1.3125,0.96875 0.203125,0.046875 0.328125,0.046875 0.59375,0.046875 C 2.296875,0 2.484375,-0.03125 2.765625,-0.125 c 0.6875,-0.234375 1.265625,-0.828125 1.4375,-1.515625 0.109375,-0.359375 0.109375,-0.78125 0,-1.15625 -0.09375,-0.359375 -0.265625,-0.6875 -0.5,-0.9375 C 3.5625,-3.875 3.40625,-3.96875 3.25,-4.03125 l -0.0625,-0.03125 0,-0.171875 C 3.15625,-4.765625 3,-5.25 2.703125,-5.640625 2.625,-5.734375 2.46875,-5.90625 2.375,-5.96875 2.15625,-6.125 1.875,-6.21875 1.609375,-6.1875 z m 0.171875,0.390625 c 0.09375,0.03125 0.203125,0.140625 0.25,0.21875 0.03125,0.078125 0.046875,0.171875 0.046875,0.25 0,0.109375 -0.015625,0.1875 -0.046875,0.25 C 1.984375,-5 1.890625,-4.90625 1.828125,-4.859375 1.765625,-4.84375 1.75,-4.84375 1.65625,-4.84375 c -0.109375,0 -0.125,0 -0.1875,-0.03125 -0.171875,-0.09375 -0.296875,-0.359375 -0.25,-0.578125 0.046875,-0.265625 0.3125,-0.421875 0.5625,-0.34375 z M 3.265625,-3.6875 c 0.3125,0.21875 0.5,0.5 0.5625,0.890625 0.015625,0.140625 0.015625,0.390625 0,0.515625 C 3.78125,-2.078125 3.6875,-1.84375 3.5625,-1.671875 3.28125,-1.28125 2.765625,-0.953125 2.234375,-0.84375 c -0.203125,0.0625 -0.34375,0.0625 -0.578125,0.0625 -0.234375,0 -0.328125,0 -0.484375,-0.0625 C 0.84375,-0.921875 0.5625,-1.140625 0.453125,-1.359375 0.40625,-1.453125 0.390625,-1.5 0.375,-1.59375 c -0.015625,-0.1875 0.125,-0.375 0.359375,-0.484375 0.078125,-0.03125 0.234375,-0.0625 0.296875,-0.0625 0.078125,0 0.359375,-0.015625 0.546875,-0.0625 0.625,-0.09375 1,-0.265625 1.25,-0.515625 0.21875,-0.234375 0.328125,-0.546875 0.359375,-0.890625 0,-0.0625 0,-0.125 0,-0.125 0,0 0.046875,0.03125 0.078125,0.046875 z m 0,0"
               id="path2979" />
          </symbol>
          <symbol
             overflow="visible"
             id="textext-37351eda-26"
             style="overflow:visible">
            <path
               style="stroke:none"
               d="m 0,-4.5625 0,0.390625 1.6875,0 1.6875,0 0,-0.390625 0,-0.375 -1.6875,0 -1.6875,0 0,0.375 z m 1.6875,0.515625 C 1.5625,-4 1.46875,-3.921875 1.390625,-3.8125 c -0.09375,0.15625 -0.09375,0.390625 0,0.546875 0.078125,0.109375 0.171875,0.1875 0.296875,0.21875 0.078125,0.03125 0.21875,0.03125 0.3125,0.015625 0.15625,-0.046875 0.296875,-0.203125 0.359375,-0.375 C 2.390625,-3.515625 2.375,-3.6875 2.3125,-3.78125 2.28125,-3.859375 2.15625,-3.984375 2.09375,-4 1.984375,-4.0625 1.796875,-4.09375 1.6875,-4.046875 z M 3.765625,-3.5625 C 3.71875,-3.546875 3.6875,-3.515625 3.6875,-3.515625 c -0.015625,0 0.015625,0.03125 0.046875,0.09375 C 3.921875,-3.15625 4.03125,-2.78125 4.0625,-2.21875 4.09375,-1.6875 4,-1.328125 3.8125,-1.046875 3.6875,-0.84375 3.53125,-0.75 3.375,-0.765625 3.171875,-0.78125 3.046875,-0.921875 2.953125,-1.234375 2.859375,-1.5625 2.71875,-1.8125 2.515625,-2.03125 2.25,-2.296875 1.96875,-2.40625 1.640625,-2.40625 c -0.25,0 -0.484375,0.078125 -0.703125,0.21875 -0.109375,0.078125 -0.296875,0.25 -0.390625,0.390625 -0.265625,0.34375 -0.4375,0.765625 -0.5,1.265625 C 0.015625,-0.40625 0,-0.15625 0,-0.0625 L 0,0 0.109375,0 0.21875,0 0.234375,-0.15625 c 0,-0.15625 0.03125,-0.296875 0.078125,-0.421875 C 0.4375,-0.984375 0.75,-1.34375 1.09375,-1.53125 1.25,-1.609375 1.390625,-1.640625 1.609375,-1.640625 2.0625,-1.65625 2.46875,-1.46875 2.734375,-1.078125 2.84375,-0.953125 2.90625,-0.78125 2.953125,-0.5625 3,-0.375 3.046875,-0.3125 3.15625,-0.203125 3.21875,-0.125 3.25,-0.09375 3.3125,-0.0625 3.453125,0 3.609375,0.015625 3.734375,-0.015625 3.921875,-0.0625 4.09375,-0.234375 4.234375,-0.53125 4.390625,-0.84375 4.46875,-1.21875 4.5,-1.671875 4.53125,-2.296875 4.390625,-2.84375 4.046875,-3.34375 3.96875,-3.46875 3.84375,-3.625 3.84375,-3.625 c 0,0 -0.046875,0.03125 -0.078125,0.0625 z m 0,0"
               id="path2982" />
          </symbol>
          <symbol
             overflow="visible"
             id="textext-37351eda-27"
             style="overflow:visible">
            <path
               style="stroke:none"
               d="M 0.375,-3.765625 C 0.234375,-3.734375 0.109375,-3.625 0.0625,-3.5 -0.046875,-3.296875 -0.015625,-3.046875 0.140625,-2.875 0.3125,-2.6875 0.625,-2.65625 0.84375,-2.796875 0.90625,-2.84375 1,-2.953125 1.03125,-3.015625 1.09375,-3.140625 1.109375,-3.296875 1.078125,-3.4375 1.03125,-3.59375 0.9375,-3.703125 0.765625,-3.765625 c -0.0625,-0.015625 -0.3125,-0.015625 -0.390625,0 z m 0.046875,2.6875 C 0.3125,-1.0625 0.1875,-0.984375 0.125,-0.890625 c -0.171875,0.1875 -0.171875,0.515625 0.03125,0.703125 0.09375,0.109375 0.1875,0.15625 0.359375,0.171875 0.1875,0 0.375,-0.078125 0.484375,-0.25 0.0625,-0.09375 0.09375,-0.15625 0.09375,-0.28125 C 1.109375,-0.8125 1,-0.984375 0.78125,-1.0625 0.703125,-1.078125 0.5,-1.09375 0.421875,-1.078125 z m 0,0"
               id="path2985" />
          </symbol>
          <symbol
             overflow="visible"
             id="textext-37351eda-28"
             style="overflow:visible">
            <path
               style="stroke:none"
               d="m 1.1875,-4.9375 c -0.3125,0.03125 -0.609375,0.15625 -0.84375,0.390625 -0.3125,0.3125 -0.40625,0.703125 -0.296875,1.21875 0.046875,0.203125 0.109375,0.359375 0.234375,0.53125 0.0625,0.109375 0.203125,0.25 0.28125,0.3125 0.078125,0.0625 0.25,0.125 0.34375,0.15625 0.046875,0.015625 0.078125,0.03125 0.0625,0.03125 -0.25,0.078125 -0.40625,0.171875 -0.5625,0.34375 -0.234375,0.234375 -0.359375,0.484375 -0.390625,0.8125 -0.03125,0.265625 0.015625,0.5 0.140625,0.6875 0.0625,0.09375 0.234375,0.25 0.328125,0.3125 0.34375,0.203125 0.828125,0.1875 1.1875,-0.0625 0.125,-0.09375 0.328125,-0.3125 0.40625,-0.421875 0,-0.03125 0,-0.03125 -0.046875,-0.09375 L 1.984375,-0.765625 1.90625,-0.6875 c -0.125,0.125 -0.234375,0.171875 -0.375,0.21875 -0.109375,0.03125 -0.3125,0.03125 -0.421875,0 -0.328125,-0.09375 -0.5625,-0.359375 -0.59375,-0.6875 -0.03125,-0.15625 0,-0.296875 0.046875,-0.4375 0.109375,-0.203125 0.328125,-0.4375 0.609375,-0.5625 0.140625,-0.0625 0.234375,-0.09375 0.4375,-0.140625 0.03125,0 0.015625,-0.015625 -0.0625,-0.03125 C 1.03125,-2.4375 0.625,-2.765625 0.515625,-3.140625 0.5,-3.234375 0.5,-3.4375 0.53125,-3.53125 0.5625,-3.671875 0.640625,-3.796875 0.75,-3.90625 0.84375,-3.984375 0.890625,-4.03125 1,-4.078125 c 0.125,-0.0625 0.21875,-0.078125 0.390625,-0.09375 0.234375,0 0.390625,0.03125 0.59375,0.140625 0.265625,0.125 0.5,0.375 0.625,0.65625 0.046875,0.109375 0.109375,0.25 0.125,0.34375 l 0,0.0625 0.03125,-0.109375 c 0.09375,-0.34375 0.28125,-0.59375 0.59375,-0.8125 0.09375,-0.0625 0.296875,-0.171875 0.40625,-0.203125 0.1875,-0.046875 0.265625,-0.0625 0.515625,-0.0625 0.21875,0 0.25,0 0.359375,0.015625 C 4.796875,-4.09375 4.875,-4.0625 5,-4 c 0.15625,0.078125 0.28125,0.15625 0.40625,0.296875 0.15625,0.15625 0.25,0.28125 0.328125,0.4375 0.171875,0.34375 0.234375,0.734375 0.171875,1.1875 C 5.84375,-1.484375 5.5625,-1.0625 5.125,-0.875 c -0.34375,0.140625 -0.828125,0.140625 -1.140625,0 -0.21875,-0.109375 -0.40625,-0.28125 -0.515625,-0.515625 -0.109375,-0.21875 -0.140625,-0.46875 -0.0625,-0.6875 0.078125,-0.28125 0.328125,-0.53125 0.5625,-0.578125 0.140625,-0.046875 0.296875,-0.03125 0.421875,0.03125 0.078125,0.046875 0.1875,0.140625 0.21875,0.21875 0.125,0.25 -0.015625,0.5625 -0.265625,0.609375 l -0.0625,0 0,0.109375 c 0,0.125 0,0.109375 0.125,0.078125 0.234375,-0.046875 0.4375,-0.25 0.515625,-0.53125 C 4.9375,-2.25 4.9375,-2.4375 4.921875,-2.546875 4.890625,-2.6875 4.828125,-2.78125 4.71875,-2.890625 4.609375,-3 4.53125,-3.046875 4.421875,-3.09375 4.34375,-3.109375 4.3125,-3.109375 4.171875,-3.109375 4,-3.125 3.9375,-3.09375 3.8125,-3.03125 3.5,-2.875 3.234375,-2.515625 3.15625,-2.109375 c -0.0625,0.25 -0.03125,0.640625 0.03125,0.9375 0.125,0.5 0.46875,0.921875 0.84375,1.078125 C 4.296875,0.015625 4.609375,0.03125 4.875,-0.0625 5.421875,-0.234375 5.921875,-0.9375 6.078125,-1.75 6.1875,-2.265625 6.15625,-2.90625 6.015625,-3.40625 5.890625,-3.828125 5.6875,-4.1875 5.421875,-4.46875 5.078125,-4.8125 4.71875,-4.96875 4.265625,-4.9375 3.921875,-4.90625 3.609375,-4.78125 3.3125,-4.546875 3.078125,-4.34375 2.875,-4.0625 2.78125,-3.75 L 2.734375,-3.625 2.71875,-3.734375 C 2.609375,-4.046875 2.46875,-4.28125 2.265625,-4.5 2.09375,-4.671875 1.9375,-4.78125 1.75,-4.859375 1.578125,-4.921875 1.390625,-4.953125 1.1875,-4.9375 z m 0,0"
               id="path2988" />
          </symbol>
        </g>
      </defs>
      <g
         id="textext-37351eda-29">
        <g
           transform="translate(6.2461213,-5.8037486)"
           id="g3315">
          <g
             id="g2991"
             style="fill:#000000;fill-opacity:1"
             transform="translate(17.005869,-112.72208)">
            <use
               id="use2993"
               y="134.765"
               x="223.43201"
               xlink:href="#textext-37351eda-1"
               width="744.09448"
               height="1052.3622" />
            <use
               id="use2995"
               y="134.765"
               x="229.92363"
               xlink:href="#textext-37351eda-2"
               width="744.09448"
               height="1052.3622" />
            <use
               id="use2997"
               y="134.765"
               x="236.4043"
               xlink:href="#textext-37351eda-3"
               width="744.09448"
               height="1052.3622" />
            <use
               id="use2999"
               y="134.765"
               x="240.26381"
               xlink:href="#textext-37351eda-4"
               width="744.09448"
               height="1052.3622" />
            <use
               id="use3001"
               y="134.765"
               x="240.35347"
               xlink:href="#textext-37351eda-5"
               width="744.09448"
               height="1052.3622" />
            <use
               id="use3003"
               y="134.765"
               x="246.80426"
               xlink:href="#textext-37351eda-2"
               width="744.09448"
               height="1052.3622" />
            <use
               id="use3005"
               y="134.765"
               x="253.28493"
               xlink:href="#textext-37351eda-6"
               width="744.09448"
               height="1052.3622" />
            <use
               id="use3007"
               y="134.765"
               x="253.30386"
               xlink:href="#textext-37351eda-7"
               width="744.09448"
               height="1052.3622" />
            <use
               id="use3009"
               y="134.765"
               x="258.46948"
               xlink:href="#textext-37351eda-8"
               width="744.09448"
               height="1052.3622" />
            <use
               id="use3011"
               y="134.765"
               x="263.74466"
               xlink:href="#textext-37351eda-6"
               width="744.09448"
               height="1052.3622" />
          </g>
          <g
             id="g3013"
             style="fill:#000000;fill-opacity:1"
             transform="translate(17.005869,-112.72208)">
            <use
               id="use3015"
               y="134.765"
               x="266.47342"
               xlink:href="#textext-37351eda-9"
               width="744.09448"
               height="1052.3622" />
          </g>
          <g
             id="g3017"
             style="fill:#000000;fill-opacity:1"
             transform="translate(17.005869,-112.72208)">
            <use
               id="use3019"
               y="134.765"
               x="269.93344"
               xlink:href="#textext-37351eda-10"
               width="744.09448"
               height="1052.3622" />
            <use
               id="use3021"
               y="134.765"
               x="275.31821"
               xlink:href="#textext-37351eda-11"
               width="744.09448"
               height="1052.3622" />
            <use
               id="use3023"
               y="134.765"
               x="275.33716"
               xlink:href="#textext-37351eda-12"
               width="744.09448"
               height="1052.3622" />
            <use
               id="use3025"
               y="134.765"
               x="281.88855"
               xlink:href="#textext-37351eda-13"
               width="744.09448"
               height="1052.3622" />
            <use
               id="use3027"
               y="134.765"
               x="285.45816"
               xlink:href="#textext-37351eda-14"
               width="744.09448"
               height="1052.3622" />
            <use
               id="use3029"
               y="134.765"
               x="291.94977"
               xlink:href="#textext-37351eda-7"
               width="744.09448"
               height="1052.3622" />
            <use
               id="use3031"
               y="134.765"
               x="297.11539"
               xlink:href="#textext-37351eda-15"
               width="744.09448"
               height="1052.3622" />
            <use
               id="use3033"
               y="134.765"
               x="303.59607"
               xlink:href="#textext-37351eda-6"
               width="744.09448"
               height="1052.3622" />
            <use
               id="use3035"
               y="134.765"
               x="303.61499"
               xlink:href="#textext-37351eda-16"
               width="744.09448"
               height="1052.3622" />
            <use
               id="use3037"
               y="134.765"
               x="308.99979"
               xlink:href="#textext-37351eda-3"
               width="744.09448"
               height="1052.3622" />
            <use
               id="use3039"
               y="134.765"
               x="312.85928"
               xlink:href="#textext-37351eda-17"
               width="744.09448"
               height="1052.3622" />
            <use
               id="use3041"
               y="134.765"
               x="319.36188"
               xlink:href="#textext-37351eda-7"
               width="744.09448"
               height="1052.3622" />
            <use
               id="use3043"
               y="134.765"
               x="324.5275"
               xlink:href="#textext-37351eda-18"
               width="744.09448"
               height="1052.3622" />
            <use
               id="use3045"
               y="134.765"
               x="327.66968"
               xlink:href="#textext-37351eda-6"
               width="744.09448"
               height="1052.3622" />
            <use
               id="use3047"
               y="134.765"
               x="327.68863"
               xlink:href="#textext-37351eda-19"
               width="744.09448"
               height="1052.3622" />
            <use
               id="use3049"
               y="134.765"
               x="330.68936"
               xlink:href="#textext-37351eda-20"
               width="744.09448"
               height="1052.3622" />
            <use
               id="use3051"
               y="134.765"
               x="331.73642"
               xlink:href="#textext-37351eda-21"
               width="744.09448"
               height="1052.3622" />
          </g>
        </g>
        <g
           transform="translate(-26.741356,-83.115025)"
           style="fill:#000000;fill-opacity:1"
           id="g3053">
          <use
             height="1052.3622"
             width="744.09448"
             xlink:href="#textext-37351eda-1"
             x="223.43201"
             y="146.72"
             id="use3055" />
          <use
             height="1052.3622"
             width="744.09448"
             xlink:href="#textext-37351eda-2"
             x="229.92363"
             y="146.72"
             id="use3057" />
          <use
             height="1052.3622"
             width="744.09448"
             xlink:href="#textext-37351eda-3"
             x="236.4043"
             y="146.72"
             id="use3059" />
          <use
             height="1052.3622"
             width="744.09448"
             xlink:href="#textext-37351eda-4"
             x="240.26381"
             y="146.72"
             id="use3061" />
          <use
             height="1052.3622"
             width="744.09448"
             xlink:href="#textext-37351eda-17"
             x="240.35347"
             y="146.72"
             id="use3063" />
          <use
             height="1052.3622"
             width="744.09448"
             xlink:href="#textext-37351eda-7"
             x="246.85606"
             y="146.72"
             id="use3065" />
          <use
             height="1052.3622"
             width="744.09448"
             xlink:href="#textext-37351eda-18"
             x="252.02167"
             y="146.72"
             id="use3067" />
          <use
             height="1052.3622"
             width="744.09448"
             xlink:href="#textext-37351eda-6"
             x="255.16388"
             y="146.72"
             id="use3069" />
          <use
             height="1052.3622"
             width="744.09448"
             xlink:href="#textext-37351eda-19"
             x="255.1828"
             y="146.72"
             id="use3071" />
          <use
             height="1052.3622"
             width="744.09448"
             xlink:href="#textext-37351eda-20"
             x="258.18353"
             y="146.72"
             id="use3073" />
        </g>
        <g
           transform="translate(162.94901,-92.507986)"
           style="fill:#000000;fill-opacity:1"
           id="g3075">
          <use
             height="1052.3622"
             width="744.09448"
             xlink:href="#textext-37351eda-1"
             x="223.43201"
             y="158.675"
             id="use3077" />
          <use
             height="1052.3622"
             width="744.09448"
             xlink:href="#textext-37351eda-22"
             x="229.92363"
             y="158.675"
             id="use3079" />
          <use
             height="1052.3622"
             width="744.09448"
             xlink:href="#textext-37351eda-3"
             x="236.4043"
             y="158.675"
             id="use3081" />
          <use
             height="1052.3622"
             width="744.09448"
             xlink:href="#textext-37351eda-23"
             x="240.26381"
             y="158.675"
             id="use3083" />
          <use
             height="1052.3622"
             width="744.09448"
             xlink:href="#textext-37351eda-17"
             x="240.38336"
             y="158.675"
             id="use3085" />
          <use
             height="1052.3622"
             width="744.09448"
             xlink:href="#textext-37351eda-22"
             x="246.88596"
             y="158.675"
             id="use3087" />
          <use
             height="1052.3622"
             width="744.09448"
             xlink:href="#textext-37351eda-6"
             x="253.36662"
             y="158.675"
             id="use3089" />
          <use
             height="1052.3622"
             width="744.09448"
             xlink:href="#textext-37351eda-19"
             x="253.38556"
             y="158.675"
             id="use3091" />
          <use
             height="1052.3622"
             width="744.09448"
             xlink:href="#textext-37351eda-24"
             x="256.38629"
             y="158.675"
             id="use3093" />
        </g>
        <g
           style="fill:#000000;fill-opacity:1"
           id="g3095"
           transform="translate(-16.623005,-91.426528)">
          <use
             xlink:href="#textext-37351eda-25"
             x="223.43201"
             y="170.63"
             id="use3097"
             width="744.09448"
             height="1052.3622" />
          <use
             xlink:href="#textext-37351eda-7"
             x="228.7072"
             y="170.63"
             id="use3099"
             width="744.09448"
             height="1052.3622" />
          <use
             xlink:href="#textext-37351eda-10"
             x="233.8728"
             y="170.63"
             id="use3101"
             width="744.09448"
             height="1052.3622" />
          <use
             xlink:href="#textext-37351eda-3"
             x="239.25758"
             y="170.63"
             id="use3103"
             width="744.09448"
             height="1052.3622" />
          <use
             xlink:href="#textext-37351eda-16"
             x="243.1171"
             y="170.63"
             id="use3105"
             width="744.09448"
             height="1052.3622" />
          <use
             xlink:href="#textext-37351eda-6"
             x="248.50189"
             y="170.63"
             id="use3107"
             width="744.09448"
             height="1052.3622" />
          <use
             xlink:href="#textext-37351eda-22"
             x="248.52081"
             y="170.63"
             id="use3109"
             width="744.09448"
             height="1052.3622" />
          <use
             xlink:href="#textext-37351eda-6"
             x="255.00148"
             y="170.63"
             id="use3111"
             width="744.09448"
             height="1052.3622" />
          <use
             xlink:href="#textext-37351eda-19"
             x="255.02042"
             y="170.63"
             id="use3113"
             width="744.09448"
             height="1052.3622" />
          <use
             xlink:href="#textext-37351eda-24"
             x="258.02115"
             y="170.63"
             id="use3115"
             width="744.09448"
             height="1052.3622" />
        </g>
        <g
           style="fill:#000000;fill-opacity:1"
           id="g3117"
           transform="translate(-36.613923,-71.055416)">
          <use
             xlink:href="#textext-37351eda-26"
             x="223.43201"
             y="182.586"
             id="use3119"
             width="744.09448"
             height="1052.3622" />
          <use
             xlink:href="#textext-37351eda-11"
             x="228.92538"
             y="182.586"
             id="use3121"
             width="744.09448"
             height="1052.3622" />
          <use
             xlink:href="#textext-37351eda-12"
             x="228.94431"
             y="182.586"
             id="use3123"
             width="744.09448"
             height="1052.3622" />
          <use
             xlink:href="#textext-37351eda-26"
             x="235.49571"
             y="182.586"
             id="use3125"
             width="744.09448"
             height="1052.3622" />
          <use
             xlink:href="#textext-37351eda-11"
             x="240.98909"
             y="182.586"
             id="use3127"
             width="744.09448"
             height="1052.3622" />
          <use
             xlink:href="#textext-37351eda-27"
             x="241.00803"
             y="182.586"
             id="use3129"
             width="744.09448"
             height="1052.3622" />
        </g>
        <g
           style="fill:#000000;fill-opacity:1"
           id="g3131"
           transform="translate(-36.613923,-71.055416)">
          <use
             xlink:href="#textext-37351eda-1"
             x="245.83092"
             y="182.586"
             id="use3133"
             width="744.09448"
             height="1052.3622" />
          <use
             xlink:href="#textext-37351eda-22"
             x="252.32254"
             y="182.586"
             id="use3135"
             width="744.09448"
             height="1052.3622" />
          <use
             xlink:href="#textext-37351eda-6"
             x="258.80322"
             y="182.586"
             id="use3137"
             width="744.09448"
             height="1052.3622" />
          <use
             xlink:href="#textext-37351eda-19"
             x="258.82214"
             y="182.586"
             id="use3139"
             width="744.09448"
             height="1052.3622" />
          <use
             xlink:href="#textext-37351eda-24"
             x="261.82288"
             y="182.586"
             id="use3141"
             width="744.09448"
             height="1052.3622" />
          <use
             xlink:href="#textext-37351eda-28"
             x="262.36087"
             y="182.586"
             id="use3143"
             width="744.09448"
             height="1052.3622" />
          <use
             xlink:href="#textext-37351eda-20"
             x="269.50204"
             y="182.586"
             id="use3145"
             width="744.09448"
             height="1052.3622" />
          <use
             xlink:href="#textext-37351eda-22"
             x="270.54913"
             y="182.586"
             id="use3147"
             width="744.09448"
             height="1052.3622" />
          <use
             xlink:href="#textext-37351eda-6"
             x="277.02979"
             y="182.586"
             id="use3149"
             width="744.09448"
             height="1052.3622" />
          <use
             xlink:href="#textext-37351eda-19"
             x="277.04871"
             y="182.586"
             id="use3151"
             width="744.09448"
             height="1052.3622" />
          <use
             xlink:href="#textext-37351eda-24"
             x="280.04947"
             y="182.586"
             id="use3153"
             width="744.09448"
             height="1052.3622" />
        </g>
        <path
           inkscape:original-d="m 214.14127,53.777917 0,-16.666666 203.35499,0 0,16.666666"
           inkscape:path-effect="#path-effect3307"
           id="path3305"
           d="m 214.14127,53.777917 0,-16.666666 203.35499,0 0,16.666666"
           style="color:#000000;fill:none;stroke:#000000;stroke-width:0.83333337;stroke-linecap:butt;stroke-linejoin:miter;stroke-miterlimit:4;stroke-opacity:1;stroke-dasharray:none;stroke-dashoffset:0;marker:none;visibility:visible;display:inline;overflow:visible;enable-background:accumulate"
           inkscape:connector-curvature="0" />
        <path
           inkscape:original-d="m 314.97466,20.444583 0,16.666667"
           inkscape:path-effect="#path-effect3313"
           id="path3311"
           d="m 314.97466,20.444583 0,16.666667"
           style="color:#000000;fill:none;stroke:#000000;stroke-width:0.83333331;stroke-linecap:butt;stroke-linejoin:miter;stroke-miterlimit:4;stroke-opacity:1;stroke-dasharray:none;stroke-dashoffset:0;marker:none;visibility:visible;display:inline;overflow:visible;enable-background:accumulate"
           inkscape:connector-curvature="0" />
        <g
           id="g3504"
           ns0:preamble="/home/sriranga/Desktop/thesis_figures/texfile.tex"
           ns0:text="{\\kan patinx:}"
           transform="matrix(1.2,0,0,1.2,-83.837765,-83.476395)">
          <defs
             id="defs3506">
            <g
               id="g3508">
              <symbol
                 id="textext-31e13716-0"
                 overflow="visible"
                 style="overflow:visible">
                <path
                   id="path3511"
                   d=""
                   style="stroke:none" />
              </symbol>
              <symbol
                 id="textext-31e13716-1"
                 overflow="visible"
                 style="overflow:visible">
                <path
                   id="path3514"
                   d="m 0,-4.5625 0,0.390625 2.171875,0 2.171875,0 0,-0.390625 0,-0.375 -2.171875,0 -2.171875,0 0,0.375 z m 2.578125,0.546875 c -0.15625,0.0625 -0.28125,0.171875 -0.328125,0.34375 -0.03125,0.078125 -0.03125,0.234375 0,0.328125 0.03125,0.125 0.125,0.25 0.265625,0.296875 0.25,0.140625 0.578125,0.03125 0.703125,-0.25 C 3.265625,-3.375 3.265625,-3.375 3.265625,-3.484375 3.265625,-3.65625 3.234375,-3.765625 3.125,-3.890625 3,-4 2.90625,-4.03125 2.734375,-4.03125 c -0.0625,0 -0.109375,0 -0.15625,0.015625 z M 4.78125,-3.6875 C 4.75,-3.65625 4.75,-3.640625 4.75,-3.578125 c 0,0.109375 0.03125,0.1875 0.078125,0.28125 0.25,0.484375 0.328125,0.6875 0.390625,0.96875 0.09375,0.375 0.046875,0.71875 -0.109375,1 -0.125,0.21875 -0.34375,0.40625 -0.546875,0.484375 -0.21875,0.109375 -0.5,0.109375 -0.78125,0.015625 C 3.40625,-0.953125 3.046875,-1.3125 2.859375,-1.78125 2.828125,-1.875 2.75,-2.109375 2.75,-2.15625 2.75,-2.171875 2.734375,-2.140625 2.71875,-2.078125 2.65625,-1.75 2.5,-1.46875 2.296875,-1.234375 1.984375,-0.875 1.578125,-0.71875 1.171875,-0.765625 0.734375,-0.8125 0.34375,-1.125 0.25,-1.53125 0.21875,-1.640625 0.21875,-1.859375 0.25,-1.96875 0.3125,-2.234375 0.515625,-2.4375 0.734375,-2.5 1,-2.5625 1.28125,-2.4375 1.390625,-2.21875 c 0.03125,0.078125 0.03125,0.078125 0.03125,0.1875 C 1.4375,-1.84375 1.390625,-1.6875 1.3125,-1.609375 1.25,-1.5625 1.21875,-1.546875 1.140625,-1.53125 l -0.046875,0 0,0.09375 0,0.078125 0.03125,0 c 0.046875,0 0.171875,-0.03125 0.234375,-0.046875 C 1.4375,-1.4375 1.53125,-1.5 1.609375,-1.578125 1.75,-1.734375 1.8125,-1.90625 1.8125,-2.125 1.8125,-2.28125 1.78125,-2.40625 1.671875,-2.53125 1.5625,-2.65625 1.390625,-2.765625 1.21875,-2.8125 1.125,-2.84375 0.921875,-2.84375 0.828125,-2.828125 0.421875,-2.734375 0.125,-2.375 0.015625,-1.90625 0,-1.765625 0,-1.46875 0.03125,-1.296875 c 0.0625,0.390625 0.234375,0.703125 0.484375,0.96875 0.359375,0.359375 0.859375,0.4375 1.3125,0.21875 0.40625,-0.1875 0.71875,-0.59375 0.890625,-1.078125 l 0.015625,-0.125 0.0625,0.140625 c 0.09375,0.296875 0.21875,0.53125 0.4375,0.75 0.171875,0.171875 0.375,0.3125 0.5625,0.375 0.21875,0.0625 0.484375,0.078125 0.671875,0 0.390625,-0.109375 0.75,-0.515625 0.921875,-1 C 5.484375,-1.34375 5.5,-1.640625 5.484375,-2.1875 c -0.03125,-0.6875 -0.09375,-1.015625 -0.25,-1.265625 -0.125,-0.171875 -0.25,-0.265625 -0.375,-0.265625 -0.0625,0 -0.0625,0 -0.078125,0.03125 z m 0,0"
                   style="stroke:none" />
              </symbol>
              <symbol
                 id="textext-31e13716-2"
                 overflow="visible"
                 style="overflow:visible">
                <path
                   id="path3517"
                   d="m -1.671875,-6.4375 -0.046875,0.0625 0.046875,0.046875 c 0.03125,0.015625 0.09375,0.0625 0.140625,0.109375 0.109375,0.125 0.1875,0.28125 0.203125,0.515625 0,0.234375 -0.0625,0.375 -0.203125,0.53125 -0.078125,0.078125 -0.109375,0.09375 -0.1875,0.140625 -0.171875,0.078125 -0.1875,0.078125 -0.5625,0.09375 l -0.328125,0 0,0.375 0,0.390625 0.234375,0 c 0.25,0 0.390625,0 0.5,-0.03125 C -1.453125,-4.3125 -1.125,-4.6875 -1.03125,-5.21875 -1,-5.359375 -0.984375,-5.609375 -1,-5.71875 c -0.0625,-0.34375 -0.21875,-0.578125 -0.5,-0.75 -0.109375,-0.0625 -0.109375,-0.0625 -0.171875,0.03125 z m 0,0"
                   style="stroke:none" />
              </symbol>
              <symbol
                 id="textext-31e13716-3"
                 overflow="visible"
                 style="overflow:visible">
                <path
                   id="path3520"
                   d="m 1.96875,-6.140625 c -0.203125,0.03125 -0.390625,0.125 -0.546875,0.28125 C 1.25,-5.671875 1.1875,-5.46875 1.21875,-5.1875 c 0.03125,0.34375 0.109375,0.5625 0.3125,0.75 0.15625,0.15625 0.3125,0.234375 0.5625,0.265625 0.375,0.03125 0.734375,-0.15625 0.90625,-0.5 0.046875,-0.078125 0.078125,-0.1875 0.078125,-0.265625 0,0 0,-0.046875 0,-0.046875 0,0 0.046875,0.046875 0.046875,0.046875 0.078125,0.078125 0.171875,0.203125 0.21875,0.3125 0.078125,0.171875 0.09375,0.234375 0.109375,0.453125 0,0.28125 -0.03125,0.453125 -0.125,0.609375 l -0.03125,0.046875 -0.0625,-0.015625 C 3.09375,-3.59375 2.90625,-3.625 2.609375,-3.625 c -0.375,0 -0.609375,0.0625 -0.875,0.1875 -0.265625,0.140625 -0.46875,0.34375 -0.546875,0.5625 -0.109375,0.328125 0.015625,0.609375 0.359375,0.765625 0.171875,0.09375 0.3125,0.125 0.5625,0.125 0.234375,0 0.421875,-0.046875 0.640625,-0.15625 C 3.09375,-2.3125 3.375,-2.625 3.484375,-2.984375 l 0.03125,-0.09375 0.0625,0.0625 c 0.21875,0.203125 0.34375,0.5 0.375,0.828125 C 3.984375,-1.796875 3.859375,-1.5 3.5625,-1.21875 3.4375,-1.09375 3.3125,-1 3.140625,-0.921875 2.90625,-0.8125 2.6875,-0.734375 2.40625,-0.71875 1.734375,-0.65625 1.09375,-0.875 0.671875,-1.28125 0.484375,-1.484375 0.375,-1.703125 0.34375,-1.96875 c -0.03125,-0.171875 0,-0.296875 0.0625,-0.40625 L 0.4375,-2.421875 0.34375,-2.46875 0.265625,-2.515625 0.234375,-2.5 C 0.1875,-2.4375 0.125,-2.34375 0.09375,-2.265625 c -0.078125,0.15625 -0.109375,0.40625 -0.078125,0.625 0.03125,0.375 0.15625,0.65625 0.4375,0.9375 0.28125,0.296875 0.65625,0.515625 1.0625,0.625 0.234375,0.0625 0.375,0.0625 0.671875,0.0625 0.28125,0 0.390625,0 0.609375,-0.046875 C 3.203125,-0.171875 3.515625,-0.359375 3.8125,-0.640625 4.171875,-1 4.3125,-1.390625 4.28125,-1.90625 4.25,-2.1875 4.21875,-2.390625 4.140625,-2.578125 4.03125,-2.84375 3.84375,-3.078125 3.625,-3.21875 3.578125,-3.265625 3.53125,-3.296875 3.53125,-3.296875 c -0.015625,0 0,-0.03125 0.015625,-0.078125 0.078125,-0.15625 0.125,-0.4375 0.125,-0.765625 0,-0.390625 -0.0625,-0.6875 -0.21875,-0.984375 C 3.34375,-5.34375 3.21875,-5.5 3.015625,-5.703125 2.671875,-6.03125 2.328125,-6.1875 1.96875,-6.140625 z m 0.296875,0.5 C 2.34375,-5.625 2.46875,-5.578125 2.578125,-5.5 c 0.078125,0.078125 0.265625,0.28125 0.265625,0.296875 0,0.03125 -0.09375,0.234375 -0.15625,0.296875 -0.125,0.171875 -0.28125,0.234375 -0.515625,0.234375 -0.34375,0 -0.53125,-0.109375 -0.578125,-0.359375 -0.03125,-0.28125 0.1875,-0.578125 0.484375,-0.609375 0.078125,-0.015625 0.09375,-0.015625 0.1875,0 z M 2.9375,-3.375 c 0.09375,0.015625 0.203125,0.0625 0.21875,0.078125 0.03125,0 0.03125,0 0,0.078125 C 3.125,-3.125 3.015625,-2.984375 2.9375,-2.90625 2.859375,-2.828125 2.71875,-2.71875 2.625,-2.671875 2.421875,-2.578125 2.140625,-2.515625 1.90625,-2.515625 1.609375,-2.546875 1.515625,-2.625 1.546875,-2.8125 1.5625,-2.90625 1.609375,-3 1.6875,-3.078125 1.84375,-3.25 2.046875,-3.34375 2.34375,-3.390625 c 0.0625,-0.015625 0.515625,0 0.59375,0.015625 z m 0,0"
                   style="stroke:none" />
              </symbol>
              <symbol
                 id="textext-31e13716-4"
                 overflow="visible"
                 style="overflow:visible">
                <path
                   id="path3523"
                   d="M -0.15625,-1.015625 C -0.1875,-1 -0.21875,-0.921875 -0.21875,-0.875 c 0,0.046875 0.03125,0.125 0.0625,0.171875 0.03125,0.03125 0.140625,0.15625 0.25,0.28125 0.140625,0.125 0.265625,0.25 0.3125,0.328125 0.21875,0.28125 0.328125,0.6875 0.3125,1.125 C 0.703125,1.171875 0.703125,1.21875 0.6875,1.296875 0.640625,1.484375 0.5625,1.625 0.4375,1.75 L 0.375,1.828125 0.296875,1.75 C 0.0625,1.5 -0.21875,1.3125 -0.53125,1.25 -0.78125,1.203125 -1.140625,1.21875 -1.40625,1.3125 -1.8125,1.453125 -1.984375,1.671875 -1.96875,2 c 0.015625,0.21875 0.09375,0.375 0.25,0.53125 0.171875,0.15625 0.390625,0.265625 0.609375,0.296875 0.125,0.015625 0.34375,0.015625 0.46875,0 0.234375,-0.0625 0.515625,-0.203125 0.78125,-0.40625 0.0625,-0.046875 0.125,-0.09375 0.140625,-0.09375 0,0 0.09375,0.21875 0.171875,0.5 0.109375,0.28125 0.203125,0.53125 0.21875,0.5625 0.09375,0.171875 0.21875,0.296875 0.390625,0.375 0.140625,0.0625 0.203125,0.078125 0.359375,0.09375 0.109375,0 0.125,0 0.171875,-0.015625 C 1.71875,3.78125 1.8125,3.625 1.875,3.390625 1.890625,3.34375 1.90625,3.265625 1.90625,3.25 l 0,-0.046875 -0.109375,0 C 1.484375,3.1875 1.21875,3.078125 1.046875,2.921875 1,2.875 0.8125,2.609375 0.625,2.28125 L 0.5,2.09375 0.53125,2.0625 C 0.59375,2 0.6875,1.828125 0.734375,1.734375 c 0.109375,-0.1875 0.15625,-0.390625 0.1875,-0.625 0.03125,-0.140625 0.015625,-0.59375 0,-0.78125 -0.0625,-0.375 -0.15625,-0.6875 -0.28125,-0.90625 -0.171875,-0.28125 -0.390625,-0.4375 -0.65625,-0.453125 -0.078125,0 -0.109375,0 -0.140625,0.015625 z m -0.421875,2.4375 C -0.34375,1.484375 -0.15625,1.59375 0.0625,1.8125 c 0.0625,0.0625 0.109375,0.125 0.109375,0.125 0,0 -0.125,0.09375 -0.21875,0.140625 C -0.1875,2.171875 -0.375,2.234375 -0.5625,2.265625 -0.640625,2.28125 -0.71875,2.28125 -0.859375,2.28125 c -0.171875,0 -0.203125,0 -0.28125,-0.015625 C -1.3125,2.21875 -1.484375,2.125 -1.546875,2.046875 c -0.0625,-0.078125 -0.0625,-0.125 -0.0625,-0.21875 0,-0.078125 0,-0.09375 0.03125,-0.15625 0.078125,-0.15625 0.25,-0.234375 0.59375,-0.265625 0.09375,-0.015625 0.328125,0 0.40625,0.015625 z m 0,0"
                   style="stroke:none" />
              </symbol>
              <symbol
                 id="textext-31e13716-5"
                 overflow="visible"
                 style="overflow:visible">
                <path
                   id="path3526"
                   d="M 0.375,-3.765625 C 0.234375,-3.734375 0.109375,-3.625 0.0625,-3.5 -0.046875,-3.296875 -0.015625,-3.046875 0.140625,-2.875 0.3125,-2.6875 0.625,-2.65625 0.84375,-2.796875 0.90625,-2.84375 1,-2.953125 1.03125,-3.015625 1.09375,-3.140625 1.109375,-3.296875 1.078125,-3.4375 1.03125,-3.59375 0.9375,-3.703125 0.765625,-3.765625 c -0.0625,-0.015625 -0.3125,-0.015625 -0.390625,0 z m 0.046875,2.6875 C 0.3125,-1.0625 0.1875,-0.984375 0.125,-0.890625 c -0.171875,0.1875 -0.171875,0.515625 0.03125,0.703125 0.09375,0.109375 0.1875,0.15625 0.359375,0.171875 0.1875,0 0.375,-0.078125 0.484375,-0.25 0.0625,-0.09375 0.09375,-0.15625 0.09375,-0.28125 C 1.109375,-0.8125 1,-0.984375 0.78125,-1.0625 0.703125,-1.078125 0.5,-1.09375 0.421875,-1.078125 z m 0,0"
                   style="stroke:none" />
              </symbol>
            </g>
          </defs>
          <g
             id="textext-31e13716-6">
            <g
               id="g3529"
               style="fill:#000000;fill-opacity:1">
              <use
                 id="use3531"
                 y="134.765"
                 x="223.43201"
                 xlink:href="#textext-31e13716-1"
                 width="744.09448"
                 height="1052.3622" />
              <use
                 id="use3533"
                 y="134.765"
                 x="229.91267"
                 xlink:href="#textext-31e13716-2"
                 width="744.09448"
                 height="1052.3622" />
              <use
                 id="use3535"
                 y="134.765"
                 x="229.93159"
                 xlink:href="#textext-31e13716-3"
                 width="744.09448"
                 height="1052.3622" />
              <use
                 id="use3537"
                 y="134.765"
                 x="235.2068"
                 xlink:href="#textext-31e13716-4"
                 width="744.09448"
                 height="1052.3622" />
              <use
                 id="use3539"
                 y="134.765"
                 x="236.74203"
                 xlink:href="#textext-31e13716-5"
                 width="744.09448"
                 height="1052.3622" />
            </g>
          </g>
        </g>
        <path
           style="color:#000000;fill:none;stroke:#000000;stroke-width:0.83333331;stroke-linecap:butt;stroke-linejoin:miter;stroke-miterlimit:4;stroke-opacity:1;stroke-dasharray:none;stroke-dashoffset:0;marker:none;visibility:visible;display:inline;overflow:visible;enable-background:accumulate"
           d="m 214.14129,82.944584 0,16.666667"
           id="path3717"
           inkscape:path-effect="#path-effect3719"
           inkscape:original-d="m 214.14129,82.944584 0,16.666667" />
        <text
           xml:space="preserve"
           style="font-size:9.16666698px;font-style:normal;font-variant:normal;font-weight:normal;font-stretch:normal;text-align:center;line-height:125%;letter-spacing:0px;word-spacing:0px;text-anchor:middle;fill:#000000;fill-opacity:1;stroke:none;font-family:NudiUni01e;-inkscape-font-specification:NudiUni01e"
           x="438.61697"
           y="65.751862"
           id="text3157"
           sodipodi:linespacing="125%"><tspan
             sodipodi:role="line"
             id="tspan3159"
             x="438.61697"
             y="65.751862">()</tspan></text>
        <path
           inkscape:connector-curvature="0"
           style="color:#000000;fill:none;stroke:#000000;stroke-width:0.83333331;stroke-linecap:butt;stroke-linejoin:miter;stroke-miterlimit:4;stroke-opacity:1;stroke-dasharray:none;stroke-dashoffset:0;marker:none;visibility:visible;display:inline;overflow:visible;enable-background:accumulate"
           d="m 420.02517,82.1329 0,16.666667"
           id="path3161"
           inkscape:path-effect="#path-effect3163"
           inkscape:original-d="m 420.02517,82.1329 0,16.666667" />
        <text
           xml:space="preserve"
           style="font-size:9.16666698px;font-style:normal;font-variant:normal;font-weight:normal;font-stretch:normal;text-align:center;line-height:125%;letter-spacing:0px;word-spacing:0px;text-anchor:middle;fill:#000000;fill-opacity:1;stroke:none;font-family:NudiUni01e;-inkscape-font-specification:NudiUni01e"
           x="420.81769"
           y="79.947136"
           id="text3165"
           sodipodi:linespacing="125%"><tspan
             sodipodi:role="line"
             id="tspan3167"
             x="420.81769"
             y="79.947136">-   </tspan></text>
        <text
           xml:space="preserve"
           style="font-size:9.16666698px;font-style:normal;font-variant:normal;font-weight:normal;font-stretch:normal;text-align:center;line-height:125%;letter-spacing:0px;word-spacing:0px;text-anchor:middle;fill:#000000;fill-opacity:1;stroke:none;font-family:NudiUni01e;-inkscape-font-specification:NudiUni01e"
           x="420.81772"
           y="106.82053"
           id="text3169"
           sodipodi:linespacing="125%"><tspan
             sodipodi:role="line"
             id="tspan3171"
             x="420.81772"
             y="106.82053"></tspan></text>
      </g>
    </g>
  </g>
</svg>
