<?xml version="1.0" encoding="UTF-8" standalone="no"?>
<!-- Created with Inkscape (http://www.inkscape.org/) -->

<svg
   xmlns:ns0="http://www.iki.fi/pav/software/textext/"
   xmlns:dc="http://purl.org/dc/elements/1.1/"
   xmlns:cc="http://creativecommons.org/ns#"
   xmlns:rdf="http://www.w3.org/1999/02/22-rdf-syntax-ns#"
   xmlns:svg="http://www.w3.org/2000/svg"
   xmlns="http://www.w3.org/2000/svg"
   xmlns:sodipodi="http://sodipodi.sourceforge.net/DTD/sodipodi-0.dtd"
   xmlns:inkscape="http://www.inkscape.org/namespaces/inkscape"
   width="354.33069"
   height="212.59842"
   id="svg2"
   version="1.1"
   inkscape:version="0.91 r13725"
   sodipodi:docname="1.svg">
  <sodipodi:namedview
     id="base"
     pagecolor="#ffffff"
     bordercolor="#666666"
     borderopacity="1.0"
     inkscape:pageopacity="0.0"
     inkscape:pageshadow="2"
     inkscape:zoom="1.979899"
     inkscape:cx="173.67564"
     inkscape:cy="81.962194"
     inkscape:document-units="px"
     inkscape:current-layer="textext-f6b15aa2-17"
     showgrid="false"
     units="cm"
     inkscape:window-width="1024"
     inkscape:window-height="744"
     inkscape:window-x="0"
     inkscape:window-y="24"
     inkscape:window-maximized="1" />
  <defs
     id="defs4">
    <inkscape:perspective
       id="perspective10"
       inkscape:persp3d-origin="372.04724 : 350.78739 : 1"
       inkscape:vp_z="744.09448 : 526.18109 : 1"
       inkscape:vp_y="0 : 1000 : 0"
       inkscape:vp_x="0 : 526.18109 : 1"
       sodipodi:type="inkscape:persp3d" />
  </defs>
  <metadata
     id="metadata7">
    <rdf:RDF>
      <cc:Work
         rdf:about="">
        <dc:format>image/svg+xml</dc:format>
        <dc:type
           rdf:resource="http://purl.org/dc/dcmitype/StillImage" />
        <dc:title></dc:title>
      </cc:Work>
    </rdf:RDF>
  </metadata>
  <g
     transform="translate(0,-839.76245)"
     id="layer1"
     inkscape:groupmode="layer"
     inkscape:label="Layer 1">
    <path
       sodipodi:nodetypes="cccc"
       id="path2816"
       d="m 9.901026,934.19333 0,-15.15229 112.126934,0 0,13.63706"
       style="fill:none;stroke:#000000;stroke-width:1.375;stroke-linecap:butt;stroke-linejoin:miter;stroke-miterlimit:4;stroke-dasharray:none;stroke-opacity:1"
       inkscape:connector-curvature="0" />
    <path
       sodipodi:nodetypes="cc"
       id="path2818"
       d="m 79.60155,918.53596 0,16.66752"
       style="fill:none;stroke:#000000;stroke-width:1.375;stroke-linecap:butt;stroke-linejoin:miter;stroke-miterlimit:4;stroke-dasharray:none;stroke-opacity:1"
       inkscape:connector-curvature="0" />
    <path
       sodipodi:nodetypes="cc"
       id="path2820"
       d="m 51.822356,918.53596 0,-19.69797"
       style="fill:none;stroke:#000000;stroke-width:1.375;stroke-linecap:butt;stroke-linejoin:miter;stroke-miterlimit:4;stroke-dasharray:none;stroke-opacity:1"
       inkscape:connector-curvature="0" />
    <path
       style="fill:none;stroke:#000000;stroke-width:1.375;stroke-linecap:butt;stroke-linejoin:miter;stroke-miterlimit:4;stroke-dasharray:none;stroke-opacity:1"
       d="m 183.60155,876.15016 0,55.05332"
       id="path4125"
       sodipodi:nodetypes="cc"
       inkscape:connector-curvature="0" />
    <path
       style="fill:none;stroke:#000000;stroke-width:1.375;stroke-linecap:butt;stroke-linejoin:miter;stroke-miterlimit:4;stroke-dasharray:none;stroke-opacity:1"
       d="m 183.09903,947.32531 0,13.63706"
       id="path4600"
       sodipodi:nodetypes="cc"
       inkscape:connector-curvature="0" />
    <path
       sodipodi:nodetypes="cc"
       id="path4602"
       d="m 265.60155,876.15016 0,55.05332"
       style="fill:none;stroke:#000000;stroke-width:1.375;stroke-linecap:butt;stroke-linejoin:miter;stroke-miterlimit:4;stroke-dasharray:none;stroke-opacity:1"
       inkscape:connector-curvature="0" />
    <path
       sodipodi:nodetypes="cc"
       id="path4604"
       d="m 267.09903,947.32531 0,13.63706"
       style="fill:none;stroke:#000000;stroke-width:1.375;stroke-linecap:butt;stroke-linejoin:miter;stroke-miterlimit:4;stroke-dasharray:none;stroke-opacity:1"
       inkscape:connector-curvature="0" />
    <g
       transform="translate(54.25,738.53571)"
       ns0:text="{\\kan bANa}\n\n{\\kan duNuDx}\n\n{\\kan (pati) maramagULa}"
       ns0:preamble="/home/sriranga/Desktop/eps-figs/nudi-package.tex"
       id="g4817">
      <defs
         id="defs4819">
        <g
           id="g4821">
          <symbol
             style="overflow:visible"
             overflow="visible"
             id="textext-f6b15aa2-0">
            <path
               style="stroke:none"
               d=""
               id="path4824"
               inkscape:connector-curvature="0" />
          </symbol>
          <symbol
             style="overflow:visible"
             overflow="visible"
             id="textext-f6b15aa2-1">
            <path
               style="stroke:none"
               d="M 0.8125,-3.078125 C 0.71875,-3.140625 0.625,-3.21875 0.546875,-3.3125 c -0.21875,-0.296875 -0.0625,-0.796875 0.28125,-0.9375 0.203125,-0.09375 0.46875,0.015625 0.625,0.15625 0.0625,0.078125 0.125,0.15625 0.15625,0.25 0.171875,0.4375 -0.21875,0.78125 -0.515625,1.046875 -0.53125,0.484375 -1.1875,0.96875 -1.078125,1.765625 0.015625,0.15625 0.078125,0.328125 0.15625,0.46875 0.09375,0.109375 0.171875,0.21875 0.28125,0.296875 C 1.140625,0.28125 2.0625,-0.09375 2.5,-0.75 2.609375,-0.90625 2.71875,-1.09375 2.734375,-1.296875 l 0.015625,0 C 2.765625,-1.15625 2.84375,-1 2.90625,-0.875 3.015625,-0.625 3.203125,-0.359375 3.453125,-0.203125 3.859375,0.078125 4.421875,0.0625 4.8125,-0.234375 5.828125,-1.03125 5.625,-2.65625 4.859375,-3.515625 4.6875,-3.71875 4.484375,-3.890625 4.25,-4.03125 4.171875,-4.078125 4.09375,-4.140625 4,-4.15625 l 0,-0.015625 0.25,0 0,-0.765625 -1.703125,0 0,0.765625 c 0.46875,0 0.921875,-0.03125 1.34375,0.171875 0.34375,0.140625 0.625,0.375 0.84375,0.65625 0.5,0.625 0.609375,1.59375 0.0625,2.21875 C 4.6875,-1 4.5625,-0.90625 4.421875,-0.84375 3.625,-0.484375 2.734375,-1.375 2.71875,-2.15625 2.65625,-2.046875 2.640625,-1.890625 2.59375,-1.765625 2.40625,-1.375 2.09375,-1.03125 1.6875,-0.859375 1.5,-0.78125 1.25,-0.734375 1.046875,-0.78125 0.703125,-0.859375 0.390625,-1.171875 0.4375,-1.546875 c 0.046875,-0.3125 0.28125,-0.546875 0.5,-0.75 0.5,-0.5 1.203125,-0.953125 1.09375,-1.734375 C 1.96875,-4.390625 1.75,-4.71875 1.421875,-4.859375 0.78125,-5.140625 0.015625,-4.6875 0,-3.984375 c -0.015625,0.3125 0.109375,0.65625 0.34375,0.875 0.078125,0.0625 0.15625,0.125 0.25,0.171875 0.03125,0 0.078125,0.03125 0.109375,0.03125 C 0.75,-2.9375 0.796875,-3.03125 0.8125,-3.078125 Z m 0,0"
               id="path4827"
               inkscape:connector-curvature="0" />
          </symbol>
          <symbol
             style="overflow:visible"
             overflow="visible"
             id="textext-f6b15aa2-2">
            <path
               style="stroke:none"
               d="m -2.65625,-4.9375 0,0.765625 2.546875,0 c 0.65625,0 1.296875,-0.03125 1.890625,0.296875 0.328125,0.171875 0.59375,0.4375 0.75,0.765625 0.296875,0.703125 0.046875,1.734375 -0.625,2.15625 C 1.296875,-0.5625 0.25,-0.796875 0.03125,-1.5625 -0.015625,-1.75 0,-2 0.0625,-2.1875 c 0.03125,-0.15625 0.109375,-0.28125 0.21875,-0.390625 -0.046875,0.109375 -0.0625,0.25 -0.015625,0.359375 0.125,0.25 0.515625,0.40625 0.75,0.21875 0.09375,-0.0625 0.15625,-0.1875 0.1875,-0.3125 0.015625,-0.09375 0.015625,-0.203125 0,-0.296875 C 1.171875,-2.71875 1.109375,-2.796875 1.03125,-2.875 0.9375,-2.953125 0.8125,-3 0.703125,-3.015625 0.09375,-3.078125 -0.1875,-2.375 -0.203125,-1.875 -0.234375,-1.109375 0.015625,-0.234375 0.875,-0.046875 1,0 1.15625,0.015625 1.296875,0 1.90625,-0.046875 2.3125,-0.5 2.578125,-1.015625 3.125,-2.125 2.890625,-3.53125 2.015625,-4.390625 1.453125,-4.9375 0.734375,-4.9375 0.015625,-4.9375 l -2.671875,0 z m 0,0"
               id="path4830"
               inkscape:connector-curvature="0" />
          </symbol>
          <symbol
             style="overflow:visible"
             overflow="visible"
             id="textext-f6b15aa2-3">
            <path
               style="stroke:none"
               d="m 0.984375,-2.3125 0,0.015625 C 0.53125,-2.171875 0.1875,-1.828125 0.0625,-1.390625 -0.125,-0.75 0.203125,-0.0625 0.90625,0 1.25,0.03125 1.609375,-0.109375 1.859375,-0.34375 1.90625,-0.40625 2.078125,-0.5625 2.078125,-0.65625 2.0625,-0.703125 2.015625,-0.734375 1.984375,-0.765625 l -0.015625,0 C 1.78125,-0.5625 1.5625,-0.421875 1.28125,-0.4375 0.75,-0.453125 0.375,-1.03125 0.53125,-1.515625 0.703125,-1.984375 1.203125,-2.1875 1.640625,-2.296875 l 0,-0.015625 C 1.453125,-2.328125 1.25,-2.40625 1.09375,-2.5 0.921875,-2.59375 0.765625,-2.71875 0.640625,-2.875 0.328125,-3.328125 0.5625,-3.90625 1.0625,-4.109375 c 0.296875,-0.125 0.65625,-0.0625 0.9375,0.078125 0.171875,0.09375 0.328125,0.25 0.453125,0.40625 0.140625,0.1875 0.265625,0.421875 0.28125,0.65625 l 0.015625,0 C 2.765625,-3.203125 2.90625,-3.453125 3.0625,-3.625 3.71875,-4.390625 4.9375,-4.3125 5.546875,-3.546875 6,-2.984375 6.0625,-2.09375 5.734375,-1.453125 5.40625,-0.828125 4.5,-0.546875 3.890625,-0.921875 3.53125,-1.140625 3.296875,-1.5625 3.375,-1.984375 c 0.078125,-0.4375 0.546875,-0.859375 1,-0.640625 0.375,0.171875 0.375,0.78125 -0.09375,0.828125 l 0,0.21875 c 0.40625,-0.015625 0.671875,-0.40625 0.65625,-0.78125 0,-0.28125 -0.140625,-0.53125 -0.390625,-0.671875 C 4,-3.34375 3.40625,-2.875 3.234375,-2.359375 2.96875,-1.65625 3.171875,-0.71875 3.765625,-0.234375 4.171875,0.0625 4.75,0.0625 5.15625,-0.203125 5.421875,-0.375 5.625,-0.625 5.78125,-0.890625 6.3125,-1.84375 6.296875,-3.265625 5.671875,-4.171875 5.4375,-4.5 5.140625,-4.796875 4.75,-4.890625 4.046875,-5.078125 3.28125,-4.703125 2.9375,-4.09375 2.84375,-3.953125 2.765625,-3.78125 2.75,-3.625 2.609375,-3.953125 2.515625,-4.25 2.25,-4.53125 2.0625,-4.703125 1.859375,-4.84375 1.609375,-4.90625 0.875,-5.078125 0.046875,-4.578125 0,-3.796875 -0.03125,-3.375 0.125,-2.90625 0.4375,-2.59375 c 0.140625,0.140625 0.34375,0.265625 0.546875,0.28125 z m 0,0"
               id="path4833"
               inkscape:connector-curvature="0" />
          </symbol>
          <symbol
             style="overflow:visible"
             overflow="visible"
             id="textext-f6b15aa2-4">
            <path
               style="stroke:none"
               d="m 0,-4.9375 0,0.765625 1.828125,0 0,0.015625 C 1.59375,-4.125 1.34375,-3.984375 1.140625,-3.875 0.6875,-3.59375 0.296875,-3.15625 0.125,-2.65625 c -0.296875,0.796875 -0.078125,1.84375 0.578125,2.390625 0.765625,0.65625 1.90625,-0.03125 2.03125,-0.9375 l 0.015625,0 c 0.015625,0.140625 0.078125,0.28125 0.15625,0.40625 0.28125,0.578125 0.90625,0.953125 1.546875,0.734375 0.125,-0.046875 0.21875,-0.109375 0.328125,-0.203125 0.65625,-0.515625 0.875,-1.625 0.59375,-2.40625 C 5.1875,-3.171875 4.8125,-3.59375 4.34375,-3.875 4.140625,-4 3.890625,-4.125 3.65625,-4.15625 l 0,-0.015625 0.6875,0 0,-0.765625 -4.34375,0 z m 2.75,3.078125 c -0.109375,0.265625 -0.1875,0.5 -0.390625,0.71875 C 2.265625,-1.0625 2.15625,-0.96875 2.046875,-0.90625 1.4375,-0.53125 0.75,-0.953125 0.515625,-1.578125 0.28125,-2.234375 0.546875,-2.984375 1,-3.46875 1.671875,-4.171875 2.875,-4.375 3.75,-3.984375 c 0.921875,0.4375 1.65625,1.5625 1.140625,2.5625 -0.0625,0.140625 -0.140625,0.25 -0.25,0.359375 -0.53125,0.53125 -1.3125,0.265625 -1.6875,-0.296875 C 2.875,-1.5 2.765625,-1.6875 2.75,-1.859375 Z m 0,0"
               id="path4836"
               inkscape:connector-curvature="0" />
          </symbol>
          <symbol
             style="overflow:visible"
             overflow="visible"
             id="textext-f6b15aa2-5">
            <path
               style="stroke:none"
               d="m -1.625,-6.515625 -0.09375,0.15625 c 0.484375,0.203125 0.5,0.953125 0.109375,1.25 -0.28125,0.21875 -0.65625,0.171875 -1,0.171875 l 0,0.765625 c 0.46875,0 0.890625,0.03125 1.25,-0.328125 0.0625,-0.078125 0.109375,-0.15625 0.15625,-0.234375 C -0.9375,-5.1875 -0.875,-5.90625 -1.28125,-6.296875 -1.359375,-6.390625 -1.5,-6.5 -1.625,-6.515625 Z m 0,0"
               id="path4839"
               inkscape:connector-curvature="0" />
          </symbol>
          <symbol
             style="overflow:visible"
             overflow="visible"
             id="textext-f6b15aa2-6">
            <path
               style="stroke:none"
               d="m -1.21875,-2.296875 c -0.03125,0.078125 0,0.1875 0,0.25 0,0.25 0.03125,0.453125 0.125,0.6875 0.3125,0.765625 1.15625,1.6875 2.078125,1.265625 0.421875,-0.203125 0.6875,-0.609375 0.84375,-1.046875 C 2.203125,-2.09375 2,-3.234375 1.421875,-4.0625 c -0.375,-0.5 -1.015625,-1.015625 -1.6875,-0.859375 -0.0625,0.015625 -0.109375,0.03125 -0.15625,0.0625 -0.296875,0.171875 -0.109375,0.46875 0.109375,0.59375 0.1875,0.125 0.453125,0.125 0.65625,0.203125 0.46875,0.1875 0.859375,0.5 1.15625,0.890625 0.140625,0.21875 0.25,0.46875 0.28125,0.734375 0.078125,0.75 -0.390625,1.609375 -1.1875,1.671875 -0.859375,0.0625 -1.5625,-0.796875 -1.8125,-1.53125 z m 0,0"
               id="path4842"
               inkscape:connector-curvature="0" />
          </symbol>
          <symbol
             style="overflow:visible"
             overflow="visible"
             id="textext-f6b15aa2-7">
            <path
               style="stroke:none"
               d="m -1.9375,2.671875 0.03125,0 c 0,0.125 0.0625,0.265625 0.125,0.390625 0.109375,0.234375 0.328125,0.46875 0.578125,0.578125 C -0.75,3.8125 -0.234375,3.484375 -0.0625,3.078125 0.09375,2.71875 0.109375,2.25 -0.15625,1.9375 -0.203125,1.859375 -0.28125,1.796875 -0.359375,1.734375 -0.40625,1.71875 -0.453125,1.6875 -0.484375,1.640625 -0.53125,1.5625 -0.515625,1.421875 -0.5625,1.328125 -0.640625,1.109375 -0.796875,0.921875 -0.984375,0.78125 c -0.859375,-0.6875 -2.25,-0.21875 -2.75,0.703125 -0.25,0.46875 -0.21875,1.078125 0,1.5625 0.09375,0.1875 0.234375,0.40625 0.421875,0.515625 0.5,0.3125 1.015625,-0.046875 1.25,-0.5 0.0625,-0.125 0.125,-0.265625 0.125,-0.390625 z m 1.28125,-1.125 C -0.78125,1.515625 -0.921875,1.484375 -1.0625,1.5 c -0.1875,0.03125 -0.40625,0.125 -0.5,0.3125 -0.09375,0.21875 0.03125,0.484375 0.25,0.578125 0.140625,0.046875 0.28125,0.03125 0.421875,-0.03125 0.078125,-0.0625 0.15625,-0.125 0.234375,-0.203125 C -0.59375,2.046875 -0.53125,1.9375 -0.5,1.8125 -0.0625,2.125 -0.171875,2.828125 -0.6875,2.984375 -1.25,3.171875 -1.71875,2.671875 -1.921875,2.21875 -2.046875,2.546875 -2.328125,2.90625 -2.703125,3 -3.296875,3.15625 -3.625,2.515625 -3.5625,2.015625 -3.453125,0.875 -1.96875,0.296875 -1.09375,0.984375 c 0.1875,0.125 0.375,0.328125 0.4375,0.5625 z m 0,0.21875 c -0.0625,0.203125 -0.265625,0.328125 -0.484375,0.328125 -0.078125,0 -0.15625,0 -0.203125,-0.0625 -0.171875,-0.25 0.234375,-0.40625 0.40625,-0.375 0.09375,0.015625 0.1875,0.078125 0.28125,0.109375 z m 0,0"
               id="path4845"
               inkscape:connector-curvature="0" />
          </symbol>
          <symbol
             style="overflow:visible"
             overflow="visible"
             id="textext-f6b15aa2-8">
            <path
               style="stroke:none"
               d="m 2.328125,-6.15625 c -0.140625,0.046875 -0.265625,0.171875 -0.375,0.25 -0.28125,0.21875 -0.546875,0.46875 -0.78125,0.734375 -0.34375,0.375 -0.640625,0.8125 -0.828125,1.28125 -0.5625,1.34375 -0.4375,2.9375 0.328125,4.171875 0.3125,0.5 0.71875,0.9375 1.203125,1.3125 0.09375,0.078125 0.203125,0.15625 0.296875,0.21875 0.046875,0.015625 0.09375,0.078125 0.125,0.078125 0.0625,0 0.140625,-0.09375 0.140625,-0.125 C 2.453125,1.71875 2.390625,1.6875 2.375,1.671875 2.296875,1.578125 2.203125,1.5 2.125,1.40625 1.828125,1.0625 1.5625,0.703125 1.359375,0.296875 0.84375,-0.75 0.734375,-1.96875 0.921875,-3.125 c 0.15625,-0.78125 0.4375,-1.53125 0.9375,-2.171875 C 1.96875,-5.453125 2.109375,-5.609375 2.25,-5.75 2.296875,-5.796875 2.40625,-5.859375 2.421875,-5.9375 2.4375,-5.984375 2.359375,-6.09375 2.328125,-6.15625 Z m 0,0"
               id="path4848"
               inkscape:connector-curvature="0" />
          </symbol>
          <symbol
             style="overflow:visible"
             overflow="visible"
             id="textext-f6b15aa2-9">
            <path
               style="stroke:none"
               d="m 0,-4.9375 0,0.765625 4.34375,0 0,-0.765625 -4.34375,0 z m 2.640625,0.90625 C 2.109375,-3.9375 2.078125,-3.125 2.609375,-3 2.6875,-2.984375 2.765625,-2.984375 2.84375,-2.984375 3.390625,-3.09375 3.40625,-3.875 2.890625,-4.03125 c -0.078125,-0.015625 -0.171875,-0.015625 -0.25,0 z M 2.75,-2.1875 l -0.015625,0 c -0.03125,0.515625 -0.421875,1.078125 -0.875,1.296875 -0.53125,0.265625 -1.25,0.109375 -1.546875,-0.4375 -0.109375,-0.234375 -0.125,-0.5 -0.03125,-0.75 0.125,-0.296875 0.46875,-0.53125 0.8125,-0.40625 0.125,0.0625 0.265625,0.171875 0.3125,0.328125 0.078125,0.25 -0.015625,0.609375 -0.3125,0.625 l 0,0.171875 c 0.484375,0 0.84375,-0.515625 0.6875,-0.96875 C 1.734375,-2.5 1.609375,-2.625 1.46875,-2.71875 0.921875,-3.0625 0.296875,-2.6875 0.09375,-2.140625 -0.296875,-1.171875 0.484375,0.28125 1.640625,-0.03125 1.890625,-0.09375 2.109375,-0.25 2.28125,-0.4375 2.5,-0.65625 2.703125,-1 2.734375,-1.3125 c 0.109375,0.28125 0.203125,0.53125 0.375,0.75 0.375,0.5 1.09375,0.765625 1.640625,0.390625 0.1875,-0.125 0.34375,-0.296875 0.46875,-0.484375 0.3125,-0.546875 0.28125,-1.140625 0.25,-1.75 0,-0.3125 -0.03125,-0.671875 -0.171875,-0.953125 C 5.21875,-3.5 5.109375,-3.640625 4.96875,-3.703125 4.890625,-3.734375 4.78125,-3.734375 4.75,-3.65625 4.6875,-3.375 4.9375,-3.109375 5.03125,-2.875 5.28125,-2.34375 5.40625,-1.6875 5,-1.1875 4.890625,-1.0625 4.78125,-0.953125 4.625,-0.875 3.921875,-0.484375 3.15625,-1.09375 2.875,-1.71875 2.828125,-1.859375 2.765625,-2.03125 2.75,-2.1875 Z m 0,0"
               id="path4851"
               inkscape:connector-curvature="0" />
          </symbol>
          <symbol
             style="overflow:visible"
             overflow="visible"
             id="textext-f6b15aa2-10">
            <path
               style="stroke:none"
               d="m 3.078125,-4.984375 c 0.3125,0.3125 0.4375,0.71875 0.34375,1.171875 C 3.40625,-3.703125 3.34375,-3.625 3.296875,-3.515625 3.125,-3.609375 2.90625,-3.625 2.703125,-3.625 2.265625,-3.625 1.859375,-3.5625 1.5,-3.296875 1.25,-3.09375 1.03125,-2.734375 1.203125,-2.40625 1.34375,-2.140625 1.6875,-2.015625 1.96875,-1.984375 2.609375,-1.90625 3.421875,-2.375 3.515625,-3.078125 3.921875,-2.765625 4.0625,-2.125 3.875,-1.65625 3.765625,-1.40625 3.578125,-1.203125 3.359375,-1.0625 2.6875,-0.59375 1.6875,-0.59375 1.015625,-1.015625 0.5625,-1.296875 0.109375,-1.890625 0.4375,-2.421875 0.40625,-2.4375 0.3125,-2.515625 0.265625,-2.515625 0.171875,-2.5 0.078125,-2.28125 0.0625,-2.1875 c -0.09375,0.28125 -0.078125,0.59375 0,0.875 0.234375,0.78125 1.09375,1.234375 1.84375,1.296875 C 2.703125,0.0625 3.53125,-0.203125 4,-0.875 4.5,-1.5625 4.359375,-2.90625 3.515625,-3.296875 3.875,-4.140625 3.625,-5.15625 2.953125,-5.765625 c -0.4375,-0.40625 -1.125,-0.546875 -1.5625,-0.0625 -0.078125,0.09375 -0.125,0.1875 -0.15625,0.296875 -0.140625,0.484375 0.125,1.140625 0.609375,1.296875 0.53125,0.203125 1.234375,-0.125 1.234375,-0.75 z m -0.9375,-0.671875 c 0.21875,-0.015625 0.421875,0.140625 0.578125,0.28125 0.03125,0.046875 0.125,0.109375 0.125,0.171875 0,0.0625 -0.046875,0.125 -0.078125,0.171875 C 2.65625,-4.8125 2.46875,-4.671875 2.21875,-4.65625 2.046875,-4.640625 1.8125,-4.6875 1.6875,-4.8125 1.484375,-5.015625 1.59375,-5.359375 1.796875,-5.515625 1.90625,-5.609375 2.015625,-5.625 2.140625,-5.65625 Z M 3.1875,-3.296875 C 3.109375,-2.8125 2.515625,-2.578125 2.09375,-2.53125 1.9375,-2.515625 1.65625,-2.5 1.5625,-2.65625 1.4375,-2.84375 1.6875,-3.125 1.828125,-3.21875 2.1875,-3.453125 2.796875,-3.484375 3.1875,-3.296875 Z m 0,0"
               id="path4854"
               inkscape:connector-curvature="0" />
          </symbol>
          <symbol
             style="overflow:visible"
             overflow="visible"
             id="textext-f6b15aa2-11">
            <path
               style="stroke:none"
               d="m 0,-6.03125 0,0.015625 C 0.421875,-5.609375 0.78125,-5.15625 1.046875,-4.625 1.453125,-3.8125 1.625,-2.890625 1.625,-1.984375 1.625,-1.5 1.578125,-1 1.453125,-0.53125 1.28125,0.09375 0.953125,0.6875 0.515625,1.171875 0.40625,1.28125 0.28125,1.40625 0.15625,1.53125 0.125,1.5625 0.046875,1.609375 0.03125,1.671875 c 0,0.046875 0.078125,0.15625 0.109375,0.21875 C 0.421875,1.75 0.6875,1.5 0.921875,1.3125 1.375,0.9375 1.796875,0.515625 2.0625,-0.015625 c 0.296875,-0.5625 0.390625,-1.203125 0.390625,-1.828125 0,-0.765625 -0.125,-1.515625 -0.4375,-2.21875 C 1.71875,-4.71875 1.28125,-5.296875 0.71875,-5.75 0.578125,-5.875 0.453125,-5.984375 0.296875,-6.078125 0.265625,-6.09375 0.1875,-6.171875 0.140625,-6.15625 0.09375,-6.15625 0.046875,-6.078125 0,-6.03125 Z m 0,0"
               id="path4857"
               inkscape:connector-curvature="0" />
          </symbol>
          <symbol
             style="overflow:visible"
             overflow="visible"
             id="textext-f6b15aa2-12">
            <path
               style="stroke:none"
               d="m 0,-4.9375 0,0.765625 1.75,0 c 0.296875,0 0.625,-0.03125 0.9375,0 0.625,0.0625 1.234375,0.328125 1.671875,0.765625 0.546875,0.5625 0.96875,1.515625 0.484375,2.234375 C 4.78125,-1.09375 4.703125,-1 4.625,-0.921875 4.359375,-0.703125 4,-0.734375 3.703125,-0.890625 3.234375,-1.109375 2.828125,-1.671875 2.75,-2.1875 l -0.015625,0 c -0.109375,0.53125 -0.484375,1.09375 -1,1.328125 -0.5625,0.265625 -1.3125,-0.0625 -1.484375,-0.671875 -0.078125,-0.296875 0,-0.625 0.234375,-0.84375 0.28125,-0.234375 0.75,-0.1875 0.90625,0.171875 0.078125,0.15625 0.03125,0.375 -0.078125,0.515625 -0.09375,0.109375 -0.21875,0.109375 -0.21875,0.265625 0.46875,0 0.84375,-0.46875 0.6875,-0.9375 C 1.71875,-2.5 1.609375,-2.625 1.484375,-2.71875 c -0.53125,-0.359375 -1.171875,0 -1.390625,0.5625 -0.28125,0.703125 0.0625,1.75 0.78125,2.0625 0.21875,0.109375 0.46875,0.109375 0.703125,0.078125 0.28125,-0.046875 0.515625,-0.1875 0.71875,-0.359375 0.25,-0.234375 0.4375,-0.578125 0.4375,-0.9375 l 0.015625,0 c 0,0.953125 1.25,1.6875 2.03125,1.109375 0.328125,-0.25 0.546875,-0.640625 0.625,-1.03125 0.265625,-1.03125 -0.1875,-2.03125 -1.09375,-2.59375 -0.21875,-0.140625 -0.5,-0.28125 -0.765625,-0.328125 l 0,-0.015625 0.796875,0 0,-0.765625 -4.34375,0 z m 0,0"
               id="path4860"
               inkscape:connector-curvature="0" />
          </symbol>
          <symbol
             style="overflow:visible"
             overflow="visible"
             id="textext-f6b15aa2-13">
            <path
               style="stroke:none"
               d="m 0,-4.9375 0,0.765625 1.296875,0 0,0.015625 C 1.0625,-4.109375 0.8125,-3.921875 0.640625,-3.75 0.125,-3.234375 -0.09375,-2.5 0.046875,-1.78125 0.234375,-0.703125 1.21875,0.03125 2.296875,0 3.515625,-0.03125 4.4375,-1.125 4.390625,-2.296875 4.359375,-2.90625 4.09375,-3.484375 3.625,-3.875 3.484375,-3.984375 3.296875,-4.125 3.09375,-4.15625 l 0,-0.015625 0.09375,0 0,-0.765625 -3.1875,0 z m 2.015625,0.765625 C 2.734375,-4.25 3.515625,-3.84375 3.8125,-3.1875 3.984375,-2.8125 4,-2.359375 3.875,-1.96875 c -0.0625,0.1875 -0.140625,0.359375 -0.25,0.515625 -0.140625,0.171875 -0.3125,0.328125 -0.5,0.4375 -0.203125,0.125 -0.4375,0.203125 -0.6875,0.234375 -0.546875,0.0625 -1.109375,-0.109375 -1.5,-0.5 C 0.390625,-1.8125 0.25,-2.78125 0.71875,-3.421875 0.859375,-3.625 1.03125,-3.78125 1.25,-3.921875 1.46875,-4.0625 1.75,-4.125 2.015625,-4.171875 Z m 0,0"
               id="path4863"
               inkscape:connector-curvature="0" />
          </symbol>
          <symbol
             style="overflow:visible"
             overflow="visible"
             id="textext-f6b15aa2-14">
            <path
               style="stroke:none"
               d="m 0,-4.9375 0,0.765625 1.640625,0 0,0.015625 C 1.546875,-4.125 1.453125,-4.046875 1.375,-3.984375 1.15625,-3.828125 0.96875,-3.625 0.796875,-3.40625 0.0625,-2.40625 0,-1.1875 0,0 l 0.765625,0 c 0,-1.09375 -0.03125,-2.203125 0.40625,-3.234375 0.1875,-0.4375 0.546875,-0.96875 1.09375,-0.9375 0.46875,0.03125 0.75,0.53125 0.9375,0.90625 0.5,1 0.421875,2.171875 0.421875,3.265625 l 0.765625,0 c 0,-1.15625 -0.046875,-2.296875 -0.71875,-3.296875 C 3.515625,-3.53125 3.3125,-3.765625 3.078125,-3.953125 2.984375,-4.015625 2.875,-4.109375 2.765625,-4.15625 l 0,-0.015625 0.46875,0 0,-0.765625 -3.234375,0 z m 0,0"
               id="path4866"
               inkscape:connector-curvature="0" />
          </symbol>
          <symbol
             style="overflow:visible"
             overflow="visible"
             id="textext-f6b15aa2-15">
            <path
               style="stroke:none"
               d="m -1.234375,-2.296875 -0.015625,0 c 0,0.140625 -0.015625,0.296875 0,0.4375 0.03125,0.140625 0.09375,0.28125 0.140625,0.40625 0.1875,0.453125 0.46875,0.859375 0.84375,1.140625 0.515625,0.375 1.25,0.453125 1.71875,-0.03125 C 1.875,-0.765625 1.6875,-1.390625 1.609375,-1.90625 1.5625,-2.203125 1.53125,-2.5 1.5625,-2.796875 c 0.078125,-0.5625 0.5,-1.0625 1.03125,-1.265625 0.234375,-0.109375 0.5,-0.125 0.75,-0.109375 0.75,0.0625 1.578125,0.453125 1.875,1.171875 0.375,0.859375 -0.140625,2.15625 -1.15625,2.234375 C 3.75,-0.75 3.375,-0.828125 3.140625,-1.046875 2.8125,-1.359375 2.875,-1.921875 3.25,-2.1875 3.203125,-2.078125 3.203125,-1.953125 3.234375,-1.84375 3.296875,-1.546875 3.65625,-1.28125 3.9375,-1.5 4.15625,-1.6875 4.234375,-2.140625 4.03125,-2.359375 3.953125,-2.46875 3.8125,-2.515625 3.6875,-2.515625 3.578125,-2.53125 3.46875,-2.515625 3.359375,-2.5 2.65625,-2.359375 2.5,-1.578125 2.65625,-0.984375 2.828125,-0.328125 3.4375,0.046875 4.09375,0 4.8125,-0.046875 5.25,-0.78125 5.4375,-1.421875 5.75,-2.53125 5.5,-3.765625 4.53125,-4.484375 4.359375,-4.625 4.15625,-4.734375 3.953125,-4.8125 c -1.015625,-0.34375 -2.28125,0.03125 -2.6875,1.078125 -0.0625,0.171875 -0.09375,0.359375 -0.09375,0.53125 -0.03125,0.4375 0.125,0.875 0.1875,1.296875 0.03125,0.21875 0.0625,0.4375 -0.03125,0.625 -0.21875,0.46875 -0.875,0.625 -1.3125,0.421875 -0.578125,-0.25 -1.015625,-0.859375 -1.25,-1.4375 z m 0,0"
               id="path4869"
               inkscape:connector-curvature="0" />
          </symbol>
          <symbol
             style="overflow:visible"
             overflow="visible"
             id="textext-f6b15aa2-16">
            <path
               style="stroke:none"
               d="m 1.859375,-1.75 0,0 c -0.453125,0.203125 -0.53125,0.921875 -0.3125,1.3125 0.265625,0.46875 0.921875,0.5625 1.34375,0.265625 0.140625,-0.125 0.25,-0.25 0.3125,-0.390625 0.09375,-0.171875 0.109375,-0.390625 0.078125,-0.578125 -0.046875,-0.25 -0.140625,-0.4375 -0.3125,-0.609375 0.578125,0 1.265625,-0.28125 1.484375,-0.875 C 4.5,-2.78125 4.5,-2.9375 4.5,-3.109375 4.5,-3.265625 4.453125,-3.40625 4.40625,-3.546875 4.34375,-3.71875 4.234375,-3.890625 4.09375,-4 4,-4.0625 3.890625,-4.109375 3.828125,-4.203125 3.703125,-4.359375 3.609375,-4.546875 3.5,-4.71875 3.46875,-4.78125 3.421875,-4.890625 3.375,-4.9375 c -0.0625,-0.03125 -0.1875,0 -0.25,0 l -0.609375,0 0,0.765625 c 0.421875,0 0.953125,-0.109375 1.296875,0.1875 0.359375,0.328125 0.390625,0.859375 0.140625,1.265625 -0.25,0.375 -0.71875,0.6875 -1.15625,0.734375 C 2.71875,-1.96875 2.640625,-2.046875 2.578125,-2.09375 2.4375,-2.171875 2.296875,-2.234375 2.140625,-2.265625 1.609375,-2.4375 1.046875,-2.453125 0.59375,-2.828125 0.453125,-2.953125 0.328125,-3.09375 0.265625,-3.265625 0.125,-3.640625 0.28125,-4.0625 0.609375,-4.28125 0.484375,-3.8125 0.734375,-3.125 1.3125,-3.1875 1.375,-3.203125 1.453125,-3.21875 1.515625,-3.25 2,-3.484375 2.078125,-4.171875 1.859375,-4.609375 1.78125,-4.78125 1.640625,-4.9375 1.46875,-5.015625 1.296875,-5.078125 1.0625,-5.046875 0.890625,-4.984375 0.703125,-4.921875 0.53125,-4.78125 0.40625,-4.625 c -0.609375,0.703125 -0.5,1.796875 0.125,2.4375 0.359375,0.390625 0.828125,0.4375 1.328125,0.4375 z m -0.6875,-2.75 c 0.1875,-0.015625 0.390625,0.03125 0.5,0.1875 C 1.875,-4.03125 1.6875,-3.671875 1.359375,-3.625 1.15625,-3.59375 0.9375,-3.671875 0.8125,-3.859375 0.65625,-4.125 0.875,-4.453125 1.171875,-4.5 Z m 1.046875,2.75 c 0.078125,-0.015625 0.1875,0 0.265625,0.015625 0.546875,0.171875 0.453125,1 -0.109375,1.078125 -0.078125,0.015625 -0.15625,0 -0.234375,-0.015625 C 1.59375,-0.84375 1.65625,-1.671875 2.21875,-1.75 Z m 0,0"
               id="path4872"
               inkscape:connector-curvature="0" />
          </symbol>
        </g>
      </defs>
      <g
         id="textext-f6b15aa2-17"
         transform="translate(-6.5050763,0)">
        <g
           style="fill:#000000;fill-opacity:1"
           id="g4875"
           transform="translate(-12,0)" />
        <g
           transform="matrix(1.1,0,0,1.1,2,0)"
           ns0:text="{\\kanb jaya}\n\n{\\kanb vaqdidhx}\n\n{\\kanb (magaLu)}\n\n{\\kanb sagara}\n\n{\\kanb bANa}\n\n{\\kanb pati maruvamaR}\n\n{\\kanb kunAdxcicx}\n\n{\\kanb duNuDx}\n\n{\\kanb (pati) paramagULa}"
           ns0:preamble="/home/sriranga/Desktop/eps-figs/nudi-package.tex"
           id="g5076">
          <defs
             id="defs5078">
            <g
               id="g5080">
              <symbol
                 overflow="visible"
                 id="textext-e8c2dedf-0"
                 style="overflow:visible">
                <path
                   style="stroke:none"
                   d=""
                   id="path5083"
                   inkscape:connector-curvature="0" />
              </symbol>
              <symbol
                 overflow="visible"
                 id="textext-e8c2dedf-1"
                 style="overflow:visible">
                <path
                   style="stroke:none"
                   d="m 0.765625,-3.296875 0,-0.015625 C 0.703125,-3.375 0.625,-3.421875 0.578125,-3.515625 0.484375,-3.671875 0.625,-3.890625 0.75,-3.984375 c 0.28125,-0.1875 0.75,-0.046875 0.78125,0.3125 0.03125,0.34375 -0.390625,0.625 -0.609375,0.828125 C 0.578125,-2.53125 0.125,-2.203125 0.03125,-1.703125 0.015625,-1.5625 0.015625,-1.390625 0.046875,-1.25 0.078125,-1.03125 0.15625,-0.84375 0.28125,-0.65625 0.390625,-0.5 0.53125,-0.34375 0.6875,-0.234375 1.03125,0 1.53125,0.078125 1.90625,-0.09375 c 0.453125,-0.203125 0.8125,-0.75 0.859375,-1.234375 l 0.015625,0 c 0.015625,0.1875 0.125,0.375 0.203125,0.515625 0.1875,0.328125 0.46875,0.640625 0.84375,0.75 0.71875,0.21875 1.5,-0.265625 1.65625,-1 C 5.578125,-1.484375 5.5,-1.984375 5.1875,-2.3125 c -0.109375,-0.125 -0.25,-0.234375 -0.421875,-0.296875 -0.046875,0 -0.125,-0.046875 -0.1875,-0.015625 -0.046875,0.015625 -0.125,0.171875 -0.15625,0.234375 0.40625,0.078125 0.734375,0.609375 0.390625,0.9375 -0.171875,0.171875 -0.4375,0.234375 -0.671875,0.234375 -0.578125,0 -1.21875,-0.390625 -1.359375,-0.984375 l -0.015625,0 c -0.171875,0.53125 -0.5625,0.921875 -1.125,0.984375 C 1.25,-1.171875 0.671875,-1.421875 0.671875,-1.875 0.6875,-2.140625 0.953125,-2.375 1.125,-2.546875 c 0.421875,-0.390625 1.125,-0.875 1,-1.53125 0.59375,0.59375 1.578125,1.1875 2.421875,0.75 C 4.9375,-3.53125 5.21875,-3.90625 5.390625,-4.3125 5.40625,-4.421875 5.5,-4.609375 5.484375,-4.71875 5.46875,-4.765625 5.4375,-4.796875 5.40625,-4.828125 5.328125,-4.890625 5.25,-5.015625 5.15625,-5.046875 5.03125,-4.71875 4.75,-4.453125 4.4375,-4.28125 3.71875,-3.921875 2.84375,-4.046875 2.171875,-4.4375 1.75,-4.6875 1.390625,-5.125 0.84375,-5.046875 c -0.09375,0 -0.171875,0.03125 -0.25,0.0625 -0.484375,0.203125 -0.6875,0.734375 -0.546875,1.21875 0.078125,0.203125 0.1875,0.390625 0.34375,0.53125 0.03125,0.046875 0.09375,0.140625 0.15625,0.140625 0.078125,0 0.171875,-0.15625 0.21875,-0.203125 z m 0,0"
                   id="path5086"
                   inkscape:connector-curvature="0" />
              </symbol>
              <symbol
                 overflow="visible"
                 id="textext-e8c2dedf-2"
                 style="overflow:visible">
                <path
                   style="stroke:none"
                   d="m 1.875,-4.921875 c -1.515625,0.203125 -2.171875,1.984375 -1.75,3.3125 0.296875,0.9375 1.140625,1.71875 2.171875,1.59375 1.59375,-0.1875 2.203125,-2.28125 1.609375,-3.59375 -0.359375,-0.78125 -1.125,-1.4375 -2.03125,-1.3125 z m 0.03125,1.078125 c 0.828125,-0.09375 1.875,0.40625 1.875,1.34375 0,0.125 -0.015625,0.25 -0.046875,0.359375 -0.0625,0.140625 -0.140625,0.265625 -0.25,0.375 -0.109375,0.125 -0.265625,0.25 -0.421875,0.328125 -0.21875,0.125 -0.453125,0.1875 -0.703125,0.21875 -0.5,0.0625 -1.03125,-0.0625 -1.4375,-0.359375 C 0.390625,-2 0.234375,-2.734375 0.703125,-3.265625 0.84375,-3.40625 0.984375,-3.53125 1.15625,-3.625 c 0.234375,-0.125 0.5,-0.1875 0.75,-0.21875 z m 0,0"
                   id="path5089"
                   inkscape:connector-curvature="0" />
              </symbol>
              <symbol
                 overflow="visible"
                 id="textext-e8c2dedf-3"
                 style="overflow:visible">
                <path
                   style="stroke:none"
                   d="m -0.328125,-4.9375 0,1.09375 c 0.171875,0 0.390625,-0.03125 0.5625,0.015625 C 0.375,-3.8125 0.515625,-3.71875 0.625,-3.65625 0.875,-3.5 1.09375,-3.3125 1.265625,-3.078125 1.65625,-2.5625 1.625,-1.84375 1.09375,-1.4375 1,-1.359375 0.890625,-1.296875 0.765625,-1.25 0.203125,-1.078125 -0.53125,-1.390625 -0.875,-1.859375 l 0,0 c 0,0.171875 -0.03125,0.375 0,0.546875 0.015625,0.109375 0.078125,0.21875 0.125,0.3125 0.125,0.234375 0.296875,0.4375 0.515625,0.625 0.140625,0.109375 0.3125,0.21875 0.5,0.28125 C 0.453125,-0.015625 0.640625,0 0.84375,0 1.9375,-0.03125 2.484375,-1.359375 2.25,-2.296875 2.171875,-2.625 2,-2.9375 1.765625,-3.1875 c -0.21875,-0.25 -0.546875,-0.546875 -0.875,-0.640625 l 0,-0.015625 0.25,0 0,-1.09375 -1.46875,0 z m 0,0"
                   id="path5092"
                   inkscape:connector-curvature="0" />
              </symbol>
              <symbol
                 overflow="visible"
                 id="textext-e8c2dedf-4"
                 style="overflow:visible">
                <path
                   style="stroke:none"
                   d="m -1.578125,-6.375 0,0.015625 c 0.125,0.125 0.265625,0.28125 0.328125,0.453125 0.140625,0.390625 -0.109375,0.765625 -0.46875,0.921875 -0.140625,0.0625 -0.3125,0.046875 -0.46875,0.046875 l -0.609375,0 0,1.09375 c 0.375,0 0.796875,0.0625 1.15625,-0.046875 0.65625,-0.21875 1.015625,-0.96875 0.921875,-1.625 -0.046875,-0.3125 -0.203125,-0.625 -0.421875,-0.859375 -0.046875,-0.046875 -0.15625,-0.1875 -0.21875,-0.1875 -0.078125,0 -0.171875,0.140625 -0.21875,0.1875 z m 0,0"
                   id="path5095"
                   inkscape:connector-curvature="0" />
              </symbol>
              <symbol
                 overflow="visible"
                 id="textext-e8c2dedf-5"
                 style="overflow:visible">
                <path
                   style="stroke:none"
                   d="m -1.140625,-1.859375 c -0.03125,0.0625 -0.015625,0.140625 -0.015625,0.203125 0,0.234375 0.0625,0.40625 0.171875,0.625 0.328125,0.625 1.0625,1.296875 1.828125,0.9375 C 1.265625,-0.296875 1.5625,-0.75 1.703125,-1.203125 2.015625,-2.125 1.890625,-3.3125 1.21875,-4.0625 0.921875,-4.390625 0.53125,-4.609375 0.078125,-4.609375 c -0.25,0 -0.5,0.078125 -0.625,0.3125 C -0.71875,-4 -0.5,-3.671875 -0.203125,-3.59375 c 0.21875,0.0625 0.4375,0.0625 0.65625,0.109375 0.625,0.171875 1.328125,0.65625 1.078125,1.40625 -0.046875,0.140625 -0.125,0.265625 -0.21875,0.375 -0.640625,0.734375 -1.90625,0.609375 -2.453125,-0.15625 z m 0,0"
                   id="path5098"
                   inkscape:connector-curvature="0" />
              </symbol>
              <symbol
                 overflow="visible"
                 id="textext-e8c2dedf-6"
                 style="overflow:visible">
                <path
                   style="stroke:none"
                   d="m 0,-4.9375 0,1.09375 2.5,0 c 0.515625,0 1.03125,-0.046875 1.515625,0.1875 0.65625,0.328125 1.28125,1.109375 0.953125,1.875 C 4.921875,-1.6875 4.875,-1.59375 4.8125,-1.515625 4.203125,-0.828125 2.953125,-1.421875 2.75,-2.1875 l -0.015625,0 c -0.21875,0.671875 -0.90625,1.015625 -1.578125,0.96875 -0.296875,-0.015625 -0.78125,-0.15625 -0.828125,-0.5 -0.03125,-0.25 0.203125,-0.46875 0.40625,-0.546875 0.375,-0.140625 0.796875,0.09375 0.796875,0.515625 0.0625,0 0.171875,0.015625 0.21875,-0.015625 0.03125,-0.015625 0.046875,-0.09375 0.0625,-0.125 0.046875,-0.15625 0.078125,-0.28125 0.015625,-0.4375 -0.078125,-0.25 -0.3125,-0.421875 -0.5625,-0.5 -0.5625,-0.15625 -1.125,0.25 -1.234375,0.796875 -0.1875,0.859375 0.40625,2.140625 1.421875,2.015625 0.109375,0 0.21875,-0.03125 0.328125,-0.078125 C 2,-0.1875 2.1875,-0.34375 2.34375,-0.515625 2.515625,-0.734375 2.703125,-1.03125 2.734375,-1.3125 l 0.015625,0 c 0.015625,0.171875 0.109375,0.359375 0.203125,0.5 C 3.328125,-0.140625 4.1875,0.296875 4.875,-0.21875 5.21875,-0.484375 5.40625,-0.921875 5.46875,-1.328125 5.578125,-2.03125 5.390625,-2.71875 4.921875,-3.25 4.71875,-3.484375 4.390625,-3.765625 4.09375,-3.828125 l 0,-0.015625 0.265625,0 0,-1.09375 -4.359375,0 z m 0,0"
                   id="path5101"
                   inkscape:connector-curvature="0" />
              </symbol>
              <symbol
                 overflow="visible"
                 id="textext-e8c2dedf-7"
                 style="overflow:visible">
                <path
                   style="stroke:none"
                   d="m -0.34375,-0.734375 c 0.140625,0.203125 0.28125,0.375 0.390625,0.59375 0.28125,0.625 0.46875,1.40625 0.296875,2.078125 -0.140625,0.59375 -0.5625,1.09375 -1.1875,1.15625 C -1.109375,3.109375 -1.421875,3.078125 -1.625,2.90625 -1.96875,2.640625 -2.078125,1.96875 -1.78125,1.640625 c 0,0.4375 0.296875,1.125 0.859375,0.984375 C -0.84375,2.609375 -0.78125,2.578125 -0.71875,2.546875 -0.046875,2.0625 -0.25,0.75 -1.09375,0.625 -1.1875,0.59375 -1.28125,0.609375 -1.375,0.625 -1.5,0.640625 -1.609375,0.703125 -1.703125,0.75 -1.859375,0.859375 -2,1 -2.109375,1.140625 -2.578125,1.8125 -2.59375,2.75 -2.09375,3.40625 -1.46875,4.25 -0.15625,4.28125 0.515625,3.484375 0.890625,3.015625 1,2.4375 1,1.84375 1,1.296875 0.90625,0.734375 0.703125,0.234375 c -0.125,-0.34375 -0.3125,-0.640625 -0.578125,-0.90625 -0.0625,-0.0625 -0.203125,-0.21875 -0.28125,-0.21875 -0.078125,0.015625 -0.140625,0.125 -0.1875,0.15625 z m -0.828125,1.84375 C -0.703125,1.0625 -0.59375,1.78125 -1.0625,1.84375 -1.53125,1.90625 -1.65625,1.1875 -1.171875,1.109375 Z m 0,0"
                   id="path5104"
                   inkscape:connector-curvature="0" />
              </symbol>
              <symbol
                 overflow="visible"
                 id="textext-e8c2dedf-8"
                 style="overflow:visible">
                <path
                   style="stroke:none"
                   d="m 1.46875,-4.171875 0,0.015625 C 1.375,-4.125 1.28125,-4.046875 1.203125,-3.984375 c -0.203125,0.125 -0.375,0.28125 -0.53125,0.453125 -0.265625,0.3125 -0.46875,0.65625 -0.59375,1.046875 -0.203125,0.75 -0.03125,1.6875 0.5625,2.21875 0.0625,0.078125 0.15625,0.125 0.25,0.171875 0.703125,0.34375 1.40625,-0.28125 1.703125,-0.875 0.0625,-0.109375 0.125,-0.234375 0.140625,-0.34375 0.09375,0.171875 0.15625,0.359375 0.25,0.53125 0.3125,0.46875 0.875,0.9375 1.46875,0.734375 C 4.5625,-0.0625 4.671875,-0.125 4.765625,-0.1875 4.890625,-0.296875 5,-0.421875 5.109375,-0.546875 c 0.109375,-0.171875 0.21875,-0.375 0.28125,-0.5625 C 5.515625,-1.53125 5.5,-1.96875 5.46875,-2.375 5.328125,-3.78125 4.5,-5.328125 3.078125,-5.796875 2.75,-5.90625 2.40625,-5.9375 2.0625,-5.921875 1.75,-5.90625 1.421875,-5.859375 1.125,-5.734375 0.96875,-5.65625 0.8125,-5.578125 0.671875,-5.46875 0.59375,-5.40625 0.515625,-5.328125 0.453125,-5.234375 0.40625,-5.15625 0.375,-5.09375 0.34375,-5.015625 c -0.171875,0.625 0.671875,0.84375 1.125,0.84375 z m 3.515625,0.96875 C 4.84375,-3.34375 4.75,-3.546875 4.609375,-3.703125 4.234375,-4.109375 3.75,-4.453125 3.1875,-4.53125 2.765625,-4.59375 2.359375,-4.5 1.9375,-4.5 1.78125,-4.5 1.59375,-4.578125 1.546875,-4.75 1.484375,-4.953125 1.671875,-5.09375 1.84375,-5.15625 2.1875,-5.3125 2.625,-5.296875 2.984375,-5.203125 c 0.953125,0.21875 1.796875,1.03125 2,2 z M 2.75,-2.1875 C 2.625,-1.9375 2.515625,-1.71875 2.3125,-1.53125 1.875,-1.109375 1.203125,-1.078125 0.859375,-1.609375 0.78125,-1.71875 0.734375,-1.84375 0.703125,-1.96875 0.546875,-2.578125 0.78125,-3.1875 1.1875,-3.625 c 0.609375,-0.6875 1.734375,-0.84375 2.546875,-0.4375 0.625,0.328125 1.0625,0.953125 1.09375,1.671875 0,0.203125 -0.015625,0.40625 -0.09375,0.59375 C 4.625,-1.5625 4.4375,-1.328125 4.1875,-1.25 c -0.5,0.15625 -1,-0.1875 -1.265625,-0.578125 C 2.84375,-1.9375 2.765625,-2.0625 2.75,-2.1875 Z m 2.234375,-1 c 0,0 0.015625,0 0.015625,0 0,0 -0.015625,0 -0.015625,0 z m 0,0"
                   id="path5107"
                   inkscape:connector-curvature="0" />
              </symbol>
              <symbol
                 overflow="visible"
                 id="textext-e8c2dedf-9"
                 style="overflow:visible">
                <path
                   style="stroke:none"
                   d="m -1.390625,2.625 0.015625,0 c 0.015625,0.125 0.078125,0.25 0.125,0.34375 0.21875,0.375 0.65625,0.6875 1.09375,0.53125 C 0.125,3.40625 0.328125,3.125 0.421875,2.84375 0.5,2.65625 0.53125,2.46875 0.53125,2.265625 c 0,-0.34375 -0.078125,-0.6875 -0.265625,-0.953125 -0.75,-1 -2.671875,-1.078125 -3.34375,0.03125 C -3.4375,1.9375 -3.40625,3.015625 -2.765625,3.421875 -2.296875,3.734375 -1.71875,3.375 -1.5,2.9375 -1.453125,2.84375 -1.40625,2.734375 -1.390625,2.625 Z m 0,-0.546875 c -0.078125,0.1875 -0.15625,0.359375 -0.328125,0.46875 -0.078125,0.0625 -0.171875,0.078125 -0.265625,0.109375 -0.125,0.03125 -0.28125,0.046875 -0.390625,0 -0.5,-0.140625 -0.578125,-0.828125 -0.328125,-1.203125 0.421875,-0.640625 1.390625,-0.75 2.046875,-0.46875 0.484375,0.1875 0.828125,0.625 0.71875,1.15625 C -0.046875,2.625 -0.546875,2.8125 -0.984375,2.59375 -1.171875,2.484375 -1.3125,2.296875 -1.390625,2.078125 Z m 0,0.890625 C -1.46875,3.234375 -1.625,3.5 -1.734375,3.765625 -1.796875,3.921875 -1.890625,4.140625 -1.78125,4.3125 -1.578125,4.578125 -1,4.5625 -0.921875,4.1875 -0.90625,4.09375 -0.9375,4 -0.96875,3.90625 -1.03125,3.734375 -1.09375,3.5625 -1.171875,3.40625 -1.21875,3.3125 -1.25,3.203125 -1.3125,3.109375 -1.328125,3.0625 -1.34375,3 -1.390625,2.96875 Z m 0,0"
                   id="path5110"
                   inkscape:connector-curvature="0" />
              </symbol>
              <symbol
                 overflow="visible"
                 id="textext-e8c2dedf-10"
                 style="overflow:visible">
                <path
                   style="stroke:none"
                   d="M 2.328125,-6.15625 C 2.1875,-6.109375 2.046875,-5.984375 1.9375,-5.890625 1.671875,-5.671875 1.40625,-5.4375 1.171875,-5.171875 0.75,-4.71875 0.4375,-4.1875 0.234375,-3.609375 c -0.4375,1.25 -0.28125,2.703125 0.40625,3.828125 C 0.953125,0.75 1.375,1.203125 1.859375,1.578125 l 0.328125,0.25 c 0.03125,0.015625 0.078125,0.0625 0.125,0.0625 0.046875,0 0.109375,-0.078125 0.125,-0.109375 C 2.453125,1.734375 2.40625,1.703125 2.375,1.671875 2.296875,1.59375 2.21875,1.515625 2.15625,1.4375 1.859375,1.109375 1.59375,0.75 1.390625,0.359375 1.03125,-0.375 0.796875,-1.203125 0.84375,-2.03125 0.859375,-2.4375 0.9375,-2.84375 1,-3.25 1.046875,-3.515625 1.0625,-3.828125 1.15625,-4.09375 1.28125,-4.5 1.546875,-4.921875 1.8125,-5.265625 1.953125,-5.4375 2.09375,-5.59375 2.25,-5.734375 2.296875,-5.796875 2.40625,-5.859375 2.421875,-5.9375 2.4375,-6 2.359375,-6.09375 2.328125,-6.15625 Z m 0,0"
                   id="path5113"
                   inkscape:connector-curvature="0" />
              </symbol>
              <symbol
                 overflow="visible"
                 id="textext-e8c2dedf-11"
                 style="overflow:visible">
                <path
                   style="stroke:none"
                   d="m 0,-4.9375 0,1.09375 1.53125,0 0,0.015625 c -0.09375,0.03125 -0.171875,0.09375 -0.25,0.15625 C 1.0625,-3.53125 0.890625,-3.328125 0.734375,-3.125 0.3125,-2.546875 0.09375,-1.84375 0.015625,-1.140625 -0.015625,-0.765625 0,-0.375 0,0 l 1.09375,0 0,-1.265625 C 1.09375,-1.859375 1.109375,-2.4375 1.328125,-3 1.5,-3.390625 1.78125,-3.875 2.265625,-3.84375 2.671875,-3.8125 2.9375,-3.3125 3.0625,-2.984375 3.28125,-2.4375 3.296875,-1.890625 3.296875,-1.3125 l 0,1.3125 1.09375,0 C 4.390625,-0.34375 4.40625,-0.671875 4.375,-1.015625 4.3125,-1.71875 4.109375,-2.4375 3.71875,-3.03125 3.515625,-3.328125 3.21875,-3.703125 2.875,-3.828125 l 0,-0.015625 0.25,0 0,-1.09375 -3.125,0 z m 0,0"
                   id="path5116"
                   inkscape:connector-curvature="0" />
              </symbol>
              <symbol
                 overflow="visible"
                 id="textext-e8c2dedf-12"
                 style="overflow:visible">
                <path
                   style="stroke:none"
                   d="M 1.75,-1.53125 C 1.671875,-1.375 1.546875,-1.1875 1.53125,-1 c 0,0.125 0.03125,0.265625 0.078125,0.390625 0.03125,0.125 0.109375,0.234375 0.1875,0.328125 0.09375,0.09375 0.1875,0.171875 0.3125,0.21875 C 2.828125,0.234375 3.5625,-0.5 3.375,-1.21875 3.3125,-1.421875 3.203125,-1.59375 3.078125,-1.75 c 0.5625,-0.15625 1.3125,-0.359375 1.5,-1 C 4.671875,-3.078125 4.53125,-3.390625 4.28125,-3.609375 4.1875,-3.703125 4.03125,-3.765625 3.953125,-3.84375 3.84375,-3.96875 3.78125,-4.171875 3.703125,-4.3125 3.609375,-4.453125 3.53125,-4.609375 3.4375,-4.765625 3.421875,-4.8125 3.390625,-4.90625 3.34375,-4.921875 3.265625,-4.953125 3.15625,-4.9375 3.09375,-4.9375 l -0.578125,0 0,1.09375 0.625,0 c 0.171875,0 0.34375,0 0.515625,0.078125 0.078125,0.0625 0.15625,0.125 0.234375,0.203125 0.046875,0.0625 0.09375,0.140625 0.125,0.21875 C 4.203125,-2.796875 3.6875,-2.421875 3.25,-2.21875 3.15625,-2.1875 2.96875,-2.078125 2.859375,-2.09375 2.796875,-2.109375 2.6875,-2.234375 2.625,-2.28125 2.5,-2.390625 2.328125,-2.46875 2.15625,-2.515625 1.796875,-2.578125 1.421875,-2.46875 1.078125,-2.546875 0.5625,-2.703125 0.25,-3.265625 0.34375,-3.765625 c 0.03125,-0.15625 0.125,-0.265625 0.1875,-0.40625 0.0625,0.1875 0.046875,0.390625 0.140625,0.5625 C 0.890625,-3.21875 1.4375,-3 1.78125,-3.390625 2.078125,-3.765625 2.015625,-4.328125 1.75,-4.6875 1.53125,-4.984375 1.140625,-5.140625 0.796875,-4.984375 c -0.375,0.1875 -0.59375,0.625 -0.703125,1 C -0.015625,-3.5625 -0.0625,-3.09375 0.078125,-2.6875 0.3125,-1.96875 1.03125,-1.53125 1.75,-1.53125 Z M 0.765625,-4.171875 C 0.9375,-4.40625 1.25,-4.4375 1.5,-4.328125 c 0.0625,0.015625 0.25,0.09375 0.25,0.15625 0,0.078125 -0.171875,0.171875 -0.21875,0.1875 -0.296875,0.171875 -0.5625,0.0625 -0.765625,-0.1875 z m 1.96875,2.484375 c 0.0625,0 0.109375,0.0625 0.140625,0.109375 0.140625,0.125 0.21875,0.25 0.1875,0.4375 C 3,-0.890625 2.71875,-0.75 2.484375,-0.765625 2.25,-0.78125 1.859375,-1.03125 2,-1.3125 2.0625,-1.5 2.375,-1.578125 2.546875,-1.640625 c 0.0625,-0.03125 0.125,-0.0625 0.1875,-0.046875 z m 0,0"
                   id="path5119"
                   inkscape:connector-curvature="0" />
              </symbol>
              <symbol
                 overflow="visible"
                 id="textext-e8c2dedf-13"
                 style="overflow:visible">
                <path
                   style="stroke:none"
                   d="m 0,-6.03125 0,0.015625 c 0.453125,0.4375 0.875,0.921875 1.140625,1.5 0.171875,0.34375 0.234375,0.71875 0.3125,1.09375 0.109375,0.53125 0.1875,1.078125 0.171875,1.625 -0.015625,0.53125 -0.15625,1.0625 -0.265625,1.578125 -0.125,0.53125 -0.515625,1.03125 -0.875,1.421875 L 0.15625,1.53125 C 0.125,1.5625 0.046875,1.609375 0.03125,1.671875 c 0,0.046875 0.078125,0.15625 0.109375,0.21875 C 0.421875,1.75 0.703125,1.5 0.9375,1.3125 1.359375,0.953125 1.75,0.5625 2.03125,0.0625 2.390625,-0.625 2.5,-1.421875 2.4375,-2.1875 2.40625,-2.828125 2.28125,-3.453125 2.015625,-4.0625 1.71875,-4.71875 1.265625,-5.296875 0.71875,-5.75 0.59375,-5.875 0.453125,-5.984375 0.296875,-6.078125 0.265625,-6.09375 0.1875,-6.171875 0.140625,-6.15625 0.09375,-6.15625 0.046875,-6.078125 0,-6.03125 Z m 0,0"
                   id="path5122"
                   inkscape:connector-curvature="0" />
              </symbol>
              <symbol
                 overflow="visible"
                 id="textext-e8c2dedf-14"
                 style="overflow:visible">
                <path
                   style="stroke:none"
                   d="m 0,-4.9375 0,1.09375 1.71875,0 0,0.015625 c -0.40625,0 -0.78125,0.4375 -0.578125,0.84375 C 1.28125,-2.75 1.578125,-2.625 1.84375,-2.625 2.125,-2.625 2.4375,-2.75 2.578125,-3.015625 2.765625,-3.40625 2.390625,-3.8125 2,-3.828125 l 0,-0.015625 1.265625,0 0,-1.09375 L 0,-4.9375 Z M 0,0 0.328125,0 c 0,-0.125 0.015625,-0.234375 0.078125,-0.34375 0.296875,-0.75 1.25,-0.890625 1.921875,-0.640625 0.25,0.09375 0.46875,0.25 0.625,0.453125 0.125,0.171875 0.171875,0.375 0.390625,0.46875 0.34375,0.15625 0.671875,0 0.859375,-0.3125 C 4.46875,-0.796875 4.515625,-1.296875 4.5,-1.78125 4.46875,-2.25 4.34375,-2.71875 4.109375,-3.125 4.046875,-3.234375 3.96875,-3.40625 3.875,-3.484375 c -0.0625,-0.03125 -0.171875,0.03125 -0.1875,0.078125 -0.015625,0.0625 0.046875,0.140625 0.046875,0.203125 0.0625,0.15625 0.109375,0.3125 0.15625,0.46875 0.125,0.4375 0.03125,0.953125 -0.125,1.375 -0.078125,0.171875 -0.1875,0.390625 -0.375,0.46875 -0.125,0.046875 -0.28125,0 -0.375,-0.109375 C 2.9375,-1.09375 2.90625,-1.25 2.84375,-1.359375 2.703125,-1.640625 2.484375,-1.890625 2.21875,-2.046875 2.078125,-2.109375 1.953125,-2.15625 1.796875,-2.1875 1.359375,-2.265625 0.921875,-2.046875 0.625,-1.71875 0.1875,-1.25 0,-0.625 0,0 Z m 0,0"
                   id="path5125"
                   inkscape:connector-curvature="0" />
              </symbol>
              <symbol
                 overflow="visible"
                 id="textext-e8c2dedf-15"
                 style="overflow:visible">
                <path
                   style="stroke:none"
                   d="m 0,-4.9375 0,1.09375 0.984375,0 0,0.015625 c -0.234375,0.0625 -0.4375,0.296875 -0.5625,0.484375 -0.4375,0.578125 -0.546875,1.390625 -0.25,2.0625 0.09375,0.234375 0.234375,0.4375 0.421875,0.609375 0.25,0.25 0.53125,0.4375 0.859375,0.5625 1.03125,0.34375 2.234375,-0.09375 2.71875,-1.078125 0.21875,-0.40625 0.25,-0.859375 0.1875,-1.3125 C 4.28125,-2.890625 4.078125,-3.28125 3.78125,-3.5625 3.703125,-3.640625 3.625,-3.703125 3.53125,-3.765625 3.5,-3.78125 3.4375,-3.8125 3.40625,-3.84375 c -0.0625,-0.078125 -0.0625,-0.25 -0.09375,-0.34375 -0.046875,-0.25 -0.140625,-0.5 -0.171875,-0.75 L 0,-4.9375 Z m 1.984375,1.09375 c 0.53125,-0.046875 1.15625,0.078125 1.546875,0.46875 0.390625,0.359375 0.515625,1.015625 0.234375,1.484375 -0.125,0.203125 -0.328125,0.359375 -0.546875,0.484375 -0.234375,0.125 -0.484375,0.1875 -0.75,0.203125 -0.625,0.078125 -1.40625,-0.078125 -1.796875,-0.625 -0.359375,-0.5 -0.1875,-1.234375 0.28125,-1.625 C 1.25,-3.6875 1.609375,-3.78125 1.984375,-3.84375 Z m 0,0"
                   id="path5128"
                   inkscape:connector-curvature="0" />
              </symbol>
              <symbol
                 overflow="visible"
                 id="textext-e8c2dedf-16"
                 style="overflow:visible">
                <path
                   style="stroke:none"
                   d="m 0.765625,-3.296875 0,0 C 0.703125,-3.359375 0.625,-3.421875 0.578125,-3.5 0.484375,-3.671875 0.625,-3.875 0.75,-3.984375 1.03125,-4.15625 1.5,-4.015625 1.53125,-3.65625 1.5625,-3.265625 1.171875,-2.953125 0.90625,-2.734375 0.5625,-2.4375 0.125,-2.140625 0.046875,-1.671875 0,-1.5 0.015625,-1.3125 0.046875,-1.140625 c 0.046875,0.1875 0.109375,0.375 0.21875,0.53125 0.078125,0.140625 0.1875,0.28125 0.328125,0.375 0.71875,0.515625 1.578125,0.125 1.984375,-0.578125 0.078125,-0.140625 0.171875,-0.328125 0.1875,-0.5 l 0.015625,0 c 0.015625,0.171875 0.109375,0.359375 0.203125,0.5 C 3.34375,-0.171875 4.140625,0.28125 4.8125,-0.203125 5.828125,-0.90625 5.65625,-2.5 4.921875,-3.3125 4.734375,-3.515625 4.484375,-3.75 4.21875,-3.828125 l 0,-0.015625 0.0625,0 0,-1.09375 -1.515625,0 0,1.09375 0.65625,0 c 0.171875,0 0.328125,0 0.5,0.078125 0.265625,0.15625 0.53125,0.359375 0.703125,0.609375 0.15625,0.203125 0.265625,0.421875 0.3125,0.65625 0.03125,0.15625 0.046875,0.328125 0.015625,0.484375 -0.015625,0.125 -0.0625,0.265625 -0.140625,0.375 -0.0625,0.09375 -0.125,0.171875 -0.21875,0.25 -0.625,0.515625 -1.625,-0.125 -1.8125,-0.796875 C 2.703125,-2.09375 2.671875,-1.953125 2.609375,-1.84375 2.375,-1.515625 2.03125,-1.28125 1.640625,-1.21875 1.265625,-1.171875 0.8125,-1.296875 0.703125,-1.6875 0.6875,-1.765625 0.671875,-1.84375 0.6875,-1.90625 0.734375,-2.078125 0.875,-2.234375 0.984375,-2.359375 c 0.28125,-0.3125 0.625,-0.578125 0.875,-0.90625 0.109375,-0.15625 0.21875,-0.34375 0.21875,-0.53125 C 2.09375,-4.109375 2.015625,-4.40625 1.8125,-4.65625 1.390625,-5.140625 0.671875,-5.1875 0.234375,-4.703125 c -0.28125,0.3125 -0.28125,0.75 -0.109375,1.109375 0.078125,0.140625 0.171875,0.28125 0.28125,0.390625 0.03125,0.03125 0.09375,0.109375 0.140625,0.109375 0.078125,0 0.171875,-0.140625 0.21875,-0.203125 z m 0,0"
                   id="path5131"
                   inkscape:connector-curvature="0" />
              </symbol>
              <symbol
                 overflow="visible"
                 id="textext-e8c2dedf-17"
                 style="overflow:visible">
                <path
                   style="stroke:none"
                   d="m -3.09375,-4.9375 0,1.09375 2.546875,0 c 0.4375,0 0.890625,-0.03125 1.328125,0.015625 0.5625,0.046875 1.1875,0.15625 1.5625,0.625 0.390625,0.515625 0.28125,1.375 -0.234375,1.75 C 1.671875,-1.125 1,-1.125 0.5625,-1.390625 0.1875,-1.625 0.078125,-2.03125 0.3125,-2.40625 c 0.109375,-0.171875 0.296875,-0.359375 0.53125,-0.3125 -0.0625,0.0625 -0.09375,0.140625 -0.109375,0.234375 -0.0625,0.328125 0.25,0.546875 0.53125,0.53125 C 1.625,-1.984375 1.828125,-2.3125 1.75,-2.65625 1.71875,-2.75 1.671875,-2.84375 1.578125,-2.921875 1.5,-3.015625 1.375,-3.078125 1.25,-3.125 0.609375,-3.3125 0.078125,-2.796875 -0.09375,-2.21875 -0.15625,-2.015625 -0.15625,-1.796875 -0.125,-1.578125 -0.0625,-0.9375 0.265625,-0.1875 0.953125,-0.03125 1.6875,0.140625 2.265625,-0.359375 2.59375,-0.96875 3.109375,-1.921875 3.015625,-3.34375 2.296875,-4.171875 1.875,-4.640625 1.3125,-4.875 0.703125,-4.9375 c -0.296875,-0.03125 -0.625,0 -0.921875,0 l -2.875,0 z m 0,0"
                   id="path5134"
                   inkscape:connector-curvature="0" />
              </symbol>
              <symbol
                 overflow="visible"
                 id="textext-e8c2dedf-18"
                 style="overflow:visible">
                <path
                   style="stroke:none"
                   d="m 0.875,-2.40625 c -0.234375,0.109375 -0.453125,0.296875 -0.59375,0.515625 -0.40625,0.5625 -0.40625,1.484375 0.3125,1.828125 0.421875,0.1875 0.875,-0.015625 1.203125,-0.3125 0.078125,-0.0625 0.25,-0.171875 0.28125,-0.265625 0,-0.0625 -0.171875,-0.234375 -0.21875,-0.234375 -0.046875,0.015625 -0.078125,0.078125 -0.125,0.09375 -0.0625,0.046875 -0.15625,0.09375 -0.234375,0.109375 -0.328125,0.078125 -0.625,-0.25 -0.703125,-0.53125 -0.109375,-0.4375 0.140625,-0.765625 0.484375,-1 0.09375,-0.0625 0.296875,-0.125 0.359375,-0.21875 C 1.296875,-2.5 0.9375,-2.71875 0.75,-3.015625 0.640625,-3.1875 0.609375,-3.40625 0.75,-3.578125 0.921875,-3.78125 1.203125,-3.84375 1.453125,-3.84375 c 0.625,0 1.171875,0.40625 1.390625,0.984375 l 0.015625,0 C 3.125,-3.65625 4.0625,-3.953125 4.828125,-3.796875 5.28125,-3.703125 5.6875,-3.4375 5.84375,-3 c 0.0625,0.15625 0.09375,0.328125 0.09375,0.5 0,0.703125 -0.59375,1.3125 -1.296875,1.328125 -0.28125,0 -0.578125,-0.0625 -0.828125,-0.21875 C 3.6875,-1.5 3.5625,-1.625 3.5625,-1.796875 c 0,-0.40625 0.46875,-0.53125 0.796875,-0.453125 0.125,0.03125 0.3125,0.109375 0.34375,0.265625 0.03125,0.09375 -0.0625,0.1875 -0.09375,0.265625 0.0625,0.03125 0.15625,0.09375 0.21875,0.09375 0.03125,-0.015625 0.0625,-0.046875 0.078125,-0.078125 0.0625,-0.09375 0.140625,-0.203125 0.140625,-0.3125 0,-0.375 -0.28125,-0.78125 -0.6875,-0.8125 C 3.84375,-2.84375 3.40625,-2.4375 3.3125,-1.9375 3.203125,-1.25 3.484375,-0.3125 4.203125,-0.0625 4.984375,0.21875 5.6875,-0.375 6,-1.0625 6.203125,-1.515625 6.265625,-2 6.25,-2.484375 6.21875,-3.203125 6.03125,-3.921875 5.5625,-4.5 c -0.203125,-0.25 -0.5,-0.46875 -0.84375,-0.53125 -0.703125,-0.125 -1.375,0.34375 -1.671875,0.953125 -0.09375,0.171875 -0.171875,0.375 -0.1875,0.5625 C 2.8125,-3.65625 2.796875,-3.78125 2.75,-3.90625 2.640625,-4.203125 2.46875,-4.46875 2.25,-4.671875 1.625,-5.25 0.65625,-5.140625 0.1875,-4.421875 c -0.078125,0.125 -0.140625,0.28125 -0.171875,0.4375 -0.03125,0.171875 -0.03125,0.359375 0,0.53125 C 0.125,-2.96875 0.484375,-2.65625 0.875,-2.40625 Z m 0,0"
                   id="path5137"
                   inkscape:connector-curvature="0" />
              </symbol>
              <symbol
                 overflow="visible"
                 id="textext-e8c2dedf-19"
                 style="overflow:visible">
                <path
                   style="stroke:none"
                   d="m 0,-4.9375 0,1.09375 2.625,0 0,0.015625 c -0.40625,0 -0.78125,0.421875 -0.59375,0.8125 0.125,0.265625 0.4375,0.390625 0.703125,0.390625 0.28125,0 0.578125,-0.109375 0.71875,-0.359375 0.21875,-0.390625 -0.15625,-0.828125 -0.5625,-0.84375 l 0,-0.015625 1.46875,0 0,-1.09375 -4.359375,0 z m 2.75,2.75 -0.015625,0 C 2.578125,-1.484375 1.8125,-1.171875 1.15625,-1.21875 0.875,-1.234375 0.40625,-1.359375 0.34375,-1.6875 0.296875,-1.875 0.40625,-2.046875 0.546875,-2.15625 0.84375,-2.375 1.328125,-2.359375 1.46875,-1.96875 1.5,-1.890625 1.5,-1.828125 1.484375,-1.75 L 1.75,-1.640625 C 2.015625,-2.234375 1.515625,-2.90625 0.890625,-2.84375 0.375,-2.796875 0.046875,-2.328125 0,-1.84375 -0.078125,-0.96875 0.625,0.296875 1.640625,-0.046875 1.78125,-0.09375 1.890625,-0.15625 2,-0.234375 2.171875,-0.375 2.328125,-0.53125 2.4375,-0.703125 2.5625,-0.875 2.6875,-1.09375 2.734375,-1.3125 c 0.125,0.28125 0.25,0.53125 0.453125,0.78125 0.1875,0.21875 0.4375,0.40625 0.71875,0.5 C 4.453125,0.125 5.046875,-0.1875 5.296875,-0.671875 5.59375,-1.234375 5.5,-1.890625 5.46875,-2.5 5.4375,-2.78125 5.40625,-3.09375 5.296875,-3.375 5.25,-3.453125 5.1875,-3.53125 5.09375,-3.59375 4.859375,-3.703125 4.640625,-3.5 4.609375,-3.265625 4.578125,-2.671875 5.5,-2.171875 5.03125,-1.578125 4.5625,-1.03125 3.671875,-1.140625 3.15625,-1.5625 2.984375,-1.71875 2.796875,-1.953125 2.75,-2.1875 Z m 0,0"
                   id="path5140"
                   inkscape:connector-curvature="0" />
              </symbol>
              <symbol
                 overflow="visible"
                 id="textext-e8c2dedf-20"
                 style="overflow:visible">
                <path
                   style="stroke:none"
                   d="m 3.078125,-4.9375 c 0.515625,0.25 0.5,0.953125 0.375,1.421875 C 3.421875,-3.421875 3.375,-3.375 3.34375,-3.296875 3.09375,-3.40625 2.765625,-3.40625 2.5,-3.40625 c -0.234375,0 -0.453125,0.046875 -0.640625,0.125 -0.421875,0.171875 -0.875,0.640625 -0.546875,1.09375 0.046875,0.078125 0.140625,0.140625 0.203125,0.203125 0.5,0.34375 1.234375,0.296875 1.71875,-0.0625 0.21875,-0.15625 0.421875,-0.421875 0.4375,-0.6875 0.453125,0.265625 0.296875,0.90625 -0.078125,1.15625 -0.609375,0.4375 -1.484375,0.4375 -2.1875,0.296875 C 1.0625,-1.359375 0.625,-1.53125 0.484375,-1.875 0.421875,-2.015625 0.4375,-2.15625 0.4375,-2.296875 c -0.0625,0 -0.171875,-0.03125 -0.234375,0 C 0.125,-2.234375 0.0625,-2.078125 0.046875,-1.96875 -0.046875,-1.640625 0.015625,-1.265625 0.1875,-0.984375 0.59375,-0.328125 1.421875,-0.03125 2.15625,0 3,0.046875 3.890625,-0.3125 4.328125,-1.09375 c 0.25,-0.46875 0.234375,-1.109375 -0.0625,-1.5625 -0.125,-0.1875 -0.3125,-0.359375 -0.53125,-0.421875 C 3.84375,-3.3125 3.84375,-3.578125 3.84375,-3.84375 3.8125,-4.609375 3.515625,-5.265625 2.921875,-5.765625 2.515625,-6.09375 1.796875,-6.375 1.390625,-5.875 1.328125,-5.796875 1.28125,-5.71875 1.25,-5.625 1.0625,-5.109375 1.421875,-4.359375 1.96875,-4.203125 2.453125,-4.0625 3.078125,-4.390625 3.078125,-4.9375 Z M 2.0625,-5.28125 c 0.15625,0 0.3125,0.0625 0.4375,0.125 0.046875,0.03125 0.109375,0.0625 0.125,0.109375 0,0.03125 -0.046875,0.09375 -0.078125,0.125 C 2.46875,-4.8125 2.359375,-4.71875 2.21875,-4.71875 2.046875,-4.71875 1.734375,-4.765625 1.671875,-4.921875 1.640625,-4.96875 1.6875,-5.03125 1.71875,-5.046875 1.796875,-5.15625 1.90625,-5.265625 2.0625,-5.28125 Z m 1.171875,2.265625 C 3.203125,-2.9375 3.140625,-2.84375 3.078125,-2.78125 2.84375,-2.5 2.5625,-2.375 2.203125,-2.4375 2.046875,-2.453125 1.875,-2.5 1.78125,-2.640625 1.703125,-2.765625 1.796875,-2.90625 1.890625,-3 c 0.203125,-0.15625 0.5,-0.203125 0.75,-0.1875 0.203125,0.03125 0.390625,0.109375 0.59375,0.171875 z m 0,0"
                   id="path5143"
                   inkscape:connector-curvature="0" />
              </symbol>
              <symbol
                 overflow="visible"
                 id="textext-e8c2dedf-21"
                 style="overflow:visible">
                <path
                   style="stroke:none"
                   d="M 0.984375,-2.296875 C 0.375,-2.140625 -0.046875,-1.5625 0,-0.921875 0.046875,-0.375 0.671875,0.15625 1.21875,-0.015625 1.53125,-0.109375 1.734375,-0.609375 1.515625,-0.859375 1.4375,-0.9375 1.328125,-0.96875 1.21875,-1 0.984375,-1.0625 0.578125,-1.171875 0.5625,-1.5 c 0,-0.1875 0.171875,-0.40625 0.359375,-0.46875 0.15625,-0.03125 0.34375,0 0.5,0 l 0.984375,0 0,-0.984375 -1.140625,0 C 1.0625,-2.953125 0.84375,-2.9375 0.65625,-3 0.265625,-3.15625 0.21875,-3.609375 0.625,-3.78125 c 0.140625,-0.078125 0.3125,-0.0625 0.46875,-0.0625 l 0.78125,0 2.84375,0 0,-1.09375 -2.328125,0 c -0.5,0 -1.015625,-0.03125 -1.484375,0.1875 -0.65625,0.296875 -1.203125,1.1875 -0.75,1.875 0.203125,0.3125 0.5,0.4375 0.828125,0.578125 z m 0,0"
                   id="path5146"
                   inkscape:connector-curvature="0" />
              </symbol>
              <symbol
                 overflow="visible"
                 id="textext-e8c2dedf-22"
                 style="overflow:visible">
                <path
                   style="stroke:none"
                   d="m 0,-4.9375 0,1.09375 1.125,0 0.296875,0 c 0.03125,0 0.078125,0 0.125,0.03125 0.125,0.078125 0.125,0.3125 0.0625,0.4375 C 1.59375,-3.3125 1.5625,-3.25 1.5,-3.234375 c -0.140625,0.03125 -0.328125,0 -0.46875,0 l -1.03125,0 0,0.9375 0.765625,0 C 0.625,-2.15625 0.53125,-1.953125 0.5,-1.75 0.40625,-1.421875 0.40625,-1.046875 0.5625,-0.734375 1.109375,0.265625 2.765625,0.25 3.203125,-0.84375 3.296875,-1.0625 3.3125,-1.3125 3.28125,-1.53125 3.25,-1.8125 3.15625,-2.078125 2.96875,-2.296875 l 0.65625,0 0,-0.9375 -1.65625,0 c 0.109375,-0.1875 0.140625,-0.421875 0.015625,-0.609375 l 0.390625,0 0,-1.09375 -2.375,0 z m 1.75,2.421875 c 0.28125,-0.03125 0.578125,0.046875 0.796875,0.25 0.234375,0.21875 0.28125,0.609375 0.046875,0.859375 -0.078125,0.078125 -0.140625,0.140625 -0.234375,0.1875 -0.125,0.078125 -0.265625,0.109375 -0.40625,0.125 C 1.453125,-1.03125 0.84375,-1.453125 1.015625,-2 1.046875,-2.078125 1.078125,-2.140625 1.125,-2.203125 1.203125,-2.28125 1.28125,-2.34375 1.359375,-2.40625 1.484375,-2.46875 1.609375,-2.5 1.75,-2.515625 Z m 0,0"
                   id="path5149"
                   inkscape:connector-curvature="0" />
              </symbol>
              <symbol
                 overflow="visible"
                 id="textext-e8c2dedf-23"
                 style="overflow:visible">
                <path
                   style="stroke:none"
                   d="m 0,-4.9375 0,1.09375 1.75,0 0.671875,0 c 0.109375,0 0.234375,-0.015625 0.328125,0 0.234375,0.0625 0.484375,0.21875 0.671875,0.359375 0.578125,0.40625 1.015625,1.25 0.5625,1.921875 -0.09375,0.15625 -0.25,0.296875 -0.4375,0.34375 -0.453125,0.109375 -0.96875,-0.21875 -1.21875,-0.578125 -0.171875,-0.3125 -0.25,-0.640625 -0.484375,-0.921875 -0.25,-0.296875 -0.703125,-0.578125 -1.109375,-0.421875 -0.28125,0.125 -0.46875,0.40625 -0.59375,0.6875 -0.234375,0.609375 -0.171875,1.375 0.0625,1.96875 0.109375,0.3125 0.3125,0.671875 0.625,0.78125 0.125,0.046875 0.3125,0.046875 0.4375,0 C 1.5,0.203125 1.578125,-0.0625 1.5,-0.296875 1.421875,-0.546875 1.1875,-0.625 0.96875,-0.703125 0.765625,-0.796875 0.578125,-0.90625 0.453125,-1.09375 0.234375,-1.390625 0.34375,-1.71875 0.671875,-1.890625 0.890625,-2 1.171875,-2 1.421875,-1.9375 c 0.265625,0.0625 0.53125,0.21875 0.6875,0.453125 0.078125,0.125 0.125,0.28125 0.1875,0.421875 0.09375,0.21875 0.21875,0.421875 0.359375,0.609375 0.25,0.3125 0.609375,0.546875 1.015625,0.40625 C 4.09375,-0.1875 4.34375,-0.640625 4.46875,-1.03125 4.75,-1.90625 4.609375,-2.84375 3.890625,-3.453125 3.734375,-3.59375 3.515625,-3.78125 3.3125,-3.828125 l 0,-0.015625 0.03125,0 0,-1.09375 -3.34375,0 z m 0,0"
                   id="path5152"
                   inkscape:connector-curvature="0" />
              </symbol>
              <symbol
                 overflow="visible"
                 id="textext-e8c2dedf-24"
                 style="overflow:visible">
                <path
                   style="stroke:none"
                   d="m -1.4375,2.625 0.015625,0 C -1.40625,2.75 -1.328125,2.875 -1.28125,2.96875 -1.0625,3.34375 -0.625,3.65625 -0.1875,3.5 0.09375,3.40625 0.296875,3.125 0.390625,2.84375 0.453125,2.65625 0.5,2.46875 0.5,2.265625 0.5,1.90625 0.421875,1.578125 0.21875,1.3125 -0.515625,0.3125 -2.4375,0.234375 -3.125,1.34375 -3.484375,1.9375 -3.453125,3.015625 -2.796875,3.421875 -2.328125,3.734375 -1.765625,3.375 -1.546875,2.9375 -1.5,2.84375 -1.453125,2.734375 -1.4375,2.625 Z M -1.421875,2.078125 C -1.5,2.265625 -1.59375,2.4375 -1.78125,2.5625 c -0.203125,0.125 -0.515625,0.171875 -0.734375,0.0625 -0.390625,-0.21875 -0.46875,-0.796875 -0.25,-1.15625 0.40625,-0.640625 1.40625,-0.765625 2.0625,-0.484375 0.46875,0.1875 0.828125,0.59375 0.734375,1.125 -0.09375,0.5 -0.59375,0.71875 -1.046875,0.484375 C -1.21875,2.484375 -1.34375,2.296875 -1.421875,2.078125 Z m 0,0"
                   id="path5155"
                   inkscape:connector-curvature="0" />
              </symbol>
              <symbol
                 overflow="visible"
                 id="textext-e8c2dedf-25"
                 style="overflow:visible">
                <path
                   style="stroke:none"
                   d="m 4.75,-4.28125 c -0.0625,0.34375 -0.34375,0.625 -0.609375,0.8125 -0.078125,0.0625 -0.1875,0.15625 -0.28125,0.171875 -0.078125,0.015625 -0.15625,0 -0.21875,0 l -0.4375,0 0,1 0.984375,0 c 0.140625,0 0.3125,-0.03125 0.453125,0 C 4.8125,-2.25 5.03125,-2.03125 5.0625,-1.84375 c 0.09375,0.40625 -0.46875,0.609375 -0.78125,0.625 -0.5,0.03125 -0.875,-0.171875 -1.203125,-0.546875 -0.125,-0.125 -0.203125,-0.296875 -0.3125,-0.421875 -0.25,0.390625 -0.546875,0.859375 -1.03125,0.96875 -0.40625,0.078125 -1.09375,-0.15625 -1.0625,-0.65625 0.03125,-0.234375 0.25,-0.484375 0.421875,-0.640625 0.34375,-0.34375 0.8125,-0.6875 0.96875,-1.171875 0.03125,-0.109375 0.03125,-0.234375 0.015625,-0.359375 -0.09375,-0.734375 -0.9375,-1.28125 -1.59375,-0.875 -0.40625,0.25 -0.578125,0.703125 -0.4375,1.15625 0.0625,0.203125 0.1875,0.359375 0.328125,0.53125 0.03125,0.03125 0.109375,0.140625 0.171875,0.140625 0.078125,0 0.171875,-0.140625 0.21875,-0.203125 l 0,0 C 0.703125,-3.359375 0.625,-3.421875 0.578125,-3.5 0.484375,-3.671875 0.625,-3.875 0.75,-3.984375 1.03125,-4.15625 1.5,-4.015625 1.53125,-3.65625 1.5625,-3.3125 1.25,-3.078125 1.03125,-2.875 0.578125,-2.515625 -0.015625,-2.125 0.015625,-1.46875 0.0625,-0.703125 0.640625,0 1.4375,0 c 0.140625,0 0.28125,-0.015625 0.40625,-0.0625 0.359375,-0.15625 0.59375,-0.5 0.765625,-0.84375 0.0625,-0.125 0.125,-0.265625 0.15625,-0.40625 l 0.015625,0 c 0.03125,0.21875 0.1875,0.46875 0.328125,0.640625 0.234375,0.328125 0.578125,0.625 1,0.671875 C 4.25,0.015625 4.375,-0.015625 4.5,-0.046875 c 0.96875,-0.234375 1.328125,-1.53125 0.6875,-2.25 l 0.328125,0 0,-1 -1.09375,0 c 0.15625,-0.109375 0.3125,-0.234375 0.4375,-0.375 0.3125,-0.359375 0.46875,-0.828125 0.4375,-1.3125 -0.0625,-0.625 -0.75,-1.203125 -1.375,-0.859375 -0.4375,0.25 -0.609375,0.828125 -0.421875,1.28125 0.09375,0.25 0.3125,0.484375 0.59375,0.5 0.125,0 0.25,-0.03125 0.359375,-0.0625 C 4.5625,-4.15625 4.65625,-4.203125 4.75,-4.28125 Z m 0,-0.546875 C 4.5,-4.65625 4.234375,-4.515625 3.953125,-4.75 3.875,-4.8125 3.8125,-4.875 3.765625,-4.9375 3.921875,-5.234375 4.28125,-5.40625 4.5625,-5.15625 4.65625,-5.078125 4.703125,-4.953125 4.75,-4.828125 Z m 0,0"
                   id="path5158"
                   inkscape:connector-curvature="0" />
              </symbol>
              <symbol
                 overflow="visible"
                 id="textext-e8c2dedf-26"
                 style="overflow:visible">
                <path
                   style="stroke:none"
                   d="m -1.46875,1.75 0,0.6875 0.65625,0 c 0.109375,0 0.234375,-0.015625 0.328125,0 0.21875,0.0625 0.421875,0.359375 0.265625,0.546875 -0.09375,0.125 -0.25,0.1875 -0.40625,0.21875 C -1.109375,3.28125 -1.546875,2.96875 -1.75,2.53125 l -0.03125,0 c -0.140625,0.265625 -0.375,0.578125 -0.6875,0.671875 C -2.734375,3.265625 -3.203125,3.125 -3.234375,2.796875 -3.234375,2.578125 -3.03125,2.375 -2.890625,2.25 -2.546875,1.890625 -2.09375,1.5625 -2.328125,1 -2.359375,0.90625 -2.4375,0.8125 -2.515625,0.734375 -2.921875,0.359375 -3.625,0.53125 -3.703125,1.109375 -3.75,1.453125 -3.5625,1.6875 -3.328125,1.90625 l 0.015625,0 C -3.296875,1.875 -3.1875,1.796875 -3.1875,1.75 c 0,-0.03125 -0.078125,-0.09375 -0.109375,-0.125 -0.046875,-0.0625 -0.03125,-0.171875 0,-0.25 0.15625,-0.3125 0.734375,-0.15625 0.65625,0.203125 C -2.734375,2 -3.1875,2.25 -3.453125,2.546875 c -0.109375,0.125 -0.25,0.265625 -0.25,0.4375 0,0.546875 0.40625,1.078125 0.984375,1.078125 0.109375,0 0.203125,-0.015625 0.3125,-0.0625 0.34375,-0.15625 0.5,-0.515625 0.640625,-0.84375 C -1.6875,3.375 -1.5625,3.59375 -1.40625,3.75 c 0.125,0.125 0.265625,0.234375 0.421875,0.28125 0.09375,0.03125 0.171875,0.03125 0.25,0.03125 0.796875,0 1.15625,-1.078125 0.65625,-1.625 l 0.234375,0 0,-0.6875 -0.375,0 c 0.203125,-0.296875 0.25,-0.6875 0.09375,-1.015625 -0.09375,-0.21875 -0.328125,-0.40625 -0.5625,-0.25 -0.046875,0.03125 -0.078125,0.0625 -0.109375,0.109375 -0.109375,0.171875 -0.0625,0.390625 0.0625,0.515625 0.046875,0.0625 0.125,0.09375 0.171875,0.15625 C -0.484375,1.375 -0.5,1.609375 -0.59375,1.71875 -0.640625,1.78125 -0.75,1.75 -0.8125,1.75 l -0.65625,0 z m 0,0"
                   id="path5161"
                   inkscape:connector-curvature="0" />
              </symbol>
              <symbol
                 overflow="visible"
                 id="textext-e8c2dedf-27"
                 style="overflow:visible">
                <path
                   style="stroke:none"
                   d="m 0,-4.9375 0,1.09375 1.515625,0 0,0.015625 c -0.09375,0.015625 -0.1875,0.0625 -0.28125,0.125 -0.25,0.109375 -0.484375,0.28125 -0.671875,0.5 C 0.375,-3 0.203125,-2.78125 0.125,-2.515625 -0.15625,-1.75 0.046875,-0.640625 0.75,-0.171875 1.5625,0.375 2.625,-0.453125 2.734375,-1.3125 l 0.015625,0 c 0.015625,0.171875 0.109375,0.359375 0.203125,0.5 0.34375,0.609375 1.140625,1.09375 1.796875,0.640625 0.671875,-0.46875 0.90625,-1.5625 0.640625,-2.3125 -0.171875,-0.4375 -0.484375,-0.8125 -0.875,-1.0625 -0.15625,-0.109375 -0.34375,-0.234375 -0.53125,-0.28125 l 0,-0.015625 0.234375,0 0,-1.09375 -4.21875,0 z m 2.75,2.859375 c -0.140625,0.265625 -0.25,0.5 -0.515625,0.65625 -0.125,0.09375 -0.265625,0.15625 -0.40625,0.1875 -0.125,0.015625 -0.265625,0.03125 -0.375,0.015625 C 0.796875,-1.3125 0.53125,-2.109375 0.703125,-2.671875 0.765625,-2.84375 0.875,-3.015625 1,-3.15625 c 0.671875,-0.765625 1.984375,-0.859375 2.875,-0.453125 0.6875,0.3125 1.15625,1.03125 0.875,1.78125 -0.109375,0.25 -0.296875,0.5 -0.5625,0.578125 C 3.765625,-1.109375 3.25,-1.34375 2.96875,-1.671875 2.875,-1.78125 2.765625,-1.9375 2.75,-2.078125 Z m 0,0"
                   id="path5164"
                   inkscape:connector-curvature="0" />
              </symbol>
              <symbol
                 overflow="visible"
                 id="textext-e8c2dedf-28"
                 style="overflow:visible">
                <path
                   style="stroke:none"
                   d="m -1.40625,2.6875 c 0.078125,0.078125 0.09375,0.234375 0.140625,0.328125 0.15625,0.25 0.375,0.4375 0.640625,0.53125 0.09375,0.03125 0.203125,0.046875 0.28125,0.046875 0.75,0 0.953125,-0.90625 0.875,-1.484375 C 0.515625,1.984375 0.484375,1.859375 0.421875,1.75 0.390625,1.6875 0.328125,1.640625 0.3125,1.578125 0.296875,1.53125 0.296875,1.453125 0.28125,1.40625 0.25,1.265625 0.171875,1.140625 0.0625,1.03125 -0.21875,0.75 -0.65625,0.640625 -1.046875,0.609375 -1.875,0.546875 -2.984375,0.90625 -3.25,1.796875 -3.3125,2.03125 -3.3125,2.265625 -3.296875,2.515625 -3.265625,2.6875 -3.21875,2.875 -3.125,3.046875 c 0.125,0.234375 0.296875,0.46875 0.578125,0.53125 0.5,0.125 1.09375,-0.375 1.140625,-0.890625 z M 0.0625,1.359375 C -0.125,1.3125 -0.3125,1.21875 -0.515625,1.203125 -0.875,1.171875 -1.28125,1.5625 -1.109375,1.9375 c 0.234375,0.5 1.09375,0.4375 1.3125,-0.03125 l 0.03125,0 C 0.5,2.359375 -0.046875,2.71875 -0.4375,2.734375 -0.75,2.765625 -1.046875,2.65625 -1.234375,2.375 -1.3125,2.28125 -1.34375,2.171875 -1.390625,2.0625 -1.484375,2.296875 -1.609375,2.515625 -1.84375,2.65625 -1.90625,2.6875 -2,2.71875 -2.078125,2.734375 -2.609375,2.828125 -2.875,2.328125 -2.84375,1.84375 -2.828125,1.53125 -2.609375,1.28125 -2.328125,1.125 -1.859375,0.859375 -1.25,0.875 -0.734375,0.953125 -0.4375,1 -0.078125,1.09375 0.0625,1.359375 Z m 0,0.328125 C -0.015625,1.75 -0.109375,1.8125 -0.21875,1.859375 -0.34375,1.90625 -0.515625,1.9375 -0.640625,1.875 -0.78125,1.828125 -0.8125,1.640625 -0.734375,1.515625 -0.671875,1.421875 -0.5625,1.4375 -0.46875,1.453125 -0.296875,1.46875 -0.046875,1.53125 0.0625,1.6875 Z m 0,0"
                   id="path5167"
                   inkscape:connector-curvature="0" />
              </symbol>
              <symbol
                 overflow="visible"
                 id="textext-e8c2dedf-29"
                 style="overflow:visible">
                <path
                   style="stroke:none"
                   d="m -1.203125,-1.96875 c 0,0.140625 -0.015625,0.296875 0.015625,0.4375 0.046875,0.1875 0.15625,0.359375 0.234375,0.53125 0.375,0.59375 1.03125,1.140625 1.78125,0.96875 0.15625,-0.03125 0.28125,-0.09375 0.40625,-0.171875 0.09375,-0.0625 0.1875,-0.15625 0.265625,-0.25 C 2.046875,-1.09375 1.5625,-1.90625 1.671875,-2.65625 1.71875,-3.046875 2.0625,-3.40625 2.390625,-3.59375 3.125,-4.046875 4.125,-3.84375 4.71875,-3.265625 4.984375,-2.984375 5.203125,-2.609375 5.171875,-2.21875 5.15625,-2.078125 5.140625,-1.9375 5.078125,-1.8125 4.859375,-1.328125 4.28125,-1.171875 3.78125,-1.21875 3.578125,-1.234375 3.375,-1.265625 3.1875,-1.390625 2.96875,-1.53125 2.828125,-1.8125 2.859375,-2.078125 2.90625,-2.375 3.234375,-2.5625 3.515625,-2.5 c -0.0625,0.09375 -0.1875,0.234375 -0.203125,0.34375 -0.078125,0.265625 0.265625,0.515625 0.5,0.546875 0.546875,0.03125 0.859375,-0.578125 0.609375,-1.03125 C 4.359375,-2.765625 4.25,-2.875 4.125,-2.953125 3.609375,-3.25 2.90625,-2.84375 2.65625,-2.375 2.546875,-2.140625 2.53125,-1.90625 2.546875,-1.671875 2.578125,-1.0625 2.765625,-0.34375 3.375,-0.078125 3.515625,-0.03125 3.671875,0 3.828125,0 4.03125,0 4.234375,-0.03125 4.421875,-0.09375 4.9375,-0.3125 5.25,-0.875 5.390625,-1.390625 5.71875,-2.65625 5.296875,-4.109375 4.0625,-4.71875 3.828125,-4.84375 3.53125,-4.921875 3.265625,-4.9375 c -0.28125,0 -0.5625,0.015625 -0.828125,0.109375 -0.640625,0.21875 -1.171875,0.796875 -1.21875,1.46875 -0.015625,0.3125 0.0625,0.640625 0.09375,0.96875 0.015625,0.15625 0.03125,0.328125 0,0.484375 -0.03125,0.109375 -0.09375,0.21875 -0.140625,0.296875 -0.40625,0.5 -1.078125,0.46875 -1.59375,0.21875 -0.1875,-0.09375 -0.359375,-0.21875 -0.515625,-0.34375 C -1.03125,-1.8125 -1.109375,-1.90625 -1.203125,-1.96875 Z m 0,0"
                   id="path5170"
                   inkscape:connector-curvature="0" />
              </symbol>
            </g>
          </defs>
          <g
             id="textext-e8c2dedf-30"
             transform="translate(33.059538,-12.397327)">
            <g
               style="fill:#000000;fill-opacity:1"
               id="g5307"
               transform="translate(-95.505332,-5.9690829)" />
            <text
               xml:space="preserve"
               style="font-style:normal;font-weight:normal;font-size:13.63636398px;line-height:125%;font-family:sans-serif;letter-spacing:0px;word-spacing:0px;fill:#000000;fill-opacity:1;stroke:none;stroke-width:1px;stroke-linecap:butt;stroke-linejoin:miter;stroke-opacity:1"
               x="120.22271"
               y="127.82209"
               id="text3602"
               sodipodi:linespacing="125%"><tspan
                 sodipodi:role="line"
                 id="tspan3604"
                 x="120.22271"
                 y="127.82209" /></text>
            <text
               xml:space="preserve"
               style="font-style:normal;font-weight:normal;font-size:13.63636398px;line-height:125%;font-family:sans-serif;letter-spacing:0px;word-spacing:0px;fill:#000000;fill-opacity:1;stroke:none;stroke-width:1px;stroke-linecap:butt;stroke-linejoin:miter;stroke-opacity:1"
               x="85.785675"
               y="193.94116"
               id="text3606"
               sodipodi:linespacing="125%"><tspan
                 sodipodi:role="line"
                 id="tspan3608"
                 x="85.785675"
                 y="193.94116" /></text>
          </g>
          <text
             xml:space="preserve"
             style="font-style:normal;font-weight:normal;font-size:9.090909px;line-height:125%;font-family:sans-serif;letter-spacing:0px;word-spacing:0px;fill:#000000;fill-opacity:1;stroke:none;stroke-width:1px;stroke-linecap:butt;stroke-linejoin:miter;stroke-opacity:1"
             x="209.83286"
             y="212.27066"
             id="text3635"
             sodipodi:linespacing="125%"><tspan
               sodipodi:role="line"
               id="tspan3637"
               x="209.83286"
               y="212.27066">(:  )</tspan><tspan
               sodipodi:role="line"
               x="209.83286"
               y="223.63429"
               id="tspan3639" /></text>
        </g>
        <flowRoot
           xml:space="preserve"
           id="flowRoot3659"
           style="fill:black;stroke:none;stroke-opacity:1;stroke-width:1px;stroke-linejoin:miter;stroke-linecap:butt;fill-opacity:1;font-family:sans-serif;font-style:normal;font-weight:normal;font-size:10px;line-height:125%;letter-spacing:0px;word-spacing:0px"><flowRegion
             id="flowRegion3661"><rect
               id="rect3663"
               width="81.317276"
               height="27.274118"
               x="276.7818"
               y="116.12885" /></flowRegion><flowPara
             id="flowPara3665" /></flowRoot>        <text
           xml:space="preserve"
           style="font-style:normal;font-weight:normal;font-size:10px;line-height:125%;font-family:sans-serif;letter-spacing:0px;word-spacing:0px;fill:#000000;fill-opacity:1;stroke:none;stroke-width:1px;stroke-linecap:butt;stroke-linejoin:miter;stroke-opacity:1"
           x="-25.016491"
           y="127.95709"
           id="text3760"
           sodipodi:linespacing="125%"><tspan
             sodipodi:role="line"
             id="tspan3762"
             x="-25.016491"
             y="127.95709">       </tspan><tspan
             sodipodi:role="line"
             x="-25.016491"
             y="140.45709"
             id="tspan3764"> </tspan><tspan
             sodipodi:role="line"
             x="-25.016491"
             y="152.95709"
             id="tspan3768">  ()</tspan></text>
        <text
           xml:space="preserve"
           style="font-style:normal;font-weight:normal;font-size:10px;line-height:125%;font-family:sans-serif;letter-spacing:0px;word-spacing:0px;fill:#000000;fill-opacity:1;stroke:none;stroke-width:1px;stroke-linecap:butt;stroke-linejoin:miter;stroke-opacity:1"
           x="203.78308"
           y="266.34799"
           id="text3830"
           sodipodi:linespacing="125%"><tspan
             sodipodi:role="line"
             x="203.78308"
             y="266.34799"
             id="tspan3834"></tspan></text>
      </g>
      <text
         xml:space="preserve"
         style="font-style:normal;font-weight:normal;font-size:10px;line-height:125%;font-family:sans-serif;letter-spacing:0px;word-spacing:0px;fill:#000000;fill-opacity:1;stroke:none;stroke-width:1px;stroke-linecap:butt;stroke-linejoin:miter;stroke-opacity:1"
         x="226.16884"
         y="155.69568"
         id="text3625"
         sodipodi:linespacing="125%"><tspan
           sodipodi:role="line"
           id="tspan3627"
           x="226.16884"
           y="155.69568">(),</tspan><tspan
           sodipodi:role="line"
           x="226.16884"
           y="168.19568"
           id="tspan3631"> </tspan></text>
      <text
         xml:space="preserve"
         style="font-style:normal;font-variant:normal;font-weight:normal;font-stretch:normal;font-size:10px;line-height:125%;font-family:sans-serif;-inkscape-font-specification:sans-serif;letter-spacing:0px;word-spacing:0px;fill:#000000;fill-opacity:1;stroke:none;stroke-width:1px;stroke-linecap:butt;stroke-linejoin:miter;stroke-opacity:1"
         x="182.81404"
         y="202.53984"
         id="text3674"
         sodipodi:linespacing="125%"><tspan
           sodipodi:role="line"
           id="tspan3676"
           x="182.81404"
           y="202.53984">  </tspan></text>
      <text
         xml:space="preserve"
         style="font-style:normal;font-weight:normal;font-size:10px;line-height:125%;font-family:sans-serif;letter-spacing:0px;word-spacing:0px;fill:#000000;fill-opacity:1;stroke:none;stroke-width:1px;stroke-linecap:butt;stroke-linejoin:miter;stroke-opacity:1"
         x="93.232262"
         y="233.01297"
         id="text3804"
         sodipodi:linespacing="125%"><tspan
           sodipodi:role="line"
           x="93.232262"
           y="233.01297"
           id="tspan3808">() </tspan></text>
      <text
         xml:space="preserve"
         style="font-style:normal;font-weight:normal;font-size:10px;line-height:125%;font-family:sans-serif;letter-spacing:0px;word-spacing:0px;fill:#000000;fill-opacity:1;stroke:none;stroke-width:1px;stroke-linecap:butt;stroke-linejoin:miter;stroke-opacity:1"
         x="119.49624"
         y="134.01802"
         id="text3812"
         sodipodi:linespacing="125%"><tspan
           sodipodi:role="line"
           x="119.49624"
           y="134.01802"
           id="tspan3816"></tspan></text>
      <text
         xml:space="preserve"
         style="font-style:normal;font-weight:normal;font-size:10px;line-height:125%;font-family:sans-serif;letter-spacing:0px;word-spacing:0px;fill:#000000;fill-opacity:1;stroke:none;stroke-width:1px;stroke-linecap:butt;stroke-linejoin:miter;stroke-opacity:1"
         x="200.81351"
         y="133.51294"
         id="text3820"
         sodipodi:linespacing="125%"><tspan
           sodipodi:role="line"
           id="tspan3822"
           x="200.81351"
           y="133.51294"></tspan><tspan
           sodipodi:role="line"
           x="200.81351"
           y="146.01294"
           id="tspan3824" /></text>
      <text
         xml:space="preserve"
         style="font-style:normal;font-weight:normal;font-size:10px;line-height:125%;font-family:sans-serif;letter-spacing:0px;word-spacing:0px;fill:#000000;fill-opacity:1;stroke:none;stroke-width:1px;stroke-linecap:butt;stroke-linejoin:miter;stroke-opacity:1"
         x="179.07494"
         y="233.01295"
         id="text3826"
         sodipodi:linespacing="125%"><tspan
           sodipodi:role="line"
           id="tspan3828"
           x="179.07494"
           y="233.01295"> </tspan></text>
    </g>
    <path
       inkscape:connector-curvature="0"
       sodipodi:nodetypes="cc"
       id="path4604-7"
       d="m 266.45946,980.20475 0,13.63706"
       style="fill:none;stroke:#000000;stroke-width:1.375;stroke-linecap:butt;stroke-linejoin:miter;stroke-miterlimit:4;stroke-dasharray:none;stroke-opacity:1" />
    <path
       inkscape:connector-curvature="0"
       sodipodi:nodetypes="cc"
       id="path4604-0-9"
       d="m 279.278,898.33291 -13.63706,0"
       style="fill:none;stroke:#000000;stroke-width:1.375;stroke-linecap:butt;stroke-linejoin:miter;stroke-miterlimit:4;stroke-dasharray:none;stroke-opacity:1" />
    <path
       inkscape:connector-curvature="0"
       sodipodi:nodetypes="cc"
       id="path4604-0"
       d="m 158.32621,939.2644 -13.63706,0"
       style="fill:none;stroke:#000000;stroke-width:1.375;stroke-linecap:butt;stroke-linejoin:miter;stroke-miterlimit:4;stroke-dasharray:none;stroke-opacity:1" />
    <path
       inkscape:connector-curvature="0"
       sodipodi:nodetypes="cc"
       id="path4604-0-3"
       d="m 184.35285,938.46617 -3.53554,0"
       style="fill:none;stroke:#000000;stroke-width:1.375;stroke-linecap:butt;stroke-linejoin:miter;stroke-miterlimit:4;stroke-dasharray:none;stroke-opacity:1" />
    <text
       xml:space="preserve"
       style="font-style:normal;font-weight:normal;font-size:10px;line-height:125%;font-family:sans-serif;letter-spacing:0px;word-spacing:0px;fill:#000000;fill-opacity:1;stroke:none;stroke-width:1px;stroke-linecap:butt;stroke-linejoin:miter;stroke-opacity:1"
       x="0.10152531"
       y="942.82025"
       id="text3772"
       sodipodi:linespacing="125%"><tspan
         sodipodi:role="line"
         id="tspan3774"
         x="0.10152531"
         y="942.82025"> </tspan></text>
    <text
       xml:space="preserve"
       style="font-style:normal;font-weight:normal;font-size:10px;line-height:125%;font-family:sans-serif;letter-spacing:0px;word-spacing:0px;fill:#000000;fill-opacity:1;stroke:none;stroke-width:1px;stroke-linecap:butt;stroke-linejoin:miter;stroke-opacity:1"
       x="102.02541"
       y="944.7796"
       id="text3782"
       sodipodi:linespacing="125%"><tspan
         sodipodi:role="line"
         id="tspan3784"
         x="102.02541"
         y="944.7796">()</tspan><tspan
         sodipodi:role="line"
         x="102.02541"
         y="957.2796"
         id="tspan3786" /></text>
    <text
       xml:space="preserve"
       style="font-style:normal;font-weight:normal;font-size:10px;line-height:125%;font-family:sans-serif;letter-spacing:0px;word-spacing:0px;fill:#000000;fill-opacity:1;stroke:none;stroke-width:1px;stroke-linecap:butt;stroke-linejoin:miter;stroke-opacity:1"
       x="70.710678"
       y="945.78979"
       id="text3788"
       sodipodi:linespacing="125%"><tspan
         sodipodi:role="line"
         id="tspan3790"
         x="70.710678"
         y="945.78979"></tspan><tspan
         sodipodi:role="line"
         x="70.710678"
         y="958.28979"
         id="tspan3792" /></text>
    <text
       xml:space="preserve"
       style="font-style:normal;font-weight:normal;font-size:10px;line-height:125%;font-family:sans-serif;letter-spacing:0px;word-spacing:0px;fill:#000000;fill-opacity:1;stroke:none;stroke-width:1px;stroke-linecap:butt;stroke-linejoin:miter;stroke-opacity:1"
       x="165.15994"
       y="939.72888"
       id="text3794"
       sodipodi:linespacing="125%"><tspan
         sodipodi:role="line"
         id="tspan3796"
         x="165.15994"
         y="939.72888"> </tspan></text>
    <text
       xml:space="preserve"
       style="font-style:normal;font-weight:normal;font-size:10px;line-height:125%;font-family:sans-serif;letter-spacing:0px;word-spacing:0px;fill:#000000;fill-opacity:1;stroke:none;stroke-width:1px;stroke-linecap:butt;stroke-linejoin:miter;stroke-opacity:1"
       x="185.90868"
       y="939.70856"
       id="text3798"
       sodipodi:linespacing="125%"><tspan
         sodipodi:role="line"
         id="tspan3800"
         x="185.90868"
         y="939.70856"> </tspan><tspan
         sodipodi:role="line"
         x="185.90868"
         y="952.20856"
         id="tspan3802" /></text>
  </g>
</svg>
