<?xml version="1.0" encoding="UTF-8" standalone="no"?>
<!-- Created with Inkscape (http://www.inkscape.org/) -->

<svg
   xmlns:ns0="http://www.iki.fi/pav/software/textext/"
   xmlns:dc="http://purl.org/dc/elements/1.1/"
   xmlns:cc="http://creativecommons.org/ns#"
   xmlns:rdf="http://www.w3.org/1999/02/22-rdf-syntax-ns#"
   xmlns:svg="http://www.w3.org/2000/svg"
   xmlns="http://www.w3.org/2000/svg"
   xmlns:xlink="http://www.w3.org/1999/xlink"
   xmlns:sodipodi="http://sodipodi.sourceforge.net/DTD/sodipodi-0.dtd"
   xmlns:inkscape="http://www.inkscape.org/namespaces/inkscape"
   width="531.49603"
   height="744.09448"
   id="svg2"
   version="1.1"
   inkscape:version="0.47 r22583"
   sodipodi:docname="New document 1">
  <sodipodi:namedview
     id="base"
     pagecolor="#ffffff"
     bordercolor="#666666"
     borderopacity="1.0"
     inkscape:pageopacity="0.0"
     inkscape:pageshadow="2"
     inkscape:zoom="1.4"
     inkscape:cx="216.53857"
     inkscape:cy="596.94388"
     inkscape:document-units="px"
     inkscape:current-layer="textext-b376745a-31"
     showgrid="false"
     units="cm"
     inkscape:window-width="1024"
     inkscape:window-height="689"
     inkscape:window-x="0"
     inkscape:window-y="27"
     inkscape:window-maximized="1" />
  <defs
     id="defs4">
    <inkscape:perspective
       sodipodi:type="inkscape:persp3d"
       inkscape:vp_x="0 : 526.18109 : 1"
       inkscape:vp_y="0 : 1000 : 0"
       inkscape:vp_z="744.09448 : 526.18109 : 1"
       inkscape:persp3d-origin="372.04724 : 350.78739 : 1"
       id="perspective10" />
  </defs>
  <metadata
     id="metadata7">
    <rdf:RDF>
      <cc:Work
         rdf:about="">
        <dc:format>image/svg+xml</dc:format>
        <dc:type
           rdf:resource="http://purl.org/dc/dcmitype/StillImage" />
        <dc:title></dc:title>
      </cc:Work>
    </rdf:RDF>
  </metadata>
  <g
     inkscape:label="Layer 1"
     inkscape:groupmode="layer"
     id="layer1"
     transform="translate(0,-308.2664)">
    <g
       id="g3162"
       transform="matrix(1.2667259,0,0,1.2667259,-115.27603,339.25716)"
       ns0:preamble="/home/sriranga/Desktop/eps-figs/nudi-package.tex"
       ns0:text="{\\kanb rANa pedadx jagadeVvarAya {\\rm\\bf (1580)}}\n\n{\\kanb aMkusharAya {\\rm\\bf (1585)}}\n\n{\\kanb imamxDi jagadeVvarAya}\n\n{\\kanb mumamxDi jagadeVvarAya {\\rm\\bf (1630)}}\n\n{\\kanb imamxDi aMkusharAya}\n\n">
      <defs
         id="defs3164">
        <g
           id="g3166">
          <symbol
             id="textext-b376745a-0"
             overflow="visible"
             style="overflow:visible">
            <path
               id="path3169"
               d=""
               style="stroke:none" />
          </symbol>
          <symbol
             id="textext-b376745a-1"
             overflow="visible"
             style="overflow:visible">
            <path
               id="path3172"
               d="m 0,-4.9375 0,1.09375 0.984375,0 0,0.015625 c -0.234375,0.0625 -0.4375,0.296875 -0.5625,0.484375 -0.4375,0.578125 -0.546875,1.390625 -0.25,2.0625 0.09375,0.234375 0.234375,0.4375 0.421875,0.609375 0.25,0.25 0.53125,0.4375 0.859375,0.5625 1.03125,0.34375 2.234375,-0.09375 2.71875,-1.078125 0.21875,-0.40625 0.25,-0.859375 0.1875,-1.3125 C 4.28125,-2.890625 4.078125,-3.28125 3.78125,-3.5625 3.703125,-3.640625 3.625,-3.703125 3.53125,-3.765625 3.5,-3.78125 3.4375,-3.8125 3.40625,-3.84375 c -0.0625,-0.078125 -0.0625,-0.25 -0.09375,-0.34375 -0.046875,-0.25 -0.140625,-0.5 -0.171875,-0.75 L 0,-4.9375 z m 1.984375,1.09375 c 0.53125,-0.046875 1.15625,0.078125 1.546875,0.46875 0.390625,0.359375 0.515625,1.015625 0.234375,1.484375 -0.125,0.203125 -0.328125,0.359375 -0.546875,0.484375 -0.234375,0.125 -0.484375,0.1875 -0.75,0.203125 -0.625,0.078125 -1.40625,-0.078125 -1.796875,-0.625 -0.359375,-0.5 -0.1875,-1.234375 0.28125,-1.625 C 1.25,-3.6875 1.609375,-3.78125 1.984375,-3.84375 z m 0,0"
               style="stroke:none" />
          </symbol>
          <symbol
             id="textext-b376745a-2"
             overflow="visible"
             style="overflow:visible">
            <path
               id="path3175"
               d="m -3.09375,-4.9375 0,1.09375 2.546875,0 c 0.4375,0 0.890625,-0.03125 1.328125,0.015625 0.5625,0.046875 1.1875,0.15625 1.5625,0.625 0.390625,0.515625 0.28125,1.375 -0.234375,1.75 C 1.671875,-1.125 1,-1.125 0.5625,-1.390625 0.1875,-1.625 0.078125,-2.03125 0.3125,-2.40625 c 0.109375,-0.171875 0.296875,-0.359375 0.53125,-0.3125 -0.0625,0.0625 -0.09375,0.140625 -0.109375,0.234375 -0.0625,0.328125 0.25,0.546875 0.53125,0.53125 C 1.625,-1.984375 1.828125,-2.3125 1.75,-2.65625 1.71875,-2.75 1.671875,-2.84375 1.578125,-2.921875 1.5,-3.015625 1.375,-3.078125 1.25,-3.125 0.609375,-3.3125 0.078125,-2.796875 -0.09375,-2.21875 -0.15625,-2.015625 -0.15625,-1.796875 -0.125,-1.578125 -0.0625,-0.9375 0.265625,-0.1875 0.953125,-0.03125 1.6875,0.140625 2.265625,-0.359375 2.59375,-0.96875 3.109375,-1.921875 3.015625,-3.34375 2.296875,-4.171875 1.875,-4.640625 1.3125,-4.875 0.703125,-4.9375 c -0.296875,-0.03125 -0.625,0 -0.921875,0 l -2.875,0 z m 0,0"
               style="stroke:none" />
          </symbol>
          <symbol
             id="textext-b376745a-3"
             overflow="visible"
             style="overflow:visible">
            <path
               id="path3178"
               d="m 0.875,-2.40625 c -0.234375,0.109375 -0.453125,0.296875 -0.59375,0.515625 -0.40625,0.5625 -0.40625,1.484375 0.3125,1.828125 0.421875,0.1875 0.875,-0.015625 1.203125,-0.3125 0.078125,-0.0625 0.25,-0.171875 0.28125,-0.265625 0,-0.0625 -0.171875,-0.234375 -0.21875,-0.234375 -0.046875,0.015625 -0.078125,0.078125 -0.125,0.09375 -0.0625,0.046875 -0.15625,0.09375 -0.234375,0.109375 -0.328125,0.078125 -0.625,-0.25 -0.703125,-0.53125 -0.109375,-0.4375 0.140625,-0.765625 0.484375,-1 0.09375,-0.0625 0.296875,-0.125 0.359375,-0.21875 C 1.296875,-2.5 0.9375,-2.71875 0.75,-3.015625 0.640625,-3.1875 0.609375,-3.40625 0.75,-3.578125 0.921875,-3.78125 1.203125,-3.84375 1.453125,-3.84375 c 0.625,0 1.171875,0.40625 1.390625,0.984375 l 0.015625,0 C 3.125,-3.65625 4.0625,-3.953125 4.828125,-3.796875 5.28125,-3.703125 5.6875,-3.4375 5.84375,-3 c 0.0625,0.15625 0.09375,0.328125 0.09375,0.5 0,0.703125 -0.59375,1.3125 -1.296875,1.328125 -0.28125,0 -0.578125,-0.0625 -0.828125,-0.21875 C 3.6875,-1.5 3.5625,-1.625 3.5625,-1.796875 c 0,-0.40625 0.46875,-0.53125 0.796875,-0.453125 0.125,0.03125 0.3125,0.109375 0.34375,0.265625 0.03125,0.09375 -0.0625,0.1875 -0.09375,0.265625 0.0625,0.03125 0.15625,0.09375 0.21875,0.09375 0.03125,-0.015625 0.0625,-0.046875 0.078125,-0.078125 0.0625,-0.09375 0.140625,-0.203125 0.140625,-0.3125 0,-0.375 -0.28125,-0.78125 -0.6875,-0.8125 C 3.84375,-2.84375 3.40625,-2.4375 3.3125,-1.9375 3.203125,-1.25 3.484375,-0.3125 4.203125,-0.0625 4.984375,0.21875 5.6875,-0.375 6,-1.0625 6.203125,-1.515625 6.265625,-2 6.25,-2.484375 6.21875,-3.203125 6.03125,-3.921875 5.5625,-4.5 c -0.203125,-0.25 -0.5,-0.46875 -0.84375,-0.53125 -0.703125,-0.125 -1.375,0.34375 -1.671875,0.953125 -0.09375,0.171875 -0.171875,0.375 -0.1875,0.5625 C 2.8125,-3.65625 2.796875,-3.78125 2.75,-3.90625 2.640625,-4.203125 2.46875,-4.46875 2.25,-4.671875 1.625,-5.25 0.65625,-5.140625 0.1875,-4.421875 c -0.078125,0.125 -0.140625,0.28125 -0.171875,0.4375 -0.03125,0.171875 -0.03125,0.359375 0,0.53125 C 0.125,-2.96875 0.484375,-2.65625 0.875,-2.40625 z m 0,0"
               style="stroke:none" />
          </symbol>
          <symbol
             id="textext-b376745a-4"
             overflow="visible"
             style="overflow:visible">
            <path
               id="path3181"
               d="m 0,-4.9375 0,1.09375 2.625,0 0,0.015625 c -0.40625,0 -0.78125,0.421875 -0.59375,0.8125 0.125,0.265625 0.4375,0.390625 0.703125,0.390625 0.28125,0 0.578125,-0.109375 0.71875,-0.359375 0.21875,-0.390625 -0.15625,-0.828125 -0.5625,-0.84375 l 0,-0.015625 1.46875,0 0,-1.09375 -4.359375,0 z m 2.75,2.75 -0.015625,0 C 2.578125,-1.484375 1.8125,-1.171875 1.15625,-1.21875 0.875,-1.234375 0.40625,-1.359375 0.34375,-1.6875 0.296875,-1.875 0.40625,-2.046875 0.546875,-2.15625 0.84375,-2.375 1.328125,-2.359375 1.46875,-1.96875 1.5,-1.890625 1.5,-1.828125 1.484375,-1.75 L 1.75,-1.640625 C 2.015625,-2.234375 1.515625,-2.90625 0.890625,-2.84375 0.375,-2.796875 0.046875,-2.328125 0,-1.84375 -0.078125,-0.96875 0.625,0.296875 1.640625,-0.046875 1.78125,-0.09375 1.890625,-0.15625 2,-0.234375 2.171875,-0.375 2.328125,-0.53125 2.4375,-0.703125 2.5625,-0.875 2.6875,-1.09375 2.734375,-1.3125 c 0.125,0.28125 0.25,0.53125 0.453125,0.78125 0.1875,0.21875 0.4375,0.40625 0.71875,0.5 C 4.453125,0.125 5.046875,-0.1875 5.296875,-0.671875 5.59375,-1.234375 5.5,-1.890625 5.46875,-2.5 5.4375,-2.78125 5.40625,-3.09375 5.296875,-3.375 5.25,-3.453125 5.1875,-3.53125 5.09375,-3.59375 4.859375,-3.703125 4.640625,-3.5 4.609375,-3.265625 4.578125,-2.671875 5.5,-2.171875 5.03125,-1.578125 4.5625,-1.03125 3.671875,-1.140625 3.15625,-1.5625 2.984375,-1.71875 2.796875,-1.953125 2.75,-2.1875 z m 0,0"
               style="stroke:none" />
          </symbol>
          <symbol
             id="textext-b376745a-5"
             overflow="visible"
             style="overflow:visible">
            <path
               id="path3184"
               d="m -1.953125,-6.484375 c 0.09375,0.015625 0.1875,0.03125 0.28125,0.078125 0.5,0.25 0.453125,0.921875 0.09375,1.265625 -0.328125,0.3125 -0.90625,0.203125 -1.3125,0.203125 l 0,1.09375 c 0.625,0 1.21875,0.03125 1.703125,-0.453125 C -0.515625,-4.96875 -0.609375,-6.375 -1.578125,-6.734375 -2,-6.890625 -2.609375,-6.78125 -2.84375,-6.375 c -0.234375,0.390625 0,0.9375 0.46875,0.984375 0.375,0.046875 0.6875,-0.296875 0.640625,-0.6875 -0.015625,-0.15625 -0.125,-0.28125 -0.21875,-0.40625 z m 0,0"
               style="stroke:none" />
          </symbol>
          <symbol
             id="textext-b376745a-6"
             overflow="visible"
             style="overflow:visible">
            <path
               id="path3187"
               d="m 0,-4.9375 0,1.09375 1.515625,0 0,0.015625 c -0.09375,0.015625 -0.1875,0.0625 -0.28125,0.125 -0.25,0.109375 -0.484375,0.28125 -0.671875,0.5 C 0.375,-3 0.203125,-2.78125 0.125,-2.515625 -0.15625,-1.75 0.046875,-0.640625 0.75,-0.171875 1.5625,0.375 2.625,-0.453125 2.734375,-1.3125 l 0.015625,0 c 0.015625,0.171875 0.109375,0.359375 0.203125,0.5 0.34375,0.609375 1.140625,1.09375 1.796875,0.640625 0.671875,-0.46875 0.90625,-1.5625 0.640625,-2.3125 -0.171875,-0.4375 -0.484375,-0.8125 -0.875,-1.0625 -0.15625,-0.109375 -0.34375,-0.234375 -0.53125,-0.28125 l 0,-0.015625 0.234375,0 0,-1.09375 -4.21875,0 z m 2.75,2.859375 c -0.140625,0.265625 -0.25,0.5 -0.515625,0.65625 -0.125,0.09375 -0.265625,0.15625 -0.40625,0.1875 -0.125,0.015625 -0.265625,0.03125 -0.375,0.015625 C 0.796875,-1.3125 0.53125,-2.109375 0.703125,-2.671875 0.765625,-2.84375 0.875,-3.015625 1,-3.15625 c 0.671875,-0.765625 1.984375,-0.859375 2.875,-0.453125 0.6875,0.3125 1.15625,1.03125 0.875,1.78125 -0.109375,0.25 -0.296875,0.5 -0.5625,0.578125 C 3.765625,-1.109375 3.25,-1.34375 2.96875,-1.671875 2.875,-1.78125 2.765625,-1.9375 2.75,-2.078125 z m 0,0"
               style="stroke:none" />
          </symbol>
          <symbol
             id="textext-b376745a-7"
             overflow="visible"
             style="overflow:visible">
            <path
               id="path3190"
               d="m -1.578125,-6.375 0,0.015625 c 0.125,0.125 0.265625,0.28125 0.328125,0.453125 0.140625,0.390625 -0.109375,0.765625 -0.46875,0.921875 -0.140625,0.0625 -0.3125,0.046875 -0.46875,0.046875 l -0.609375,0 0,1.09375 c 0.375,0 0.796875,0.0625 1.15625,-0.046875 0.65625,-0.21875 1.015625,-0.96875 0.921875,-1.625 -0.046875,-0.3125 -0.203125,-0.625 -0.421875,-0.859375 -0.046875,-0.046875 -0.15625,-0.1875 -0.21875,-0.1875 -0.078125,0 -0.171875,0.140625 -0.21875,0.1875 z m 0,0"
               style="stroke:none" />
          </symbol>
          <symbol
             id="textext-b376745a-8"
             overflow="visible"
             style="overflow:visible">
            <path
               id="path3193"
               d="m -1.4375,2.625 0.015625,0 C -1.40625,2.75 -1.328125,2.875 -1.28125,2.96875 -1.0625,3.34375 -0.625,3.65625 -0.1875,3.5 0.09375,3.40625 0.296875,3.125 0.390625,2.84375 0.453125,2.65625 0.5,2.46875 0.5,2.265625 0.5,1.90625 0.421875,1.578125 0.21875,1.3125 -0.515625,0.3125 -2.4375,0.234375 -3.125,1.34375 -3.484375,1.9375 -3.453125,3.015625 -2.796875,3.421875 -2.328125,3.734375 -1.765625,3.375 -1.546875,2.9375 -1.5,2.84375 -1.453125,2.734375 -1.4375,2.625 z M -1.421875,2.078125 C -1.5,2.265625 -1.59375,2.4375 -1.78125,2.5625 c -0.203125,0.125 -0.515625,0.171875 -0.734375,0.0625 -0.390625,-0.21875 -0.46875,-0.796875 -0.25,-1.15625 0.40625,-0.640625 1.40625,-0.765625 2.0625,-0.484375 0.46875,0.1875 0.828125,0.59375 0.734375,1.125 -0.09375,0.5 -0.59375,0.71875 -1.046875,0.484375 C -1.21875,2.484375 -1.34375,2.296875 -1.421875,2.078125 z m 0,0"
               style="stroke:none" />
          </symbol>
          <symbol
             id="textext-b376745a-9"
             overflow="visible"
             style="overflow:visible">
            <path
               id="path3196"
               d="m 0.765625,-3.296875 0,-0.015625 C 0.703125,-3.375 0.625,-3.421875 0.578125,-3.515625 0.484375,-3.671875 0.625,-3.890625 0.75,-3.984375 c 0.28125,-0.1875 0.75,-0.046875 0.78125,0.3125 0.03125,0.34375 -0.390625,0.625 -0.609375,0.828125 C 0.578125,-2.53125 0.125,-2.203125 0.03125,-1.703125 0.015625,-1.5625 0.015625,-1.390625 0.046875,-1.25 0.078125,-1.03125 0.15625,-0.84375 0.28125,-0.65625 0.390625,-0.5 0.53125,-0.34375 0.6875,-0.234375 1.03125,0 1.53125,0.078125 1.90625,-0.09375 c 0.453125,-0.203125 0.8125,-0.75 0.859375,-1.234375 l 0.015625,0 c 0.015625,0.1875 0.125,0.375 0.203125,0.515625 0.1875,0.328125 0.46875,0.640625 0.84375,0.75 0.71875,0.21875 1.5,-0.265625 1.65625,-1 C 5.578125,-1.484375 5.5,-1.984375 5.1875,-2.3125 c -0.109375,-0.125 -0.25,-0.234375 -0.421875,-0.296875 -0.046875,0 -0.125,-0.046875 -0.1875,-0.015625 -0.046875,0.015625 -0.125,0.171875 -0.15625,0.234375 0.40625,0.078125 0.734375,0.609375 0.390625,0.9375 -0.171875,0.171875 -0.4375,0.234375 -0.671875,0.234375 -0.578125,0 -1.21875,-0.390625 -1.359375,-0.984375 l -0.015625,0 c -0.171875,0.53125 -0.5625,0.921875 -1.125,0.984375 C 1.25,-1.171875 0.671875,-1.421875 0.671875,-1.875 0.6875,-2.140625 0.953125,-2.375 1.125,-2.546875 c 0.421875,-0.390625 1.125,-0.875 1,-1.53125 0.59375,0.59375 1.578125,1.1875 2.421875,0.75 C 4.9375,-3.53125 5.21875,-3.90625 5.390625,-4.3125 5.40625,-4.421875 5.5,-4.609375 5.484375,-4.71875 5.46875,-4.765625 5.4375,-4.796875 5.40625,-4.828125 5.328125,-4.890625 5.25,-5.015625 5.15625,-5.046875 5.03125,-4.71875 4.75,-4.453125 4.4375,-4.28125 3.71875,-3.921875 2.84375,-4.046875 2.171875,-4.4375 1.75,-4.6875 1.390625,-5.125 0.84375,-5.046875 c -0.09375,0 -0.171875,0.03125 -0.25,0.0625 -0.484375,0.203125 -0.6875,0.734375 -0.546875,1.21875 0.078125,0.203125 0.1875,0.390625 0.34375,0.53125 0.03125,0.046875 0.09375,0.140625 0.15625,0.140625 0.078125,0 0.171875,-0.15625 0.21875,-0.203125 z m 0,0"
               style="stroke:none" />
          </symbol>
          <symbol
             id="textext-b376745a-10"
             overflow="visible"
             style="overflow:visible">
            <path
               id="path3199"
               d="m 0,-4.9375 0,1.09375 1.53125,0 0,0.015625 c -0.09375,0.03125 -0.171875,0.09375 -0.25,0.15625 C 1.0625,-3.53125 0.890625,-3.328125 0.734375,-3.125 0.3125,-2.546875 0.09375,-1.84375 0.015625,-1.140625 -0.015625,-0.765625 0,-0.375 0,0 l 1.09375,0 0,-1.265625 C 1.09375,-1.859375 1.109375,-2.4375 1.328125,-3 1.5,-3.390625 1.78125,-3.875 2.265625,-3.84375 2.671875,-3.8125 2.9375,-3.3125 3.0625,-2.984375 3.28125,-2.4375 3.296875,-1.890625 3.296875,-1.3125 l 0,1.3125 1.09375,0 C 4.390625,-0.34375 4.40625,-0.671875 4.375,-1.015625 4.3125,-1.71875 4.109375,-2.4375 3.71875,-3.03125 3.515625,-3.328125 3.21875,-3.703125 2.875,-3.828125 l 0,-0.015625 0.25,0 0,-1.09375 -3.125,0 z m 0,0"
               style="stroke:none" />
          </symbol>
          <symbol
             id="textext-b376745a-11"
             overflow="visible"
             style="overflow:visible">
            <path
               id="path3202"
               d="m 2.84375,0 0,-0.015625 c -0.234375,-0.0625 -0.46875,-0.1875 -0.6875,-0.296875 -1,-0.53125 -1.953125,-1.5 -1.8125,-2.703125 0.03125,-0.1875 0.078125,-0.390625 0.171875,-0.5625 C 0.609375,-3.765625 0.734375,-3.90625 0.875,-4.0625 0.875,-3.453125 1.25,-2.53125 2,-2.78125 2.109375,-2.828125 2.1875,-2.875 2.265625,-2.9375 2.90625,-3.515625 2.6875,-4.75 1.84375,-5 1.6875,-5.046875 1.515625,-5.046875 1.359375,-5.03125 c -0.15625,0.015625 -0.296875,0.0625 -0.4375,0.140625 -1.0625,0.625 -1.03125,2.125 -0.796875,3.171875 0.0625,0.234375 0.140625,0.46875 0.234375,0.6875 0.109375,0.265625 0.25,0.515625 0.421875,0.765625 0.0625,0.078125 0.109375,0.203125 0.203125,0.25 C 1.015625,0.015625 1.078125,0 1.125,0 L 1.484375,0 2.84375,0 z M 1.203125,-4.171875 C 1.5,-4.328125 1.8125,-4.3125 2.078125,-4.125 c 0.0625,0.03125 0.21875,0.125 0.21875,0.1875 0,0.046875 -0.078125,0.109375 -0.109375,0.140625 -0.109375,0.125 -0.328125,0.21875 -0.5,0.15625 -0.203125,-0.0625 -0.390625,-0.34375 -0.484375,-0.53125 z m 0,0"
               style="stroke:none" />
          </symbol>
          <symbol
             id="textext-b376745a-12"
             overflow="visible"
             style="overflow:visible">
            <path
               id="path3205"
               d="m 0,-4.9375 0,1.09375 2.5,0 c 0.515625,0 1.03125,-0.046875 1.515625,0.1875 0.65625,0.328125 1.28125,1.109375 0.953125,1.875 C 4.921875,-1.6875 4.875,-1.59375 4.8125,-1.515625 4.203125,-0.828125 2.953125,-1.421875 2.75,-2.1875 l -0.015625,0 c -0.21875,0.671875 -0.90625,1.015625 -1.578125,0.96875 -0.296875,-0.015625 -0.78125,-0.15625 -0.828125,-0.5 -0.03125,-0.25 0.203125,-0.46875 0.40625,-0.546875 0.375,-0.140625 0.796875,0.09375 0.796875,0.515625 0.0625,0 0.171875,0.015625 0.21875,-0.015625 0.03125,-0.015625 0.046875,-0.09375 0.0625,-0.125 0.046875,-0.15625 0.078125,-0.28125 0.015625,-0.4375 -0.078125,-0.25 -0.3125,-0.421875 -0.5625,-0.5 -0.5625,-0.15625 -1.125,0.25 -1.234375,0.796875 -0.1875,0.859375 0.40625,2.140625 1.421875,2.015625 0.109375,0 0.21875,-0.03125 0.328125,-0.078125 C 2,-0.1875 2.1875,-0.34375 2.34375,-0.515625 2.515625,-0.734375 2.703125,-1.03125 2.734375,-1.3125 l 0.015625,0 c 0.015625,0.171875 0.109375,0.359375 0.203125,0.5 C 3.328125,-0.140625 4.1875,0.296875 4.875,-0.21875 5.21875,-0.484375 5.40625,-0.921875 5.46875,-1.328125 5.578125,-2.03125 5.390625,-2.71875 4.921875,-3.25 4.71875,-3.484375 4.390625,-3.765625 4.09375,-3.828125 l 0,-0.015625 0.265625,0 0,-1.09375 -4.359375,0 z m 0,0"
               style="stroke:none" />
          </symbol>
          <symbol
             id="textext-b376745a-13"
             overflow="visible"
             style="overflow:visible">
            <path
               id="path3208"
               d="m 1.875,-4.921875 c -1.515625,0.203125 -2.171875,1.984375 -1.75,3.3125 0.296875,0.9375 1.140625,1.71875 2.171875,1.59375 1.59375,-0.1875 2.203125,-2.28125 1.609375,-3.59375 -0.359375,-0.78125 -1.125,-1.4375 -2.03125,-1.3125 z m 0.03125,1.078125 c 0.828125,-0.09375 1.875,0.40625 1.875,1.34375 0,0.125 -0.015625,0.25 -0.046875,0.359375 -0.0625,0.140625 -0.140625,0.265625 -0.25,0.375 -0.109375,0.125 -0.265625,0.25 -0.421875,0.328125 -0.21875,0.125 -0.453125,0.1875 -0.703125,0.21875 -0.5,0.0625 -1.03125,-0.0625 -1.4375,-0.359375 C 0.390625,-2 0.234375,-2.734375 0.703125,-3.265625 0.84375,-3.40625 0.984375,-3.53125 1.15625,-3.625 c 0.234375,-0.125 0.5,-0.1875 0.75,-0.21875 z m 0,0"
               style="stroke:none" />
          </symbol>
          <symbol
             id="textext-b376745a-14"
             overflow="visible"
             style="overflow:visible">
            <path
               id="path3211"
               d="m -0.328125,-4.9375 0,1.09375 c 0.171875,0 0.390625,-0.03125 0.5625,0.015625 C 0.375,-3.8125 0.515625,-3.71875 0.625,-3.65625 0.875,-3.5 1.09375,-3.3125 1.265625,-3.078125 1.65625,-2.5625 1.625,-1.84375 1.09375,-1.4375 1,-1.359375 0.890625,-1.296875 0.765625,-1.25 0.203125,-1.078125 -0.53125,-1.390625 -0.875,-1.859375 l 0,0 c 0,0.171875 -0.03125,0.375 0,0.546875 0.015625,0.109375 0.078125,0.21875 0.125,0.3125 0.125,0.234375 0.296875,0.4375 0.515625,0.625 0.140625,0.109375 0.3125,0.21875 0.5,0.28125 C 0.453125,-0.015625 0.640625,0 0.84375,0 1.9375,-0.03125 2.484375,-1.359375 2.25,-2.296875 2.171875,-2.625 2,-2.9375 1.765625,-3.1875 c -0.21875,-0.25 -0.546875,-0.546875 -0.875,-0.640625 l 0,-0.015625 0.25,0 0,-1.09375 -1.46875,0 z m 0,0"
               style="stroke:none" />
          </symbol>
          <symbol
             id="textext-b376745a-15"
             overflow="visible"
             style="overflow:visible">
            <path
               id="path3214"
               d="m -1.140625,-1.859375 c -0.03125,0.0625 -0.015625,0.140625 -0.015625,0.203125 0,0.234375 0.0625,0.40625 0.171875,0.625 0.328125,0.625 1.0625,1.296875 1.828125,0.9375 C 1.265625,-0.296875 1.5625,-0.75 1.703125,-1.203125 2.015625,-2.125 1.890625,-3.3125 1.21875,-4.0625 0.921875,-4.390625 0.53125,-4.609375 0.078125,-4.609375 c -0.25,0 -0.5,0.078125 -0.625,0.3125 C -0.71875,-4 -0.5,-3.671875 -0.203125,-3.59375 c 0.21875,0.0625 0.4375,0.0625 0.65625,0.109375 0.625,0.171875 1.328125,0.65625 1.078125,1.40625 -0.046875,0.140625 -0.125,0.265625 -0.21875,0.375 -0.640625,0.734375 -1.90625,0.609375 -2.453125,-0.15625 z m 0,0"
               style="stroke:none" />
          </symbol>
          <symbol
             id="textext-b376745a-16"
             overflow="visible"
             style="overflow:visible">
            <path
               id="path3217"
               d="m 3.703125,-3.46875 -1.421875,0 0,1.09375 2.21875,0 0,-1.046875 C 4.296875,-3.453125 4.0625,-3.5625 3.96875,-3.75 3.859375,-3.9375 4,-4.171875 4.1875,-4.25 4.578125,-4.390625 4.859375,-4.140625 5.015625,-3.796875 5.21875,-3.3125 5.28125,-2.609375 4.953125,-2.15625 4.75,-1.859375 4.421875,-1.640625 4.09375,-1.484375 3.328125,-1.125 2.359375,-1.109375 1.578125,-1.421875 1.125,-1.59375 0.6875,-1.90625 0.46875,-2.359375 0.328125,-2.640625 0.3125,-2.96875 0.34375,-3.296875 0.375,-3.40625 0.40625,-3.5 0.421875,-3.609375 0.453125,-3.53125 0.453125,-3.453125 0.46875,-3.375 0.5,-3.1875 0.59375,-3.015625 0.734375,-2.890625 1.203125,-2.46875 1.796875,-3 1.9375,-3.484375 2.046875,-3.875 1.96875,-4.34375 1.765625,-4.6875 1.5625,-5 1.21875,-5.140625 0.875,-4.96875 c -0.4375,0.234375 -0.65625,0.796875 -0.765625,1.234375 -0.3125,1.234375 0.015625,2.5625 1.09375,3.28125 0.765625,0.515625 1.84375,0.609375 2.6875,0.21875 0.5625,-0.25 1.015625,-0.703125 1.3125,-1.234375 C 5.609375,-2.25 5.59375,-3.28125 5.25,-4.0625 5.0625,-4.46875 4.78125,-4.890625 4.328125,-5.015625 c -0.484375,-0.140625 -1.03125,0.1875 -1.03125,0.71875 0,0.34375 0.1875,0.59375 0.40625,0.828125 z M 1.03125,-4.15625 c 0.1875,-0.015625 0.4375,0.015625 0.5625,0.171875 0.1875,0.21875 -0.125,0.4375 -0.3125,0.46875 -0.1875,0.015625 -0.421875,0 -0.5625,-0.15625 C 0.5,-3.90625 0.8125,-4.125 1.03125,-4.15625 z m 0,0"
               style="stroke:none" />
          </symbol>
          <symbol
             id="textext-b376745a-17"
             overflow="visible"
             style="overflow:visible">
            <path
               id="path3220"
               d="m 0,-4.9375 0,1.09375 1.125,0 0.296875,0 c 0.03125,0 0.078125,0 0.125,0.03125 0.125,0.078125 0.125,0.3125 0.0625,0.4375 C 1.59375,-3.3125 1.5625,-3.25 1.5,-3.234375 c -0.140625,0.03125 -0.328125,0 -0.46875,0 l -1.03125,0 0,0.9375 0.765625,0 C 0.625,-2.15625 0.53125,-1.953125 0.5,-1.75 0.40625,-1.421875 0.40625,-1.046875 0.5625,-0.734375 1.109375,0.265625 2.765625,0.25 3.203125,-0.84375 3.296875,-1.0625 3.3125,-1.3125 3.28125,-1.53125 3.25,-1.8125 3.15625,-2.078125 2.96875,-2.296875 l 0.65625,0 0,-0.9375 -1.65625,0 c 0.109375,-0.1875 0.140625,-0.421875 0.015625,-0.609375 l 0.390625,0 0,-1.09375 -2.375,0 z m 1.75,2.421875 c 0.28125,-0.03125 0.578125,0.046875 0.796875,0.25 0.234375,0.21875 0.28125,0.609375 0.046875,0.859375 -0.078125,0.078125 -0.140625,0.140625 -0.234375,0.1875 -0.125,0.078125 -0.265625,0.109375 -0.40625,0.125 C 1.453125,-1.03125 0.84375,-1.453125 1.015625,-2 1.046875,-2.078125 1.078125,-2.140625 1.125,-2.203125 1.203125,-2.28125 1.28125,-2.34375 1.359375,-2.40625 1.484375,-2.46875 1.609375,-2.5 1.75,-2.515625 z m 0,0"
               style="stroke:none" />
          </symbol>
          <symbol
             id="textext-b376745a-18"
             overflow="visible"
             style="overflow:visible">
            <path
               id="path3223"
               d="m 0,-4.9375 0,1.09375 1.09375,0 c -0.125,0.125 -0.25,0.234375 -0.296875,0.390625 -0.15625,0.46875 0.296875,0.984375 0.765625,0.9375 0.328125,-0.03125 0.5,-0.421875 0.375,-0.71875 C 1.859375,-3.421875 1.59375,-3.4375 1.4375,-3.34375 1.296875,-3.265625 1.21875,-3.125 1.203125,-2.96875 0.921875,-3.046875 0.953125,-3.421875 1.125,-3.609375 1.578125,-4.0625 2.4375,-3.828125 2.6875,-3.28125 2.828125,-2.9375 2.71875,-2.515625 2.375,-2.328125 1.703125,-1.96875 0.859375,-2.4375 0.234375,-1.90625 c -0.375,0.328125 -0.25,0.875 0.03125,1.203125 0.453125,0.53125 1.1875,0.734375 1.84375,0.703125 0.953125,-0.046875 1.96875,-0.625 2.21875,-1.578125 0.140625,-0.578125 0.03125,-1.25 -0.296875,-1.75 -0.140625,-0.203125 -0.359375,-0.4375 -0.609375,-0.5 C 3.34375,-3.859375 3.21875,-3.84375 3.125,-3.84375 l 0,-1.09375 -3.125,0 z m 2.546875,1.109375 c 0.140625,-0.0625 0.390625,0.03125 0.53125,0.09375 0.3125,0.109375 0.609375,0.359375 0.71875,0.6875 0.078125,0.21875 0.0625,0.5 0.015625,0.71875 C 3.78125,-2.203125 3.734375,-2.0625 3.671875,-1.9375 3.3125,-1.296875 2.40625,-1.203125 1.75,-1.203125 1.46875,-1.203125 0.90625,-1.1875 0.78125,-1.53125 0.703125,-1.75 0.890625,-1.859375 1.109375,-1.875 1.609375,-1.890625 2.1875,-1.84375 2.625,-2.109375 3.078125,-2.375 3.1875,-3 2.9375,-3.4375 2.84375,-3.59375 2.703125,-3.734375 2.546875,-3.828125 z m 0,0"
               style="stroke:none" />
          </symbol>
          <symbol
             id="textext-b376745a-19"
             overflow="visible"
             style="overflow:visible">
            <path
               id="path3226"
               d="m 2.765625,-3.078125 c 0.34375,-0.5625 1.09375,-0.96875 1.734375,-0.6875 0.15625,0.078125 0.28125,0.171875 0.390625,0.28125 C 5,-3.375 5.078125,-3.234375 5.125,-3.09375 5.234375,-2.765625 5.171875,-2.359375 5.03125,-2.046875 4.984375,-1.9375 4.90625,-1.859375 4.859375,-1.75 4.53125,-2.03125 4.140625,-2.265625 3.734375,-2.40625 3.453125,-2.5 3.1875,-2.515625 2.890625,-2.515625 2.125,-2.515625 1.28125,-1.90625 1.46875,-1.0625 1.5,-0.953125 1.546875,-0.828125 1.609375,-0.71875 c 0.546875,0.921875 1.8125,0.875 2.59375,0.3125 0.25,-0.1875 0.578125,-0.484375 0.6875,-0.796875 l 0.015625,0 c 0.03125,0.125 0.09375,0.234375 0.125,0.359375 0.046875,0.25 0.078125,0.5 0.09375,0.75 0.015625,0.21875 -0.03125,0.484375 0.015625,0.6875 0.0625,0.1875 0.390625,0.3125 0.515625,0.125 0.0625,-0.125 0.03125,-0.3125 0.015625,-0.4375 -0.03125,-0.4375 -0.15625,-0.875 -0.34375,-1.265625 C 5.28125,-1.09375 5.21875,-1.1875 5.15625,-1.28125 5.140625,-1.328125 5.078125,-1.375 5.078125,-1.421875 c 0,-0.078125 0.09375,-0.1875 0.125,-0.25 C 5.28125,-1.84375 5.359375,-2.03125 5.40625,-2.21875 5.578125,-2.828125 5.546875,-3.546875 5.28125,-4.125 5.09375,-4.5 4.828125,-4.859375 4.421875,-5 c -0.8125,-0.28125 -1.59375,0.578125 -1.65625,1.359375 -0.046875,-0.125 -0.0625,-0.265625 -0.109375,-0.390625 -0.09375,-0.25 -0.234375,-0.484375 -0.421875,-0.671875 -0.125,-0.125 -0.265625,-0.21875 -0.40625,-0.28125 C 1.21875,-5.21875 0.53125,-4.84375 0.21875,-4.3125 -0.015625,-3.921875 -0.015625,-3.40625 0.0625,-2.96875 0.140625,-2.5625 0.359375,-2.109375 0.796875,-2 1.03125,-1.921875 1.28125,-2.03125 1.21875,-2.296875 1.171875,-2.46875 1.03125,-2.515625 0.890625,-2.578125 c -0.1875,-0.078125 -0.40625,-0.234375 -0.4375,-0.46875 -0.015625,-0.25 0.15625,-0.46875 0.359375,-0.609375 0.390625,-0.265625 0.984375,-0.234375 1.390625,0.015625 0.15625,0.09375 0.28125,0.203125 0.40625,0.34375 0.046875,0.0625 0.09375,0.15625 0.15625,0.21875 z M 4.625,-1.53125 C 4.484375,-1.4375 4.359375,-1.328125 4.21875,-1.25 3.734375,-1.015625 3.0625,-0.890625 2.53125,-1.046875 2.25,-1.125 1.765625,-1.375 1.90625,-1.75 2,-2 2.34375,-2.109375 2.578125,-2.15625 3.125,-2.265625 3.75,-2.140625 4.234375,-1.828125 4.34375,-1.75 4.5625,-1.65625 4.625,-1.53125 z m 0,0"
               style="stroke:none" />
          </symbol>
          <symbol
             id="textext-b376745a-20"
             overflow="visible"
             style="overflow:visible">
            <path
               id="path3229"
               d="m -1.296875,1.890625 c 0.046875,0.21875 0.125,0.40625 0.265625,0.578125 0.109375,0.140625 0.25,0.25 0.40625,0.328125 C -0.234375,2.953125 0.234375,2.84375 0.5,2.5 0.84375,2.0625 0.65625,1.453125 0.140625,1.265625 0,1.21875 -0.15625,1.203125 -0.296875,1.21875 -0.515625,1.234375 -0.75,1.25 -0.96875,1.328125 c 0.125,-0.21875 0.28125,-0.625 0.21875,-0.875 -0.078125,-0.21875 -0.390625,-0.390625 -0.578125,-0.21875 -0.21875,0.203125 0.0625,0.40625 0.125,0.59375 0.046875,0.09375 0.015625,0.25 0,0.34375 C -1.21875,1.25 -1.25,1.34375 -1.296875,1.421875 c -0.09375,0.125 -0.28125,0.1875 -0.40625,0.328125 -0.265625,0.28125 -0.40625,0.65625 -0.359375,1.046875 0.03125,0.28125 0.125,0.546875 0.28125,0.796875 C -1.171875,4.421875 0.203125,4.5625 0.890625,3.765625 1.03125,3.625 1.125,3.46875 1.203125,3.296875 1.21875,3.21875 1.3125,3.03125 1.265625,2.953125 1.25,2.921875 1.1875,2.90625 1.15625,2.890625 1.125,2.875 1.09375,2.84375 1.0625,2.84375 1.03125,2.859375 1,2.90625 0.984375,2.921875 0.921875,2.96875 0.859375,3.03125 0.78125,3.078125 0.625,3.203125 0.4375,3.296875 0.234375,3.359375 -0.3125,3.484375 -1.03125,3.453125 -1.40625,2.984375 -1.53125,2.84375 -1.671875,2.578125 -1.609375,2.375 -1.5625,2.1875 -1.421875,2.03125 -1.296875,1.890625 z M -0.5625,1.546875 C -0.359375,1.53125 -0.09375,1.5625 0.046875,1.71875 0.296875,2 -0.046875,2.265625 -0.3125,2.3125 -0.59375,2.34375 -0.84375,2.1875 -0.921875,1.90625 -0.953125,1.859375 -1,1.71875 -0.953125,1.65625 -0.890625,1.5625 -0.671875,1.5625 -0.5625,1.546875 z m 0,0"
               style="stroke:none" />
          </symbol>
          <symbol
             id="textext-b376745a-21"
             overflow="visible"
             style="overflow:visible">
            <path
               id="path3232"
               d="m 1.296875,-4.171875 0,0.015625 c -0.3125,0.09375 -0.625,0.40625 -0.828125,0.671875 -0.484375,0.640625 -0.578125,1.484375 -0.359375,2.25 0.09375,0.359375 0.296875,0.734375 0.578125,1 0.078125,0.0625 0.171875,0.125 0.265625,0.171875 C 1.65625,0.203125 2.296875,-0.375 2.59375,-0.96875 2.65625,-1.078125 2.71875,-1.203125 2.734375,-1.3125 2.9375,-0.890625 3.09375,-0.453125 3.5,-0.171875 c 0.734375,0.5 1.640625,-0.109375 1.90625,-0.84375 C 5.5625,-1.453125 5.546875,-1.953125 5.375,-2.375 5.328125,-2.5 5.265625,-2.609375 5.1875,-2.703125 5.15625,-2.75 5.09375,-2.796875 5.078125,-2.859375 c 0,-0.046875 0.03125,-0.125 0.0625,-0.1875 C 5.15625,-3.15625 5.171875,-3.265625 5.1875,-3.375 5.203125,-3.671875 5.109375,-4.03125 5,-4.296875 4.5625,-5.375 3.421875,-5.875 2.328125,-5.921875 1.9375,-5.9375 1.53125,-5.90625 1.15625,-5.765625 0.859375,-5.65625 0.515625,-5.484375 0.375,-5.1875 c -0.25,0.59375 0.40625,1.015625 0.921875,1.015625 z M 4.625,-4.0625 C 4.390625,-4.21875 4.1875,-4.375 3.921875,-4.46875 3.375,-4.671875 2.78125,-4.609375 2.203125,-4.609375 c -0.203125,0 -0.40625,-0.0625 -0.59375,-0.125 -0.078125,-0.046875 -0.15625,-0.09375 -0.171875,-0.1875 -0.03125,-0.125 0.125,-0.1875 0.21875,-0.234375 C 1.921875,-5.25 2.203125,-5.265625 2.5,-5.265625 c 0.1875,0 0.375,-0.015625 0.546875,0.015625 0.5,0.078125 0.96875,0.328125 1.296875,0.71875 0.109375,0.140625 0.234375,0.296875 0.28125,0.46875 z m 0,0.875 C 4.40625,-3.328125 4.21875,-3.46875 3.953125,-3.515625 3.40625,-3.5625 2.671875,-3.078125 2.90625,-2.46875 3.125,-1.953125 3.796875,-1.90625 4.25,-2.046875 4.421875,-2.109375 4.59375,-2.1875 4.734375,-2.296875 4.8125,-2.375 4.890625,-2.46875 4.96875,-2.515625 c 0.0625,0.1875 0.125,0.359375 0.078125,0.5625 -0.046875,0.34375 -0.40625,0.59375 -0.734375,0.6875 -0.375,0.109375 -0.796875,0.09375 -1.109375,-0.1875 -0.125,-0.109375 -0.21875,-0.25 -0.296875,-0.40625 C 2.84375,-1.953125 2.765625,-2.078125 2.75,-2.1875 2.578125,-1.890625 2.453125,-1.59375 2.140625,-1.390625 2.03125,-1.3125 1.90625,-1.25 1.78125,-1.234375 1.671875,-1.21875 1.5625,-1.203125 1.46875,-1.203125 1.171875,-1.25 0.953125,-1.46875 0.8125,-1.71875 0.59375,-2.15625 0.625,-2.6875 0.78125,-3.125 0.84375,-3.296875 0.921875,-3.453125 1.015625,-3.59375 1.578125,-4.390625 2.65625,-4.5625 3.53125,-4.25 3.984375,-4.109375 4.609375,-3.734375 4.625,-3.1875 z m -0.109375,0.296875 c -0.125,0.078125 -0.234375,0.171875 -0.375,0.203125 -0.171875,0.0625 -0.40625,0.078125 -0.578125,0 -0.140625,-0.046875 -0.1875,-0.234375 -0.09375,-0.359375 0.171875,-0.25 0.625,-0.125 0.84375,-0.015625 0.0625,0.046875 0.15625,0.09375 0.203125,0.171875 z m 0,0"
               style="stroke:none" />
          </symbol>
          <symbol
             id="textext-b376745a-22"
             overflow="visible"
             style="overflow:visible">
            <path
               id="path3235"
               d=""
               style="stroke:none" />
          </symbol>
          <symbol
             id="textext-b376745a-23"
             overflow="visible"
             style="overflow:visible">
            <path
               id="path3238"
               d="M 3.78125,2.25 C 3.484375,1.96875 2.84375,1.359375 2.421875,0.09375 2.15625,-0.703125 2.046875,-1.609375 2.046875,-2.5 c 0,-1.953125 0.5,-3.515625 1.609375,-4.625 0.140625,-0.15625 0.15625,-0.15625 0.15625,-0.21875 0,-0.109375 -0.109375,-0.140625 -0.1875,-0.140625 -0.171875,0 -0.578125,0.375 -0.765625,0.546875 -1.546875,1.546875 -1.78125,3.375 -1.78125,4.4375 0,1.25 0.328125,2.34375 0.796875,3.171875 0.65625,1.140625 1.5625,1.8125 1.75,1.8125 0.078125,0 0.1875,-0.03125 0.1875,-0.140625 C 3.8125,2.296875 3.78125,2.25 3.78125,2.25 z m 0,0"
               style="stroke:none" />
          </symbol>
          <symbol
             id="textext-b376745a-24"
             overflow="visible"
             style="overflow:visible">
            <path
               id="path3241"
               d="m 3.53125,-6.203125 c 0,-0.234375 0,-0.328125 -0.265625,-0.328125 -0.109375,0 -0.125,0 -0.21875,0.078125 -0.765625,0.5625 -1.796875,0.5625 -2,0.5625 l -0.203125,0 0,0.46875 0.203125,0 C 1.203125,-5.421875 1.75,-5.4375 2.34375,-5.625 l 0,5.15625 -1.390625,0 0,0.46875 c 0.4375,-0.03125 1.5,-0.03125 1.984375,-0.03125 0.484375,0 1.546875,0 1.984375,0.03125 l 0,-0.46875 -1.390625,0 0,-5.734375 z m 0,0"
               style="stroke:none" />
          </symbol>
          <symbol
             id="textext-b376745a-25"
             overflow="visible"
             style="overflow:visible">
            <path
               id="path3244"
               d="m 5.15625,-2 c 0,-1.15625 -0.796875,-2.078125 -2.265625,-2.078125 -0.28125,0 -0.8125,0.03125 -1.28125,0.34375 l 0,-1.3125 C 1.890625,-5 2,-4.96875 2.328125,-4.96875 c 1.453125,0 2.375,-1.125 2.375,-1.375 0,-0.078125 -0.015625,-0.1875 -0.140625,-0.1875 -0.03125,0 -0.03125,0 -0.140625,0.046875 -0.578125,0.21875 -1.109375,0.28125 -1.53125,0.28125 -0.75,0 -1.28125,-0.203125 -1.546875,-0.28125 C 1.25,-6.515625 1.25,-6.53125 1.21875,-6.53125 c -0.140625,0 -0.140625,0.109375 -0.140625,0.265625 l 0,2.921875 c 0,0.171875 0,0.296875 0.21875,0.296875 0.125,0 0.15625,-0.03125 0.21875,-0.109375 0.390625,-0.46875 0.921875,-0.5625 1.328125,-0.5625 0.890625,0 0.890625,0.875 0.890625,1.671875 0,0.734375 0,1.734375 -1.1875,1.734375 -0.25,0 -0.875,-0.0625 -1.296875,-0.625 0.359375,-0.015625 0.65625,-0.265625 0.65625,-0.671875 0,-0.53125 -0.4375,-0.671875 -0.671875,-0.671875 -0.140625,0 -0.671875,0.09375 -0.671875,0.703125 0,0.84375 0.78125,1.6875 2.015625,1.6875 1.59375,0 2.578125,-0.890625 2.578125,-2.109375 z m 0,0"
               style="stroke:none" />
          </symbol>
          <symbol
             id="textext-b376745a-26"
             overflow="visible"
             style="overflow:visible">
            <path
               id="path3247"
               d="m 1.984375,-4.78125 c -0.15625,-0.078125 -0.4375,-0.25 -0.4375,-0.59375 0,-0.703125 0.890625,-0.765625 1.296875,-0.765625 0.828125,0 1.328125,0.40625 1.328125,1.09375 0,0.484375 -0.25,0.8125 -0.6875,1.109375 l -1.5,-0.84375 z m 1.9375,1.09375 c 0.6875,-0.359375 1,-0.796875 1,-1.375 0,-1.015625 -0.90625,-1.46875 -2.046875,-1.46875 -1.375,0 -2.078125,0.796875 -2.078125,1.75 0,0.4375 0.1875,1.0625 0.953125,1.5 -0.828125,0.375 -1.265625,0.9375 -1.265625,1.671875 0,1.203125 1.078125,1.71875 2.359375,1.71875 1.59375,0 2.40625,-0.875 2.40625,-1.96875 C 5.25,-2.9375 4.40625,-3.40625 3.921875,-3.6875 z M 2.21875,-3.015625 c 0.34375,0.1875 0.8125,0.453125 1.359375,0.765625 0.4375,0.25 0.8125,0.453125 0.8125,0.9375 0,0.828125 -0.9375,1 -1.515625,1 -0.96875,0 -1.546875,-0.515625 -1.546875,-1.296875 0,-0.765625 0.53125,-1.203125 0.890625,-1.40625 z m 0,0"
               style="stroke:none" />
          </symbol>
          <symbol
             id="textext-b376745a-27"
             overflow="visible"
             style="overflow:visible">
            <path
               id="path3250"
               d="m 5.28125,-3.1875 c 0,-0.953125 -0.015625,-3.34375 -2.421875,-3.34375 -2.40625,0 -2.40625,2.375 -2.40625,3.34375 0,1 0,3.296875 2.40625,3.296875 C 5.25,0.109375 5.28125,-2.1875 5.28125,-3.1875 z M 2.859375,-0.25 C 2.5,-0.25 1.9375,-0.46875 1.8125,-1.203125 1.71875,-1.71875 1.71875,-2.75 1.71875,-3.296875 c 0,-0.71875 0,-1.375 0.078125,-1.890625 0.125,-0.890625 0.828125,-0.984375 1.0625,-0.984375 0.375,0 0.78125,0.1875 0.96875,0.625 C 4,-5.171875 4,-4.109375 4,-3.296875 4,-2.734375 4,-1.828125 3.921875,-1.3125 3.78125,-0.390625 3.15625,-0.25 2.859375,-0.25 z m 0,0"
               style="stroke:none" />
          </symbol>
          <symbol
             id="textext-b376745a-28"
             overflow="visible"
             style="overflow:visible">
            <path
               id="path3253"
               d="M 3.375,-2.5 C 3.375,-3.734375 3.046875,-4.828125 2.578125,-5.65625 1.90625,-6.8125 1,-7.484375 0.8125,-7.484375 c -0.078125,0 -0.171875,0.03125 -0.171875,0.140625 0,0.0625 0,0.078125 0.171875,0.234375 1.25,1.28125 1.59375,3.046875 1.59375,4.609375 0,1.96875 -0.515625,3.53125 -1.609375,4.640625 -0.15625,0.140625 -0.15625,0.15625 -0.15625,0.203125 0,0.109375 0.09375,0.140625 0.171875,0.140625 0.171875,0 0.59375,-0.375 0.765625,-0.546875 C 3.140625,0.40625 3.375,-1.4375 3.375,-2.5 z m 0,0"
               style="stroke:none" />
          </symbol>
          <symbol
             id="textext-b376745a-29"
             overflow="visible"
             style="overflow:visible">
            <path
               id="path3256"
               d="m 1.828125,-3.40625 0,-0.1875 c 0,-1.140625 0.21875,-1.5625 0.28125,-1.71875 0.25,-0.46875 0.78125,-0.828125 1.390625,-0.828125 0.171875,0 0.515625,0.03125 0.75,0.265625 -0.359375,0.046875 -0.546875,0.3125 -0.546875,0.609375 0,0.34375 0.234375,0.625 0.625,0.625 0.390625,0 0.625,-0.265625 0.625,-0.640625 0,-0.625 -0.421875,-1.25 -1.46875,-1.25 -1.359375,0 -3,0.859375 -3,3.375 0,0.78125 0.078125,1.578125 0.5,2.265625 0.46875,0.765625 1.21875,1 1.921875,1 1.375,0 2.34375,-0.8125 2.34375,-2.15625 0,-1.390625 -1.015625,-2.125 -2.21875,-2.125 -0.21875,0 -0.78125,0 -1.203125,0.765625 z M 2.875,-0.3125 c -0.515625,0 -0.78125,-0.390625 -0.859375,-0.5625 -0.15625,-0.3125 -0.15625,-1.03125 -0.15625,-1.21875 0,-1.25 0.53125,-1.71875 1.078125,-1.71875 0.953125,0 0.953125,0.75 0.953125,1.75 0,1 0,1.75 -1.015625,1.75 z m 0,0"
               style="stroke:none" />
          </symbol>
          <symbol
             id="textext-b376745a-30"
             overflow="visible"
             style="overflow:visible">
            <path
               id="path3259"
               d="m 3.515625,-3.515625 c 0.6875,-0.203125 1.40625,-0.765625 1.40625,-1.625 0,-0.765625 -0.75,-1.390625 -2.15625,-1.390625 -1.1875,0 -1.96875,0.640625 -1.96875,1.4375 0,0.421875 0.3125,0.703125 0.6875,0.703125 0.453125,0 0.703125,-0.328125 0.703125,-0.6875 0,-0.578125 -0.546875,-0.6875 -0.578125,-0.703125 0.34375,-0.28125 0.78125,-0.359375 1.09375,-0.359375 0.828125,0 0.859375,0.640625 0.859375,0.96875 0,0.125 -0.015625,1.4375 -1.046875,1.5 -0.40625,0.015625 -0.4375,0.015625 -0.484375,0.03125 -0.09375,0.015625 -0.125,0.109375 -0.125,0.171875 0,0.171875 0.109375,0.171875 0.28125,0.171875 l 0.4375,0 c 1.09375,0 1.09375,0.984375 1.09375,1.5 0,0.46875 0,1.484375 -1.03125,1.484375 -0.265625,0 -0.78125,-0.046875 -1.265625,-0.34375 C 1.75,-0.75 2,-1 2,-1.40625 c 0,-0.453125 -0.3125,-0.75 -0.75,-0.75 -0.421875,0 -0.765625,0.265625 -0.765625,0.765625 0,0.90625 0.96875,1.5 2.25,1.5 1.78125,0 2.515625,-1 2.515625,-1.90625 0,-0.546875 -0.296875,-1.40625 -1.734375,-1.71875 z m 0,0"
               style="stroke:none" />
          </symbol>
        </g>
      </defs>
      <g
         id="textext-b376745a-31">
        <g
           id="g3262"
           style="fill:#000000;fill-opacity:1"
           transform="translate(24.720999,-99.818277)">
          <use
             id="use3264"
             y="134.765"
             x="223.43201"
             xlink:href="#textext-b376745a-1"
             width="531.49603"
             height="744.09448" />
          <use
             id="use3266"
             y="134.765"
             x="228.61754"
             xlink:href="#textext-b376745a-2"
             width="531.49603"
             height="744.09448" />
          <use
             id="use3268"
             y="134.765"
             x="232.31764"
             xlink:href="#textext-b376745a-3"
             width="531.49603"
             height="744.09448" />
        </g>
        <g
           id="g3270"
           style="fill:#000000;fill-opacity:1"
           transform="translate(24.720999,-99.818277)">
          <use
             id="use3272"
             y="134.765"
             x="242.078"
             xlink:href="#textext-b376745a-4"
             width="531.49603"
             height="744.09448" />
          <use
             id="use3274"
             y="134.765"
             x="248.37038"
             xlink:href="#textext-b376745a-5"
             width="531.49603"
             height="744.09448" />
          <use
             id="use3276"
             y="134.765"
             x="248.38034"
             xlink:href="#textext-b376745a-6"
             width="531.49603"
             height="744.09448" />
          <use
             id="use3278"
             y="134.765"
             x="254.66277"
             xlink:href="#textext-b376745a-7"
             width="531.49603"
             height="744.09448" />
          <use
             id="use3280"
             y="134.765"
             x="254.67271"
             xlink:href="#textext-b376745a-8"
             width="531.49603"
             height="744.09448" />
        </g>
        <g
           id="g3282"
           style="fill:#000000;fill-opacity:1"
           transform="translate(24.720999,-99.818277)">
          <use
             id="use3284"
             y="134.765"
             x="257.80096"
             xlink:href="#textext-b376745a-9"
             width="531.49603"
             height="744.09448" />
          <use
             id="use3286"
             y="134.765"
             x="264.11328"
             xlink:href="#textext-b376745a-10"
             width="531.49603"
             height="744.09448" />
          <use
             id="use3288"
             y="134.765"
             x="269.29883"
             xlink:href="#textext-b376745a-7"
             width="531.49603"
             height="744.09448" />
          <use
             id="use3290"
             y="134.765"
             x="269.30878"
             xlink:href="#textext-b376745a-6"
             width="531.49603"
             height="744.09448" />
          <use
             id="use3292"
             y="134.765"
             x="275.59119"
             xlink:href="#textext-b376745a-5"
             width="531.49603"
             height="744.09448" />
          <use
             id="use3294"
             y="134.765"
             x="275.60117"
             xlink:href="#textext-b376745a-11"
             width="531.49603"
             height="744.09448" />
          <use
             id="use3296"
             y="134.765"
             x="279.25046"
             xlink:href="#textext-b376745a-12"
             width="531.49603"
             height="744.09448" />
          <use
             id="use3298"
             y="134.765"
             x="285.54285"
             xlink:href="#textext-b376745a-7"
             width="531.49603"
             height="744.09448" />
          <use
             id="use3300"
             y="134.765"
             x="285.5528"
             xlink:href="#textext-b376745a-1"
             width="531.49603"
             height="744.09448" />
          <use
             id="use3302"
             y="134.765"
             x="290.73834"
             xlink:href="#textext-b376745a-2"
             width="531.49603"
             height="744.09448" />
          <use
             id="use3304"
             y="134.765"
             x="294.43845"
             xlink:href="#textext-b376745a-13"
             width="531.49603"
             height="744.09448" />
          <use
             id="use3306"
             y="134.765"
             x="299.19559"
             xlink:href="#textext-b376745a-14"
             width="531.49603"
             height="744.09448" />
          <use
             id="use3308"
             y="134.765"
             x="302.20728"
             xlink:href="#textext-b376745a-7"
             width="531.49603"
             height="744.09448" />
          <use
             id="use3310"
             y="134.765"
             x="302.21722"
             xlink:href="#textext-b376745a-15"
             width="531.49603"
             height="744.09448" />
        </g>
        <g
           id="g3312"
           style="fill:#000000;fill-opacity:1"
           transform="translate(24.720999,-99.818277)">
          <use
             id="use3314"
             y="134.765"
             x="307.78799"
             xlink:href="#textext-b376745a-23"
             width="531.49603"
             height="744.09448" />
          <use
             id="use3316"
             y="134.765"
             x="312.24329"
             xlink:href="#textext-b376745a-24"
             width="531.49603"
             height="744.09448" />
          <use
             id="use3318"
             y="134.765"
             x="317.97177"
             xlink:href="#textext-b376745a-25"
             width="531.49603"
             height="744.09448" />
          <use
             id="use3320"
             y="134.765"
             x="323.70026"
             xlink:href="#textext-b376745a-26"
             width="531.49603"
             height="744.09448" />
          <use
             id="use3322"
             y="134.765"
             x="329.42877"
             xlink:href="#textext-b376745a-27"
             width="531.49603"
             height="744.09448" />
          <use
             id="use3324"
             y="134.765"
             x="335.15726"
             xlink:href="#textext-b376745a-28"
             width="531.49603"
             height="744.09448" />
        </g>
        <g
           id="g3326"
           style="fill:#000000;fill-opacity:1"
           transform="translate(-53.429254,-58.31071)">
          <use
             id="use3328"
             y="146.72"
             x="238.37601"
             xlink:href="#textext-b376745a-16"
             width="531.49603"
             height="744.09448" />
          <use
             id="use3330"
             y="146.72"
             x="244.66838"
             xlink:href="#textext-b376745a-13"
             width="531.49603"
             height="744.09448" />
          <use
             id="use3332"
             y="146.72"
             x="249.42552"
             xlink:href="#textext-b376745a-17"
             width="531.49603"
             height="744.09448" />
          <use
             id="use3334"
             y="146.72"
             x="253.6935"
             xlink:href="#textext-b376745a-7"
             width="531.49603"
             height="744.09448" />
          <use
             id="use3336"
             y="146.72"
             x="253.70346"
             xlink:href="#textext-b376745a-15"
             width="531.49603"
             height="744.09448" />
          <use
             id="use3338"
             y="146.72"
             x="256.5657"
             xlink:href="#textext-b376745a-18"
             width="531.49603"
             height="744.09448" />
          <use
             id="use3340"
             y="146.72"
             x="261.75125"
             xlink:href="#textext-b376745a-7"
             width="531.49603"
             height="744.09448" />
          <use
             id="use3342"
             y="146.72"
             x="261.7612"
             xlink:href="#textext-b376745a-1"
             width="531.49603"
             height="744.09448" />
          <use
             id="use3344"
             y="146.72"
             x="266.94675"
             xlink:href="#textext-b376745a-2"
             width="531.49603"
             height="744.09448" />
          <use
             id="use3346"
             y="146.72"
             x="270.64685"
             xlink:href="#textext-b376745a-13"
             width="531.49603"
             height="744.09448" />
          <use
             id="use3348"
             y="146.72"
             x="275.40399"
             xlink:href="#textext-b376745a-14"
             width="531.49603"
             height="744.09448" />
          <use
             id="use3350"
             y="146.72"
             x="278.41568"
             xlink:href="#textext-b376745a-7"
             width="531.49603"
             height="744.09448" />
          <use
             id="use3352"
             y="146.72"
             x="278.42566"
             xlink:href="#textext-b376745a-15"
             width="531.49603"
             height="744.09448" />
        </g>
        <g
           id="g3354"
           style="fill:#000000;fill-opacity:1"
           transform="translate(-53.429254,-58.31071)">
          <use
             id="use3356"
             y="146.72"
             x="283.99899"
             xlink:href="#textext-b376745a-23"
             width="531.49603"
             height="744.09448" />
          <use
             id="use3358"
             y="146.72"
             x="288.45428"
             xlink:href="#textext-b376745a-24"
             width="531.49603"
             height="744.09448" />
          <use
             id="use3360"
             y="146.72"
             x="294.18277"
             xlink:href="#textext-b376745a-25"
             width="531.49603"
             height="744.09448" />
          <use
             id="use3362"
             y="146.72"
             x="299.91125"
             xlink:href="#textext-b376745a-26"
             width="531.49603"
             height="744.09448" />
          <use
             id="use3364"
             y="146.72"
             x="305.63977"
             xlink:href="#textext-b376745a-25"
             width="531.49603"
             height="744.09448" />
          <use
             id="use3366"
             y="146.72"
             x="311.36826"
             xlink:href="#textext-b376745a-28"
             width="531.49603"
             height="744.09448" />
        </g>
        <g
           id="g3368"
           style="fill:#000000;fill-opacity:1"
           transform="translate(113.23812,-71.867386)">
          <use
             id="use3370"
             y="158.675"
             x="238.37601"
             xlink:href="#textext-b376745a-19"
             width="531.49603"
             height="744.09448" />
          <use
             id="use3372"
             y="158.675"
             x="244.85767"
             xlink:href="#textext-b376745a-12"
             width="531.49603"
             height="744.09448" />
          <use
             id="use3374"
             y="158.675"
             x="251.15004"
             xlink:href="#textext-b376745a-7"
             width="531.49603"
             height="744.09448" />
          <use
             id="use3376"
             y="158.675"
             x="251.16"
             xlink:href="#textext-b376745a-15"
             width="531.49603"
             height="744.09448" />
          <use
             id="use3378"
             y="158.675"
             x="254.02226"
             xlink:href="#textext-b376745a-20"
             width="531.49603"
             height="744.09448" />
          <use
             id="use3380"
             y="158.675"
             x="255.00955"
             xlink:href="#textext-b376745a-21"
             width="531.49603"
             height="744.09448" />
        </g>
        <g
           id="g3382"
           style="fill:#000000;fill-opacity:1"
           transform="translate(113.23812,-71.867386)">
          <use
             id="use3384"
             y="158.675"
             x="264.02173"
             xlink:href="#textext-b376745a-9"
             width="531.49603"
             height="744.09448" />
          <use
             id="use3386"
             y="158.675"
             x="270.33401"
             xlink:href="#textext-b376745a-10"
             width="531.49603"
             height="744.09448" />
          <use
             id="use3388"
             y="158.675"
             x="275.51956"
             xlink:href="#textext-b376745a-7"
             width="531.49603"
             height="744.09448" />
          <use
             id="use3390"
             y="158.675"
             x="275.52951"
             xlink:href="#textext-b376745a-6"
             width="531.49603"
             height="744.09448" />
          <use
             id="use3392"
             y="158.675"
             x="281.81195"
             xlink:href="#textext-b376745a-5"
             width="531.49603"
             height="744.09448" />
          <use
             id="use3394"
             y="158.675"
             x="281.8219"
             xlink:href="#textext-b376745a-11"
             width="531.49603"
             height="744.09448" />
          <use
             id="use3396"
             y="158.675"
             x="285.47119"
             xlink:href="#textext-b376745a-12"
             width="531.49603"
             height="744.09448" />
          <use
             id="use3398"
             y="158.675"
             x="291.76358"
             xlink:href="#textext-b376745a-7"
             width="531.49603"
             height="744.09448" />
          <use
             id="use3400"
             y="158.675"
             x="291.77353"
             xlink:href="#textext-b376745a-1"
             width="531.49603"
             height="744.09448" />
          <use
             id="use3402"
             y="158.675"
             x="296.95908"
             xlink:href="#textext-b376745a-2"
             width="531.49603"
             height="744.09448" />
          <use
             id="use3404"
             y="158.675"
             x="300.65918"
             xlink:href="#textext-b376745a-13"
             width="531.49603"
             height="744.09448" />
          <use
             id="use3406"
             y="158.675"
             x="305.41632"
             xlink:href="#textext-b376745a-14"
             width="531.49603"
             height="744.09448" />
          <use
             id="use3408"
             y="158.675"
             x="308.42801"
             xlink:href="#textext-b376745a-7"
             width="531.49603"
             height="744.09448" />
          <use
             id="use3410"
             y="158.675"
             x="308.43799"
             xlink:href="#textext-b376745a-15"
             width="531.49603"
             height="744.09448" />
        </g>
        <g
           id="g3412"
           style="fill:#000000;fill-opacity:1"
           transform="translate(-123.60499,-30.166335)">
          <use
             id="use3414"
             y="170.63"
             x="238.37601"
             xlink:href="#textext-b376745a-12"
             width="531.49603"
             height="744.09448" />
          <use
             id="use3416"
             y="170.63"
             x="244.66838"
             xlink:href="#textext-b376745a-7"
             width="531.49603"
             height="744.09448" />
          <use
             id="use3418"
             y="170.63"
             x="244.67834"
             xlink:href="#textext-b376745a-15"
             width="531.49603"
             height="744.09448" />
          <use
             id="use3420"
             y="170.63"
             x="247.54059"
             xlink:href="#textext-b376745a-15"
             width="531.49603"
             height="744.09448" />
          <use
             id="use3422"
             y="170.63"
             x="250.40285"
             xlink:href="#textext-b376745a-12"
             width="531.49603"
             height="744.09448" />
          <use
             id="use3424"
             y="170.63"
             x="256.69522"
             xlink:href="#textext-b376745a-7"
             width="531.49603"
             height="744.09448" />
          <use
             id="use3426"
             y="170.63"
             x="256.7052"
             xlink:href="#textext-b376745a-15"
             width="531.49603"
             height="744.09448" />
          <use
             id="use3428"
             y="170.63"
             x="259.56744"
             xlink:href="#textext-b376745a-20"
             width="531.49603"
             height="744.09448" />
          <use
             id="use3430"
             y="170.63"
             x="260.55475"
             xlink:href="#textext-b376745a-21"
             width="531.49603"
             height="744.09448" />
        </g>
        <g
           id="g3432"
           style="fill:#000000;fill-opacity:1"
           transform="translate(-123.60499,-30.166335)">
          <use
             id="use3434"
             y="170.63"
             x="269.56689"
             xlink:href="#textext-b376745a-9"
             width="531.49603"
             height="744.09448" />
          <use
             id="use3436"
             y="170.63"
             x="275.87921"
             xlink:href="#textext-b376745a-10"
             width="531.49603"
             height="744.09448" />
          <use
             id="use3438"
             y="170.63"
             x="281.06476"
             xlink:href="#textext-b376745a-7"
             width="531.49603"
             height="744.09448" />
          <use
             id="use3440"
             y="170.63"
             x="281.07471"
             xlink:href="#textext-b376745a-6"
             width="531.49603"
             height="744.09448" />
          <use
             id="use3442"
             y="170.63"
             x="287.35712"
             xlink:href="#textext-b376745a-5"
             width="531.49603"
             height="744.09448" />
          <use
             id="use3444"
             y="170.63"
             x="287.3671"
             xlink:href="#textext-b376745a-11"
             width="531.49603"
             height="744.09448" />
          <use
             id="use3446"
             y="170.63"
             x="291.01639"
             xlink:href="#textext-b376745a-12"
             width="531.49603"
             height="744.09448" />
          <use
             id="use3448"
             y="170.63"
             x="297.30878"
             xlink:href="#textext-b376745a-7"
             width="531.49603"
             height="744.09448" />
          <use
             id="use3450"
             y="170.63"
             x="297.31873"
             xlink:href="#textext-b376745a-1"
             width="531.49603"
             height="744.09448" />
          <use
             id="use3452"
             y="170.63"
             x="302.50427"
             xlink:href="#textext-b376745a-2"
             width="531.49603"
             height="744.09448" />
          <use
             id="use3454"
             y="170.63"
             x="306.20438"
             xlink:href="#textext-b376745a-13"
             width="531.49603"
             height="744.09448" />
          <use
             id="use3456"
             y="170.63"
             x="310.96152"
             xlink:href="#textext-b376745a-14"
             width="531.49603"
             height="744.09448" />
          <use
             id="use3458"
             y="170.63"
             x="313.97321"
             xlink:href="#textext-b376745a-7"
             width="531.49603"
             height="744.09448" />
          <use
             id="use3460"
             y="170.63"
             x="313.98315"
             xlink:href="#textext-b376745a-15"
             width="531.49603"
             height="744.09448" />
        </g>
        <g
           id="g3462"
           style="fill:#000000;fill-opacity:1"
           transform="translate(-123.60499,-30.166335)">
          <use
             id="use3464"
             y="170.63"
             x="319.56"
             xlink:href="#textext-b376745a-23"
             width="531.49603"
             height="744.09448" />
          <use
             id="use3466"
             y="170.63"
             x="324.01529"
             xlink:href="#textext-b376745a-24"
             width="531.49603"
             height="744.09448" />
          <use
             id="use3468"
             y="170.63"
             x="329.74377"
             xlink:href="#textext-b376745a-29"
             width="531.49603"
             height="744.09448" />
          <use
             id="use3470"
             y="170.63"
             x="335.47226"
             xlink:href="#textext-b376745a-30"
             width="531.49603"
             height="744.09448" />
          <use
             id="use3472"
             y="170.63"
             x="341.20078"
             xlink:href="#textext-b376745a-27"
             width="531.49603"
             height="744.09448" />
          <use
             id="use3474"
             y="170.63"
             x="346.92926"
             xlink:href="#textext-b376745a-28"
             width="531.49603"
             height="744.09448" />
        </g>
        <g
           id="g3476"
           style="fill:#000000;fill-opacity:1"
           transform="translate(13.556677,-42.12811)">
          <use
             id="use3478"
             y="182.586"
             x="238.37601"
             xlink:href="#textext-b376745a-19"
             width="531.49603"
             height="744.09448" />
          <use
             id="use3480"
             y="182.586"
             x="244.85767"
             xlink:href="#textext-b376745a-12"
             width="531.49603"
             height="744.09448" />
          <use
             id="use3482"
             y="182.586"
             x="251.15004"
             xlink:href="#textext-b376745a-7"
             width="531.49603"
             height="744.09448" />
          <use
             id="use3484"
             y="182.586"
             x="251.16"
             xlink:href="#textext-b376745a-15"
             width="531.49603"
             height="744.09448" />
          <use
             id="use3486"
             y="182.586"
             x="254.02226"
             xlink:href="#textext-b376745a-20"
             width="531.49603"
             height="744.09448" />
          <use
             id="use3488"
             y="182.586"
             x="255.00955"
             xlink:href="#textext-b376745a-21"
             width="531.49603"
             height="744.09448" />
        </g>
        <g
           id="g3490"
           style="fill:#000000;fill-opacity:1"
           transform="translate(13.556677,-42.12811)">
          <use
             id="use3492"
             y="182.586"
             x="264.02173"
             xlink:href="#textext-b376745a-16"
             width="531.49603"
             height="744.09448" />
          <use
             id="use3494"
             y="182.586"
             x="270.31412"
             xlink:href="#textext-b376745a-13"
             width="531.49603"
             height="744.09448" />
          <use
             id="use3496"
             y="182.586"
             x="275.07126"
             xlink:href="#textext-b376745a-17"
             width="531.49603"
             height="744.09448" />
          <use
             id="use3498"
             y="182.586"
             x="279.33923"
             xlink:href="#textext-b376745a-7"
             width="531.49603"
             height="744.09448" />
          <use
             id="use3500"
             y="182.586"
             x="279.34918"
             xlink:href="#textext-b376745a-15"
             width="531.49603"
             height="744.09448" />
          <use
             id="use3502"
             y="182.586"
             x="282.21143"
             xlink:href="#textext-b376745a-18"
             width="531.49603"
             height="744.09448" />
          <use
             id="use3504"
             y="182.586"
             x="287.39697"
             xlink:href="#textext-b376745a-7"
             width="531.49603"
             height="744.09448" />
          <use
             id="use3506"
             y="182.586"
             x="287.40692"
             xlink:href="#textext-b376745a-1"
             width="531.49603"
             height="744.09448" />
          <use
             id="use3508"
             y="182.586"
             x="292.59247"
             xlink:href="#textext-b376745a-2"
             width="531.49603"
             height="744.09448" />
          <use
             id="use3510"
             y="182.586"
             x="296.29257"
             xlink:href="#textext-b376745a-13"
             width="531.49603"
             height="744.09448" />
          <use
             id="use3512"
             y="182.586"
             x="301.04971"
             xlink:href="#textext-b376745a-14"
             width="531.49603"
             height="744.09448" />
          <use
             id="use3514"
             y="182.586"
             x="304.0614"
             xlink:href="#textext-b376745a-7"
             width="531.49603"
             height="744.09448" />
          <use
             id="use3516"
             y="182.586"
             x="304.07138"
             xlink:href="#textext-b376745a-15"
             width="531.49603"
             height="744.09448" />
        </g>
      </g>
    </g>
    <path
       style="fill:none;stroke:#000000;stroke-width:1.375;stroke-linecap:butt;stroke-linejoin:miter;stroke-opacity:1;stroke-miterlimit:4;stroke-dasharray:none"
       d="m 168.57143,126.95162 0,-20.71428 207.85714,0 0,20.71429"
       id="path3716"
       transform="translate(0,308.2664)"
       sodipodi:nodetypes="cccc" />
    <path
       style="fill:none;stroke:#000000;stroke-width:1.375;stroke-linecap:butt;stroke-linejoin:miter;stroke-miterlimit:4;stroke-opacity:1;stroke-dasharray:none"
       d="m 272.64793,390.21802 0,23.57143"
       id="path4490" />
    <path
       sodipodi:nodetypes="cccc"
       id="path4492"
       d="m 94.876006,502.36086 0,-20.71428 145.227684,0 0,20.71429"
       style="fill:none;stroke:#000000;stroke-width:1.375;stroke-linecap:butt;stroke-linejoin:miter;stroke-miterlimit:4;stroke-opacity:1;stroke-dasharray:none" />
    <path
       id="path4494"
       d="m 168.64793,457.36086 0,23.57143"
       style="fill:none;stroke:#000000;stroke-width:1.375;stroke-linecap:butt;stroke-linejoin:miter;stroke-miterlimit:4;stroke-opacity:1;stroke-dasharray:none" />
  </g>
</svg>
